<svg id="描画レイヤー" xmlns="http://www.w3.org/2000/svg" viewBox="0 0 406.41 422.27"><defs><style>.cls-1{fill:#666b68;}</style></defs><title>cricket-icon</title><path class="cls-1" d="M987.72,841.51c0-1.52-.06-3-.17-4.45l0-.14a55.71,55.71,0,0,0-1.37-8.3l0-.18-.07-.27,0-.11c-.29-1.07-.6-2.11-1-3.2l0-.14,0-.12,0-.13-.07-.18-.05-.1h0l-.08-.25a2.77,2.77,0,0,0-.1-.26,55.17,55.17,0,0,0-4.3-9,50,50,0,0,0-7.53-9.6l-.12-.11-.33-.34-.12-.1c-.16-.16-.29-.29-.44-.42l-.11-.11a54,54,0,0,0-8.27-6.32l-.09-.06a1,1,0,0,0-.17-.1A51.34,51.34,0,0,0,949,791.66l-.1,0a56.72,56.72,0,0,0-9.74-1.39,51.87,51.87,0,0,0-14.36,1.36,4,4,0,0,0-3,3.94,3.55,3.55,0,0,0,.15,1,3.8,3.8,0,0,0,.71,1.42c-.39,1.2-.72,2.45-1,3.7l0,.1c0,.11,0,.16,0,.21l-.06.29a56.05,56.05,0,0,0-1.15,10.61v.19A51.17,51.17,0,0,0,929,841.41a50.24,50.24,0,0,0,12.29,12.77,49.36,49.36,0,0,0,14.36,7.36l.15.05A50.63,50.63,0,0,0,963,863.3l.31.05c1.59.23,2.85.38,4.09.49h.13l.14,0h.2l.32,0h.11a1.32,1.32,0,0,0,.28,0l.32,0H969l.25,0h.17c.64,0,1.28,0,1.92,0h1.6c.77,0,1.54-.07,2.31-.13a5.94,5.94,0,0,0,1.33-.25,3.53,3.53,0,0,0,.79.63,4,4,0,0,0,3.11.4,3.91,3.91,0,0,0,2.4-1.85c.21-.44.4-.89.59-1.33a3.76,3.76,0,0,0,.32-.67,4.29,4.29,0,0,0,.23-.63l.1-.23.09-.22.09-.23c.32-.82.59-1.56.84-2.3l0-.12c.08-.23.15-.46.22-.7l.06-.16,0-.11A47.53,47.53,0,0,0,987,849.5c0-.08,0-.17,0-.26v-.11l0-.19,0-.13.07-.53.07-.46c.12-.94.22-1.79.29-2.64,0-.06,0-.12,0-.18v-.15l0-.24v-.1a.57.57,0,0,0,0-.13l0-.75v-.4c0-.23,0-.38,0-.52a.86.86,0,0,0,0-.15v-.49a.76.76,0,0,0,0-.15v-.41Z" transform="translate(-861.49 -790.17)"/><path class="cls-1" d="M965.58,880.32a4.06,4.06,0,0,0-1.18-2.85,4.22,4.22,0,0,0-2.85-1.18l-.42,0-.43,0a3.68,3.68,0,0,0-.58-.07l-.23,0-.24,0-.16,0-.5,0c-.73-.1-1.45-.23-2.17-.36l-.1,0h-.11l-.21,0-.36-.08-.21,0c-.8-.17-1.59-.36-2.39-.56l-.27-.07-.26-.07-.39-.11c-.77-.21-1.55-.45-2.32-.69l-2-.69c-.78-.29-1.55-.59-2.32-.9a64,64,0,0,1-12.73-7.5,66.41,66.41,0,0,1-6.31-5.69l-.11-.09-.22-.24c-1.51-1.58-3-3.29-4.44-5.09l-.34-.45a70.9,70.9,0,0,1-8-13.77l-.09-.22-.18-.45-.13-.32a67.06,67.06,0,0,1-3.84-14.39c-.21-1.74-.36-3.49-.43-5.21,0-.84-.05-1.68-.05-2.52,0-1.78.07-3.49.21-5.09,0-.37.07-.73.11-1.1a4.28,4.28,0,0,0,.09-.87.59.59,0,0,1,0-.13l0-.19.06-.53.08-.53a4.06,4.06,0,0,0-3-3.89,4.07,4.07,0,0,0-3.11.4,3.91,3.91,0,0,0-1.85,2.4,2.37,2.37,0,0,0-.77-.11,4,4,0,0,0-2.85,1.18,53.75,53.75,0,0,0-6.84,10.24,50.44,50.44,0,0,0-4.11,11.26l0,.11,0,.14,0,.15a52.63,52.63,0,0,0-1.25,11.29,48.46,48.46,0,0,0,.43,6.49,51.05,51.05,0,0,0,2.46,10.45,50.4,50.4,0,0,0,4.41,9.37,50.82,50.82,0,0,0,13.7,14.9,50,50,0,0,0,17.63,8.25l.17,0a53.19,53.19,0,0,0,12.13,1.47h.17a54.41,54.41,0,0,0,11.84-1.42,50.42,50.42,0,0,0,9.35-3.27l.09,0,.13,0,1.06-.5a3.92,3.92,0,0,0,1.85-2.41l0-.11.14,0h.35a4.06,4.06,0,0,0,3.84-4Z" transform="translate(-861.49 -790.17)"/><path class="cls-1" d="M1267.91,904h0v-.17a39.67,39.67,0,0,0-2.73-13.47l-.07-.21,0-.14a87.11,87.11,0,0,0-6.33-13,127.35,127.35,0,0,0-9.43-13.85,182.06,182.06,0,0,0-21.13-22.73l-.13-.12c-4.44-4-9-7.83-13.55-11.27l-.12-.07a152.3,152.3,0,0,0-22.65-14.31l-.15-.08a91,91,0,0,0-12.35-5.19l-.23-.07-.22-.07c-1.43-.47-2.7-.85-3.88-1.17l-.12,0-.12,0-.39-.09-.39-.1-.15,0c-.79-.19-1.58-.37-2.38-.52l-.11,0-.34-.06-.11,0-.19,0-.18,0c-.91-.15-1.72-.26-2.48-.35l-.22,0c-.54,0-1.07-.09-1.61-.12a3.92,3.92,0,0,0-1.79-.45,2.68,2.68,0,0,0-.4,0,3.91,3.91,0,0,0-2.12.88,4.32,4.32,0,0,0-1,.9,2.51,2.51,0,0,0-.27.37l-38.13,38.28-.13.13L1107,862l-35.61,35.77-47.64,47.84-47.14,47.34-18.21,18.29-.11.11a3.81,3.81,0,0,0-.94,2.58c0,.13,0,.25,0,.36a4,4,0,0,0,.92,2.22v0q0,.33,0,.66a29.6,29.6,0,0,0,.41,3.06,49.25,49.25,0,0,0,1.74,6.79,76.64,76.64,0,0,0,5.84,12.82,134.2,134.2,0,0,0,17.53,24.19,194.59,194.59,0,0,0,22.84,21.85,165.32,165.32,0,0,0,24.28,16.45,93.25,93.25,0,0,0,15.61,7l.1,0c1.11.37,2.79.91,4.48,1.37l.23.06.18,0,.14,0,.25.06.58.14.1,0a.8.8,0,0,0,0,.28c0,.11,0,.22,0,.33a4.26,4.26,0,0,0,1.44,2.74l.65.66.64.64a3.94,3.94,0,0,0,3,.92,4.31,4.31,0,0,0,2.74-1.44l90.31-90.69,94.44-94.84,9.26-9.3,9.37-9.42a4,4,0,0,0,3.23-3.23l0-.17,0-.1,0-.14v-.13s0-.07,0-.11l0-.12v-.17l0-.19v-.12c.07-.82.12-1.65.14-2.54Z" transform="translate(-861.49 -790.17)"/><path class="cls-1" d="M992.11,1125.2c0-.12,0-.24,0-.36a4.05,4.05,0,0,0-1.29-2.62l-.17-.13-.15-.1-.21-.15-.21-.15-.1-.06-.09-.07c-1.11-.77-2.15-1.52-3.2-2.29l-.28-.21-.57-.43q-1.85-1.38-3.66-2.82l-.17-.11-1-.82-.29-.24c-1.05-.85-2.09-1.72-3.13-2.6l-.1-.09-.1-.08-1.54-1.34c-1.22-1.08-2.56-2.29-4-3.61l-.1-.07-.12-.13-.3-.29-.2-.18-1.73-1.66c-.89-.87-1.77-1.73-2.62-2.6l-.08-.08-.56-.58c-.74-.75-1.47-1.52-2.19-2.28l-.12-.13-.14-.16-.14-.14-.08-.08-.15-.17-.11-.13-.11-.12L963,1098l-.07-.09c-.88-1-1.75-1.94-2.6-2.93l-.27-.32-.28-.31-.06-.08-.08-.09c-.66-.78-1.3-1.55-1.94-2.34l-.09-.11-.08-.08-.07-.1-.18-.23-.1-.12-.11-.12-.09-.12-.18-.23-.17-.21-.26-.33c-.56-.71-1.09-1.39-1.6-2.07l-.34-.45-.29-.39-.92-1.24-.07-.09h0l-.86-1.19a4,4,0,0,0-7.3,2.35,3.79,3.79,0,0,0,.25,1.38,4.38,4.38,0,0,0-1.41,1l-27.11,27.22L889.6,1144a7,7,0,0,0-.58.52l-14.92,15-5,5-6.63,6.66a3.9,3.9,0,0,0-1,2.66c0,.12,0,.24,0,.35a4,4,0,0,0,4.38,3.65,4.2,4.2,0,0,0,.94-.21c2.76,3.35,5.91,6.86,9.37,10.41l.12.12.51.52.07.08c.77.77,1.53,1.52,2.29,2.26l.13.14a174.23,174.23,0,0,0,16.38,14l.21.16.33.25.33.24.08.06.17.13c.92.67,1.85,1.34,2.78,2l.14.1.13.09.32.23.13.08.17.11.49.35.1.06.1.07c.72.49,1.45,1,2.18,1.45l.29.2.3.2.15.09.23.15.12.08.2.12.25.16a3.77,3.77,0,0,0,.85.55,3,3,0,0,0,1.61.42,4.41,4.41,0,0,0,1.58-.27,4,4,0,0,0,2.23-2.06,3.87,3.87,0,0,0,.37-1.39l4.57-4.58,9.11-9.15a7.84,7.84,0,0,0,.62-.56l.19-.19,37.88-38,25.21-25.32a3.61,3.61,0,0,0,.92-2.17,3.55,3.55,0,0,0,1.13-.92,4,4,0,0,0,.94-2.59Zm-86,77.53,5-5-4.94,5Z" transform="translate(-861.49 -790.17)"/></svg>