<svg xmlns="http://www.w3.org/2000/svg" viewBox="0 0 718.07 718.07"><defs><style>.cls-1{fill:#fff;}.cls-2{fill:#590c00;}.cls-3{fill:#666b68;}.cls-4{fill:#42594d;}</style></defs><title>favicon-sachiko</title><g id="描画レイヤー"><path class="cls-1" d="M721.87,1104.27c33.56,195.27,219.33,326.56,414.6,293s326.56-219.33,293-414.6-219.33-326.56-414.6-293-326.56,219.33-293,414.6Z" transform="translate(-716.64 -684.44)"/><path class="cls-1" d="M1313.78,1308.52a4,4,0,1,0,4-4,4,4,0,0,0-4,4Z" transform="translate(-716.64 -684.44)"/></g><g id="描画レイヤー-2" data-name="描画レイヤー"><path class="cls-2" d="M1064.21,816.84a4.19,4.19,0,0,0-2.28,2.25,4.05,4.05,0,0,0,0,3.15l0,.09,0,.15,0,.09.15.4.06.14.1.26.05.12.25.64.14.35c1.2,3.08,2.34,6.25,3.38,9.41l.22.67.22.68.05.12c.27.88.52,1.68.77,2.48l.07.23c.85,2.83,1.66,5.71,2.39,8.58l.16.61,0,.16.17.73.09.35.32,1.38c.78,3.43,1.47,6.83,2.06,10.1.06.32.11.64.17,1l0,.13.43,2.57c.59,3.76,1.1,7.64,1.51,11.53l.06.53c.07.72.14,1.42.2,2.11l0,.22,0,.21,0,.45c.33,3.85.56,7.67.7,11.35,0,.27,0,.53,0,.79.13,4.1.15,8.28.06,12.44v.85l0,.48c0,.49,0,1-.05,1.43l-.12,2.62a.49.49,0,0,0,0,.12v.28c-.21,4-.52,8-.93,12l-.06.54,0,.49c-.06.56-.13,1.13-.19,1.7-.45,3.81-1,7.71-1.63,11.59l-.09.55-.09.54c-.18,1.06-.36,2.07-.54,3.09-.69,3.78-1.51,7.72-2.43,11.71l-.11.43c-.34,1.46-.69,2.89-1,4.31-.71,2.82-1.52,5.78-2.39,8.78a4.43,4.43,0,0,0-.3,1c-.18.6-.37,1.21-.56,1.82l-.11.37-.11.37c-2.1,6.68-4.52,13.44-7.21,20.09l-.36.87-.34.84c-.37.88-.73,1.74-1.1,2.6s-.76,1.77-1.13,2.6c-1.81.4-3.68.9-5.55,1.46a83.45,83.45,0,0,0-37,23.14,88,88,0,0,0-7.08,8.75c-1.11,1.54-2.24,3.27-3.45,5.28-.55.91-1.07,1.84-1.59,2.77-.32.58-.62,1.14-.89,1.7-.52,1-1,2-1.49,3.06a88.9,88.9,0,0,0-4.29,11.13,85.27,85.27,0,0,0-3,14.28,83.46,83.46,0,0,0,31.66,76.15,86.67,86.67,0,0,0,12.42,8.07,84.48,84.48,0,0,0,14.17,5.88,81.28,81.28,0,0,0,14.26,3.07,84.08,84.08,0,0,0,10.77.7c1.52,0,3.07,0,4.62-.13a86.76,86.76,0,0,0,14.83-2.17,85.64,85.64,0,0,0,13.93-4.67,78.11,78.11,0,0,0,10.89-5.69l.37-.24.17-.1.21-.14.24-.15.15-.1.29-.19.1-.07.32-.21.09-.06.32-.21.09-.06.31-.21.11-.07.28-.2.16-.1.22-.16.22-.15.15-.11.3-.21a87.55,87.55,0,0,0,11-9.26,83.77,83.77,0,0,0,17.21-25.17,85.12,85.12,0,0,0,5-15.06,86.7,86.7,0,0,0,2.08-15.63,83.73,83.73,0,0,0-8.58-40.41c2.7-4.38,5.21-8.72,7.47-12.9l0-.11c4.32-7.94,8.39-16.34,12.09-25l.09-.19c.34-.8.67-1.6,1-2.4l0-.1c.34-.81.67-1.62,1-2.43l0-.12.62-1.53,0-.16c2-5.18,4-10.54,5.82-15.94a.87.87,0,0,0,.06-.16l.18-.54c.47-1.44.94-2.87,1.39-4.31l0-.11,0-.16c.22-.69.41-1.29.59-1.89l.06-.18,0-.19c0-.1.06-.2.1-.31l.26-.85.22-.76.54-1.8,0-.13c1.85-6.33,3.49-12.57,4.87-18.53l0-.14c.2-.86.4-1.72.58-2.58l0-.14c.2-.86.39-1.72.58-2.59.11-.51.2-.94.28-1.38l.23-1.06,0-.16c1.2-5.94,2.23-11.79,3-17.41l.08-.53.09-.58,0-.36.31-2.23,0-.16v-.13l.06-.41,0-.14c.12-.91.24-1.81.35-2.72v-.11c.08-.55.14-1.1.21-1.65,0,0,0-.1,0-.15.64-5.37,1.16-10.83,1.56-16.22l.15-1.22v-.16c.63-5.37,1.15-10.91,1.54-16.48l0-.24v-.38l0-.21v-.33l0-.26,0-.35,0-.27,0-.48v-.34l0-.68v-.3a3.35,3.35,0,0,1-.38-1.72c0-1,.23-2,.27-3,0-.84.09-1.67.08-2.51,0-.33,0-.67,0-1l0,.8c0-.52,0-1,0-1.56a34,34,0,0,0-.46-4q-.07-.41-.12-.81a4.16,4.16,0,0,0-2.32-1.21,3.56,3.56,0,0,0-.65,0h-.1l-1-.86a4.52,4.52,0,0,0-1.32-1.79,4.14,4.14,0,0,0-2-.86l-1.33-1-.1-.07-.2-.16-.55-.42-.33-.25-.19-.15-.08-.06-.09-.07-.09-.07-.37-.28-.09-.07-1.33-1-.11-.07-.07-.06-.08-.06-.09-.06-.58-.43-.24-.17-.18-.14-.2-.14-1.66-1.18-.17-.12-.42-.29c-1.35-1-2.82-2-4.24-2.9l-.92-.59c-1.62-1-3.26-2.08-5.16-3.23l-.38-.23-1-.6-2.16-1.26-1.08-.62c-3.12-1.79-6.42-3.54-9.8-5.19l-.83-.41c-3.84-1.88-7.8-3.63-11.75-5.21-2.41-1-4.91-1.92-7.45-2.8l-.26-.09c-4-1.41-7.88-2.65-11.66-3.71a175.33,175.33,0,0,0-18-4.09c-4.65-.82-9.33-1.45-13.91-1.88l-2.5-.22h-.25l-.3,0-.26,0-2.24-.16-.34,0-1.51-.09h-.44a3.9,3.9,0,0,0-1.19.16q-5-.26-9.61-.28h-1.14a2.43,2.43,0,0,0-1.08.29,4.17,4.17,0,0,0-3.49-1.9,4.12,4.12,0,0,0-1.5.29Zm17.19,44.61a.78.78,0,0,1,0-.14l-.1-.59-.09-.5a1.18,1.18,0,0,0,0-.2l0-.16-.18-1.07,0-.11,0-.15c-.54-3-1.15-6-1.8-8.89-.07-.32-.15-.65-.23-1a.52.52,0,0,1,0-.11l-.09-.38-.09-.35-.06-.28-.07-.28,0-.14-.07-.3-.07-.27-.11-.45-.11-.45a4.08,4.08,0,0,0-.24-1l-.24-.92c-.75-2.94-1.57-5.87-2.43-8.72l0-.1,0-.11,0-.1-.07-.23-.1-.34,0-.12-.23-.75-.24-.74a2.17,2.17,0,0,0-.07-.24c-.13-.42-.26-.82-.4-1.23l0-.11-.11-.37,0-.12-.11-.31-.07-.21,0-.13c-.32-1-.65-1.89-1-2.83h1.28l1.28,0,1.88.06c1.4,0,2.79.12,4.19.2l.32,0c1.49.09,3,.2,4.43.32h.12c2.93.25,5.93.59,8.9,1l2,.29c3.38.5,6.79,1.1,10.17,1.8,4.94,1,10,2.28,14.93,3.75a195.28,195.28,0,0,1,19.6,7.16l.17.07c1.37.59,2.72,1.2,4.07,1.82,2.58,1.2,5.19,2.47,7.72,3.78l.2.1c3.34,1.74,6.74,3.65,10.11,5.68a3,3,0,0,0,.6.36l2.16,1.35c2.74,1.76,5.42,3.56,8,5.36l.44.31.44.31.09.06.24.19.25.17.47.35.47.35.41.3.4.3.11.08.15.1.12.08.14.12.09.06c1.23.94,2.51,1.93,3.91,3-.07,2.09-.14,4.2-.24,6.31v.3c-.08,1.53-.16,3-.24,4.51l0,.3,0,.29c0,.21,0,.41,0,.62-.39,6.17-1,12.47-1.7,18.72-.1.81-.2,1.63-.31,2.45-.2,1.55-.4,3-.6,4.48l-.39,2.64,0,.26,0,.19c-.87,5.68-1.92,11.55-3.14,17.44l0,.23,0,.22,0,.12,0,.1q-.33,1.59-.69,3.18c-.19.83-.39,1.66-.57,2.48l-.37,1.6c-1.24,5.24-2.63,10.48-4.11,15.58a4.13,4.13,0,0,0-.29,1c-.21.72-.44,1.45-.66,2.18-.35,1.15-.72,2.29-1.08,3.44-.28.87-.57,1.73-.85,2.59-1.8,5.4-3.77,10.79-5.84,16-.33.82-.65,1.63-1,2.44-.24.6-.48,1.19-.73,1.78l-.42,1-.42,1c-2.62,6.14-5.48,12.24-8.49,18.14l-.44.87-.08.15-.08.16-1.2,2.28-.1.18c-.63,1.18-1.23,2.29-1.84,3.41l-.12.21-.19.35c-1.92,3.47-4,7-6.12,10.53-.9,1.44-1.81,2.89-2.72,4.32l-.07.12-.15.22-.15.23-.39.6-.4-.46c-1.61-1.78-3.39-3.58-5.32-5.35a.52.52,0,0,0-.11-.1,88.52,88.52,0,0,0-11.44-8.82,85,85,0,0,0-13.77-7.08,81.59,81.59,0,0,0-25.41-5.9l-.25,0-1.87-.1h-.15l-1,0h-.46l-.65,0h-.25c-.54,0-1.08,0-1.62,0-1.12,0-2.2,0-3.29.07l-.44,0c-1.78.1-3.54.25-5.23.43l.13-.25.07-.16.06-.17c.18-.41.32-.76.46-1.11,2.61-6.42,5-13,7.07-19.58.07-.22.14-.42.2-.63l0-.14.12-.34.07-.25.1-.29,0-.17,0-.13.25-.85.15-.49.15-.48.23-.77.22-.77a.74.74,0,0,0,0-.14c1-3.36,1.84-6.45,2.6-9.44a1.33,1.33,0,0,0,0-.19l.34-1.33,0-.12.39-1.59,0-.13.1-.45.06-.22.06-.24,0-.19,0-.14.05-.23,0-.19c.07-.31.14-.6.21-.9l0-.15h0c.71-3.13,1.39-6.41,2-9.74l0-.17.08-.46.09-.47,0-.25c.11-.64.23-1.28.34-1.91,0-.28.08-.46.11-.65l.09-.53.06-.38.17-1c.53-3.32,1-6.66,1.4-9.95.05-.45.1-.84.14-1.23l0-.44.12-1.07,0-.37,0-.19c0-.45.1-.91.14-1.37,0-.06,0-.12,0-.18.34-3.5.61-7.09.81-10.67,0-.56.06-1.05.08-1.54v-.31l0-.59c0-.69.06-1.38.08-2.07v-.25l0-1.27v-.18c0-.17,0-.34,0-.51v-.41c.1-4.29.1-8.27,0-12.18a2,2,0,0,0,0-.24c0-.21,0-.42,0-.64V890l0-.45v-.19l0-.7c-.14-3.43-.33-6.62-.58-9.76l-.09-1.05,0-.31,0-.17c0-.56-.1-1.13-.15-1.7l0-.27,0-.26,0-.34,0-.11,0-.14v-.14l-.13-1.22a.88.88,0,0,0,0-.16c-.37-3.39-.83-6.81-1.36-10.16l0-.16-.06-.39-.06-.38,0-.1h0l0-.44Zm5.18,139.65.66.13.22,0-.21,0-.67-.2Zm-51.18,134.15a8,8,0,1,1,8,8,8.08,8.08,0,0,1-8-8Zm90.47-1.6c.25-.18.46-.35.67-.52-.29.24-.52.45-.74.65a.54.54,0,0,0,.07-.13Z" transform="translate(-716.64 -684.44)"/><path class="cls-2" d="M1073,814.51h-3.19l-2.35.06h-.13l-3.18.13a3.4,3.4,0,0,0-1.76,6,3.55,3.55,0,0,0,2.5.73l2.88-.11h.15c.88,0,1.75,0,2.63-.06h.66l2.18,0h.44l3.74,0c1.69.06,3.37.13,5,.22l2.3.14,1.79.12h.08l.45,0h0q4.82.4,9.62,1h0l1.4.2h0l1,.15,1.59.24h0q5.23.82,10.42,2l2.14.48.44.11.13,0,1.84.44c2.76.68,5.5,1.43,8.22,2.23l.38.12h0c1.24.37,2.46.76,3.68,1.16,3.68,1.21,7.3,2.53,10.89,4l1.36.55c1.11.45,2.22.92,3.32,1.39h0l1.66.73.06,0,2.38,1.07h0l2.45,1.15,1.49.72.16.08h0l.11.06.69.34,1.46.73,1.66.86,0,0c.29.14.57.29.85.44q4.41,2.34,8.7,4.9a3.33,3.33,0,0,0,.7.42l.25.15.16.1.1.06s0,0,0,0l.7.43,1.74,1.1,0,0c2.59,1.66,5.12,3.38,7.62,5.16h0l.71.51,0,0q1.75,1.26,3.48,2.57s0,0,0,0q3.72,2.81,7.29,5.83c1.27,1.07,2.52,2.16,3.77,3.26a3.22,3.22,0,0,0,2.92.64,35.75,35.75,0,0,0-.45-3.85c-.21-1.21-.28-2.43-.5-3.64,0-.12,0-.24,0-.36l-.3-.34-.15-.19-.34-.28-.12-.12-.32-.26-.48-.42-.08-.06q-3.36-2.8-6.85-5.47l-.12-.1-.27-.2c-.8-.6-1.6-1.2-2.41-1.79l-.79-.58,0,0-.14-.11-.58-.41-.17-.12q-3.66-2.6-7.44-5l-.08-.06-.44-.28-.71-.45-.08,0-1.18-.73s0,0-.06,0l-.39-.23-.9-.55a3.86,3.86,0,0,0-.71-.44c-2.9-1.75-5.84-3.41-8.83-5l-.15-.08c-.32-.18-.64-.34-1-.51l-.09,0-.08-.05-.17-.09-2.16-1.11-.11-.05-.28-.14-.11-.06-1-.48-1.09-.53,0,0-.5-.24-.08,0-.47-.23-.2-.09-.1-.05-1.82-.84-.12-.07-.66-.3-.19-.09h0l-1.49-.68-.16-.06-1.49-.65-.1,0-.89-.38-1.76-.74-.13-.05-1.3-.53-.09,0-.35-.14-.52-.21-.12,0c-3.34-1.31-6.71-2.54-10.11-3.66l-.1,0-1-.34-.17,0-1.5-.48-.09,0-.58-.18-.32-.1-.16,0-.26-.07q-4.75-1.44-9.56-2.66l-.29-.07h0l-.73-.18-.12,0h-.11l-.84-.2-.44-.11-.14,0-.71-.17H1114l-.52-.12-.11,0-.88-.19-.36-.08h-.08q-4.92-1.07-9.89-1.86l-.18,0-1.4-.21h0l-.17,0-1-.15h-.22l-.85-.12-.37-.05h-.08c-3.11-.41-6.22-.75-9.35-1h-.11l-.46,0h-.19l-.34,0-.63,0h-.13l-.23,0h-.09l-.84-.05-1.83-.11h-.19q-5.2-.27-10.42-.29Zm51.37,14.29.14,0h0l-.14,0Z" transform="translate(-716.64 -684.44)"/><path class="cls-2" d="M1194,860.21h0l0,.47v.07c0,.13,0,.27,0,.41s0,.09,0,.14l0,.36v.16l0,.35a1.09,1.09,0,0,0,0,.18c0,.11,0,.22,0,.33l0,.18c0,.11,0,.22,0,.33v.18c0,.11,0,.23,0,.35a.28.28,0,0,0,0,.09c0,.3,0,.6,0,.91v.14l0,.27v0c0,.14,0,.28,0,.42v.29a1.41,1.41,0,0,1,0,.2c0,.14,0,.27,0,.41v.22c0,.21,0,.43,0,.65h0c0,.22,0,.43,0,.65v.2l0,.47v.23c0,.18,0,.35,0,.53v.29c0,.15,0,.29,0,.44v.62c0,.14,0,.28,0,.41v1.74c0,.18,0,.37,0,.55h0c0,1.65,0,3.3-.11,4.95v.23a.34.34,0,0,1,0,.1q-.26,6.74-1,13.42a.26.26,0,0,0,.23.28.27.27,0,0,0,.27-.23l.18-1.61,0-.38a0,0,0,0,0,0,0c0-.18,0-.36,0-.54v0c.22-2.18.39-4.37.53-6.55v0l0-.53c0-.41,0-.81.07-1.21v0c0-.28,0-.57,0-.85V880c0-.14,0-.29,0-.44h0a1.34,1.34,0,0,0,0-.2c0-.11,0-.23,0-.35v-.08s0-.09,0-.14v-.52h0a.38.38,0,0,0,0-.1h0V878h0l0-.94c0-.09,0-.17,0-.26s0-.23,0-.33l0-1.4V873.7c0-.06,0-.12,0-.18v-.28h0v-1.94c0-.53,0-1.07,0-1.61v-.33h0s0-.08,0-.11v0c0-.32,0-.64,0-1v0c0-.38,0-.76,0-1.14v0c0-.4,0-.79,0-1.19,0-.66,0-1.33-.08-2v0c0-.12,0-.23,0-.35l0-.4v0c0-.12,0-.24,0-.36l0-.47h0c0-.06,0-.11,0-.16V862l0-.38v0l-.12-1.79-.1-.09a6.42,6.42,0,0,1-.43-.48h0c0,.32,0,.65.08,1Z" transform="translate(-716.64 -684.44)"/><path class="cls-2" d="M1194.38,873.38a180.51,180.51,0,0,1-1.15,18.89v0c-.29,2.56-.64,5.1-1,7.64a.24.24,0,0,0,.22.27.25.25,0,0,0,.27-.23c.4-2.53.74-5.08,1-7.63v0a177.8,177.8,0,0,0,1.14-18.88.23.23,0,0,0,0-.18.32.32,0,0,0-.17-.09h0a.24.24,0,0,0-.25.22Z" transform="translate(-716.64 -684.44)"/><path class="cls-2" d="M1194.42,868.05a.24.24,0,0,0-.09.16,179,179,0,0,1-1.74,29.08.26.26,0,0,0,.22.28.26.26,0,0,0,.28-.23,179.05,179.05,0,0,0,1.74-29.08.27.27,0,0,0-.06-.19.25.25,0,0,0-.16-.08h0a.25.25,0,0,0-.16.06Z" transform="translate(-716.64 -684.44)"/><path class="cls-2" d="M1194.41,864.26a.27.27,0,0,0-.16.1.35.35,0,0,0,0,.17v0c0,.09,0,.18,0,.27s0,.28,0,.43v0a177.38,177.38,0,0,1-1.24,29,.26.26,0,0,0,.23.28.26.26,0,0,0,.27-.23c.61-5,1-10,1.23-15q.3-7.23,0-14.46v0c0-.1,0-.21,0-.31a.2.2,0,0,0-.1-.16.24.24,0,0,0-.14,0Zm-.17,1v0Z" transform="translate(-716.64 -684.44)"/><path class="cls-2" d="M1194.19,860.37a.27.27,0,0,0-.16.1.26.26,0,0,0,0,.19c0,.18,0,.37,0,.55l0,.52v0c.07,1.13.13,2.27.18,3.41v0a177,177,0,0,1-.32,19.68.25.25,0,1,0,.5,0,173.93,173.93,0,0,0,.13-23.17v0c0-.36,0-.72-.07-1.08a.21.21,0,0,0-.1-.16.24.24,0,0,0-.14,0Zm0,4.76v0Z" transform="translate(-716.64 -684.44)"/><path class="cls-2" d="M1194.3,862.1a.27.27,0,0,0-.16.1.26.26,0,0,0,0,.19c.05.94.1,1.89.14,2.84v-.06c.23,5.62.17,11.25-.14,16.87a.25.25,0,0,0,.22.27.26.26,0,0,0,.28-.23,175.66,175.66,0,0,0,.08-18.07v-.07l-.09-1.64a.21.21,0,0,0-.1-.16.24.24,0,0,0-.15,0Z" transform="translate(-716.64 -684.44)"/><path class="cls-2" d="M1194.24,865.24v0q.27,6.75,0,13.51h0c0,.73-.06,1.47-.1,2.2a.26.26,0,0,0,.22.28.26.26,0,0,0,.28-.23c0-.74.07-1.47.1-2.2v0a173.42,173.42,0,0,0-.33-18.94l-.1-.09c-.15-.16-.3-.32-.43-.48h0c.16,2,.28,4,.36,6Z" transform="translate(-716.64 -684.44)"/><path class="cls-2" d="M1194.24,865.21h0Z" transform="translate(-716.64 -684.44)"/><path class="cls-2" d="M1194.24,865.11h0c0,.93.07,1.86.09,2.78l0,1.4a.25.25,0,0,0,.06.18.21.21,0,0,0,.16.08.25.25,0,0,0,.19,0,.28.28,0,0,0,.09-.17c-.06-3.17-.2-6.35-.43-9.52l-.1-.09c-.15-.16-.3-.32-.43-.48l0,0c.16,2,.27,3.93.36,5.89Z" transform="translate(-716.64 -684.44)"/><path class="cls-2" d="M1194.24,865.21v-.06q.3,7.62,0,15.23a.25.25,0,0,0,.5,0,173,173,0,0,0-.27-20.62l-.09-.09a6.29,6.29,0,0,1-.43-.47l0,0c.16,2,.27,4,.36,6Z" transform="translate(-716.64 -684.44)"/><path class="cls-2" d="M1194.24,865.24h0a177,177,0,0,1-.38,20.47.25.25,0,0,0,.22.27.26.26,0,0,0,.28-.23,175.33,175.33,0,0,0,.07-25.93l-.1-.09c-.15-.16-.3-.32-.43-.48h0c.16,2,.28,4,.36,6Z" transform="translate(-716.64 -684.44)"/><path class="cls-2" d="M1194.24,865.21v-.06a177.51,177.51,0,0,1-1,27.37.25.25,0,0,0,.23.27.25.25,0,0,0,.27-.23,176.53,176.53,0,0,0,.73-32.75l-.1-.09c-.15-.16-.3-.32-.43-.48h0c.15,2,.27,4,.36,6Z" transform="translate(-716.64 -684.44)"/><path class="cls-2" d="M1194.24,865.24v0a178.51,178.51,0,0,1-1.07,27.64.26.26,0,0,0,.22.28.25.25,0,0,0,.27-.23,176.77,176.77,0,0,0,.77-33.09l-.1-.09c-.15-.16-.3-.32-.43-.48h0q.24,3,.36,6Z" transform="translate(-716.64 -684.44)"/><path class="cls-2" d="M1194.24,865.21v0Z" transform="translate(-716.64 -684.44)"/><path class="cls-2" d="M1194.24,865.15v-.06a179.08,179.08,0,0,1-.69,24.18.25.25,0,1,0,.49,0,173,173,0,0,0,.38-29.5l-.09-.09c-.15-.16-.3-.32-.43-.48h0q.22,3,.36,5.92Z" transform="translate(-716.64 -684.44)"/><path class="cls-2" d="M1194.24,865.31v-.07a178.94,178.94,0,0,1-.45,21.35.25.25,0,0,0,.22.27.26.26,0,0,0,.28-.23,175.27,175.27,0,0,0,.14-26.82l-.1-.09c-.15-.16-.3-.32-.43-.48h0c.15,2,.27,4,.35,6.08Z" transform="translate(-716.64 -684.44)"/><path class="cls-2" d="M1194.24,865.24h0q.33,8.46-.14,16.92a.25.25,0,0,0,.22.27.26.26,0,0,0,.28-.23,175.94,175.94,0,0,0-.17-22.38l-.1-.09a6.29,6.29,0,0,1-.43-.47l0,0c.16,2,.28,4,.36,6Z" transform="translate(-716.64 -684.44)"/><polygon class="cls-2" points="477.6 180.79 477.6 180.78 477.6 180.79 477.6 180.79 477.6 180.79"/><path class="cls-2" d="M1194.24,865.22v0Z" transform="translate(-716.64 -684.44)"/><path class="cls-2" d="M1194.73,872.87a.22.22,0,0,0-.09.16c0,.28,0,.55,0,.82a8.06,8.06,0,0,1-.13,1.1v-.05c0,.19-.1.38-.16.56a4.78,4.78,0,0,1-.26.62.26.26,0,0,0,.15.32.25.25,0,0,0,.32-.15,4.78,4.78,0,0,0,.26-.62,5.7,5.7,0,0,0,.16-.55,6.44,6.44,0,0,0,.13-.88c0-.37.05-.74.05-1.12a.28.28,0,0,0-.06-.18.21.21,0,0,0-.17-.09h0a.22.22,0,0,0-.15.06Z" transform="translate(-716.64 -684.44)"/><path class="cls-2" d="M1194.75,873.5a.36.36,0,0,0-.16.11.23.23,0,0,0,0,.18c0,.12,0,.23,0,.35v-.07c0,.17,0,.33,0,.5s0,.42,0,.63a2.45,2.45,0,0,1,0,.27c0,.1,0,.2,0,.3l-.06.29c0,.14-.06.28-.1.43a.27.27,0,0,0,.06.19.34.34,0,0,0,.17.08.2.2,0,0,0,.18-.06.22.22,0,0,0,.09-.16q.09-.36.15-.72c0-.1,0-.21,0-.31s0-.24,0-.36,0-.46,0-.69,0-.5,0-.75a.25.25,0,0,0-.25-.21Z" transform="translate(-716.64 -684.44)"/><path class="cls-2" d="M1194.7,872.68a.25.25,0,0,0-.21.28,8.72,8.72,0,0,1,.08.88v-.07q0,.43,0,.87c0,.3,0,.6-.06.91a17.16,17.16,0,0,1-.25,1.73.25.25,0,0,0,.22.27.24.24,0,0,0,.27-.23c.07-.36.14-.72.19-1.09s.08-.65.1-1l0-.58c0-.18,0-.36,0-.54s0-.38,0-.57a5.38,5.38,0,0,0-.07-.69.24.24,0,0,0-.24-.21Z" transform="translate(-716.64 -684.44)"/><path class="cls-2" d="M1194.85,872.05a.26.26,0,0,0-.21.29,9.35,9.35,0,0,1,.11,1v-.06c0,.5,0,1,0,1.51,0,.24,0,.48,0,.72a7.14,7.14,0,0,1-.08.91.64.64,0,0,1,0-.07,1.91,1.91,0,0,1-.1.34l-.07.18-.15.31a.25.25,0,0,0,.47.17l.13-.27a2.92,2.92,0,0,0,.14-.38l.06-.24a2.7,2.7,0,0,0,0-.28c0-.12,0-.24,0-.35s0-.42,0-.63v-.66c0-.39,0-.78,0-1.18s-.06-.77-.11-1.16a.26.26,0,0,0-.25-.2Z" transform="translate(-716.64 -684.44)"/><path class="cls-2" d="M1194.77,872.19a.25.25,0,0,0-.16.11.31.31,0,0,0,0,.19c0,.41.06.82.08,1.23h0c0,.56,0,1.12,0,1.67s-.09,1.13-.16,1.7a.25.25,0,1,0,.5,0c0-.38.09-.75.12-1.13,0-.19,0-.37,0-.56s0-.4,0-.6v-.55c0-.2,0-.41,0-.61,0-.43,0-.85-.08-1.27a.26.26,0,0,0-.26-.21Z" transform="translate(-716.64 -684.44)"/><path class="cls-2" d="M1194.79,872.12a.31.31,0,0,0-.16.11.23.23,0,0,0,0,.18c0,.29,0,.59.05.88v0c0,.69,0,1.37,0,2.06,0,.35,0,.7-.05,1.05l-.06.47a4.52,4.52,0,0,1-.11.53.26.26,0,0,0,.06.19.32.32,0,0,0,.17.09.33.33,0,0,0,.19-.06.27.27,0,0,0,.08-.17,6.18,6.18,0,0,0,.12-.62c0-.22,0-.43.06-.66,0-.42,0-.85,0-1.28s0-.83,0-1.24,0-.86-.06-1.28a.23.23,0,0,0-.11-.16.24.24,0,0,0-.14,0Z" transform="translate(-716.64 -684.44)"/><path class="cls-2" d="M1194.87,872.19a.24.24,0,0,0-.2.29l.09.83c0,.3,0,.6,0,.91v-.07c0,.54,0,1.07,0,1.61,0,.29,0,.57-.09.86s-.08.56-.13.84a.25.25,0,0,0,.5,0c0-.21.07-.41.1-.62a6.07,6.07,0,0,0,.07-.63c0-.41.08-.82.09-1.24v-.68c0-.21,0-.43,0-.64,0-.44-.07-.88-.12-1.31a.26.26,0,0,0-.25-.21Z" transform="translate(-716.64 -684.44)"/><path class="cls-2" d="M1195,872.17a.27.27,0,0,0-.16.1.26.26,0,0,0,0,.19,2.64,2.64,0,0,0,0,.28h0c0,.4,0,.81,0,1.22s0,.81,0,1.22-.07.76-.1,1.15l-.06.66c0,.2-.06.41-.1.62a.23.23,0,0,0,.06.18.26.26,0,0,0,.16.09.26.26,0,0,0,.19-.06.26.26,0,0,0,.09-.16q.06-.3.09-.6c0-.11,0-.22,0-.33s0-.24,0-.36c0-.44.08-.88.11-1.32a23.78,23.78,0,0,0,0-2.67.21.21,0,0,0-.1-.16.25.25,0,0,0-.15-.05Z" transform="translate(-716.64 -684.44)"/><path class="cls-2" d="M1195,871.73a.27.27,0,0,0-.16.1.26.26,0,0,0,0,.19c0,.38,0,.77.07,1.16v0c0,.61,0,1.23,0,1.85,0,.18,0,.36,0,.54s0,.34,0,.52,0,.32,0,.47-.06.36-.1.53a.25.25,0,0,0,.23.27.23.23,0,0,0,.18-.05.24.24,0,0,0,.09-.17c0-.22.08-.44.11-.66s0-.21,0-.32,0-.24,0-.36c0-.44,0-.87,0-1.32s0-.82,0-1.23,0-.85-.08-1.28a.24.24,0,0,0-.25-.2Z" transform="translate(-716.64 -684.44)"/><path class="cls-2" d="M1194.67,869.24a.27.27,0,0,0-.2.29c.07.53.11,1.06.15,1.58v-.06c0,.44,0,.88,0,1.31,0,.25,0,.49,0,.74s0,.43,0,.65c0,.47-.07.94-.1,1.41,0,.2,0,.4,0,.6s0,.41,0,.62a.25.25,0,0,0,.5,0c0-.26,0-.51,0-.77s0-.56,0-.85c0-.61.09-1.22.12-1.83,0-.27,0-.53,0-.79s0-.61,0-.91c0-.61-.08-1.22-.16-1.83a.24.24,0,0,0-.24-.21Z" transform="translate(-716.64 -684.44)"/><path class="cls-2" d="M1194.45,867.92a.23.23,0,0,0-.2.28c.08.51.16,1,.22,1.54,0,.28.06.56.08.84s0,.47,0,.71c0,.54,0,1.07,0,1.6,0,.23,0,.45,0,.68a6.33,6.33,0,0,1-.12.74.25.25,0,0,0,.23.27.21.21,0,0,0,.18-.06.22.22,0,0,0,.09-.16c0-.24.08-.47.11-.71s0-.43.06-.65c0-.56,0-1.11,0-1.67,0-.26,0-.54,0-.8a7,7,0,0,0-.07-.8c-.06-.54-.14-1.08-.23-1.61a.26.26,0,0,0-.25-.21Zm.14,3.37v0Z" transform="translate(-716.64 -684.44)"/><path class="cls-2" d="M1194.56,867.16a.27.27,0,0,0-.2.3q.09.54.15,1.11c0,.21,0,.43.07.65l0,.51h0c0,.61,0,1.22,0,1.83,0,.31,0,.61-.06.92a6.58,6.58,0,0,1-.13.89.26.26,0,0,0,.23.28.25.25,0,0,0,.18-.06.24.24,0,0,0,.09-.17q.08-.36.12-.72c0-.24,0-.48,0-.72,0-.5,0-1,0-1.52s0-1-.07-1.52-.11-1.05-.2-1.57a.26.26,0,0,0-.25-.21Z" transform="translate(-716.64 -684.44)"/><path class="cls-2" d="M1194.63,867.07a.25.25,0,0,0-.2.29,17.7,17.7,0,0,1,.21,2.07c0,.58,0,1.16,0,1.75s0,1.2-.07,1.81a.26.26,0,0,0,.22.27.26.26,0,0,0,.28-.23c.07-1,.09-1.93.08-2.89,0-.51,0-1-.06-1.51s-.09-.91-.17-1.36a.26.26,0,0,0-.25-.21Zm0,2.36v0Z" transform="translate(-716.64 -684.44)"/><path class="cls-2" d="M1194.83,867.31a.25.25,0,0,0-.21.28c.08.43.14.86.18,1.28s.07.89.09,1.33v-.07c0,.48,0,1,0,1.45,0,.23,0,.46,0,.7s-.07.47-.11.71a.25.25,0,0,0,.5,0c0-.21.07-.42.1-.63s0-.46.05-.69c0-.51,0-1,0-1.52s0-.88-.08-1.32a12.54,12.54,0,0,0-.19-1.37.25.25,0,0,0-.24-.21Z" transform="translate(-716.64 -684.44)"/><path class="cls-2" d="M1194.66,866.08a.27.27,0,0,0-.2.29c0,.46.1.92.14,1.38l.06.79,0,.67h0c0,.57,0,1.15,0,1.72,0,.24,0,.49,0,.72l0,1.08a.25.25,0,0,0,.5,0c0-.31,0-.61,0-.9s0-.52,0-.78c0-.55,0-1.09,0-1.64,0-1.06-.12-2.11-.23-3.17a.26.26,0,0,0-.26-.2Z" transform="translate(-716.64 -684.44)"/><path class="cls-2" d="M1194.59,865.48a.26.26,0,0,0-.2.29c.08.51.16,1,.23,1.54,0,.26.07.53.1.8s0,.48.06.72v0h0c0,.19,0,.37,0,.56s0,.37,0,.56c0,.35,0,.71,0,1.06l0,.51c0,.2,0,.4-.06.59s0,.4-.08.59-.08.43-.12.65a.24.24,0,0,0,.22.26.25.25,0,0,0,.19,0,.35.35,0,0,0,.09-.17c0-.18.07-.36.1-.54s.05-.28.07-.42,0-.32,0-.48,0-.32,0-.48,0-.62,0-.93V869.5c0-.14,0-.28,0-.43s0-.28,0-.43,0-.34,0-.51,0-.38-.07-.57-.08-.59-.12-.88-.11-.66-.16-1a.25.25,0,0,0-.25-.2Zm.2,3.38h0v0Z" transform="translate(-716.64 -684.44)"/><path class="cls-2" d="M1194.54,863.9a.26.26,0,0,0-.21.29c.14.67.24,1.34.34,2s.13,1.31.16,2c0,.25,0,.5,0,.74s0,.53,0,.79,0,.54-.08.8l-.12.87a.25.25,0,0,0,.22.27.25.25,0,0,0,.27-.23,16.1,16.1,0,0,0,.21-1.7l0-1c0-.31,0-.61,0-.91,0-.59-.08-1.18-.16-1.76s-.19-1.3-.32-1.94a.27.27,0,0,0-.25-.21Z" transform="translate(-716.64 -684.44)"/><path class="cls-2" d="M1194.34,862.91a.27.27,0,0,0-.16.1.26.26,0,0,0,0,.19,5.9,5.9,0,0,1,.15.73c0,.23.06.46.08.69.06.51.09,1,.13,1.54s.08,1,.11,1.54.07,1,.09,1.51h0c0,.42,0,.85,0,1.28a.25.25,0,0,0,.22.27.24.24,0,0,0,.27-.22,5.4,5.4,0,0,0,0-.8c0-.33,0-.66,0-1,0-.63-.07-1.26-.11-1.89l-.15-1.93c0-.29-.07-.58-.1-.87a5.14,5.14,0,0,0-.18-.95.25.25,0,0,0-.1-.16.24.24,0,0,0-.14-.05Z" transform="translate(-716.64 -684.44)"/><path class="cls-2" d="M1194.63,865.76a.24.24,0,0,0-.2.29,18.63,18.63,0,0,1,.21,2V868c0,.72,0,1.44,0,2.16,0,.39,0,.78-.05,1.17a8.5,8.5,0,0,1-.13,1.13v-.07c0,.14-.07.26-.11.39s-.07.19-.11.28a.25.25,0,0,0,.14.32.26.26,0,0,0,.33-.15l.15-.39a3.25,3.25,0,0,0,.13-.62c0-.13,0-.26,0-.4s0-.29,0-.44,0-.59,0-.88,0-.68,0-1a19.38,19.38,0,0,0-.24-3.49.26.26,0,0,0-.25-.21Z" transform="translate(-716.64 -684.44)"/><path class="cls-2" d="M1194.16,863.09a.26.26,0,0,0-.21.29c.08.35.13.71.18,1.07s.11.8.16,1.2l.12,1c0,.35.06.69.08,1,0,.72,0,1.44,0,2.16,0,.38,0,.76,0,1.14s0,.85-.06,1.27a.25.25,0,0,0,.5.05c0-.4,0-.79.06-1.18s0-.79,0-1.18c0-.74,0-1.48,0-2.22,0-.19,0-.37,0-.55s0-.37,0-.56l-.06-.51-.06-.51c0-.42-.1-.83-.16-1.24s-.11-.73-.18-1.1a.26.26,0,0,0-.25-.2Zm.33,4.63v0Z" transform="translate(-716.64 -684.44)"/><path class="cls-2" d="M1194.11,862a.29.29,0,0,0-.13.14.34.34,0,0,0,0,.2l0,.07h0c.09.33.14.68.2,1s.13.8.18,1.2.11.78.14,1.18.06.79.08,1.18c0,.14,0,.27,0,.4a4.9,4.9,0,0,1,0,.54,8.42,8.42,0,0,1-.18,1,.23.23,0,0,0,.06.18.26.26,0,0,0,.16.09.31.31,0,0,0,.19-.06.35.35,0,0,0,.09-.17c0-.16.06-.32.1-.49s0-.3.08-.45a5.3,5.3,0,0,0,0-.89,8.46,8.46,0,0,0,0-.87l-.06-.85c0-.57-.15-1.13-.24-1.7,0-.25-.08-.5-.13-.75a4,4,0,0,0-.2-.83.23.23,0,0,0-.22-.14l-.11,0Z" transform="translate(-716.64 -684.44)"/><path class="cls-2" d="M1194.43,862.08a.25.25,0,0,0-.13.14.34.34,0,0,0,0,.2l0,.06v0a8.43,8.43,0,0,1,.22,1.22c0,.23.07.45.09.68s0,.48,0,.72v-.07c0,.28,0,.57,0,.85a8.19,8.19,0,0,1-.12,1.11c0,.16-.09.31-.13.47a.28.28,0,0,0,0,.2.24.24,0,0,0,.14.12.24.24,0,0,0,.32-.14c.06-.22.12-.45.17-.67a3.47,3.47,0,0,0,.06-.45c0-.2,0-.39,0-.59,0-.41,0-.83,0-1.25,0-.2,0-.4-.06-.6s0-.4-.07-.59-.07-.45-.11-.66a3.55,3.55,0,0,0-.17-.64.24.24,0,0,0-.13-.13l-.09,0-.11,0Zm-.09.42h0v0Z" transform="translate(-716.64 -684.44)"/><path class="cls-2" d="M1194.33,862.74a.25.25,0,0,0-.21.29c.08.31.13.63.18,1s.08.59.12.89.07.58.1.87,0,.66.06,1v-.06c0,.4,0,.81,0,1.22a4.18,4.18,0,0,1-.06.51l-.09.63a.24.24,0,0,0,.23.27.25.25,0,0,0,.27-.22l.09-.67a2.91,2.91,0,0,0,0-.31c0-.14,0-.28,0-.41s0-.53,0-.78,0-.54,0-.8c0-.53-.09-1.05-.16-1.57,0-.27-.07-.55-.12-.82a7.14,7.14,0,0,0-.15-.78.25.25,0,0,0-.24-.21Z" transform="translate(-716.64 -684.44)"/><path class="cls-2" d="M1194.31,862.85a.27.27,0,0,0-.17.1.26.26,0,0,0,0,.19,10,10,0,0,1,.32,2l.09.94c0,.33,0,.67.06,1V867c0,.26,0,.52,0,.78s0,.56,0,.83c0,.64-.07,1.27-.1,1.91a.25.25,0,0,0,.23.27.25.25,0,0,0,.27-.22c0-.72.08-1.43.11-2.14,0-.16,0-.31,0-.47v-.41c0-.32,0-.65,0-1,0-.57-.09-1.13-.15-1.69a10,10,0,0,0-.3-1.82.29.29,0,0,0-.11-.16.23.23,0,0,0-.14,0Z" transform="translate(-716.64 -684.44)"/><path class="cls-2" d="M1194,861.41a.24.24,0,0,0-.12.33l.06.15a4.76,4.76,0,0,1,.11.64c0,.23.06.46.08.69.05.47.07.94.1,1.4h0c0,.42,0,.85,0,1.27s0,.79,0,1.18h0c0,.22,0,.44,0,.66a.23.23,0,0,0,.06.18.26.26,0,0,0,.16.09.25.25,0,0,0,.27-.22c0-.73,0-1.45-.08-2.17v0q0-1-.09-2c0-.35-.06-.7-.1-1.06a3.39,3.39,0,0,0-.23-1,.25.25,0,0,0-.23-.15.19.19,0,0,0-.1,0Zm-.07.44v0a0,0,0,0,1,0,0Zm.82,3.82v0Z" transform="translate(-716.64 -684.44)"/><path class="cls-2" d="M1193.93,860.73a.3.3,0,0,0-.12.13.23.23,0,0,0,0,.2l0,.09a5.93,5.93,0,0,1,.16.73c0,.29.08.58.12.88.07.6.09,1.2.12,1.8v-.06c0,.39,0,.78,0,1.18a.25.25,0,0,0,.22.27.26.26,0,0,0,.28-.22c0-.42,0-.84,0-1.26s0-.81-.07-1.22-.09-.83-.14-1.24c0-.18,0-.35-.09-.53a5.79,5.79,0,0,0-.18-.63.25.25,0,0,0-.14-.13l-.09,0a.23.23,0,0,0-.11,0Z" transform="translate(-716.64 -684.44)"/><path class="cls-2" d="M1194,860.47a.25.25,0,0,0-.12.33l.06.17a7.3,7.3,0,0,1,.21,1.31c0,.25,0,.51.07.76l.06.77v-.06c0,.3,0,.6,0,.9s0,.67,0,1a.25.25,0,1,0,.49,0c0-.43.06-.86,0-1.29s0-.84-.06-1.25-.07-.86-.11-1.28a5.61,5.61,0,0,0-.29-1.29.23.23,0,0,0-.23-.14l-.1,0Zm0,.52v0Z" transform="translate(-716.64 -684.44)"/><path class="cls-2" d="M1193.87,859.77a.23.23,0,0,0-.08.17.32.32,0,0,0,0,.19h0a1.8,1.8,0,0,1,.08.21,4.33,4.33,0,0,1,.19.79c.05.3.09.59.12.89s.07.6.1.91.07.62.09.94v-.07c0,.26,0,.53,0,.79s0,.52,0,.78a.25.25,0,0,0,.22.27.26.26,0,0,0,.28-.22c0-.24,0-.47,0-.7s0-.5,0-.76c0-.47-.08-.94-.13-1.41s-.1-.95-.18-1.43c0-.22-.08-.45-.13-.67s-.07-.21-.1-.32l-.06-.14a.72.72,0,0,0-.11-.19.19.19,0,0,0-.16-.08h0a.31.31,0,0,0-.16.06Zm0,.37,0,0,0,0Z" transform="translate(-716.64 -684.44)"/><path class="cls-2" d="M1193.88,860.15a.24.24,0,0,0,0,.35l.06.09a2,2,0,0,1,.15.33,7.58,7.58,0,0,1,.18,1c0,.37.08.74.1,1.12v0c0,.24,0,.48,0,.73a4.64,4.64,0,0,1-.14.83.23.23,0,0,0,.06.19.25.25,0,0,0,.16.08.22.22,0,0,0,.19-.06.28.28,0,0,0,.09-.17c0-.2.09-.41.12-.62a4.82,4.82,0,0,0,0-.76q0-.59-.09-1.17c0-.32-.08-.65-.15-1a3,3,0,0,0-.15-.48,1.54,1.54,0,0,0-.23-.39.24.24,0,0,0-.19-.08.23.23,0,0,0-.16.06Zm.19.79v0Zm.27,2v0Z" transform="translate(-716.64 -684.44)"/><path class="cls-2" d="M1194.16,860.34a.26.26,0,0,0-.12.34.75.75,0,0,1,.08.18,3.44,3.44,0,0,1,.12.64c0,.25,0,.49.06.74v0c0,.39,0,.77,0,1.15a7.69,7.69,0,0,1-.11,1.27.25.25,0,0,0,.23.27.26.26,0,0,0,.27-.23,7.93,7.93,0,0,0,.1-1q0-.55,0-1.11c0-.33,0-.65-.06-1a3.06,3.06,0,0,0-.26-1.12.27.27,0,0,0-.23-.14.18.18,0,0,0-.1,0Z" transform="translate(-716.64 -684.44)"/><path class="cls-2" d="M1193.94,859.82a.29.29,0,0,0-.13.14.31.31,0,0,0,0,.19,1.92,1.92,0,0,1,.24.5,3,3,0,0,1,.09.43,4.73,4.73,0,0,1,0,.52c0,.38,0,.76.07,1.14v-.07c0,.1,0,.2,0,.3a1.13,1.13,0,0,1,0,.18l0,.28a.2.2,0,0,0,0,.18.21.21,0,0,0,.17.09.25.25,0,0,0,.19-.05.3.3,0,0,0,.08-.17,3.73,3.73,0,0,0,.09-.46,2,2,0,0,0,0-.42c0-.09,0-.18,0-.27,0-.3,0-.6,0-.9a3.23,3.23,0,0,0-.1-.76,2.5,2.5,0,0,0-.3-.74.26.26,0,0,0-.15-.12l-.08,0a.23.23,0,0,0-.11,0Z" transform="translate(-716.64 -684.44)"/><path class="cls-2" d="M1194,860.31a.25.25,0,0,0-.13.14.21.21,0,0,0,0,.19l0,.07c.06.23.1.47.14.71s.07.48.1.73l.09.81c0,.24,0,.48,0,.72s0,.34,0,.51,0,.41,0,.61a.25.25,0,0,0,.23.27.25.25,0,0,0,.27-.22c0-.36.06-.71.06-1.07,0-.18,0-.37,0-.55s0-.38,0-.58c0-.36-.08-.73-.14-1.09a6.12,6.12,0,0,0-.23-1.13.24.24,0,0,0-.23-.14.16.16,0,0,0-.1,0Zm.28,3.38v0Z" transform="translate(-716.64 -684.44)"/><path class="cls-2" d="M1193.83,860a.25.25,0,0,0-.11.33c.09.23.18.46.25.7a6.44,6.44,0,0,1,.21,1c0,.38.09.75.11,1.13v.3c0,.14,0,.28,0,.41s0,.26,0,.38l-.09.45a.25.25,0,0,0,.23.27.25.25,0,0,0,.18-.06.22.22,0,0,0,.09-.17,8.66,8.66,0,0,0,.17-1.23,8.11,8.11,0,0,0-.06-1.21,10.09,10.09,0,0,0-.18-1.1,7.5,7.5,0,0,0-.37-1.07.25.25,0,0,0-.23-.14.22.22,0,0,0-.11,0Z" transform="translate(-716.64 -684.44)"/><path class="cls-2" d="M1193.61,860a.25.25,0,0,0,0,.35l.12.15a2.12,2.12,0,0,1,.11.21l.09.24v0a8.07,8.07,0,0,1,.22,1.11c0,.23.07.46.1.7s0,.38,0,.57v.36a1.41,1.41,0,0,0,0,.2,3.41,3.41,0,0,1-.1.64l-.09.28a4.17,4.17,0,0,1-.19.44.24.24,0,0,0,.15.32.25.25,0,0,0,.19,0,.29.29,0,0,0,.13-.14l.12-.28a1.79,1.79,0,0,0,.13-.32,4.57,4.57,0,0,0,.14-.72,4.46,4.46,0,0,0,0-.73c0-.09,0-.17,0-.25l0-.28c0-.2,0-.41-.08-.61-.05-.38-.11-.75-.19-1.11a3.68,3.68,0,0,0-.16-.54,1.47,1.47,0,0,0-.35-.57.24.24,0,0,0-.16-.09h0a.27.27,0,0,0-.17.06Zm.3,1h0v0Z" transform="translate(-716.64 -684.44)"/><path class="cls-2" d="M1193.86,859.52a.26.26,0,0,0,0,.35,0,0,0,0,1,0,0,.2.2,0,0,1,0,.08,0,0,0,0,0,0,0l0,0h0a4.77,4.77,0,0,1,.16,1.06h0a1.28,1.28,0,0,1,0,.19,2,2,0,0,1,0,.43,2.57,2.57,0,0,1-.08.4h0c0,.1,0,.21-.08.31a.31.31,0,0,0,0,.19.29.29,0,0,0,.14.13.28.28,0,0,0,.2,0,.24.24,0,0,0,.12-.14c.06-.25.12-.49.17-.74l0-.15a2.11,2.11,0,0,0,0-.36c0-.13,0-.26,0-.39s0-.45-.07-.67,0-.19-.07-.29a1.55,1.55,0,0,0-.08-.23h0l-.22-.24H1194a.35.35,0,0,0-.17.06Z" transform="translate(-716.64 -684.44)"/><polygon class="cls-2" points="477.26 175.55 477.25 175.54 477.26 175.55 477.26 175.55 477.26 175.55"/><polygon class="cls-2" points="477.26 175.55 477.26 175.55 477.26 175.55 477.26 175.55 477.26 175.55"/><path class="cls-2" d="M1194.14,860.45a.24.24,0,0,0-.12.33c0,.09.08.17.12.26a2.29,2.29,0,0,1,.07.36c0,.17,0,.33,0,.49,0,.35,0,.69,0,1,0,.16,0,.32,0,.48s0,.17,0,.26,0,.24-.06.36a.26.26,0,0,0,.23.27.3.3,0,0,0,.18-.06.28.28,0,0,0,.09-.17c0-.16,0-.32.08-.48l0-.42c0-.32,0-.64,0-1a7.52,7.52,0,0,0,0-.82,2.16,2.16,0,0,0-.24-.82.25.25,0,0,0-.23-.14.18.18,0,0,0-.1,0Zm0,.53v0s0,0,0,0Zm.13.91Z" transform="translate(-716.64 -684.44)"/><path class="cls-2" d="M1194.23,860.35a.25.25,0,0,0-.12.33,2.44,2.44,0,0,1,.1.24v0a4.7,4.7,0,0,1,.12.51c0,.23.07.46.1.7,0,.42.07.85.09,1.27h0a8.42,8.42,0,0,1,0,.87c0,.16,0,.31,0,.46s0,.31-.08.46-.09.32-.15.49l-.17.45a.26.26,0,0,0,.15.32.25.25,0,0,0,.32-.15l.15-.39.07-.21a2.85,2.85,0,0,0,.11-.39,6.5,6.5,0,0,0,.12-.77,7.5,7.5,0,0,0,0-1.34c0-.48-.06-1-.11-1.43a4.62,4.62,0,0,0-.11-.63,3.07,3.07,0,0,0-.21-.67.27.27,0,0,0-.23-.14l-.11,0Zm.16,4.78v.06s0,0,0-.06Zm-.18-4.21Z" transform="translate(-716.64 -684.44)"/><path class="cls-2" d="M1194.06,862.48a.25.25,0,0,0-.2.29c.09.46.14.92.2,1.38s.09.85.11,1.27c0,.24,0,.48,0,.72V867q0,.76,0,1.56a.28.28,0,0,0,.06.18.26.26,0,0,0,.17.09.23.23,0,0,0,.18-.06.24.24,0,0,0,.09-.17c0-.49,0-1,0-1.48s0-1,0-1.5-.05-1-.1-1.46c0-.25-.07-.49-.11-.74s-.06-.48-.11-.72a.25.25,0,0,0-.25-.2Zm.11,2.95v0Z" transform="translate(-716.64 -684.44)"/><path class="cls-2" d="M1194,861.77a.25.25,0,0,0-.2.29c.06.31.1.63.14,1s.08.68.11,1,.08.75.11,1.13l0,.47,0,.61v-.07c0,.14,0,.29,0,.43s0,.4,0,.59a.27.27,0,0,0,.23.28.25.25,0,0,0,.27-.23c0-.22,0-.45,0-.68s0-.46,0-.7c0-.43,0-.86-.09-1.28s-.09-.91-.14-1.36c0-.18,0-.37-.07-.56s-.06-.46-.11-.69a.25.25,0,0,0-.24-.21Z" transform="translate(-716.64 -684.44)"/><path class="cls-2" d="M1193.88,860.37a.25.25,0,0,0-.2.29,6.38,6.38,0,0,1,.1,1c0,.37.06.73.08,1.09v-.06c0,.58.05,1.16.08,1.74v.37c0,.19,0,.37,0,.56a.24.24,0,0,0,.22.27.25.25,0,0,0,.28-.22c0-.78,0-1.56-.07-2.34v.07c0-.43,0-.85-.07-1.27,0-.21,0-.43,0-.64a4.52,4.52,0,0,0-.08-.63.27.27,0,0,0-.25-.21Z" transform="translate(-716.64 -684.44)"/><path class="cls-2" d="M1194.07,859.88a.25.25,0,0,0-.2.29,4.92,4.92,0,0,1,.1.67c0,.24.06.49.07.73v-.06c0,.12,0,.24,0,.36a3.11,3.11,0,0,1,0,.43,6.36,6.36,0,0,1-.14.76.27.27,0,0,0,.06.19.34.34,0,0,0,.17.08.23.23,0,0,0,.19-.06.25.25,0,0,0,.08-.16c0-.24.1-.48.13-.72s0-.24,0-.36a3.27,3.27,0,0,0,0-.44c0-.25,0-.51-.07-.77a4.43,4.43,0,0,0-.11-.73.29.29,0,0,0-.1-.16.3.3,0,0,0-.15,0Z" transform="translate(-716.64 -684.44)"/><path class="cls-2" d="M1194.34,860.21a.25.25,0,0,0-.21.29.83.83,0,0,1,0,.22,5,5,0,0,1,0,.78c0,.29-.09.58-.14.88a.25.25,0,0,0,.5,0l.09-.54a3.93,3.93,0,0,0,.06-.48,3.59,3.59,0,0,0,0-.47,3,3,0,0,0,0-.52.27.27,0,0,0-.25-.21Z" transform="translate(-716.64 -684.44)"/><path class="cls-2" d="M1194.08,859.68a.29.29,0,0,0-.13.14.34.34,0,0,0,0,.2l0,.08h0a3.12,3.12,0,0,1,.09.44,5.29,5.29,0,0,1,.05.56c0,.15,0,.29,0,.44s0,.17,0,.26,0,.19,0,.29a.25.25,0,0,0,.5,0l.09-.55a5.15,5.15,0,0,0,0-.56c0-.2,0-.41-.06-.62a4.39,4.39,0,0,0-.15-.6h0l-.08-.08,0,0h0a.11.11,0,0,0-.08,0l-.11,0Zm.05,1.41a.13.13,0,0,1,0,.06s0,0,0-.06Z" transform="translate(-716.64 -684.44)"/><path class="cls-2" d="M1194.15,859.91a.25.25,0,0,0-.2.29,4.91,4.91,0,0,1,.09.85,3,3,0,0,1,0,.42,5.86,5.86,0,0,1-.1.58.27.27,0,0,0,.06.19.26.26,0,0,0,.17.09.3.3,0,0,0,.18-.06.26.26,0,0,0,.09-.17,5.14,5.14,0,0,0,.12-1,6,6,0,0,0-.1-1,.25.25,0,0,0-.24-.2Z" transform="translate(-716.64 -684.44)"/><path class="cls-2" d="M1077.09,820.82a22.86,22.86,0,0,0-3.29.3,7,7,0,0,0-5.26,5,7.26,7.26,0,0,0,0,3.76,7.54,7.54,0,0,0,1.93,3.29,7.22,7.22,0,0,0,1.51,1.35c.5.72,1,1.45,1.53,2.16-.1.14-.2.29-.29.44a7.15,7.15,0,0,0-1,3.52,9.9,9.9,0,0,0,.3,2.7,15,15,0,0,0,.74,2.47A61.39,61.39,0,0,1,1076,857.1c.3,2.55.49,5.11.76,7.66.2,1.89.5,3.75.84,5.63a21.68,21.68,0,0,0,.88,4.16l.06.22c.13,3.57.25,7.14.39,10.7.17,4.46.32,8.92.64,13.37.15,2.12.36,4.24.59,6.36a35.48,35.48,0,0,0,.89,5.62c-.32,1.54-.65,3.08-1,4.62l-.66,3.21a54.32,54.32,0,0,0-1.17,6.46,6.63,6.63,0,0,0,.93,3.42,6.82,6.82,0,0,0,2.6,2.54c-.41,1.48-.83,2.95-1.24,4.43q-1.35,4.83-3,9.58-.88,2.28-1.76,4.58c-.14.35-.27.7-.41,1.06-.06.15-.12.3-.19.45l0,.12c-.23.61-.47,1.22-.71,1.83a30.39,30.39,0,0,0-1.31,3.39,7.24,7.24,0,0,0-.17,1c-.13.34-.24.69-.34,1a6.88,6.88,0,0,0,1,5.79l-.11.15a26.85,26.85,0,0,0-2,3.7c-.55,1.13-1.1,2.26-1.62,3.4-.35.78-.69,1.56-1,2.35-1.09,2.22-2.11,4.48-3.1,6.75-1.61,3.48-3.19,7-4.63,10.52a6.76,6.76,0,0,0,1,5.7,28.59,28.59,0,0,0-.45,4,6.27,6.27,0,0,0,.82,3.25,6.77,6.77,0,0,0,10,5.54l.6.75a8.2,8.2,0,0,0,3.39,1.93,7.94,7.94,0,0,0,2,.25l0,.16c-.12.91-.21,1.84-.27,2.76a19.35,19.35,0,0,0,.41,4.15,8,8,0,0,0,3.7,5.39,8,8,0,0,0,7.75-.08c2.41-1.41,3.71-4.11,4.95-6.54a5,5,0,0,0,.5.17,6.47,6.47,0,0,0,4.1-.19l1.62-.69c.37-.27.74-.54,1.09-.83a6.73,6.73,0,0,0,2,4.53,6.79,6.79,0,0,0,9.07.48,7.35,7.35,0,0,0,2.32,1.24,8.55,8.55,0,0,0,4.35,6.68,12.84,12.84,0,0,0,.65,3.25,7.07,7.07,0,0,0,3.12,4,6.82,6.82,0,0,0,6.85,0,9.77,9.77,0,0,0,3.87-4l1-2c.63-1.19,1.22-2.41,1.81-3.61.68-1.36,1.31-2.74,1.92-4.13l1-.44a16.43,16.43,0,0,0,1.85-1.48,19.42,19.42,0,0,0,2-2.59c.25-.34.49-.73.72-1.09.86-1.31,1.66-2.64,2.46-4a75.47,75.47,0,0,0,3.55-7.08,126.61,126.61,0,0,0,5.92-16.46,124,124,0,0,0,3.2-13.18,6.23,6.23,0,0,0,4.26-3.15,12.87,12.87,0,0,0,1.12-2.91c.07-.32.11-.75.16-1.09.09-.56.19-1.13.27-1.68.21-1.38.43-2.74.63-4.11.39-2.63.79-5.27,1.16-7.9.16-1.12.31-2.24.47-3.36.11-.11.21-.23.32-.35a6.82,6.82,0,0,0,1.75-3c.15-.43.24-.84.35-1.27.16-.61.31-1.21.46-1.81l1-4.46c.58-2.47,1.12-4.95,1.66-7.42,1.17-5.29,2.29-10.59,3.47-15.87,1.24-5.56,2.39-11.12,3.4-16.72.23-1.28.44-2.55.63-3.84.06-.21.13-.42.2-.63.38-1.13.77-2.25,1.11-3.39.76-2.64,1.55-5.27,2.09-8,.25-1.23.52-2.46.71-3.7l.39-2.5c.11-.7.2-1.37.29-2.11a10.23,10.23,0,0,0,.13-1.66q-.1-1.1-.3-2.16a6.57,6.57,0,0,0-3.94-4.47,8.81,8.81,0,0,0,.27-1,13.13,13.13,0,0,0,.4-2.81,7.09,7.09,0,0,0-1.6-4.38,1.93,1.93,0,0,1,0-.24,9.65,9.65,0,0,0-1.1-4.36,11.82,11.82,0,0,0-2.32-2.95,32.23,32.23,0,0,0-3-2.58c-1.54-1.22-3.11-2.39-4.71-3.53a24,24,0,0,0-12.45-4.26,6.84,6.84,0,0,0-5.72-1.29l-1.08-1.37a18,18,0,0,0-3.69-3.55,6.57,6.57,0,0,0-5.23-.68,6.21,6.21,0,0,0-1.19.46c0-.22-.08-.43-.14-.64,0,0,0-.08,0-.12a6.63,6.63,0,0,0-1.75-3,6.72,6.72,0,0,0-3-1.75,43.68,43.68,0,0,0-6.16-.85q-3.09-.45-6.15-1l-1-.4a20.09,20.09,0,0,0-4.66-1.14c-1-.14-1.89-.27-2.83-.38-2.24-.49-4.47-1-6.74-1.38-1.16-.2-2.32-.38-3.47-.59s-2-.29-3-.39a6.47,6.47,0,0,0-2,.12l-1.79-.44q-2.44-.6-4.86-1.29c-1.72-.5-3.36-1.21-5.08-1.69a41.41,41.41,0,0,0-6-1,33.92,33.92,0,0,0-4.27-.3Z" transform="translate(-716.64 -684.44)"/><path class="cls-3" d="M1203.34,881.23a4.27,4.27,0,0,0-1.25,3,4.42,4.42,0,0,0,1.25,3q2.07,2.34,4.07,4.74l.1.12,0,0,1.37,1.66.29.37.19.23a5.48,5.48,0,0,0,.35.49l.27.29.19.24a4,4,0,0,0,.43.58,2.85,2.85,0,0,0,.25.33,3.67,3.67,0,0,0,.37.43v0q2.84,3.69,5.49,7.51l.45.66c.09.13.18.27.28.4h0l.42.62h0l1,1.46q2.82,4.27,5.42,8.68l.93,1.59.27.49,0,0c.42.74.83,1.48,1.24,2.23q2.49,4.49,4.72,9.1l0,.05.6,1.25v0l.37.79.6,1.29q1.15,2.52,2.24,5.07c.46,1.09.91,2.2,1.35,3.3.15.4.31.79.46,1.19l.75,2,0,0,.17.44v0q1.88,5.06,3.47,10.2l.15.49.21.69c.12.38.23.77.35,1.15.15.54.31,1.07.46,1.6q1.66,5.85,3,11.8h0l0,.18h0l.51,2.47c.56,2.8,1,5.61,1.49,8.43a4.57,4.57,0,0,0,.13.88v0a4.24,4.24,0,0,0,.15,1c0,.4.11.8.16,1.19s.11.88.17,1.31q.66,5.45,1,10.92v0c0,.23,0,.47,0,.71s0,.53,0,.79h0c0,.47,0,.94.07,1.4v0c.18,3.65.24,7.3.21,10.95,0,.78,0,1.56,0,2.33,0,1,0,1.93-.09,2.9v.08h0q-.21,5.16-.69,10.31c0,.44-.09.88-.13,1.32s-.09.86-.14,1.29a4.43,4.43,0,0,0-.09.9l-.06.53-.33,2.63q-.45,3.24-1,6.46l-.09.51-.18,1,0,.23c-.1.5-.19,1-.28,1.5l-.09.44c-.08.44-.17.88-.26,1.32,0,.08,0,.17,0,.25q-1.08,5.32-2.46,10.58h0c-.2.78-.41,1.55-.63,2.33s-.36,1.31-.55,2c-.31,1.06-.62,2.11-.94,3.17h0l-.18.61c-.2.62-.39,1.23-.59,1.84s-.37,1.15-.56,1.72-.35,1.06-.53,1.59c-.06.17-.12.34-.17.51l0,0c-.25.73-.51,1.46-.77,2.19-.2.57-.41,1.14-.62,1.71-.12.32-.24.64-.35,1-.06.13-.11.27-.16.41-.74,2-1.52,3.9-2.32,5.83-.44,1-.88,2.06-1.34,3.09h0l-1,2.31q-2.45,5.28-5.21,10.42a2.12,2.12,0,0,1-.11.21h0c-.28.51-.56,1-.83,1.52l-.92,1.63v0l-.38.67q-2.57,4.47-5.36,8.8l-.75,1.15v0l-.77,1.15,0,0-1.29,1.9q-2.87,4.15-6,8.17l-.43.55,0,0c-.57.72-1.13,1.43-1.71,2.14q-3.27,4-6.76,7.9l-.05,0-.94,1h0c-.65.71-1.31,1.42-2,2.12q-3.47,3.65-7.12,7.11l-.68.64-1.49,1.39-.33.29-.06.06q-4,3.63-8.19,7l-.81.65a5,5,0,0,0-.73.58l-.35.28a4.13,4.13,0,0,0-.77.61l-.43.33-.07.06c-1.78,1.36-3.58,2.7-5.41,4l-.06,0c-.48.35-1,.69-1.45,1l-.91.64a4.48,4.48,0,0,0-2,2.54,4.25,4.25,0,0,0,3,5.23,4.12,4.12,0,0,0,3.27-.43l2-1.4.08-.05q3.09-2.2,6.11-4.52a4.13,4.13,0,0,0,.85-.66l.33-.25a4.21,4.21,0,0,0,.82-.64l0,0,1-.77,0,0,.31-.24.09-.08.7-.55v0l.13-.1.32-.26.78-.64.08-.06q3.23-2.67,6.36-5.48l.18-.15.73-.67.09-.08.12-.11.13-.12,1.05-1h0l.53-.5,0,0,.4-.37.08-.08.79-.75.13-.13q3.16-3,6.19-6.21l.1-.1.24-.26.16-.17,1.63-1.74a.86.86,0,0,1,.13-.14c.07-.08.14-.15.2-.23l.08-.08c.17-.19.35-.38.52-.58h0l.14-.16.41-.45.12-.14q3.08-3.45,6-7h0l.32-.39.12-.15c.44-.55.89-1.11,1.32-1.67a.27.27,0,0,0,.07-.08l.42-.53.55-.71.49-.63v0c2.07-2.7,4.09-5.44,6-8.23.06-.07.11-.15.16-.22l.31-.46.45-.65.07-.11.84-1.26.47-.7.06-.1.17-.26.1-.14c.2-.32.4-.63.61-.94l.06-.1q2.44-3.81,4.71-7.72l.07-.11.64-1.13.06-.1,0-.06c.21-.36.41-.72.61-1.08l0-.09v0l.06-.11c.23-.4.45-.8.67-1.2l.06-.1.15-.3c.09-.15.17-.31.26-.47l.21-.39,0-.1q2.48-4.62,4.69-9.38l0-.1.32-.69.07-.16c.28-.61.56-1.23.83-1.84l0-.07.14-.3c0-.13.11-.26.17-.39l0-.09c1.44-3.29,2.81-6.6,4.08-10l.06-.14.07-.2c0-.11.09-.22.13-.34l0,0c.09-.24.18-.48.26-.71a.78.78,0,0,0,0-.14l.15-.4c.09-.22.17-.45.25-.67l0-.12,0-.11.05-.14c.11-.3.22-.6.32-.9l0-.07.18-.51.34-1,0-.06c0-.1.07-.19.1-.29l0-.08.09-.26.36-1.07,0-.13.37-1.1,0-.12.07-.22v0l.36-1.1,0-.12,0-.09.06-.16.39-1.27v0l.06-.16c.09-.31.18-.62.28-.93l0-.12c.18-.59.35-1.18.53-1.78,0,0,0-.1,0-.15.07-.22.13-.44.19-.65s.12-.41.17-.61a1.24,1.24,0,0,0,0-.16v0l0,0,.21-.75a.83.83,0,0,1,0-.15l.54-2a.19.19,0,0,1,0-.08c.08-.29.15-.58.23-.87l0-.16c.79-3.11,1.52-6.23,2.16-9.37,0,0,0-.07,0-.1s.06-.28.08-.42l0-.15,0-.15c0-.24.1-.48.14-.72l0-.06a1.55,1.55,0,0,1,0-.21v-.07l.09-.47,0-.15c0-.18.07-.36.1-.54v-.06l.09-.48.18-1v0c.06-.37.13-.73.19-1.1l0-.17c.52-3.08,1-6.18,1.36-9.28a5.2,5.2,0,0,0,.13-1l.13-1.1v-.1l0-.23V1030l.12-1.1s0-.08,0-.13v-.06a1.49,1.49,0,0,1,0-.21c0-.43.09-.87.13-1.3,0,0,0-.08,0-.11V1027c0-.2,0-.39,0-.59l0-.35a.76.76,0,0,1,0-.15c.27-3.15.48-6.3.6-9.46v0c0-.27,0-.54,0-.81v-.16a2.44,2.44,0,0,1,0-.27v-.13c0-.42,0-.85,0-1.27v-.31c0-.34,0-.68,0-1v-.37c0-.27,0-.55,0-.82v-.36c0-3,0-6-.14-9v-.17c0-.38,0-.76,0-1.13v-.23s0-.08,0-.12c0-.25,0-.5,0-.75s0-.24,0-.36v-.28a.19.19,0,0,0,0-.08c0-.31,0-.62,0-.92v0l-.12-1.79c0-.08,0-.16,0-.24q-.32-4.32-.83-8.61a.41.41,0,0,0,0-.11l0-.31c0-.2-.05-.4-.07-.6v-.09c0-.11,0-.22,0-.34a.49.49,0,0,0,0-.12c-.06-.48-.13-1-.19-1.46a4.31,4.31,0,0,0-.15-1.12c0-.12,0-.25-.05-.37a5,5,0,0,0-.15-1.08c0-.3-.09-.6-.14-.9,0,0,0-.05,0-.08q-.68-4.5-1.56-9l0-.14c0-.18-.07-.37-.11-.55l0-.14-.12-.62,0-.12c0-.16-.06-.31-.1-.47s-.1-.5-.16-.75l0-.15v-.05h0c-.1-.46-.21-.93-.31-1.39,0-.07,0-.13,0-.19q-1.18-5.24-2.66-10.4a1.09,1.09,0,0,0,0-.17l-.12-.42,0-.11c-.11-.38-.22-.77-.34-1.15v-.05l0-.1,0-.09-.39-1.28,0-.17c-.11-.36-.22-.73-.34-1.09a.56.56,0,0,0,0-.12q-1.31-4.12-2.79-8.21a.69.69,0,0,0-.05-.13l-.46-1.26a.42.42,0,0,1,0-.1c-.29-.78-.59-1.55-.89-2.32l-.09-.23,0-.06,0-.09-.33-.84-.14-.34-.06-.16c-1.2-3-2.45-5.91-3.78-8.83,0-.06,0-.11-.07-.17l-.21-.45c-.13-.27-.25-.55-.38-.82l0-.07c-.13-.26-.25-.53-.37-.79a.41.41,0,0,0,0-.09l-.27-.59c-.13-.26-.25-.52-.38-.77l-.12-.25a.36.36,0,0,0,0-.09l-.12-.26-.35-.71-.06-.12c-1.3-2.62-2.64-5.21-4.06-7.78l-.06-.11-.52-.95c-.06-.09-.11-.19-.16-.28l0,0-.57-1-.08-.14-.06-.11-.72-1.25-.6-1-.09-.14c-1.47-2.48-3-4.93-4.57-7.35a.36.36,0,0,1-.07-.1l-.8-1.2c-.18-.27-.36-.55-.55-.82l-.13-.2v0c-.26-.39-.52-.77-.79-1.15l-.09-.14,0-.06c-.2-.3-.4-.59-.61-.88h0v0c-1.72-2.46-3.51-4.88-5.33-7.27a4.41,4.41,0,0,0-.49-.67l-.22-.3c-.09-.12-.19-.23-.29-.34a3.56,3.56,0,0,0-.55-.68l0,0,0,0a4.23,4.23,0,0,0-.62-.79l0,0,0-.07,0-.05,0-.06-.07-.08c-.26-.34-.53-.66-.79-1l0,0-.09-.12-.81-1c-.21-.26-.43-.52-.64-.79l-.09-.09c-1.33-1.61-2.7-3.2-4.09-4.77a3.82,3.82,0,0,0-2.91-1.24,4.4,4.4,0,0,0-3.1,1.24Zm8.13,15.81.19.24-.19-.24Zm24,41.4.15.34-.15-.34Z" transform="translate(-716.64 -684.44)"/><path class="cls-3" d="M1048.56,815.93l-2,.29a4.75,4.75,0,0,0-1,.15,4.16,4.16,0,0,0-1,.15h0l-.22,0h0l-.29,0-.83.13-.52.09h-.08q-4.63.76-9.22,1.7h0l-1.32.28-.12,0h-.07l-.75.16-.11,0-.5.11-.14,0-1.12.25-.09,0-.4.09-1.1.25-.15,0q-4.41,1-8.78,2.24l-.17,0-1.41.39-.1,0-1.24.35-.15,0-.36.11-.18,0-.11,0-.67.2-.12,0-1,.3-.07,0q-4.39,1.35-8.73,2.9l-.11,0-1.21.44-.05,0c-.67.24-1.35.49-2,.75l-.23.08q-6.24,2.38-12.34,5.14h0l-.26.12-.5.22-.11.06-1.53.71-.21.1-.5.23-.15.08h0q-4.8,2.29-9.46,4.86h0l-.23.13-.23.12-.13.08q-5.12,2.87-10,6.05l-.16.1-.29.19-.29.19h0l-.53.35,0,0-.12.08-.74.49-.18.12-1.13.77-.12.08q-3.94,2.75-7.75,5.71a4.53,4.53,0,0,0-.82.64h0l-1.06.84-.08.07-.72.58-.26.2-.73.61,0,0q-3.72,3.09-7.25,6.4l-.09.08-.24.23,0,0c-.52.49-1,1-1.54,1.49l-.11.1-.57.57,0,0a143.44,143.44,0,0,0-15.47,18.27l-.07.1,0,.06-.24.34-.08.11-.27.39-.12.18-.51.74-.9,1.33a.86.86,0,0,1-.07.1l-.54.83a.57.57,0,0,0-.08.13c-1.44,2.22-2.81,4.47-4.11,6.77a.75.75,0,0,0-.07.12,2,2,0,0,0-.11.2l-.17.29-.13.23-.09.17c-.44.81-.88,1.62-1.31,2.44l-.08.14-.12.24c-1.38,2.69-2.68,5.41-3.87,8.19,0,.07-.06.15-.1.23l-.42,1h0c-.77,1.83-1.51,3.68-2.2,5.54a3.05,3.05,0,0,0-.13.32l-.3.86v0h0q-1.38,3.88-2.51,7.85l-.06.18c-.06.23-.13.46-.19.68l0,.09,0,.1c-.84,3.1-1.57,6.23-2.17,9.38l0,.12-.12.65,0,.18a135.76,135.76,0,0,0-1.89,15.17.57.57,0,0,0,0,.13c0,.63-.08,1.26-.11,1.89a.45.45,0,0,1,0,.11c0,.38,0,.76-.05,1.15v.16q-.17,4.54,0,9.07v.13l0,.75v0c0,.15,0,.3,0,.45v.09c0,.17,0,.33,0,.5a.57.57,0,0,1,0,.13c.17,3.26.45,6.52.85,9.76,0,0,0,.09,0,.13,0,.26.07.51.1.76l0,.23.15,1.13v0a151.42,151.42,0,0,0,3.07,15.94.29.29,0,0,1,0,.09l.13.49,0,.11q1.1,4.2,2.42,8.34a.75.75,0,0,0,.05.16l.36,1.11,0,.13.42,1.23,0,.12c.12.32.23.64.34,1l.06.15,0,.1a.19.19,0,0,1,0,.07c.11.31.22.62.34.93l.06.17c1,2.65,2,5.26,3.07,7.86a4.51,4.51,0,0,0,.44,1c0,.1.08.2.13.3a4,4,0,0,0,.41,1l.16.37a5,5,0,0,0,.39.89l.36.81a.54.54,0,0,1,0,.11l.06.13.11.24c.13.29.27.59.4.89l0,0c.63,1.39,1.29,2.76,2,4.13a4.1,4.1,0,0,0,2.54,1.95,4.25,4.25,0,0,0,5.22-3,4.45,4.45,0,0,0-.43-3.27q-1-2.11-2-4.25c-.23-.49-.45-1-.67-1.48l-.09-.2a4.07,4.07,0,0,0-.39-.88v0a4.93,4.93,0,0,0-.4-.92l-.33-.77q-1.51-3.66-2.87-7.38h0l-.78-2.22a.36.36,0,0,0,0-.11c-.2-.61-.41-1.22-.61-1.83Q915,995,913.7,990.22a143.09,143.09,0,0,1-3-15.35q-.7-5.5-1-11l0-.84q-.21-5.52,0-11c0-.93.1-1.86.16-2.8v0c.17-2.37.41-4.72.7-7.08q.39-2.81.9-5.58,1-5.51,2.54-10.9c.83-2.93,1.77-5.83,2.8-8.7q1-2.77,2.16-5.5,1.66-3.87,3.59-7.63l0,0c.67-1.31,1.37-2.6,2.09-3.89q2.21-3.9,4.65-7.64c.36-.55.73-1.09,1.1-1.63l0,0c.43-.63.86-1.25,1.3-1.87.92-1.3,1.86-2.57,2.82-3.84A141.36,141.36,0,0,1,946.6,871.3l0,0,1.7-1.65.09-.08q3.83-3.62,7.91-7l.65-.54a4.1,4.1,0,0,0,.7-.56l.34-.27,1.39-1.09c1.89-1.44,3.8-2.84,5.75-4.2l0,0c.9-.63,1.8-1.24,2.71-1.84l.05,0,.73-.49q5.46-3.57,11.16-6.73h0q4.83-2.66,9.8-5c1-.47,2-.92,2.94-1.37,1.35-.61,2.7-1.2,4-1.78,2.15-.89,4.31-1.76,6.49-2.58l0,0,3.09-1.13q4.8-1.71,9.68-3.21l1.84-.55.08,0,1.92-.55q5.49-1.56,11.06-2.83l.79-.18.1,0,2.08-.45.13,0,.19,0h.05c3.75-.8,7.52-1.49,11.3-2.11a4.09,4.09,0,0,0,.6-.07c.19,0,.39-.06.58-.11l1.09-.17h0l3-.44a4,4,0,0,0,2.55-2,4.25,4.25,0,0,0-1.53-5.81l-1-.43a4,4,0,0,0-2.25,0Zm-89.32,44.32-.28.21.28-.21Zm-40.41,51.4-.18.42.13-.3.05-.12Z" transform="translate(-716.64 -684.44)"/><path class="cls-3" d="M938.09,943c-.59,2.41-1.11,4.82-1.58,7.26l0,.11-.27,1.47c0,.11,0,.21-.05.31,0,.27-.1.54-.14.8,0,.09,0,.18,0,.26a.36.36,0,0,1,0,.11c-.07.42-.13.84-.2,1.25l0,.2v0c-.06.43-.13.86-.19,1.28l0,.36c-.47,3.25-.86,6.51-1.13,9.78,0,0,0,.08,0,.12l0,.44c0,.15,0,.3,0,.44v.05c0,.09,0,.19,0,.28s0,.07,0,.1,0,.12,0,.18,0,.23,0,.34,0,.39,0,.59a.37.37,0,0,0,0,.11c0,.08,0,.16,0,.25a1.23,1.23,0,0,0,0,.2c0,.46,0,.93-.07,1.39,0,0,0,.07,0,.1,0,.31,0,.62,0,.93v.15q-.21,5.14-.06,10.31v.13c0,.14,0,.28,0,.42h0c0,.29,0,.57,0,.86v.1l0,.53h0c0,.31,0,.62,0,.94,0,.05,0,.11,0,.17s0,.23,0,.34v.05c0,.41,0,.82.07,1.23,0,.1,0,.19,0,.28.2,2.94.47,5.87.83,8.8,0,.05,0,.1,0,.15l.09.74c0,.24.07.48.1.72v0a4.31,4.31,0,0,0,.15,1.12l.06.43a4.84,4.84,0,0,0,.15,1.07c0,.17,0,.34.08.52a4.16,4.16,0,0,0,.15,1,2,2,0,0,0,0,.24c0,.1,0,.21,0,.31h0l0,.15c0,.18.05.35.08.53l0,.13c.5,3,1.07,6,1.73,8.92a.69.69,0,0,1,0,.13c.1.42.19.84.29,1.26a.64.64,0,0,1,0,.07l0,.19.21.9,0,.11c.11.46.23.92.34,1.38l.09.36s0,0,0,.07l0,.12c0,.1,0,.21.08.31s.05.2.07.29.11.42.16.62a.74.74,0,0,1,0,.14q1,3.76,2.16,7.5a4.25,4.25,0,1,0,8.19-2.26c-.85-2.75-1.64-5.53-2.37-8.32l-.45-1.79c-.12-.49-.23-1-.35-1.46v-.06c-.1-.4-.19-.8-.28-1.2q-1.15-5.16-2-10.37a4.68,4.68,0,0,0-.14-.9c0-.17-.05-.34-.08-.5a4.31,4.31,0,0,0-.14-1c0-.17-.05-.34-.08-.51q-.74-5.64-1-11.3c0-.54-.06-1.07-.08-1.61s0-1-.06-1.45,0-1-.05-1.55h0q-.1-5.15.13-10.28c0-.3,0-.6,0-.9v0c0-.53.06-1.07.1-1.6l.15-2.12h0c.19-2.24.42-4.48.71-6.71.05-.42.11-.85.18-1.27h0c.14-.92.28-1.84.43-2.75v-.08c0-.09,0-.18.05-.27v0l.33-1.83q.76-4.08,1.75-8.12a4.31,4.31,0,0,0-3-5.23,4,4,0,0,0-1.09-.15,4.25,4.25,0,0,0-4.14,3.12Zm5.54,15.9c0,.21,0,.41-.08.62,0-.21.05-.41.08-.62Z" transform="translate(-716.64 -684.44)"/><path class="cls-3" d="M944,1043.15l-.25.27-.08.09-.42.45h0s0,0,0,0l-.16.18-.09.1-.19.21,0,0-.09.11-.21.23-.15.17-.42.48-.09.09-.47.54-.16.2h0c-.11.12-.21.25-.31.37s-.3.35-.45.52l-.09.11c-.12.14-.23.28-.35.41l0,.07-.25.3,0,.05-.07.09-.18.21,0,0-.1.12-.7.87-.1.12c-1.37,1.71-2.7,3.46-4,5.23l0,0h0l0,.06v0h0l-.24.34,0,.06,0,0-.1.13-.77,1.09,0,.05c-.8,1.15-1.58,2.31-2.34,3.49l0,.06-.1.15-.54.86-.08.13c-1.1,1.76-2.16,3.54-3.17,5.36l0,.07-.06.11-.06.11,0,.07c-.08.14-.15.28-.22.42l-.47.86-.1.18c-.63,1.2-1.24,2.41-1.83,3.62l0,.08c-.28.57-.54,1.15-.81,1.72l0,.11c-.06.12-.11.24-.16.35-.6,1.32-1.18,2.66-1.74,4a4.58,4.58,0,0,0-.39,1l0,0c0,.09-.07.18-.11.27l0,.09a104.94,104.94,0,0,0-4,11.81l0,.12c-.05.15-.08.3-.12.46a0,0,0,0,0,0,0l-.17.63a.43.43,0,0,1,0,.11c0,.12-.07.24-.1.37l0,.13v0l0,.09a1.89,1.89,0,0,1-.05.23s0,.1,0,.15,0,.12,0,.17c-.29,1.26-.56,2.52-.82,3.79,0,0,0,0,0,0s0,.1,0,.14l0,.13c0,.19-.07.37-.1.56,0,0,0,.07,0,.1s0,.19-.05.28c-.33,1.83-.6,3.67-.84,5.51a4.49,4.49,0,0,0-.13,1c0,.13,0,.27,0,.41a.17.17,0,0,0,0,.07c-.18,1.63-.31,3.26-.4,4.89a0,0,0,0,0,0,0,2.53,2.53,0,0,0,0,.28,1.48,1.48,0,0,0,0,.21.41.41,0,0,0,0,.11c0,.29,0,.59,0,.89v0a.49.49,0,0,0,0,.12s0,.1,0,.14v.26c0,.1,0,.2,0,.3v.15c0,1.11,0,2.23,0,3.34v.08a.25.25,0,0,0,0,.08h0v.24s0,.1,0,.15c0,.4,0,.81,0,1.21v0c0,.14,0,.28,0,.42a.61.61,0,0,1,0,.14c.07,1.32.18,2.63.31,4a.19.19,0,0,1,0,.08l0,.26s0,.07,0,.09,0,.24,0,.35,0,.23,0,.34a.28.28,0,0,1,0,.09c0,.16,0,.32.07.48l.15,1.13s0,0,0,0a75.7,75.7,0,0,0,1.71,8.58l.06.22c.48,1.72,1,3.42,1.65,5.09l0,.09.06.15c.05.14.1.28.16.41l.06.17,0,.09.12.3c.63,1.56,1.29,3.1,2,4.61a1.63,1.63,0,0,0,.11.23l.18.36,0,.07q1.14,2.25,2.47,4.39l0,.07a.25.25,0,0,1,0,.07l.3.47.15.22a58.48,58.48,0,0,0,6.47,8.15l.1.11.14.14a.81.81,0,0,0,.1.09,60.75,60.75,0,0,0,6.43,5.56,4,4,0,0,0,3.27.43,4.23,4.23,0,0,0,3-5.22l-.42-1a4.31,4.31,0,0,0-1.53-1.53h0a56,56,0,0,1-4.86-4.38h0q-1.73-1.8-3.28-3.73c-.83-1.11-1.63-2.24-2.38-3.42l-.06-.09-.1-.17-.12-.18h0c-.87-1.41-1.67-2.86-2.42-4.35-.47-.93-.9-1.86-1.31-2.82-.08-.18-.15-.36-.23-.55v0s0-.08,0-.13l-.06-.16-.21-.53,0-.12c-.6-1.6-1.12-3.22-1.59-4.86a69.92,69.92,0,0,1-1.74-8.35l-.13-1.08c-.16-1.53-.28-3.07-.35-4.61q0-.87-.06-1.74h0c0-1.28,0-2.56,0-3.84V1113l0-.78v-.15a.76.76,0,0,1,0-.15c0-.19,0-.38,0-.57v0c.07-1.46.19-2.93.33-4.39a4.33,4.33,0,0,0,.1-.89.62.62,0,0,1,0-.13c0-.34.08-.69.13-1,.2-1.4.43-2.81.69-4.21,0,0,0-.07,0-.11a1.62,1.62,0,0,1,0-.19.44.44,0,0,1,0-.1c.28-1.46.6-2.92,1-4.37l.06-.25,0-.12.34-1.33a106.24,106.24,0,0,1,3.76-11.44,4.08,4.08,0,0,0,.33-.84,2.44,2.44,0,0,0,.1-.24l.27-.65c.38-.88.77-1.77,1.18-2.65.26-.58.54-1.17.82-1.75a.36.36,0,0,0,0-.09q1.05-2.16,2.19-4.29l0,0,.08-.15.06-.11.39-.72.09-.16c1.13-2,2.32-4,3.56-6l0,0,.35-.55,0-.06q1.32-2,2.72-4l.06-.08.51-.71.06-.09h0l.13-.18.08-.11.06-.09h0s0,0,0,0l.31-.43h0c.48-.66,1-1.31,1.46-2s.84-1.06,1.27-1.59l.37-.47.42-.5c.39-.48.8-1,1.19-1.43l.7-.81.89-1,0,0,.19-.21.06-.07.35-.39h0l.12-.13,0,0,.25-.29,0,0,.18-.19.26-.29.2-.21s0-.07,0-.11a7.79,7.79,0,0,1-3.87-2.12,7.87,7.87,0,0,1-2.1-3.81l-.15.16Z" transform="translate(-716.64 -684.44)"/><path class="cls-3" d="M976.87,993.81a55.88,55.88,0,0,0-1,5.62c0,.54-.06,1.09-.08,1.65a6.92,6.92,0,0,0-.25.89,10,10,0,0,1-.4,1.32c-.28.76-.49,1.56-.79,2.32s-.52,1.27-.77,1.91-.49,1.09-.72,1.65c.14-.34.28-.68.43-1a26.56,26.56,0,0,1-2.61,4.55c.13-.17.27-.34.4-.52-.5.65-1,1.31-1.47,2-2.4,3-5.28,5.51-7.58,8.56-.36.46-.72.93-1.06,1.42s-.54.73-.81,1.09l0,0c-.42.54-.82,1.09-1.22,1.63-1,1.21-2.09,2.34-3.16,3.48-.6.64-1.28,1.23-1.93,1.83s-1.2,1.24-1.82,1.84c-1.07,1-2.29,2-3.28,3.06a38,38,0,0,0-3.25,4l.33-.43c-.68.91-1.28,1.85-1.91,2.79l-.09.1,0,0c-.36.44-.65.67-1,1.17l-.15.19a3.91,3.91,0,0,0-.86,1,4.24,4.24,0,0,0,1.53,5.81,4.09,4.09,0,0,0,3.27.43,5.43,5.43,0,0,0,2.08-1.2,1.75,1.75,0,0,0,.44-.48h0a3.57,3.57,0,0,0,.72-.94,4.57,4.57,0,0,0,.29-.36,39,39,0,0,0,2.35-3.37c.18-.24.35-.48.52-.73a24.05,24.05,0,0,1,2.46-2.68c1.22-1.11,2.49-2.22,3.62-3.43s2.67-2.51,3.88-3.88c.68-.74,1.36-1.47,2-2.25s1.24-1.65,1.84-2.49q.6-.77,1.17-1.53l-.25.33.6-.81c.18-.22.36-.45.53-.69.61-.73,1.28-1.43,1.91-2.15.75-.87,1.58-1.66,2.36-2.49a67.09,67.09,0,0,0,4.65-5.72l-.12.15a18.4,18.4,0,0,0,1.8-2.73c.57-1.11,1.1-2.21,1.58-3.37l-.42,1c.45-1,.86-2,1.28-3,.65-1.54,1.14-3.12,1.68-4.71.14-.41.2-.85.35-1.27a6.94,6.94,0,0,0,.27-2.18c0-.56,0-1.11.09-1.66.18-1.11.42-2.21.65-3.31a4.41,4.41,0,0,0-.43-3.28,4.23,4.23,0,0,0-2.54-1.95,3.76,3.76,0,0,0-1.06-.14,4.21,4.21,0,0,0-4.17,3.11Zm-5.49,18-.25.33.25-.33Zm-26.8,32,0,0,0,0Zm-.88.38-.13.06,0,0,.09,0Z" transform="translate(-716.64 -684.44)"/><path class="cls-3" d="M906,1026.34a4.12,4.12,0,0,0-1.25,3c.13,1.28.2,2.58.36,3.85.13,1,.31,1.9.47,2.85s.08,1.64.09,2.45.08,1.91,0,2.85a22.05,22.05,0,0,1-1,4.17,11,11,0,0,1-.67,1.21,9.41,9.41,0,0,1-.83.84c-.32.21-.64.41-1,.59l-1.08.6h-.7a7.34,7.34,0,0,0-.77-.21c-.63-.11-1.26-.2-1.89-.25a4.38,4.38,0,0,0-2.06.37,6,6,0,0,0-1.34.6c-.31.21-.62.42-.92.65a12.75,12.75,0,0,0-2.91,3.08c-.25.37-.53.76-.75,1.16a13.86,13.86,0,0,0-.81,2.07,20.81,20.81,0,0,0-.94,3.16,8.06,8.06,0,0,0,0,3.49,9.71,9.71,0,0,0,.61,1.63c.08.21.17.41.26.62.2.5.39,1,.63,1.47a9.17,9.17,0,0,0,1.11,1.56,7.21,7.21,0,0,0,1,.94l-.11-.08a15.49,15.49,0,0,0,1.59,1.21,6.16,6.16,0,0,0,2.19.79c.25.11.51.22.77.31a3.87,3.87,0,0,0,.69.17c0,.37,0,.73,0,1.09v11a13.45,13.45,0,0,0,.18,2.18c0,.33.13.65.2,1a11,11,0,0,0,.41,2.21,8.6,8.6,0,0,1,.24.87,6.87,6.87,0,0,0,.49,1.38,6.44,6.44,0,0,0,.46,1l.15.26c.13.32.27.64.42,1l.14.28a5.08,5.08,0,0,0,1.74,1.8,4.1,4.1,0,0,0,3.28.43,4.25,4.25,0,0,0,3-5.23,3.84,3.84,0,0,0-.72-1.41l0-.06c-.08-.18-.15-.35-.23-.52v0h0q-.2-.42-.42-.84h0c-.09-.32-.13-.66-.24-1s-.17-.57-.24-.86c-.06-.49-.12-1-.2-1.47a5.27,5.27,0,0,0-.1-.52c-.07-2.91,0-5.83,0-8.74,0-1.26,0-2.51,0-3.77,0-.65,0-1.31,0-2a17.69,17.69,0,0,0-.25-1.92,5.33,5.33,0,0,0-1.5-2.61,4.59,4.59,0,0,0-1.16-1,5.18,5.18,0,0,0-2.71-.78c-.36,0-.73,0-1.09,0s-.49-.21-.76-.31a2.93,2.93,0,0,0-.53-.13l-.19-.2-.18-.31c0-.08-.07-.17-.1-.26-.11-.24-.21-.49-.31-.74l0,.11-.09-.23a13.94,13.94,0,0,1,.49-1.55c.15-.42.26-.86.4-1.29a8.83,8.83,0,0,1,.59-.91,4.59,4.59,0,0,1,.37-.39l.11,0a7.76,7.76,0,0,0,2.92.23,8.51,8.51,0,0,0,2.64-.45c.85-.34,1.54-.77,2.35-1.15a12.46,12.46,0,0,0,3.41-2.47,13.22,13.22,0,0,0,1.66-2.07,12.08,12.08,0,0,0,1-1.92c0,.1-.08.21-.13.31l.21-.48c.07-.18.14-.36.22-.54l-.14.33a22,22,0,0,0,1.23-3.81c.12-.61.19-1.24.3-1.85a14.54,14.54,0,0,0,.2-2.94c0-1.09,0-2.18,0-3.26a33.35,33.35,0,0,0-.58-4.33c-.12-1.09-.19-2.19-.3-3.27a4.55,4.55,0,0,0-1.24-3,4.26,4.26,0,0,0-6,0Zm-10.6,44.72h0l0,0,0,0Zm-2.52-20.69.37-.29-.37.29Zm.37-.29.19-.14.3-.23-.49.37Z" transform="translate(-716.64 -684.44)"/><path class="cls-2" d="M1043.24,1117.69a11.19,11.19,0,0,0-2.2,1.35,9.72,9.72,0,0,0-1.33.82,13.82,13.82,0,0,0-4.32,2.69,8.41,8.41,0,0,0-2,3.39,18.29,18.29,0,0,0-.5,3.29,6.92,6.92,0,0,0,.23,1.9l0,.1a8,8,0,0,0-1.2,4,12.1,12.1,0,0,0,.43,2.82,11.11,11.11,0,0,0,4.5,5.66,21.73,21.73,0,0,0,9.07,2.55,12.13,12.13,0,0,0,4.7-.74,18.38,18.38,0,0,0,4.23-2.11,10.65,10.65,0,0,0,4.07-4.79,9.08,9.08,0,0,0,1.38-2.12,5.3,5.3,0,0,0,.38-.43,9.91,9.91,0,0,0,2-3.46,11.13,11.13,0,0,0,.42-1.47,12.72,12.72,0,0,0-.1-6,11.07,11.07,0,0,0-2.93-4.86,9.83,9.83,0,0,0-2.59-1.79,10.59,10.59,0,0,0-2-.78,20.94,20.94,0,0,0-2.32-.89,19.76,19.76,0,0,0-3.16-.48,8.23,8.23,0,0,0-1.1-.07,13.37,13.37,0,0,0-5.57,1.43Z" transform="translate(-716.64 -684.44)"/><path class="cls-4" d="M1013.67,1149.19c-.71,1.09-1.46,2.17-2.22,3.22a40,40,0,0,1-4,4.16c-.81.75-1.7,1.41-2.49,2.17s-1.47,1.4-2.25,2a46.31,46.31,0,0,1-4.54,2.87c-2.06,1.15-4.16,2.25-6.24,3.39-1.1.6-2.19,1.25-3.31,1.85s-2.11,1.18-3.12,1.84c-2.23,1.44-4.26,3.13-6.33,4.76-2.45,1.84-4.84,3.76-7.12,5.8a43.1,43.1,0,0,0-5.29,5.68l.28-.36c-.09.13-.19.25-.29.38l-.37.48.35-.45a41.87,41.87,0,0,0-3.14,4.67c-1,1.72-1.84,3.49-2.81,5.21a53.2,53.2,0,0,0-2.87,6.35c-.69,1.73-1.23,3.5-1.8,5.27a40.43,40.43,0,0,0-1.69,11.62,51,51,0,0,0,.13,6.06,26,26,0,0,0,1.12,5.82c.54,1.64,1.27,3.21,1.82,4.85a61.74,61.74,0,0,0,2.85,7.26,49.18,49.18,0,0,0,3.18,5.73,33.15,33.15,0,0,0,2.22,2.93c.51.62,1.07,1.21,1.59,1.83a43.76,43.76,0,0,1,3.37,5,41.41,41.41,0,0,1,1.79,3.74c.48,1.11,1,2.2,1.48,3.3l.21.51a51,51,0,0,1,1.65,5.17,39.9,39.9,0,0,1,1.08,4.6c.26,2.5.3,5,.33,7.54,0,1.48,0,3,0,4.43,0,1.24-.16,2.47-.3,3.7a21.89,21.89,0,0,1-.55,2.77,32.21,32.21,0,0,1-1.09,3.18,36.79,36.79,0,0,1-2.82,5.15c-1.17,1.79-2.49,3.49-3.78,5.2q-1.74,2.16-3.64,4.18a42.44,42.44,0,0,1-4.25,3.79,21.63,21.63,0,0,1-3.64,2.1,31.08,31.08,0,0,1-6.43,1.69c-1.22.14-2.44.23-3.67.28a38.7,38.7,0,0,1-4.57,0c-1.74-.33-3.41-.91-5.15-1.28a26.39,26.39,0,0,1-3.62-1,23.33,23.33,0,0,1-3.4-2.09,4.34,4.34,0,0,0-2.82-1.08,4.26,4.26,0,0,0-3,7.26,25.13,25.13,0,0,0,3.28,2.31,18.17,18.17,0,0,0,3.9,1.87,37.85,37.85,0,0,0,3.77,1c1.66.38,3.27.94,4.93,1.23a31.18,31.18,0,0,0,7,.28,46.05,46.05,0,0,0,6.2-.65,32.37,32.37,0,0,0,5.31-1.38,23.73,23.73,0,0,0,6.42-3.32c1.07-.8,2.09-1.65,3.12-2.5a25.3,25.3,0,0,0,2.11-1.9c1.24-1.28,2.42-2.61,3.56-4,1.51-1.81,2.91-3.72,4.28-5.62a40,40,0,0,0,3-4.61,42.32,42.32,0,0,0,2.82-6.44,30.14,30.14,0,0,0,1.25-6.24,82,82,0,0,0,.21-13.11,39.85,39.85,0,0,0-1.26-8.34c-.3-1.17-.63-2.33-1-3.5a34.36,34.36,0,0,0-1.35-3.72l0,.11c-.81-2-1.71-4-2.59-5.92a32.37,32.37,0,0,0-2.48-4.65c-.87-1.29-1.77-2.58-2.71-3.82s-1.93-2.3-2.88-3.47a44,44,0,0,1-4.34-7.8c-.44-1.09-.84-2.2-1.19-3.32s-.74-2-1.12-3a30.37,30.37,0,0,1-1.67-5.4c-.08-.73-.17-1.47-.2-2.2-.06-1.16,0-2.32,0-3.47,0-1.8,0-3.59.24-5.37a51.69,51.69,0,0,1,3.26-11c.42-1,.84-1.94,1.33-2.88.64-1.23,1.37-2.42,2-3.65a44.68,44.68,0,0,1,3.65-6,39.4,39.4,0,0,1,4.39-4.65c1.69-1.5,3.43-3,5.2-4.35,1.31-1,2.6-2,3.88-3s2.49-1.81,3.79-2.62c1.46-.9,3-1.64,4.5-2.5,2.79-1.62,5.66-3.09,8.47-4.69a32.77,32.77,0,0,0,7.07-5.32c1.55-1.54,3.32-2.82,4.82-4.4a48.45,48.45,0,0,0,5.46-7.13,4.28,4.28,0,0,0-1.52-5.81,4.06,4.06,0,0,0-2.09-.58,4.49,4.49,0,0,0-3.73,2.1ZM974,1191.47l-.17.22.17-.22Z" transform="translate(-716.64 -684.44)"/><path class="cls-2" d="M1173.16,863.27a15.34,15.34,0,0,0-3.93,1.5,30.33,30.33,0,0,0-10.14,7.31,32.18,32.18,0,0,0-3.9,5.73c-.4.8-.75,1.61-1.07,2.43a9.43,9.43,0,0,0-.68,3.38,16,16,0,0,0,.64,4.13,17.92,17.92,0,0,0,1.41,3.17c-3.74,3.9-7.48,7.81-11.32,11.62a6.79,6.79,0,0,0,9.6,9.6c2.56-2.53,5-5.13,7.54-7.71,2-2.1,4.12-4.18,6.11-6.34,2.34-2.55,4.73-5.06,7-7.69.58-.68,1.17-1.36,1.75-2a6.76,6.76,0,0,0,3.06-.91c.5-.38,1-.77,1.5-1.16a11.46,11.46,0,0,0,1.38-1.84,9.18,9.18,0,0,0,.48-1l.45-1.05c.16-.21.32-.42.47-.64a10.57,10.57,0,0,0,1.91-2.31,13.22,13.22,0,0,0,1.08-2.48,8.66,8.66,0,0,0,.39-5.39,6.92,6.92,0,0,0-2.64-3.78,8.54,8.54,0,0,0-3.6-3.42,14.79,14.79,0,0,0-2.75-1.07,9.48,9.48,0,0,0-2.29-.28,13.11,13.11,0,0,0-2.43.25Z" transform="translate(-716.64 -684.44)"/><path class="cls-4" d="M1028.27,1224.25a15.13,15.13,0,0,0-1.8,2,47.92,47.92,0,0,0-3.43,5.26c-1,1.74-1.8,3.57-2.65,5.38a58.14,58.14,0,0,0-2.37,5.93c-.64,1.89-1.4,3.72-2.1,5.58a47.5,47.5,0,0,0-2.42,8.65,56,56,0,0,0-.73,6.18c-.12,2-.07,4,0,6,.08,3.76.4,7.5.58,11.26a49,49,0,0,0,.63,6.51,28.33,28.33,0,0,0,2,5.72l.2.47c.14.34.28.68.43,1a4.18,4.18,0,0,0,1.52,1.52,4.24,4.24,0,0,0,5.81-1.52,4.08,4.08,0,0,0,.43-3.28c-.36-.88-.73-1.76-1.1-2.63a21.81,21.81,0,0,1-1.18-4.1c-.16-1.91-.23-3.81-.34-5.72-.13-2.14-.31-4.27-.39-6.42s-.14-4.15-.15-6.22a49.65,49.65,0,0,1,.4-5.71,46,46,0,0,1,2.18-8.41c.6-1.66,1.27-3.29,1.88-4.95.54-1.47,1-3,1.6-4.44.8-1.86,1.64-3.72,2.6-5.5a42.55,42.55,0,0,1,2.92-4.86c.19-.23.38-.45.58-.67,1,1.58,1.73,3.33,2.61,5s1.7,3.17,2.44,4.82a114.14,114.14,0,0,1,4.86,15.88c.33,1.43.66,2.86,1,4.29s.91,3.09,1.26,4.66.62,3,1,4.43c.28,1.09.54,2.22.73,3.34a78.94,78.94,0,0,1,.22,8.14,4.25,4.25,0,0,0,8.5,0,55.35,55.35,0,0,0-.64-11c-.33-1.61-.77-3.19-1.11-4.8-.4-2-.9-3.86-1.44-5.78s-.92-3.7-1.36-5.55-.87-3.47-1.35-5.18c-.93-3.39-2-6.73-3.23-10a60.86,60.86,0,0,0-2.78-6c-.45-.9-.95-1.78-1.41-2.68-.55-1.06-1.06-2.14-1.64-3.19a16.72,16.72,0,0,0-2.12-3,7.83,7.83,0,0,0-5.47-2.5h-.25a7.8,7.8,0,0,0-4.92,2.2Z" transform="translate(-716.64 -684.44)"/><path class="cls-4" d="M1038.39,1251.14l-.18.28a11.86,11.86,0,0,1-.94,1.06c-.35.22-.71.43-1.06.66-.71.49-1.36,1-2.08,1.52A34,34,0,0,1,1030,1257c-1.55.59-3.16,1-4.75,1.45a18.93,18.93,0,0,1-2.45.48c-1.06.17-2.1.42-3.16.62a33.63,33.63,0,0,1-6.95,0,9,9,0,0,1-.93-.22c-.16-.09-.31-.19-.46-.29-.67-.56-1.32-1.14-2-1.74a4.25,4.25,0,1,0-6,6c.73.68,1.46,1.35,2.24,2a13.87,13.87,0,0,0,2.24,1.57,9.7,9.7,0,0,0,2.83.93,34.4,34.4,0,0,0,7,.41,40.93,40.93,0,0,0,6.61-.93c.77-.15,1.54-.24,2.3-.39s1.49-.4,2.24-.59a30.47,30.47,0,0,0,5.57-2c1.4-.68,2.75-1.47,4.07-2.28a20.75,20.75,0,0,0,1.8-1.32c.49-.37,1-.65,1.55-1a15.26,15.26,0,0,0,3.82-4l.14-.23a4.28,4.28,0,0,0-1.53-5.81,4.1,4.1,0,0,0-2.1-.57,4.35,4.35,0,0,0-3.71,2.09Z" transform="translate(-716.64 -684.44)"/><path class="cls-4" d="M1092,1204.72a70,70,0,0,0-8.62,38.6v.06a75.52,75.52,0,0,0,11.21,35.72h0a.05.05,0,0,0,0,0l.05.08a68.62,68.62,0,0,0,5.28,7.09l.13.17,0,0c.91,1,1.84,2.06,2.81,3l.11.12.13.12h0a54.8,54.8,0,0,0,9.19,7.3l.12.08.65.4h0l.1.06.09,0,.07,0c.53.3,1.06.6,1.6.89a4.33,4.33,0,0,0,5.82-1.53,4.28,4.28,0,0,0-1.53-5.81c-.47-.25-.92-.51-1.38-.77h0l-.36-.21-.59-.35c-1.23-.77-2.42-1.58-3.58-2.45a51.28,51.28,0,0,1-4.13-3.65l0,0c-1.07-1.06-2.08-2.16-3.06-3.29l0,0,0,0c-.48-.58-1-1.16-1.43-1.75q-1.4-1.85-2.65-3.78l-.06-.1a67.65,67.65,0,0,1-5-9.37,73.55,73.55,0,0,1-4.65-17.18c-.2-1.61-.36-3.24-.46-4.86h0a.11.11,0,0,0,0,0,74.77,74.77,0,0,1,.41-13.21,65.24,65.24,0,0,1,4.11-15.32,59.22,59.22,0,0,1,2.94-5.85,4.29,4.29,0,0,0-1.52-5.81,4.17,4.17,0,0,0-2.12-.57,4.25,4.25,0,0,0-3.7,2.09Zm.38,24.76c0,.11,0,.21,0,.32,0-.11,0-.21,0-.32Zm4.32,35.31c0,.1.08.2.13.3,0-.1-.09-.2-.13-.3Z" transform="translate(-716.64 -684.44)"/><path class="cls-4" d="M1165.09,1205.69a4.28,4.28,0,0,0-2.54,2,4.56,4.56,0,0,0-.43,3.28c.45,2.39,1,4.76,1.59,7.12l0,.16.12.44,0,.11.09.34,0,.11c.33,1.14.67,2.28,1,3.42l.12.37v0l.07.21a1.42,1.42,0,0,1,0,.16l.06.16c.48,1.43,1,2.85,1.55,4.26a1.86,1.86,0,0,0,.1.25c.81,2,1.66,4,2.59,6l.06.11c1,2,2,4,3.13,5.95a1,1,0,0,0,.1.17c.69,1.18,1.4,2.33,2.15,3.47l.08.12a1.27,1.27,0,0,0,.13.19c.71,1.08,1.45,2.14,2.22,3.17h0l.15.21.14.18.12.16.17.22,0,0c.1.13.2.27.31.4a4.19,4.19,0,0,0,.66.86h0l.29.38.07.08c.57.73,1.16,1.44,1.75,2.15l.1.11h0l.11.13.08.1a4.26,4.26,0,0,0,7.26-3,4.47,4.47,0,0,0-1.25-3,2.2,2.2,0,0,1-.2-.23l0,0c-.43-.52-.87-1-1.29-1.58a5.13,5.13,0,0,0-.56-.69l0,0h0l-.27-.36-.16-.21c-.78-1.06-1.54-2.13-2.27-3.22l0,0c-.92-1.4-1.8-2.81-2.63-4.26l0,0c-1.14-2-2.19-4-3.17-6.09l0-.06c-.4-.86-.78-1.72-1.16-2.6l-.48-1.19a.25.25,0,0,1,0-.07q-.9-2.3-1.69-4.65l0-.09a.24.24,0,0,0,0-.08c-.46-1.4-.88-2.81-1.27-4.23l0,0c0-.17-.09-.33-.13-.5l0-.06c-.63-2.39-1.16-4.79-1.61-7.22a4.13,4.13,0,0,0-2-2.54,4.29,4.29,0,0,0-3.28-.43Z" transform="translate(-716.64 -684.44)"/><path class="cls-4" d="M1139.33,1217.28c.07,1.11.16,2.2.27,3.3a.92.92,0,0,1,0,.16l.06.5,0,.16v0c0,.31.07.61.11.92,0,0,0,.08,0,.11l.15,1.14a4.68,4.68,0,0,0,.09.91,3.11,3.11,0,0,0,.09.6,4.55,4.55,0,0,0,.13.81l0,.18a2.34,2.34,0,0,1,0,.26s0,.06,0,.08c.07.51.15,1,.24,1.52,0,0,0,.08,0,.13.24,1.38.51,2.75.8,4.12v0c0,.11,0,.22.08.33s.11.48.16.72c0,0,0,.05,0,.08s0,.18.07.28v0c.32,1.34.66,2.68,1,4l0,.1,0,.13s0,.1,0,.15l0,.11c.5,1.68,1,3.35,1.62,5a2.25,2.25,0,0,0,.08.24c.6,1.65,1.25,3.27,1.92,4.89a4.59,4.59,0,0,0,.43,1l0,.06c.21.5.43,1,.65,1.49l.12.26a.41.41,0,0,0,0,.09c.44,1,.89,1.92,1.37,2.87l.08.16c.14.28.28.56.43.83l.06.13.06.12.18.34h0l0,.1.09.17,0,.07c.69,1.27,1.4,2.53,2.15,3.77l0,.05a1.74,1.74,0,0,0,.11.18l.08.14.1.15c.63,1,1.28,2,2,3l0,0,.22.32.12.16c.06.09.11.18.17.26l.08.12.08.1v0c.08.11.16.23.25.34l.15.22.12.16c.5.69,1,1.38,1.54,2.06a4.13,4.13,0,0,0,.63.83l.26.33.26.33a4.09,4.09,0,0,0,3,1.24,4.23,4.23,0,0,0,4.25-4.25l-.15-1.13a4.32,4.32,0,0,0-1.09-1.87l-.14-.18c-.53-.68-1-1.38-1.54-2.07l0,0-.19-.27-.43-.62,0,0q-1.29-1.87-2.48-3.83l0,0c-.82-1.35-1.6-2.73-2.34-4.12l0-.07,0-.06-.62-1.19,0-.05c-.56-1.12-1.1-2.24-1.62-3.38l-.28-.63a4.66,4.66,0,0,0-.4-.92c-.57-1.39-1.11-2.79-1.61-4.2l0-.09q-.92-2.62-1.69-5.29c-.39-1.38-.75-2.76-1.08-4.16h0c-.1-.41-.19-.82-.28-1.23-.35-1.59-.65-3.17-.92-4.77v0l-.06-.36a5,5,0,0,0-.1-.76,4.69,4.69,0,0,0-.09-.64,3.82,3.82,0,0,0-.14-.81c-.06-.5-.12-1-.17-1.49v0c-.14-1.34-.26-2.68-.35-4a4.47,4.47,0,0,0-1.25-3,4.24,4.24,0,0,0-7.25,3Zm14.79,27.32.07.17s0-.11-.07-.17Z" transform="translate(-716.64 -684.44)"/><path class="cls-4" d="M1235,1141.87a4.28,4.28,0,0,0-2.77,5.33c.89,2.74,1.86,5.44,2.91,8.12l0,.1q1.59,4,3.41,7.88a4.43,4.43,0,0,0,.46,1l.08.18,0,.07,0,.07.85,1.77.1.2.21.43a.41.41,0,0,1,.05.09c.77,1.52,1.55,3,2.37,4.51l.09.18.08.14a128.9,128.9,0,0,0,8.79,13.73l.13.16c1.53,2.06,3.13,4.07,4.77,6a4.47,4.47,0,0,0,.67.78l.06.08,0,0a115.21,115.21,0,0,0,9.37,9.76l.18.17,1.13,1a4.23,4.23,0,0,0,7.13-3.16,4.07,4.07,0,0,0-1.34-3.06,115.17,115.17,0,0,1-10.1-10.27,4,4,0,0,0-.6-.71l-.07-.07-.19-.23q-2.09-2.54-4.05-5.18l-.06-.09a127.82,127.82,0,0,1-8.61-13.45l0-.07q-1.34-2.4-2.56-4.86l0-.1c-.26-.52-.52-1-.77-1.56a4.12,4.12,0,0,0-.43-.9l-.12-.26,0,0q-1.5-3.27-2.84-6.63v0c-1.09-2.76-2.1-5.56-3-8.38a4.33,4.33,0,0,0-4.08-3,4.23,4.23,0,0,0-1.26.19Z" transform="translate(-716.64 -684.44)"/><path class="cls-4" d="M1166.26,1223.48c-1.28.85-2.56,1.66-3.87,2.45l-.61.36-.1.06-.1.06h0l-.31.18,0,0-.45.26-.08.05-.64.36-.43.23-.06,0-.13.08-.39.21,0,0,0,0-.4.21-.08,0-.88.46a6.53,6.53,0,0,0-.66.31c-.17.08-.34.16-.51.26a6.24,6.24,0,0,0-.85.44l-.4.19c-.82.38-1.65.74-2.49,1.1l-.72.3-.16.06-.27.11-.48.19-.22.09-.12,0q-2.2.84-4.42,1.59h0l-.55.18-.13,0-.16,0-.16,0c-1.36.43-2.74.82-4.12,1.18l-.16,0-.29.08h0l-.14,0-.83.2-.11,0-2.48.55a5.3,5.3,0,0,0-3.19,2.64,5.5,5.5,0,0,0,2.24,7.45,5.88,5.88,0,0,0,4.26.4l2.18-.48.11,0,.09,0h.12l.23-.06.09,0h0l.54-.14.08,0,.53-.13h0l.44-.12.19-.05q1.66-.45,3.3-1h0l.21-.06.79-.25.09,0,0,0,.35-.12q2.05-.69,4.08-1.47l.11,0,.35-.14.06,0h0l.16-.06.56-.23,1-.41.4-.18c1.06-.45,2.11-.93,3.16-1.41a5.72,5.72,0,0,0,1-.42,6.36,6.36,0,0,0,.59-.28,6.68,6.68,0,0,0,.79-.42l.25-.12.15-.08.7-.35.08,0,.4-.21.1,0,.19-.1.49-.26.61-.33a1.71,1.71,0,0,0,.23-.13l.13-.06.43-.25.12-.06.24-.13.31-.18c.29-.17.59-.33.88-.51h0l.39-.23.22-.13.11-.06.09,0,.36-.22.19-.12q1.67-1,3.3-2.1a5.5,5.5,0,0,0-3-10.15,5.15,5.15,0,0,0-2.87.85Z" transform="translate(-716.64 -684.44)"/><path class="cls-4" d="M1246.16,1176.69a4,4,0,0,0,.77,7.38c1.47.33,2.93.64,4.41,1l.17,0c1.24.26,2.49.5,3.74.74l.15,0h.06l.53.1h0l.17,0,.23,0,.08,0h.07c1.36.25,2.72.49,4.09.71h.07l1.35.22h.06l.52.09h0l.75.12.12,0,.25,0a4.29,4.29,0,0,0,.81.14,3.75,3.75,0,0,0,.57.09,4.17,4.17,0,0,0,.79.1l.19,0a4.88,4.88,0,0,0,.78.13,5,5,0,0,0,.56.08,5.78,5.78,0,0,0,.6.08,3.45,3.45,0,0,0,.72.08l.37,0,.1,0c1.27.16,2.53.33,3.8.48h0l1.1.13h.28l.32,0,3.54.38h.09l.22,0h.06l.51,0h.25l.5,0h0l2.73.23a4,4,0,0,0,3-6.73,4.11,4.11,0,0,0-2.83-1.27l-2.42-.21-.31,0-.15,0-.66-.06h-.13l-.47,0-.24,0h0c-1.3-.13-2.59-.27-3.89-.42h0l-.26,0h0l-.22,0-1.19-.14h0l-2.69-.34a5.07,5.07,0,0,0-.68-.11,3.79,3.79,0,0,0-.6-.07,3.19,3.19,0,0,0-.63-.09,3.86,3.86,0,0,0-.76-.1h-.07a5,5,0,0,0-.77-.13,3.72,3.72,0,0,0-.57-.08,4.17,4.17,0,0,0-.79-.1h-.12l-.26,0h-.14l-.52-.08-.12,0-1.3-.21-.07,0-3.62-.62h0l-.42-.08-.14,0h0l-1-.18-.13,0-.31-.06h0c-1.19-.22-2.38-.46-3.56-.7l-.09,0c-1.48-.3-3-.62-4.42-.95a5.18,5.18,0,0,0-1.16-.14,3.87,3.87,0,0,0-1.83.45Z" transform="translate(-716.64 -684.44)"/><path class="cls-4" d="M1249.6,1128.49a3.86,3.86,0,0,0-2,2.42c-.34,1.87-.65,3.75-1,5.63,0,0,0,.07,0,.11l0,.19c0,.23-.07.46-.11.69a4.08,4.08,0,0,0-.14.79,3,3,0,0,0-.09.59,3.43,3.43,0,0,0-.08.56,3.86,3.86,0,0,0-.1.76l0,.23a3.93,3.93,0,0,0-.13.92l0,.22a.28.28,0,0,0,0,.09c-.09.61-.17,1.22-.25,1.83a.78.78,0,0,0,0,.16,1,1,0,0,0,0,.17c0,.16-.05.32-.07.49s0,.24,0,.36c-.2,1.58-.39,3.16-.56,4.73,0,.1,0,.19,0,.28v.09c-.18,1.66-.34,3.31-.49,5,0,.06,0,.12,0,.17-.15,1.72-.28,3.45-.39,5.17v0c0,.14,0,.27,0,.4s0,.24,0,.36v.28h0c-.07,1.27-.14,2.53-.19,3.8a.86.86,0,0,0,0,.16c0,.17,0,.34,0,.51v0c0,.1,0,.21,0,.32h0c0,1.42-.09,2.84-.11,4.25v.4c0,.18,0,.36,0,.54v1.07q0,1.47,0,3v.46a.49.49,0,0,1,0,.12v.36h0v.07l.06,2.76a.28.28,0,0,0,0,.09v.47a4.23,4.23,0,0,0,1.07,2.82,4,4,0,0,0,6.93-2.64v-.13c0-.9,0-1.8-.07-2.7v-.08c0-.14,0-.28,0-.42h0v-.05c0-.21,0-.41,0-.62v-.25c0-1.13,0-2.26,0-3.4v-.4c0-.31,0-.62,0-.93v0c0-1.46.07-2.93.12-4.4v0c0-.17,0-.34,0-.51v-.09c.07-1.5.14-3,.23-4.5a.28.28,0,0,1,0-.09,1.69,1.69,0,0,1,0-.23c0-.11,0-.21,0-.31a.53.53,0,0,1,0-.13v-.08a.17.17,0,0,1,0-.07,1,1,0,0,1,0-.17c.11-1.67.23-3.33.38-5v-.06c.15-1.7.31-3.38.49-5.07a.38.38,0,0,0,0-.1q.3-2.73.65-5.46a.15.15,0,0,0,0-.07c0-.16.05-.33.07-.5a.22.22,0,0,1,0-.08l.15-1.1a4.14,4.14,0,0,0,.12-.86,4,4,0,0,0,.11-.77,3.45,3.45,0,0,0,.1-.56,5,5,0,0,0,.07-.56,4.13,4.13,0,0,0,.11-.86h0v-.1h0a.19.19,0,0,0,0-.08c.3-1.91.63-3.83,1-5.74a4.3,4.3,0,0,0-.32-3,4,4,0,0,0-2.42-2,3.75,3.75,0,0,0-1.1-.16,4,4,0,0,0-1.89.47Zm4.73,10.58h0v0Zm0-.11,0,.1,0-.11Z" transform="translate(-716.64 -684.44)"/><path class="cls-4" d="M1322,1091.34a4,4,0,1,0,4.09-3.91,4,4,0,0,0-4.09,3.91Z" transform="translate(-716.64 -684.44)"/><path class="cls-4" d="M1213.66,1173.77a64,64,0,0,1-6,4.36l-1.37.8h0l-.18.1h0c-1.13.64-2.29,1.23-3.47,1.79l0,0c-1.11.52-2.23,1-3.37,1.44l0,0c-.81.31-1.63.6-2.45.88l-1.14.36-1.85.49h-.06l-.13,0h0l-.16,0h0a4.24,4.24,0,0,0-2.65,1.62,4,4,0,0,0,.92,5.59,3.88,3.88,0,0,0,2.93.7l.09,0,.08,0,.08,0,.09,0,.2,0,.1,0,.3-.08c1.35-.35,2.69-.74,4-1.16l.23-.07.2-.07.09,0,.12,0c.75-.25,1.49-.52,2.23-.8l.11,0,.25-.1.11,0c1.09-.43,2.16-.89,3.22-1.39l.13-.07c1.07-.51,2.13-1.06,3.17-1.64l.16-.09,0,0a67.86,67.86,0,0,0,9.22-6.29,4,4,0,0,0,.54-5.63,4,4,0,0,0-5.63-.55Z" transform="translate(-716.64 -684.44)"/><path class="cls-4" d="M1228.39,1209.62c-1.12.84-2.25,1.64-3.41,2.42l0,0-.07,0-.21.14-.57.36c-.61.37-1.23.73-1.85,1.08h0l-.14.08c-.81.44-1.63.86-2.46,1.27l-.2.1-.07,0-.09,0-.09,0c-1,.46-1.94.88-2.93,1.29l-.28.11-.1,0-.34.13c-.77.3-1.54.58-2.32.84a4.76,4.76,0,0,0-.78.26l-.35.11a3.83,3.83,0,0,0-2.1,2.22,4,4,0,0,0,2.3,5.16l1,.25a4,4,0,0,0,2.07-.32l.55-.18.14,0c.76-.26,1.52-.52,2.27-.8l.14,0,.16-.07.06,0,.13,0,.08,0,.13,0h.07l.06,0,.14-.06.06,0,.14-.06.29-.11.12-.06c.88-.36,1.75-.75,2.6-1.16l0,0,.21-.1h0l.11-.05c.89-.44,1.77-.89,2.63-1.36l.29-.17c1.36-.77,2.7-1.59,4-2.44l0,0,.19-.12h0l0,0,.23-.16h0c1.07-.73,2.12-1.48,3.16-2.26a4,4,0,0,0,.54-5.63,3.87,3.87,0,0,0-3-1.44,4.25,4.25,0,0,0-2.58.89Z" transform="translate(-716.64 -684.44)"/><path class="cls-4" d="M1205,1184.38a4,4,0,0,0-2.11,2.23l-.24,1a4,4,0,0,0,.32,2.07c.36,1.15.73,2.3,1.12,3.44l0,.1s0,.1,0,.16l0,.08,0,0h0c0,.16.11.32.17.48a1,1,0,0,0,0,.16c0,.12.09.24.13.36s0,.07,0,.11l.14.39,0,.08c.34.91.68,1.81,1,2.71l0,.1c.18.47.37.93.56,1.4l0,0c0,.08.07.16.1.25.4,1,.81,1.92,1.23,2.87l.06.13.26.59.12.25,0,.1a125.3,125.3,0,0,0,6.43,12.12,1,1,0,0,0,.1.17l.19.32,0,.08h0l.4.65a4,4,0,0,0,.32.57,4.8,4.8,0,0,0,.36.52l.22.35,0,.06.22.34a3.8,3.8,0,0,0,2.65,1.44,4,4,0,0,0,3-.89,4,4,0,0,0,1.44-2.65c0-.34,0-.69,0-1a4.15,4.15,0,0,0-.72-1.75,5.45,5.45,0,0,0-.4-.58l-.2-.32-.3-.47-.08-.14a118.24,118.24,0,0,1-6.37-12h0l0,0v0c-.11-.24-.21-.48-.32-.71l-.06-.13c-.45-1-.88-2-1.31-3l-.06-.17a.36.36,0,0,1,0-.09l-.19-.46,0-.07-.34-.87,0-.09c-.41-1.06-.82-2.12-1.2-3.18v0l0,0,0-.1c-.15-.41-.29-.82-.43-1.23v0c-.4-1.17-.79-2.34-1.15-3.52a3.86,3.86,0,0,0-2.23-2.11,4.07,4.07,0,0,0-1.43-.26,4.13,4.13,0,0,0-1.62.34Zm16.67,27.51,0,0,0,0Z" transform="translate(-716.64 -684.44)"/><path class="cls-4" d="M1276,1075.66a10.12,10.12,0,0,0-1.23.33l-.29.08a8.45,8.45,0,0,0-2.24,1.14,9.91,9.91,0,0,0-1.12.84,4.34,4.34,0,0,0-.52.53c-.28.27-.56.56-.82.85a9.18,9.18,0,0,0-1.07,1.56,20.61,20.61,0,0,0-1.13,2.19,22.32,22.32,0,0,0-1.29,4.69,36.64,36.64,0,0,0-.39,7.83,51.55,51.55,0,0,0,.79,7.11,79.8,79.8,0,0,0,4,14.32,82.65,82.65,0,0,0,5.74,12.19,64.43,64.43,0,0,0,8.06,11.39c3.44,3.78,7.56,7.3,12.61,8.59a11.45,11.45,0,0,0,6.33-.16,10.89,10.89,0,0,0,5.3-3.92,15.64,15.64,0,0,0,1.91-3.53,22.17,22.17,0,0,0,1-3.47,33.59,33.59,0,0,0,.6-7.88,63.39,63.39,0,0,0-3.06-17.2,82.18,82.18,0,0,0-7.34-17.08,56.46,56.46,0,0,0-12.62-15.87,26,26,0,0,0-3.93-2.65c-.6-.34-1.21-.64-1.83-.92a18,18,0,0,0-2.87-.89,9.17,9.17,0,0,0-2.35-.29,11.34,11.34,0,0,0-2.21.22Zm2.14,7.8a10.15,10.15,0,0,1,1.23.19,16.71,16.71,0,0,1,2.26,1,30.27,30.27,0,0,1,4.56,3.57,58,58,0,0,1,8.24,11,83.25,83.25,0,0,1,7.93,19.15,57.4,57.4,0,0,1,1.91,13.41,28.49,28.49,0,0,1-.69,5.83,16.27,16.27,0,0,1-.88,2.26,9.66,9.66,0,0,1-.86,1.16c-.19.15-.38.3-.57.43l-.51.22q-.39.06-.78.09a10.47,10.47,0,0,1-1.25-.19,17.32,17.32,0,0,1-2.3-1,30.35,30.35,0,0,1-4.57-3.59,58.41,58.41,0,0,1-8.24-11,83.85,83.85,0,0,1-7.84-18.88,58.6,58.6,0,0,1-2-13.68,30,30,0,0,1,.7-5.82,18.62,18.62,0,0,1,.9-2.28c.25-.37.5-.72.78-1.06l.36-.29.23-.17.61-.25c.25,0,.5-.06.75-.07Z" transform="translate(-716.64 -684.44)"/></g></svg>