<svg xmlns="http://www.w3.org/2000/svg" xmlns:xlink="http://www.w3.org/1999/xlink" version="1.1" x="0px" y="0px" viewBox="0 0 200.766 252.2625" enable-background="new 0 0 200.766 201.81" xml:space="preserve"><g display="none"><g display="inline"><circle fill="#000000" stroke="#999999" stroke-width="1.0429" stroke-miterlimit="10" cx="100.011" cy="99.285" r="92.431"/><path fill="#000000" stroke="#999999" stroke-width="1.0429" stroke-miterlimit="10" d="M165.977,177.244H34.045    c-6.885,0-12.516-5.633-12.516-12.514V32.798c0-6.884,5.631-12.515,12.516-12.515h131.932c6.885,0,12.516,5.631,12.516,12.515    V164.73C178.492,171.611,172.861,177.244,165.977,177.244z"/><path fill="#000000" stroke="#999999" stroke-width="1.0429" stroke-miterlimit="10" d="M154.52,191.715H45.795    c-6.885,0-12.518-5.631-12.518-12.516V19.369c0-6.883,5.633-12.514,12.518-12.514H154.52c6.883,0,12.516,5.631,12.516,12.514    v159.83C167.035,186.084,161.402,191.715,154.52,191.715z"/><path fill="#000000" stroke="#999999" stroke-width="1.0429" stroke-miterlimit="10" d="M179.926,166.035H20.096    c-6.885,0-12.516-5.633-12.516-12.517V44.791c0-6.883,5.631-12.514,12.516-12.514h159.83c6.885,0,12.516,5.631,12.516,12.514    v108.728C192.441,160.402,186.811,166.035,179.926,166.035z"/><circle fill="#000000" stroke="#999999" stroke-width="1.0429" stroke-miterlimit="10" cx="100.157" cy="98.764" r="41.065"/><rect x="0.426" y="-1.098" fill="#000000" stroke="#999999" stroke-width="1.0429" stroke-miterlimit="10" width="199.723" height="200.767"/><line fill="#000000" stroke="#999999" stroke-width="1.0429" stroke-miterlimit="10" x1="0.426" y1="-1.098" x2="200.148" y2="199.669"/><line fill="#000000" stroke="#999999" stroke-width="1.0429" stroke-miterlimit="10" x1="0.426" y1="199.669" x2="200.148" y2="-1.098"/><line fill="#000000" stroke="#999999" stroke-width="1.0429" stroke-miterlimit="10" x1="71.084" y1="-1.098" x2="70.824" y2="199.669"/><line fill="#000000" stroke="#999999" stroke-width="1.0429" stroke-miterlimit="10" x1="100.418" y1="-1.098" x2="100.156" y2="199.669"/><line fill="#000000" stroke="#999999" stroke-width="1.0429" stroke-miterlimit="10" x1="129.566" y1="-1.098" x2="129.307" y2="199.669"/><line fill="#000000" stroke="#999999" stroke-width="1.0429" stroke-miterlimit="10" x1="0.426" y1="69.822" x2="200.148" y2="69.301"/><line fill="#000000" stroke="#999999" stroke-width="1.0429" stroke-miterlimit="10" x1="0.426" y1="99.024" x2="200.148" y2="98.504"/><line fill="#000000" stroke="#999999" stroke-width="1.0429" stroke-miterlimit="10" x1="0.148" y1="128.862" x2="199.873" y2="128.34"/></g></g><g><g><g><path fill="#000000" d="M171,188.81H29c-9.374,0-17-7.626-17-17v-142c0-9.374,7.626-17,17-17h142c9.374,0,17,7.626,17,17v142     C188,181.184,180.374,188.81,171,188.81z M29,22.81c-3.859,0-7,3.141-7,7v142c0,3.859,3.141,7,7,7h142c3.859,0,7-3.141,7-7v-142     c0-3.859-3.141-7-7-7H29z"/></g><g><path fill="#000000" d="M76.918,108.99l-6.944,21.033h-8.929l22.818-66.869h10.318L117,130.023h-9.227l-7.143-21.033H76.918z      M98.943,102.244l-6.646-19.247c-1.488-4.366-2.48-8.334-3.473-12.203h-0.199c-0.992,3.869-1.984,8.036-3.373,12.104     l-6.548,19.347H98.943z"/><path fill="#000000" d="M135.951,68.512c0,2.977-2.084,5.357-5.556,5.357c-3.175,0-5.259-2.381-5.259-5.357     s2.184-5.457,5.457-5.457C133.769,63.055,135.951,65.436,135.951,68.512z M126.229,130.023V82.005h8.73v48.019H126.229z"/></g></g></g><text x="0" y="216.81" fill="#000000" font-size="5px" font-weight="bold" font-family="'Helvetica Neue', Helvetica, Arial-Unicode, Arial, Sans-serif">Created by Alba de la Herrán</text><text x="0" y="221.81" fill="#000000" font-size="5px" font-weight="bold" font-family="'Helvetica Neue', Helvetica, Arial-Unicode, Arial, Sans-serif">from the Noun Project</text></svg>