<svg 
xmlns="http://www.w3.org/2000/svg" xmlns:xlink="http://www.w3.org/1999/xlink" version="1.1"
x="0px" y="0px" viewBox="0 0 200.766 252.2625" enable-background="new 0 0 200.766 201.81" xml:space="preserve"><g display="none"><g display="inline"><circle fill="#000000" stroke="#999999" stroke-width="1.0429" stroke-miterlimit="10" cx="99.777" cy="98.476" r="92.431"/><path fill="#000000" stroke="#999999" stroke-width="1.0429" stroke-miterlimit="10" d="M165.743,176.435H33.811    c-6.885,0-12.516-5.633-12.516-12.514V31.988c0-6.884,5.631-12.515,12.516-12.515h131.932c6.885,0,12.516,5.631,12.516,12.515    v131.933C178.258,170.802,172.627,176.435,165.743,176.435z"/><path fill="#000000" stroke="#999999" stroke-width="1.0429" stroke-miterlimit="10" d="M154.286,190.905H45.561    c-6.885,0-12.518-5.631-12.518-12.516V18.56c0-6.883,5.633-12.514,12.518-12.514h108.725c6.883,0,12.516,5.631,12.516,12.514    v159.83C166.801,185.274,161.168,190.905,154.286,190.905z"/><path fill="#000000" stroke="#999999" stroke-width="1.0429" stroke-miterlimit="10" d="M179.692,165.226H19.862    c-6.885,0-12.516-5.633-12.516-12.517V43.981c0-6.883,5.631-12.514,12.516-12.514h159.83c6.885,0,12.516,5.631,12.516,12.514    v108.728C192.208,159.593,186.577,165.226,179.692,165.226z"/><circle fill="#000000" stroke="#999999" stroke-width="1.0429" stroke-miterlimit="10" cx="99.923" cy="97.954" r="41.065"/><rect x="0.192" y="-1.907" fill="#000000" stroke="#999999" stroke-width="1.0429" stroke-miterlimit="10" width="199.723" height="200.767"/><line fill="#000000" stroke="#999999" stroke-width="1.0429" stroke-miterlimit="10" x1="0.192" y1="-1.907" x2="199.915" y2="198.859"/><line fill="#000000" stroke="#999999" stroke-width="1.0429" stroke-miterlimit="10" x1="0.192" y1="198.859" x2="199.915" y2="-1.907"/><line fill="#000000" stroke="#999999" stroke-width="1.0429" stroke-miterlimit="10" x1="70.85" y1="-1.907" x2="70.59" y2="198.859"/><line fill="#000000" stroke="#999999" stroke-width="1.0429" stroke-miterlimit="10" x1="100.184" y1="-1.907" x2="99.922" y2="198.859"/><line fill="#000000" stroke="#999999" stroke-width="1.0429" stroke-miterlimit="10" x1="129.333" y1="-1.907" x2="129.073" y2="198.859"/><line fill="#000000" stroke="#999999" stroke-width="1.0429" stroke-miterlimit="10" x1="0.192" y1="69.013" x2="199.915" y2="68.491"/><line fill="#000000" stroke="#999999" stroke-width="1.0429" stroke-miterlimit="10" x1="0.192" y1="98.215" x2="199.915" y2="97.694"/><line fill="#000000" stroke="#999999" stroke-width="1.0429" stroke-miterlimit="10" x1="-0.085" y1="128.053" x2="199.639" y2="127.53"/></g></g><g><g><g><path fill="#000000" d="M171.766,189h-142c-9.374,0-17-7.626-17-17V30c0-9.374,7.626-17,17-17h142c9.374,0,17,7.626,17,17v142     C188.766,181.374,181.14,189,171.766,189z M29.766,23c-3.86,0-7,3.141-7,7v142c0,3.859,3.14,7,7,7h142c3.86,0,7-3.141,7-7V30     c0-3.859-3.14-7-7-7H29.766z"/></g><g><path fill="#000000" d="M62.979,63.949c4.167-0.695,9.624-1.291,16.569-1.291c8.532,0,14.783,1.984,18.751,5.557     c3.572,3.174,5.854,8.035,5.854,13.988c0,6.053-1.786,10.814-5.159,14.287c-4.663,4.861-12.004,7.342-20.438,7.342     c-2.58,0-4.961-0.1-6.945-0.596v26.787h-8.632V63.949z M71.611,96.193c1.885,0.494,4.266,0.693,7.143,0.693     c10.417,0,16.767-5.158,16.767-14.188c0-8.93-6.35-13.195-15.775-13.195c-3.77,0-6.647,0.299-8.135,0.695V96.193z"/><path fill="#000000" d="M112.091,121.193c2.679,1.588,7.243,3.373,11.608,3.373c6.25,0,9.227-3.074,9.227-7.143     c0-4.166-2.48-6.35-8.83-8.73c-8.73-3.176-12.798-7.838-12.798-13.592c0-7.738,6.35-14.088,16.568-14.088     c4.861,0,9.128,1.289,11.707,2.975l-2.083,6.35c-1.885-1.189-5.357-2.877-9.822-2.877c-5.159,0-7.937,2.977-7.937,6.549     c0,3.969,2.778,5.754,9.028,8.234c8.235,3.076,12.6,7.242,12.6,14.387c0,8.531-6.647,14.484-17.858,14.484     c-5.258,0-10.12-1.389-13.493-3.373L112.091,121.193z"/></g></g></g>

<!-- <text x="0" y="216.81" fill="#000000" font-size="5px" font-weight="bold" font-family="'Helvetica Neue', Helvetica, Arial-Unicode, Arial, Sans-serif">
Created by Alba de la Herrán
</text><text x="0" y="221.81" fill="#000000" font-size="5px" font-weight="bold" font-family="'Helvetica Neue', Helvetica, Arial-Unicode, Arial, Sans-serif">from the Noun Project</text> -->
</svg>