<svg id="描画レイヤー" xmlns="http://www.w3.org/2000/svg" viewBox="0 0 440.27 514.64"><defs><style>.cls-1{fill:#666b68;}</style></defs><title>sachiko-draw-icon</title><path class="cls-1" d="M1051.66,1000a80.16,80.16,0,0,0-11.43,4.28h0l-.28.13c-1,.45-1.92.92-2.86,1.41l-.06,0-.14.07-.26.14h0l-1,.54c-.33.17-.65.35-1,.54a79.28,79.28,0,0,0-13.15,9.29l-.11.09-.1.08-.13.12-.14.12h0l-.56.5-.07.06-.18.17-.68.62,0,0-.15.14-.27.26a1.75,1.75,0,0,0,2.47,2.47c1.81-1.69,3.68-3.29,5.63-4.81l1.1-.83.09-.06.11-.09a79.57,79.57,0,0,1,14-8.21c.54-.25,1.09-.49,1.63-.72.86-.36,1.72-.7,2.59-1q2.89-1.1,5.86-2l.06,0h0a1.76,1.76,0,0,0,1.22-2.15,1.78,1.78,0,0,0-1.69-1.29,1.83,1.83,0,0,0-.46.07Z" transform="translate(-889.48 -814.58)"/><path class="cls-1" d="M1056.2,998.9a2.12,2.12,0,0,0-.44.05l-.46.11h0l-.42.1h0c-.64.16-1.28.32-1.92.5l-.12,0c-2.21.61-4.38,1.31-6.53,2.1l-.21.08-.1,0q-2.87,1.08-5.66,2.36c-1.07.5-2.14,1-3.2,1.57l-.06,0-.34.17,0,0c-.68.36-1.37.74-2,1.12s-1.21.69-1.81,1.05a79.83,79.83,0,0,0-19,15.89l0,.06-.25.29-.06.06-.3.35a1.49,1.49,0,0,0-.15.2h0l-.21.24-.1.12-.21.25-.1.12-.2.24-.11.13-.19.24a1.71,1.71,0,0,0-.11.14l-.19.22-.11.15-.18.22-.12.16-.18.22-.12.15-.17.22a1.83,1.83,0,0,1-.13.16l-.16.22-.13.16-.16.22-.12.16-.17.22-.06.09-.59.79c-.08.11-.16.21-.23.32l0,0-.05.07-.16.22-.12.17-.15.22-.13.18-.15.21a1.63,1.63,0,0,0-.11.17l-.16.23a.91.91,0,0,0-.11.16l-.16.23-.12.17-.15.23s-.07.11-.11.17l-.15.22-.14.22-.12.18-.26.4a1.59,1.59,0,0,0-.25.86,1.86,1.86,0,0,0,.87,1.54,1.78,1.78,0,0,0,2.4-.63c.46-.72.94-1.43,1.43-2.14l.07-.1.15-.22c.05-.07.1-.15.16-.22l.06-.09c.6-.86,1.23-1.71,1.87-2.55A79.28,79.28,0,0,1,1023.9,1019l.07-.07.38-.32.17-.15.29-.24.28-.24.17-.14.34-.28c.52-.43,1.05-.85,1.59-1.27s1.35-1,2-1.5a.91.91,0,0,1,.16-.11l.09-.07h0l.23-.16,0,0,.18-.12.14-.1.1-.07.19-.13.06,0a79.55,79.55,0,0,1,8.93-5.31h0l.08,0q2.31-1.17,4.69-2.19l1.86-.75a79.77,79.77,0,0,1,10.27-3.19l.41-.09a1.76,1.76,0,0,0,1.28-1.73,1.59,1.59,0,0,0-.06-.43,1.74,1.74,0,0,0-1.71-1.27Z" transform="translate(-889.48 -814.58)"/><path class="cls-1" d="M996.84,1055.18c-.22.81-.43,1.61-.63,2.42a2.86,2.86,0,0,0-.07.28s0,0,0,.07a81.62,81.62,0,0,0-2.24,18.87,1.76,1.76,0,0,0,1.75,1.75,1.78,1.78,0,0,0,1.75-1.75,81.16,81.16,0,0,1,.64-10.1l0,.2c0-.1,0-.19,0-.28l0-.19,0,.16a79.77,79.77,0,0,1,1.55-8.1v0c.19-.79.4-1.57.62-2.36A1.78,1.78,0,0,0,999,1054a1.74,1.74,0,0,0-.45-.06,1.79,1.79,0,0,0-1.7,1.28Zm1.19,11.46v.08l0-.11v0Z" transform="translate(-889.48 -814.58)"/><path class="cls-1" d="M1068.58,995.08c-.81,0-1.63.11-2.44.19q-4.25.4-8.43,1.23l-1.2.24c-1.19.25-2.37.53-3.55.83s-2.18.6-3.26.93c-1.29.4-2.57.84-3.84,1.31s-2.39.9-3.57,1.4a3.63,3.63,0,0,0-.74.31l-1.71.76h0l-.2.09c-1.84.82-3.64,1.73-5.4,2.71a77.4,77.4,0,0,0-8.59,5.47,81.27,81.27,0,0,0-8.28,6.91l-.64.6-.14.15c-.61.6-1.22,1.22-1.82,1.84l-1.31,1.38a83.59,83.59,0,0,0-9,11.73c-.59.94-1.16,1.88-1.71,2.84a79,79,0,0,0-5.39,11.29q-1.18,3-2.12,6.15c-.46,1.52-.86,3-1.22,4.6a84.55,84.55,0,0,0-1.81,11.31c0,.16,0,.32-.05.47q-.33,3.62-.31,7.23v.32c0,.31,0,.62,0,.94v.08a1.48,1.48,0,0,0,0,.21,84.43,84.43,0,0,0,.69,8.84c0,.15,0,.31.07.46.08.65.17,1.31.27,2a78.2,78.2,0,0,0,3,12.54.49.49,0,0,0,0,.11v0c.16.47.32.94.49,1.41l.24.68a80,80,0,0,0,3.65,8.52c.39.8.8,1.6,1.22,2.39a76.93,76.93,0,0,0,4.84,7.85c1,1.45,2.07,2.88,3.17,4.26l0,0a76.18,76.18,0,0,0,5.56,6.34,79.09,79.09,0,0,0,7.57,6.83l.1.08.17.13c1.08.85,2.19,1.68,3.31,2.48.61.44,1.23.88,1.86,1.3,1,.7,2.07,1.37,3.12,2a79.47,79.47,0,0,0,14.71,7,77.51,77.51,0,0,0,12,3.29l.24,0a80.36,80.36,0,0,0,8.56,1.17q1.51.13,3,.21a80.51,80.51,0,0,0,19.59-1.41h0a77.64,77.64,0,0,0,12-3.28h0l.22-.08a81.42,81.42,0,0,0,9.8-4.32c1.57-.81,3.11-1.68,4.61-2.59l1.15-.71q2.45-1.53,4.76-3.24,2.12-1.54,4.13-3.22a82,82,0,0,0,25.72-38.22c.43-1.35.82-2.71,1.19-4.08s.73-3,1-4.5a83.32,83.32,0,0,0,1.33-9.71c0-.48.08-1,.11-1.45a79.13,79.13,0,0,0-.6-16.2v-.06c0-.12,0-.23,0-.35l0-.15,0-.19c-.11-.7-.22-1.4-.34-2.1v0l-.06-.35,0-.15,0-.16a77.09,77.09,0,0,0-2.8-11q-1-3.15-2.36-6.21c-.35-.84-.72-1.66-1.11-2.48l-.12-.28,0,0q-1-2.08-2.06-4.11c-.45-.85-.92-1.68-1.4-2.5a83.39,83.39,0,0,0-8.33-11.68c-.71-.86-1.45-1.7-2.21-2.52a83.08,83.08,0,0,0-18.59-15,80,80,0,0,0-17.1-7.59q-.82-.27-1.65-.51c-1.65-.49-3.32-.91-5-1.28a80,80,0,0,0-8.12-1.38h-.14c-1.39-.17-2.79-.29-4.19-.38-1.74-.12-3.48-.18-5.23-.18s-3.57.06-5.36.18Zm15.14,7.95a79.49,79.49,0,0,1,15.72,3.92l0,0,.17.06.18.06,0,0,1.49.56,0,0,.2.07.17.07,0,0,1,.38c2.24,1,4.44,2.06,6.58,3.23a82.25,82.25,0,0,1,8.05,5.06l0,0,.13.1.16.11h0l1.37,1a81,81,0,0,1,13.16,13,3.74,3.74,0,0,0,.5.63q2,2.67,3.81,5.49l0,.06.06.1a1.74,1.74,0,0,0,.11.18h0q1.32,2.09,2.49,4.26l0,0,.11.21,0,.08.09.15.07.14.06.11a1.62,1.62,0,0,0,.1.18l0,.06.12.23v0q1.33,2.55,2.48,5.21l.2.48a80.14,80.14,0,0,1,4.22,14.2v0l0,.19,0,.18h0c.18.94.35,1.88.5,2.83h0l.09.63h0l0,.21a82.23,82.23,0,0,1,.62,11.3v.07c0,.05,0,.11,0,.16v.24a83.3,83.3,0,0,1-.6,8.33c-.22,1.47-.47,2.94-.77,4.39v.08c0,.06,0,.13,0,.2l0,.15,0,.1,0,.18,0,.12,0,.17a1.16,1.16,0,0,0,0,.18l0,.09-.06.24v0a80,80,0,0,1-3.38,11.22l0,.06,0,.13-.54,1.36a80.23,80.23,0,0,1-9.71,16.66l-.16.21-.18.23-.19.23c-.11.15-.23.29-.35.44h0a81.45,81.45,0,0,1-11.1,11.18l-.11.09-.26.22-.26.21-.12.1-.82.65a82,82,0,0,1-10.49,6.73l-.13.07-.09.05q-2.8,1.5-5.73,2.77c-.9.37-1.8.72-2.71,1.06h0l-.13,0a80.16,80.16,0,0,1-16.08,4.07q-1.1.14-2.19.24h-.08l-.15,0-.24,0h0a81.1,81.1,0,0,1-17.41-.3l-1.07-.16h-.07l-.22,0-.25,0h0c-1.81-.31-3.6-.67-5.38-1.1h0l-.23,0-.09,0-.16,0-.17,0-.1,0-.22-.06h-.05a80.6,80.6,0,0,1-10.44-3.42h0l-.25-.1h0a80.21,80.21,0,0,1-16.64-9.74,81.49,81.49,0,0,1-11.95-11.61c-.08-.11-.17-.21-.25-.31l-.08-.1c-.4-.48-.79-1-1.18-1.46l-.74-1a81.07,81.07,0,0,1-8.88-15.48l-.38-.93a80.17,80.17,0,0,1-4.6-16.74l0-.13,0-.12c-.06-.36-.11-.72-.16-1.08a80.64,80.64,0,0,1,0-19.88,79.64,79.64,0,0,1,5.18-19c.27-.63.56-1.26.84-1.88l.06-.12,0-.07a80.88,80.88,0,0,1,8.72-14.43,82.26,82.26,0,0,1,8.06-8.82h0l.39-.36.21-.2.13-.11c1.5-1.38,3.06-2.71,4.66-4l.18-.13.26-.2.12-.08.92-.68.07-.06.15-.1.14-.1,0,0a82.09,82.09,0,0,1,12.89-7.51l.12,0,.1-.05.93-.42a3.64,3.64,0,0,0,.76-.33l.24-.09c1.86-.76,3.73-1.44,5.63-2l.07,0,.23-.07.19-.06.1,0,.3-.09h0a73.1,73.1,0,0,1,32-2.72Z" transform="translate(-889.48 -814.58)"/><path class="cls-1" d="M1055.62,1004.87A52.57,52.57,0,0,0,1042,1007a61,61,0,0,0-7.86,2.83,29.61,29.61,0,0,0-4.79,2.84c-2.15,1.49-4.21,3.12-6.21,4.81a25.4,25.4,0,0,0-3.83,4.21,39,39,0,0,0-2.47,3.38c-.51.82-.94,1.7-1.4,2.56l-.29.56c-1.28.48-2.53,1.06-3.76,1.66a28.16,28.16,0,0,0-5.06,3.67,32.24,32.24,0,0,0-5.19,6.12,26.87,26.87,0,0,0-3.13,6.33,11.59,11.59,0,0,0-.47,2.27c-.24,1.49-.45,3.06-.58,4.58a18.59,18.59,0,0,0,.93,7.07,24.08,24.08,0,0,0,4.1,7.29,34.07,34.07,0,0,0-.37,7.55,36.66,36.66,0,0,0-.34,6,37.63,37.63,0,0,0,2.73,13,47,47,0,0,0,3.21,6.71,39.3,39.3,0,0,0,3.89,5.22c.14.52.29,1,.45,1.57.67,2.19,1.5,4.32,2.34,6.45,1.12,2.8,2.29,5.62,3.65,8.31q-.2.57-.36,1.14a15,15,0,0,0,.3,9.24,16.16,16.16,0,0,0,2.09,4.2,36.46,36.46,0,0,0,3.21,3.84,38,38,0,0,0,5.52,4.35,32.88,32.88,0,0,0,7.44,3.39,29.51,29.51,0,0,0,5.09,1.23,54.4,54.4,0,0,0,8,.84,38.91,38.91,0,0,0,5.05-.32c.69-.07,1.38-.15,2.06-.25a77.92,77.92,0,0,0,9.14.69,81.12,81.12,0,0,0,14.5-1.39,51.54,51.54,0,0,0,12-3.88q1.1-.48,2.13-1c1.35-.49,2.68-1,4-1.62a36.85,36.85,0,0,0,6.55-3.69l.35-.21,2.19-1a48.94,48.94,0,0,0,10.63-6.93,22.2,22.2,0,0,0,3.49-3.63c1-1.25,1.94-2.45,2.8-3.77a29.71,29.71,0,0,0,2.26-5,13.55,13.55,0,0,0,.87-3.25,12.34,12.34,0,0,0,6.55-5.33,39.92,39.92,0,0,0,4.37-9.75,41.76,41.76,0,0,0,1.41-9.3,63,63,0,0,0-.34-7.51c-.17-2.39-.14-4.8-.2-7.19a67.53,67.53,0,0,0-2.41-17.79c-.69-2.33-1.59-4.59-2.45-6.85-1.23-3.24-2.46-6.43-3.82-9.62a48.64,48.64,0,0,0-8.76-13.12c-1.38-1.54-2.82-3-4.13-4.62a53.94,53.94,0,0,0-4.63-5.16c-1.63-1.53-3.33-3-5-4.5-.78-.71-1.56-1.42-2.35-2.11-2.8-2.44-5.65-4.48-9.31-5.42a30.78,30.78,0,0,0-9.47-.75,44.91,44.91,0,0,0-8.39,1.21l-1.21-.47a30.24,30.24,0,0,0-10.43-1.67c-3-.06-6-.19-9.06-.19Z" transform="translate(-889.48 -814.58)"/><path class="cls-1" d="M1011,1057.31a20.73,20.73,0,0,0-3.41.56,13,13,0,0,0-4.71,2.07,15.07,15.07,0,0,0-2.79,2.16l-.3.39a7.43,7.43,0,0,0-1.28,2.56,10.49,10.49,0,0,0-.3,1.48,16.89,16.89,0,0,0-.16,2.94c0,.75-.06,1.51-.08,2.26-.06,1.56,0,3.11,0,4.67-.11,3.82.23,7.66.48,11.48.11,1.79.17,3.59.37,5.37a28,28,0,0,0,.85,3.71c.27,1,.55,2,.83,3.06.49,1.8,1.17,3.52,1.78,5.28.51,1.49,1,3,1.54,4.48a46.14,46.14,0,0,0,2.37,5c.92,1.78,1.87,3.57,2.93,5.27.81,1.29,1.63,2.6,2.55,3.82s1.89,2.29,2.78,3.48c.25.33.49.68.71,1a4.25,4.25,0,0,0,8-3,10.78,10.78,0,0,0-1.88-3.13c-1-1.2-2-2.38-2.88-3.62a68.29,68.29,0,0,1-5.24-8.84,32.9,32.9,0,0,1-1.39-3.16c-.51-1.37-.92-2.78-1.42-4.15a88.21,88.21,0,0,1-3-9.78c-.14-1-.17-2-.24-3.06l-.18-2.91c-.16-2.45-.34-4.9-.42-7.35-.07-2,0-4.09,0-6.13,0-1,0-1.9,0-2.84,0-.74,0-1.47.06-2.2q0-.3.09-.6a18.22,18.22,0,0,1,1.76-1.14,10.38,10.38,0,0,1,1.55-.5,13.17,13.17,0,0,1,2.17-.2l.77.09a4.52,4.52,0,0,0,3.25-.64,4.25,4.25,0,0,0,1.14-5.9,4.15,4.15,0,0,0-2.66-1.79,25.73,25.73,0,0,0-3.15-.26Z" transform="translate(-889.48 -814.58)"/><path class="cls-1" d="M1062.9,999.79a22.06,22.06,0,0,0-5.72,1.4c-.7.27-1.4.51-2.11.74a10.77,10.77,0,0,0-1.63.74,4.28,4.28,0,0,0-1,.81,4.23,4.23,0,0,0-1,1.94c0,.39,0,.78-.08,1.16a4.52,4.52,0,0,0,.13.82q-.22.35-.42.72a10.53,10.53,0,0,0-1.08,3,18.26,18.26,0,0,0-.18,3.22,4.25,4.25,0,0,0,7.43,2.52,4.37,4.37,0,0,0,1-3.08V1013a4.3,4.3,0,0,1,.09-.47,10.16,10.16,0,0,1,.53-1c.26-.36.53-.71.79-1.06.47,0,.94.06,1.41.07a29.39,29.39,0,0,0,3.63-.15c1.4-.13,2.81-.29,4.2-.49l2.25-.35a8.52,8.52,0,0,0,3.67-1.06l0,0,5,.28c1.29.1,2.59.23,3.88.36a27.51,27.51,0,0,1,3,.4c.54.37,1.08.75,1.64,1.08a10.29,10.29,0,0,0,2.8,1c1.33.33,2.7.49,4,.74a40.53,40.53,0,0,1,5.29,1.33,15.62,15.62,0,0,1,2,1.09c.67.39,1.34.78,2,1.19l.63.41a42.86,42.86,0,0,1,5.09,4.43c.82.83,1.68,1.63,2.51,2.46,1.05,1,2.14,2.07,3.16,3.15a26,26,0,0,1,2.8,4.32c.46.92.92,1.85,1.39,2.77,1,1.9,1.88,3.81,2.71,5.76.95,2.23,2,4.43,2.75,6.73,1.81,5.36,2.79,11,4.25,16.41a4.15,4.15,0,0,0,2.11,2.41,4.34,4.34,0,0,0,3.3.21,4.29,4.29,0,0,0,2.41-2.12,4.46,4.46,0,0,0,.21-3.29c-.79-2.95-1.41-5.95-2.17-8.91a80.7,80.7,0,0,0-2.39-8.37,151.62,151.62,0,0,0-7-15.18c.17.33.34.66.5,1a30.85,30.85,0,0,0-4.17-6.84c-1.67-1.89-3.51-3.65-5.32-5.4-1.29-1.25-2.52-2.57-3.88-3.75a43.75,43.75,0,0,0-4-3l.24.16-.3-.2-.6-.41.56.38c-1.17-.77-2.37-1.46-3.56-2.22a18,18,0,0,0-4.67-1.79,34.92,34.92,0,0,0-3.91-1c-1.55-.26-3.11-.46-4.63-.86l-.55-.28a12.7,12.7,0,0,0-1.84-1.17,8.77,8.77,0,0,0-2.57-.66c-1.37-.23-2.75-.33-4.13-.48-3.35-.37-6.73-.43-10.09-.62-2.32-.17-4.64-.36-7-.36a34.51,34.51,0,0,0-3.66.19Z" transform="translate(-889.48 -814.58)"/><path class="cls-1" d="M1117.12,1016.9a4.24,4.24,0,0,0-4,4.52,4.07,4.07,0,0,0,1.43,2.92c2.12,1.46,4,3.19,6.08,4.75a45.29,45.29,0,0,1,5.68,5,31.12,31.12,0,0,1,3.3,4.95c.26.67.4,1.37.67,2,.71,1.67,1.47,3.32,2.31,4.92-.06.11-.12.21-.17.32-1,2.09-.49,4.53-.18,6.73.18,1.26.33,2.51.57,3.76.53,2.84,1.22,5.65,1.83,8.47.34,1.9.54,3.81.86,5.71.36,2.14.91,4.24,1.38,6.36a26.27,26.27,0,0,1,.38,3.18,7.22,7.22,0,0,0-1.8,2.83,18.67,18.67,0,0,0-1,3.58,33.78,33.78,0,0,0-.35,3.63,17.9,17.9,0,0,0,.16,3.1c0,.47.1.94.17,1.41a20.27,20.27,0,0,0,.36,2.16,4.85,4.85,0,0,0-.64.72,27.13,27.13,0,0,0-2.07,3.22l0,0c-.42.59-.82,1.19-1.22,1.79l-.87,1.3c-.62.5-1.22,1-1.82,1.55a51.59,51.59,0,0,0-4.88,4.7c-1.39,1.58-2.75,3.18-4,4.85-.7.93-1.4,1.86-2.08,2.82-.56.76-1.08,1.54-1.61,2.33-.39.58-.74,1.19-1.08,1.79a9.33,9.33,0,0,0-.82,2.23,4.12,4.12,0,0,0,.64,3.23,4.49,4.49,0,0,0,1.32,1.28l-1.83,1.09c-1.18.71-2.29,1.52-3.48,2.19-1.11.52-2.22,1-3.36,1.44-1.68.61-3.5.8-5.22,1.32a59,59,0,0,0-5.62,2.21,29.48,29.48,0,0,1-5,1.53c-2.56.47-5.12.91-7.66,1.43-2,.37-3.91.6-5.88.8s-3.75.56-5.63.84c-.94.14-1.88.23-2.83.28s-2.14,0-3.21,0a35.49,35.49,0,0,0-5.55.21,8.18,8.18,0,0,0-3.44,1.06,4.32,4.32,0,0,0-2,3.9,4.39,4.39,0,0,0,.73,2.16,4.75,4.75,0,0,0,1.74,1.53,15.48,15.48,0,0,0,3.38,1.08c1.27.28,2.54.57,3.79.92s2.41.79,3.63,1.14a21.62,21.62,0,0,0,7.18.39c1.38-.08,2.79-.29,4.16-.48,1.58-.23,3.13-.58,4.7-.92l-1.12.23,2.82-.59c1.67-.3,3.36-.53,5-.75a26.87,26.87,0,0,0,5.75-1.42,40.83,40.83,0,0,0,4.18-1.66,29.59,29.59,0,0,0,3-1.65c.82-.53,1.62-1.09,2.47-1.58a4,4,0,0,0,1.85-3.48l.3-.07a23.49,23.49,0,0,0,4.36-1.67c.91-.43,1.82-.88,2.7-1.38.69-.39,1.35-.88,2-1.3,1.34-.86,2.73-1.65,4.09-2.47s2.55-1.66,3.82-2.51a37.3,37.3,0,0,0,5.1-4.09,20.4,20.4,0,0,0,1.58-1.9,9.63,9.63,0,0,1,1.13-1.17c.48-.39,1-.72,1.48-1.09a20.43,20.43,0,0,0,2.35-2.21,19.26,19.26,0,0,0,2.59-3.49c.32-.54.62-1.09.89-1.66.6-1.22,1.17-2.88.51-4.2v0c.23-.38.45-.76.65-1.17.46-.9,1-1.78,1.4-2.7s.93-1.77,1.43-2.64.69-1.59,1.08-2.37a36.73,36.73,0,0,0,2-5.46c.23-.54.51-1,.77-1.59s.41-.94.59-1.42a5.47,5.47,0,0,0,.73-.35c1.73-1,2-3.16,2.27-4.95a29.68,29.68,0,0,0-.09-6.32c-.27-3.72-.77-7.4-1.17-11.11-.19-1.81-.49-3.6-.77-5.4-.35-2.28-.79-4.53-1.36-6.76-.23-.88-.57-1.75-.88-2.61s-.66-1.9-1-2.85a41.89,41.89,0,0,0-2.54-5.88c-.71-1.38-1.51-2.71-2.24-4.07s-1.58-2.69-2.32-4.06c-.46-.94-.89-1.9-1.29-2.87-.29-.68-.43-1.39-.69-2.07a22.09,22.09,0,0,0-1.73-3.26,36.06,36.06,0,0,0-2.38-3.51,37.73,37.73,0,0,0-3.6-3.77,36.93,36.93,0,0,0-3.43-2.94c-2.17-1.62-4.18-3.45-6.4-5l-.9-.61a4.24,4.24,0,0,0-1.9-.45Z" transform="translate(-889.48 -814.58)"/><path class="cls-1" d="M1112.22,1128.12c-4.08,1.6-8.18,3.15-12.18,4.94a53.65,53.65,0,0,0-4.91,2.47c-1.27.73-2.56,1.42-3.8,2.19-2.25,1.39-5.36,3.3-4.67,6.46l0,.1a4.48,4.48,0,0,0-1,4.88,4.1,4.1,0,0,0,2.25,2.28,7.91,7.91,0,0,0,1.43.37,9,9,0,0,0,1.8,0,10.8,10.8,0,0,0,1.26-.25c1.38-.33,2.74-.7,4.1-1.08s2.69-.85,4-1.35a9.42,9.42,0,0,0,3.35,0c1.34-.25,2.66-.59,4-.94a29.85,29.85,0,0,0,8.52-3.52c1.92-1.23,3.54-3,3.18-5.48a4.26,4.26,0,0,0-2.54-3.38,4.42,4.42,0,0,0-.68-.21,4.34,4.34,0,0,0,1.49-5.13,4.25,4.25,0,0,0-4-2.59,4.5,4.5,0,0,0-1.61.3Z" transform="translate(-889.48 -814.58)"/><path class="cls-1" d="M1055.82,1039.34a29,29,0,0,0-4.69,1.09,24,24,0,0,0-4.31,1.81,34.3,34.3,0,0,0-4,2.45,32.45,32.45,0,0,0-4,3.58,35.87,35.87,0,0,0-10,25.32,37.92,37.92,0,0,0,2.42,13.5c.11.28.21.55.33.81a37.91,37.91,0,0,0-2.37,6.13,44,44,0,0,0-1.13,4.8,34.27,34.27,0,0,0-.35,5.63,29.58,29.58,0,0,0,1.57,8.94,19.21,19.21,0,0,0,2,4.12,21.23,21.23,0,0,0,3.37,4.18,20.3,20.3,0,0,0,7.44,4.53,27.91,27.91,0,0,0,10.94,1.2,38.36,38.36,0,0,0,9.58-2,46.65,46.65,0,0,0,9.15-4.39,55.3,55.3,0,0,0,14.22-12.63,70.07,70.07,0,0,0,5.34-7.56,58,58,0,0,0,4.56-8.87,35.66,35.66,0,0,0,2.43-9.63,28.58,28.58,0,0,0,.12-3.46,4.23,4.23,0,0,0,.64-1,4.35,4.35,0,0,0-1.49-5.25c-.08-.35-.17-.7-.26-1a41.37,41.37,0,0,0-8.71-15.93,56,56,0,0,0-6.33-6.28,56.92,56.92,0,0,0-8-5.57,34.39,34.39,0,0,0-8-3.53,26.08,26.08,0,0,0-7.32-1.06,25.4,25.4,0,0,0-3.13.19Zm3.45,8.26a24.32,24.32,0,0,1,4.32.62,37,37,0,0,1,7.41,3.39,53,53,0,0,1,9.33,7.41,45.34,45.34,0,0,1,6.11,8.09c.31.59.61,1.18.89,1.77-1.24-.42-2.49-.83-3.74-1.2-1.57-.48-3.15-.94-4.74-1.34a38.8,38.8,0,0,0-4.65-.75,52.4,52.4,0,0,0-10.25-.07,43.08,43.08,0,0,0-9.37,2,37.67,37.67,0,0,0-8.86,4.43,42.8,42.8,0,0,0-6.88,5.73c-.35.35-.7.71-1,1.08a39.33,39.33,0,0,1-.47-5.74,35.65,35.65,0,0,1,1.1-7.63,34.83,34.83,0,0,1,2.9-6.55,36.09,36.09,0,0,1,4.36-5.5,28.91,28.91,0,0,1,4.31-3.24,27.4,27.4,0,0,1,4.76-2,24.42,24.42,0,0,1,4.51-.58Zm9.7,26.15a44.71,44.71,0,0,1,10.36,1.46c2.44.73,4.86,1.55,7.27,2.37,1.12.37,2.23.74,3.34,1.13,0,.42,0,.84,0,1.27a27.93,27.93,0,0,1-1,5.9,50.56,50.56,0,0,1-4.62,10.09,65.06,65.06,0,0,1-9.3,11.8,53.05,53.05,0,0,1-9.23,6.89,43.07,43.07,0,0,1-8.66,3.51,35.29,35.29,0,0,1-7.09.9,25,25,0,0,1-4.56-.63,18.63,18.63,0,0,1-2.94-1.27,18.21,18.21,0,0,1-2.37-1.85,21.1,21.1,0,0,1-1.94-2.57,22.55,22.55,0,0,1-1.37-3.47,29.57,29.57,0,0,1-.72-5.92,32.32,32.32,0,0,1,1-6.57l.06-.19c.62.61,1.27,1.19,1.93,1.73a19.74,19.74,0,0,0,5.88,3.23,23.83,23.83,0,0,0,3.44.9,19.48,19.48,0,0,0,3.82.25h.46a29.94,29.94,0,0,0,7.18-.92,38.11,38.11,0,0,0,7.2-2.42c1.48-.7,3-1.38,4.41-2.14,1.84-1,3.66-2,5.47-3a4.08,4.08,0,0,0,1.67-2.79,4.29,4.29,0,0,0-.8-3.16,4.24,4.24,0,0,0-2.79-1.66l-1.14,0a4.32,4.32,0,0,0-2,.81l-.29.17a64.14,64.14,0,0,1-13.28,5.91,33.2,33.2,0,0,1-6.66.79,19.5,19.5,0,0,1-3.14-.47,19.11,19.11,0,0,1-2.9-1.26,19.42,19.42,0,0,1-2.69-2.18,25.53,25.53,0,0,1-1.75-2.28,39.32,39.32,0,0,1,4.34-5.21,40.55,40.55,0,0,1,7-5.21,35.37,35.37,0,0,1,6.86-2.75,42.34,42.34,0,0,1,9.44-1.16Zm3.57,13.36-.49.28.49-.28Z" transform="translate(-889.48 -814.58)"/><path class="cls-1" d="M1100.8,1088.39l-1.39.61-1.22.5a4.25,4.25,0,0,0,3.18,7.89l.67-.28,0,0,.1,0,.37-.15.16-.07.13-.06,1.13-.49a4.31,4.31,0,0,0,2.35-5.54,4.4,4.4,0,0,0-4-2.68,3.82,3.82,0,0,0-1.55.33Z" transform="translate(-889.48 -814.58)"/><path class="cls-1" d="M1190.87,857.37a3.51,3.51,0,0,0-2.31,1.29c-.15.26-.31.51-.47.77a3.64,3.64,0,0,0-.27,1.84c0,1.84,0,3.69,0,5.53q-.07,4.8-.27,9.6v0c0,.54,0,1.07-.07,1.6h0c0,1-.1,2-.15,3v.09q-.3,5.34-.75,10.67l-.18,2.1c0,.16,0,.33-.05.5s0,.05,0,.08c-.08.91-.17,1.82-.26,2.73q-.58,5.85-1.36,11.67V909a.28.28,0,0,1,0,.09l-.09.66-.12.9s0,.07,0,.1v.09s0,0,0,.07l-.21,1.54s0,.05,0,.07c0,.3-.09.6-.13.9s0,.37-.08.56V914c-.1.65-.19,1.31-.29,2s-.19,1.21-.28,1.81-.21,1.28-.31,1.91l0,.23,0,.08-.33,2-.07.44v0c-.1.61-.21,1.23-.32,1.84h0c-.11.66-.23,1.33-.35,2-.08.41-.15.82-.23,1.23v.05q-1.23,6.63-2.69,13.21h0c0,.12,0,.24-.07.35s-.09.37-.13.55v.08l-.34,1.48h0c-.24,1.05-.49,2.11-.74,3.15v0c-.18.77-.37,1.53-.56,2.3v0c0,.18-.09.36-.13.54s-.07.26-.1.38l0,.17c-.44,1.73-.88,3.45-1.34,5.17a3.45,3.45,0,0,0-.18.57,2.89,2.89,0,0,0-.11.51l-.18.66c0,.09,0,.18-.08.27a4.11,4.11,0,0,0-.17.53,3.56,3.56,0,0,0-.1.47l-.09.31a3.53,3.53,0,0,0-.24.86l-.09.31a3.25,3.25,0,0,0-.23.84c0,.11-.07.23-.11.35l0,.14c-.39,1.35-.79,2.7-1.2,4.06,0,.1-.06.21-.1.32s-.08.25-.11.38-.13.41-.19.62l0,.15c-.18.59-.36,1.18-.55,1.76v0l-.27.85,0,.06c-.19.59-.37,1.17-.56,1.75l-.05.14c-.17.54-.35,1.08-.53,1.62v0c-.1.29-.19.58-.29.86h0c-.17.49-.33,1-.49,1.47h0c0,.07,0,.14-.08.22s-.15.44-.23.66c-.7,2.07-1.43,4.14-2.18,6.19q-1.21,3.33-2.5,6.63c-.09.24-.19.49-.29.73q-1.12,2.87-2.31,5.71c-1.16,2.79-2.37,5.56-3.61,8.32-.47,1-.94,2-1.42,3.07l-.05.12c-.1.2-.19.4-.29.61l-.3.64-.07.13-.27.58v0l-.84,1.73-.11.23c-.06.14-.13.27-.19.4-.51,1-1,2.08-1.55,3.11l-.06.12v0c-.28.55-.56,1.11-.85,1.66h0l-.35.67-.35.69-.12.21q-3.49,6.67-7.37,13.14c-.53.87-1.06,1.73-1.6,2.59q-3.73,6-7.85,11.72c-.33.47-.68.94-1,1.41l-.51.7h0l-.1.13-.07.1,0,0,0,0-.44.59a3.8,3.8,0,0,0-.74,2.24,3.44,3.44,0,0,0,1.29,2.68,3.52,3.52,0,0,0,4.92-.55l.38-.51h0l.14-.18h0l0,0,.07-.09.06-.08.27-.37.57-.78a.91.91,0,0,0,.11-.16c1.53-2.11,3-4.24,4.48-6.41l.34-.51.09-.13,1.83-2.79.09-.15a.61.61,0,0,1,.07-.1q3.71-5.76,7.08-11.71l.08-.14.24-.43.12-.21c.07-.11.13-.23.19-.34l0,0,0-.06q1.63-2.91,3.19-5.87l.2-.37v0l.6-1.13.06-.11.12-.25.09-.17.15-.29,0-.08h0l.85-1.68,0-.06.36-.71v0l.22-.45a.41.41,0,0,0,0-.09l.37-.75c.05-.1.11-.2.16-.31l0-.11c.56-1.14,1.12-2.28,1.66-3.43l.06-.13c.08-.16.16-.32.23-.49.61-1.27,1.2-2.54,1.78-3.82l0-.08.09-.2a2.29,2.29,0,0,0,.1-.23l.11-.23,0-.06,0,0,.1-.21c.6-1.34,1.2-2.68,1.78-4l.06-.14q1.11-2.6,2.18-5.2c.44-1.07.87-2.14,1.3-3.21l0-.08a2,2,0,0,0,.1-.26l.11-.26,0-.08.27-.7a.36.36,0,0,0,0-.09l.48-1.23,0-.07c.19-.48.37-1,.55-1.43l0-.09c.52-1.37,1-2.75,1.52-4.12.08-.2.15-.4.22-.6l0-.09c.56-1.54,1.1-3.07,1.63-4.62l.09-.26c0-.1.07-.2.1-.29a1,1,0,0,1,0-.1c.15-.45.31-.91.46-1.37l0-.09c.33-1,.65-2,1-2.93h0c.16-.49.31-1,.47-1.47,0-.05,0-.11,0-.17.94-2.93,1.83-5.87,2.69-8.82l0,0c.06-.21.11-.41.17-.61l.15-.5.12-.43a3.5,3.5,0,0,0,.25-.87v0l0-.1.15-.54a3.11,3.11,0,0,0,.24-.87l.12-.4c0-.1,0-.2.08-.3a3.41,3.41,0,0,0,.23-.83l.09-.32c.07-.28.15-.56.23-.84a.31.31,0,0,1,0-.08c.35-1.3.7-2.61,1-3.92l0-.15c0-.13.07-.27.11-.4s.07-.31.11-.46l0-.12c.38-1.47.75-2.94,1.1-4.42,0-.06,0-.12,0-.18l.28-1.18v0l.06-.24a.5.5,0,0,0,0-.12l.18-.73c0-.15.07-.3.1-.46l0-.06.07-.34c.07-.27.13-.54.19-.81s.11-.46.16-.69v0l.09-.37c.06-.29.13-.58.19-.87l0-.06,0-.14s0,0,0-.07q1.07-4.82,2-9.64a.8.8,0,0,0,0-.15l.18-.92c0-.28.11-.57.16-.86l0-.2c.07-.35.13-.71.2-1.07v-.08l0-.12.26-1.43a.15.15,0,0,1,0-.07.68.68,0,0,0,0-.14l.27-1.53a.43.43,0,0,0,0-.11c.09-.48.17-1,.25-1.44h0l0-.19h0l.09-.49.18-1.08a.25.25,0,0,0,0-.08c0-.2.07-.4.1-.6V921l.12-.73s0-.06,0-.09v0s0-.09,0-.14c0-.22.07-.44.11-.66s0-.37.08-.55v0l0-.3a.36.36,0,0,0,0-.11l.15-.95.08-.5a.17.17,0,0,1,0-.07l.24-1.66,0-.14c0-.13,0-.25,0-.37.06-.43.12-.87.19-1.3h0c0-.25.07-.5.1-.75s.08-.54.11-.81c0,0,0-.07,0-.11,0-.32.09-.64.13-1l.09-.7h0c0-.09,0-.18,0-.27,0-.26.07-.51.1-.77,0,0,0-.06,0-.09q.67-5.22,1.2-10.46s0-.1,0-.14v0l.12-1.19a.66.66,0,0,1,0-.14v0a.49.49,0,0,0,0-.12l.09-1,.06-.65v0l.12-1.36,0-.22v0l0-.21c0-.46.08-.92.11-1.38a.61.61,0,0,0,0-.14q.47-5.61.75-11.23v-.06h0l.06-1.24c0-.1,0-.19,0-.28a.38.38,0,0,0,0-.1q.4-9.21.36-18.44a3.31,3.31,0,0,0-1.29-2.3,3.5,3.5,0,0,0-2.19-.77l-.42,0Z" transform="translate(-889.48 -814.58)"/><path class="cls-1" d="M1059.12,815.74a3.51,3.51,0,0,0-1.89,1.84,3.65,3.65,0,0,0,0,2.72q1.44,4.41,2.71,8.88l.13.49c0,.06,0,.12,0,.18s.11.38.16.57a3.52,3.52,0,0,0,.21.77v0c0,.16.08.32.13.49l.05.18a3.51,3.51,0,0,0,.22.83l.06.23c.76,2.94,1.46,5.91,2.11,8.88.09.4.18.81.26,1.21s.17.79.25,1.19c.16.75.31,1.51.46,2.26v0q.88,4.58,1.62,9.18c.08.56.17,1.12.26,1.68l.12.86h0l.09.58c0,.17.05.34.07.5h0l.15,1.07q.67,5,1.17,9.9l0,.31,0,.3.12,1.38,0,.26h0c0,.57.1,1.13.14,1.69.33,4,.56,7.91.72,11.86v.06c0,.49,0,1,0,1.47h0l0,1c0,.24,0,.47,0,.71h0c.09,3.38.11,6.76.08,10.13v.08h0c0,.08,0,.17,0,.25,0,.24,0,.48,0,.72v.27c0,.71,0,1.41,0,2.11v.08c0,.1,0,.2,0,.3,0,.44,0,.87,0,1.3,0,.09,0,.18,0,.27q-.21,5.91-.64,11.82c-.07.9-.14,1.81-.22,2.73v.09c0,.33-.06.67-.08,1q-.5,5.43-1.17,10.85v0c-.15,1.2-.31,2.4-.47,3.6l-.06.42v0l0,.31s0,.07,0,.1q-.27,1.89-.57,3.78c-.2,1.27-.4,2.54-.61,3.81v0l-.51,2.93c0,.08,0,.16,0,.24v.06c-.05.27-.09.53-.14.8-.14.75-.28,1.51-.43,2.26v.06l-.06.34,0,.07-.45,2.31,0,.1q-1,5.05-2.23,10.06c-.33,1.37-.67,2.73-1,4.08v0c-.06.22-.11.44-.17.66l0,.12q-.83,3.2-1.73,6.36c-.32,1.11-.65,2.22-1,3.32-.12.41-.25.82-.37,1.23-.06.18-.11.36-.17.54l-.09.3,0,.11-.08.24v0c-.25.77-.49,1.54-.74,2.31q-1.72,5.34-3.65,10.62a.59.59,0,0,1,0,.08c-.21.59-.43,1.18-.65,1.76l-.14.38-.66,1.72,0,.08c-1.25,3.22-2.55,6.4-3.92,9.57a3.5,3.5,0,0,0,6.41,2.82c.32-.73.63-1.46.94-2.19,0,0,0-.09.05-.13,1-2.39,2-4.8,2.91-7.21a.61.61,0,0,0,.05-.12l.21-.54.31-.81,0-.06.12-.31c.09-.25.19-.5.28-.74a.93.93,0,0,0,0-.13c.16-.42.32-.84.47-1.27a.87.87,0,0,0,.07-.17q1.85-5.07,3.52-10.21a.19.19,0,0,0,0-.07c.07-.2.13-.4.2-.6s.17-.55.26-.82a1.21,1.21,0,0,0,0-.18c0-.08,0-.16.08-.24.07-.24.15-.48.23-.72l.06-.2,0-.12s0,0,0,0l.12-.4c.08-.24.15-.47.22-.71,0,0,0-.08,0-.12l.06-.21v0c.12-.36.23-.74.34-1.11l.06-.2q1.46-4.9,2.77-9.86l0-.2c0-.2.11-.39.16-.59.11-.45.23-.9.34-1.35,0-.17.09-.35.13-.53a.14.14,0,0,0,0-.06c.16-.62.31-1.23.46-1.85,0-.06,0-.12,0-.18.06-.27.13-.54.19-.81s.11-.44.16-.66c0,0,0-.05,0-.07.72-3,1.39-6.1,2-9.17l0-.13c0-.13.05-.26.08-.4l.15-.73v0c.09-.5.19-1,.29-1.5a.51.51,0,0,0,0-.13l0-.21,0-.13c.08-.43.17-.87.25-1.3,0,0,0-.07,0-.1v0l0-.13c0-.3.11-.6.16-.9,0-.08,0-.16,0-.24s0-.27.07-.4v0c.07-.38.13-.75.2-1.12.17-1,.35-2,.52-3,0,0,0-.07,0-.1.12-.7.23-1.39.34-2.08v0l0-.29c0-.28.09-.56.13-.84,0,0,0-.08,0-.12l.27-1.85a.5.5,0,0,0,0-.12c0-.16,0-.32.07-.48.1-.67.2-1.34.29-2,0-.11,0-.21,0-.32a.25.25,0,0,0,0-.08c.09-.64.17-1.27.25-1.9v0c0-.26.07-.53.1-.8q.64-5.13,1.12-10.29s0-.06,0-.09c0-.4.07-.8.1-1.19a.71.71,0,0,0,0-.14v-.13s0-.08,0-.13c0-.4.06-.79.1-1.19,0-.06,0-.12,0-.19V919a.41.41,0,0,1,0-.11l.09-1.19v0c.28-3.75.48-7.51.62-11.28,0,0,0-.06,0-.09l0-1v-.57h0c0-.39,0-.77,0-1.15v-.05a2.53,2.53,0,0,0,0-.28s0,0,0-.08c0-.44,0-.88,0-1.32v0a2.44,2.44,0,0,0,0-.27c0-.31,0-.62,0-.92,0-.12,0-.24,0-.36,0-3.42,0-6.84,0-10.25,0-.06,0-.12,0-.17,0-.44,0-.88,0-1.32v-.08c0-.12,0-.24,0-.36v-.39c0-.13,0-.26,0-.39s0-.25,0-.38v-.14c0-.21,0-.41,0-.61,0-.39,0-.78,0-1.16a2.72,2.72,0,0,1,0-.28v-.13l0-.68v0q-.2-4.54-.54-9.08a.57.57,0,0,1,0-.13l-.09-1,0-.41s0-.06,0-.09l-.12-1.35v-.1l0-.22-.05-.52s0-.08,0-.12,0-.35,0-.52,0-.07,0-.1,0-.31,0-.47l0-.27,0-.15v0q-.47-4.65-1.09-9.28a.28.28,0,0,0,0-.09l-.06-.43c0-.28-.07-.56-.11-.84,0,0,0-.07,0-.11v-.07c0-.36-.1-.72-.16-1.08,0,0,0-.07,0-.1-.06-.39-.12-.78-.17-1.17l0-.13a2.51,2.51,0,0,0,0-.27.68.68,0,0,0,0-.14c-.51-3.3-1.08-6.58-1.72-9.86,0,0,0-.07,0-.11-.09-.45-.18-.91-.28-1.36v0c-.07-.36-.14-.7-.22-1.06a.29.29,0,0,0,0-.09l-.09-.43c-.06-.32-.13-.65-.2-1l0-.18a.64.64,0,0,1,0-.07c0-.25-.1-.5-.16-.75l-.06-.29c0-.07,0-.14,0-.2q-.93-4.2-2-8.36a3.54,3.54,0,0,0-.23-.89l-.13-.5a3.67,3.67,0,0,0-.22-.85c0-.13-.07-.27-.11-.4l0-.14a3.49,3.49,0,0,0-.22-.81c-.1-.39-.21-.78-.32-1.17,0,0,0-.11,0-.16s-.07-.26-.1-.38-.09-.29-.13-.44l-.09-.31v0c-.77-2.7-1.6-5.39-2.47-8.06a3.55,3.55,0,0,0-4.56-1.94Zm9.62,83.74v0Z" transform="translate(-889.48 -814.58)"/><path class="cls-1" d="M1088,815.82a3.5,3.5,0,0,0,1.58,6.27q5.84.48,11.64,1.32h0l2.64.41q1.58.25,3.15.54h0l2.17.41,1.6.31,1.31.27.61.13h0l.68.15,1.46.32c2.86.66,5.7,1.37,8.53,2.16a3.29,3.29,0,0,0,.83.23h0l.37.11,2.27.68,1.58.5c2.93.93,5.84,1.94,8.72,3l2,.78.06,0,2.33.92q4.29,1.75,8.51,3.73c1.09.51,2.18,1,3.25,1.57h0l.44.22h0q4.76,2.37,9.36,5l.06,0,1,.61a3.36,3.36,0,0,0,.69.4l.34.2a3.54,3.54,0,0,0,.73.44l.13.08.21.12q3.8,2.33,7.48,4.83l1.12.78,1.22.85.63.45q4.27,3,8.36,6.33l0,0,0,0,2,1.63c.28.23.56.46.83.7l.16.13.06,0h0l1.11,1a3.5,3.5,0,1,0,4.37-5.47l-1-.83h0l-.07-.06,0-.05-.11-.09-.72-.61a.39.39,0,0,1-.1-.08l0,0h0l-.79-.66-.08-.06-.09-.08-.1-.08-1-.84h0l-.52-.42-.31-.24-.06-.05q-3.3-2.62-6.7-5.08l-.1-.07-.46-.33-.38-.27-.08-.06-.17-.12,0,0-.41-.29-.45-.31-.27-.19h0l-.85-.59-.15-.1-.07-.05-.07,0L1178,846l-.18-.13-.18-.11c-2.37-1.6-4.79-3.14-7.24-4.64a3.47,3.47,0,0,0-.79-.48l-.06,0-.39-.24a3.62,3.62,0,0,0-.74-.44l-.6-.36h0l-1.67-1-.1-.06-.14-.08-.12-.07-.64-.37-.1,0c-2.45-1.38-4.92-2.71-7.43-4l-.15-.08-1.19-.59-.07,0-1.06-.52-.09,0-1.48-.71-.66-.31-.14-.06c-2.67-1.25-5.36-2.43-8.09-3.54h0l-.06,0-.15-.06-.28-.11-.09,0L1142,827l-.44-.17-.1,0-.69-.27h0l-.83-.31-.1,0q-4.15-1.54-8.38-2.9l-.09,0-.73-.23-.59-.18h0l-1-.32-.1,0-.16-.05-.09,0-.64-.19-.56-.17-.12,0,0,0-.8-.23-1.14-.32-.12,0c-2.79-.78-5.6-1.51-8.42-2.17l-.19,0-1-.23-.08,0-.24-.05-.1,0-.89-.2h-.06l-.45-.1h0l-.89-.19h0l-.36-.08-.16,0c-.29-.06-.59-.13-.89-.18l-.1,0L1111,818l-.11,0-1-.19-.08,0-2.52-.46h-.1l-2-.34h-.1l-.73-.12h-.08c-.94-.15-1.88-.3-2.83-.43h-.1q-5.39-.76-10.8-1.2a3.39,3.39,0,0,0-.45,0,3.45,3.45,0,0,0-2.15.67Z" transform="translate(-889.48 -814.58)"/><path class="cls-1" d="M1071.16,814.62h-.2l-.88,0H1070c-2.52.08-5,.2-7.55.38a3.5,3.5,0,0,0,.86,7q4-.29,8-.4,3.14-.08,6.25-.06h.44l.93,0a3.56,3.56,0,0,0,1.66-.67,3.51,3.51,0,0,0,.72-4.9,3.33,3.33,0,0,0-2.3-1.37l-3.62,0c-1.42,0-2.85,0-4.27,0Zm6.88,6.91h0Zm0,0h0Zm-.12,0h0Z" transform="translate(-889.48 -814.58)"/><path class="cls-1" d="M1072.09,814.6H1072c-1.24,0-2.48.06-3.71.11h-.5l-.4,0h0c-2.11.1-4.22.24-6.33.4a3.5,3.5,0,0,0,.86,7c2.19-.17,4.37-.31,6.56-.41,1.6-.07,3.19-.12,4.8-.14h0c1.53,0,3.07,0,4.6,0q4.07.08,8.13.31h0l2.1.14a3.68,3.68,0,0,0,2.6-.65,3.58,3.58,0,0,0,1.38-2.3,3.53,3.53,0,0,0-3-4l-1.35-.09h-.1q-6.09-.37-12.21-.37c-1.13,0-2.26,0-3.39,0Z" transform="translate(-889.48 -814.58)"/><path class="cls-1" d="M1070.24,814.65a3.34,3.34,0,0,0-2.3,1.29,3.49,3.49,0,0,0,.55,4.91,3.72,3.72,0,0,0,2.61.75c2.28-.06,4.56-.09,6.83-.07a184.72,184.72,0,0,1,22.41,1.76,3.5,3.5,0,1,0,1-6.93,187,187,0,0,0-25.9-1.78c-1.74,0-3.47,0-5.21.07Z" transform="translate(-889.48 -814.58)"/><path class="cls-1" d="M1207.13,875.33a3.52,3.52,0,0,0-1.37,2.3,3.41,3.41,0,0,0,.65,2.59q3.61,4.11,7,8.4c.19.26.39.52.59.77l1,1.32.29.38c1.92,2.55,3.76,5.15,5.55,7.79l1,1.52c.22.34.45.68.67,1l.47.73,0,0q2.38,3.74,4.6,7.58a3.32,3.32,0,0,0,.4.71l.08.13.08.15c.2.35.39.7.58,1.05l.08.13.58,1.07,0,.09.28.53h0c.07.13.15.26.22.4q3.12,5.9,5.82,12s0,0,0,.06a2,2,0,0,0,.1.21c1.38,3.17,2.66,6.37,3.87,9.61.2.54.39,1.08.58,1.62s.35,1,.53,1.48l0,.09c1.18,3.4,2.25,6.84,3.24,10.3l0,.16a3.21,3.21,0,0,0,.21.75l.09.34.09.33a3.52,3.52,0,0,0,.21.77l.18.7q1,4,1.85,8h0l.3,1.47c.13.69.27,1.39.4,2.08v0l0,.19v0q1,5.38,1.66,10.82v0c.06.45.11.9.16,1.36.11.94.21,1.88.3,2.83a.17.17,0,0,0,0,.07c.34,3.6.57,7.21.71,10.83,0,.86,0,1.72.07,2.58,0,1.82,0,3.63,0,5.44,0,1.43-.07,2.85-.12,4.28s-.13,2.73-.21,4.1q-.33,5-.9,9.9c-.16,1.34-.33,2.68-.52,4-.08.52-.15,1-.23,1.56s-.17,1.13-.26,1.69v0c-.24,1.48-.5,3-.77,4.44-.2,1-.4,2.08-.61,3.11-.14.69-.29,1.39-.43,2.08l0,.06c-.09.43-.19.87-.28,1.3l0,.11c-.71,3.15-1.5,6.27-2.38,9.38,0,.12-.07.24-.1.37a1.87,1.87,0,0,0-.07.22c-.28,1-.56,1.9-.86,2.84a.14.14,0,0,1,0,.06q-1.58,5.07-3.44,10l-.63,1.63c-.33.84-.66,1.68-1,2.52q-2.16,5.28-4.64,10.42l0,.05q-.4.86-.84,1.71c-1.53,3.07-3.16,6.1-4.86,9.08l0,0-1,1.68,0,.06-.51.86a3.71,3.71,0,0,0-.43.72c-1.47,2.4-3,4.77-4.57,7.11h0c-.63.93-1.27,1.85-1.91,2.76l0,0-.52.72c-1.87,2.62-3.82,5.19-5.82,7.72l-.11.13c-.94,1.16-1.89,2.32-2.84,3.46q-3.57,4.2-7.36,8.2l-1.7,1.75q-1.62,1.65-3.27,3.25-2.09,2-4.24,3.93c-.24.23-.49.45-.74.67l-.22.19q-3.9,3.45-8,6.66l0,0c-.6.47-1.19.94-1.8,1.4h0l-.35.27-.55.41,0,0-.5.37h0l-.29.22q-3.47,2.58-7,5l-.06,0-2.14,1.42h0l-.5.33-1.79,1.15,0,0q-3.13,2-6.34,3.82a4.11,4.11,0,0,0-.42.21l-.15.09a3,3,0,0,0-.38.24l-.22.13,0,0h0l-.08.05-.6.34a3.49,3.49,0,0,0-1.12,1.4,3.49,3.49,0,0,0,1.8,4.61,3.35,3.35,0,0,0,2.72,0l.75-.42a3.19,3.19,0,0,0,.45-.23,3.31,3.31,0,0,0,.47-.29h0l0,0,0,0,0,0,.12-.07.14-.09q3.45-2,6.82-4.08l.12-.08.52-.33.2-.13,0,0,.28-.18.11-.08.72-.46.09-.06.16-.1.18-.12.87-.57.74-.49.53-.36.08,0c2.24-1.52,4.46-3.09,6.63-4.71l.12-.08.46-.34.09-.07.05,0,.49-.37h0l.9-.69.09-.06,1.11-.86.07-.06.54-.42.1-.08q3.94-3.12,7.72-6.44l.06,0,.38-.34.12-.11.47-.42,0,0,.51-.46.13-.12c2.65-2.41,5.25-4.9,7.77-7.45l.16-.15.94-1,.06-.07.81-.83.09-.1.66-.69.07-.08q3.39-3.6,6.58-7.37l0,0,.44-.52.07-.09q1.25-1.49,2.46-3l.3-.37.11-.15q2.61-3.29,5.06-6.69l0,0c.15-.21.3-.41.44-.62l.3-.42.06-.08.27-.39.1-.14.13-.18.06-.1,1-1.37.06-.09c1.82-2.67,3.56-5.38,5.25-8.14a3.4,3.4,0,0,0,.48-.78l.27-.45h0a3.62,3.62,0,0,0,.44-.74l.07-.11.44-.75,0,0,.75-1.3a1.93,1.93,0,0,0,.13-.21q2.64-4.6,5-9.37l.07-.14.72-1.46.06-.12.3-.64a.25.25,0,0,0,0-.07c1.47-3.1,2.87-6.23,4.17-9.4,0-.06,0-.11.07-.16l.3-.75.69-1.74a.78.78,0,0,0,0-.14l.48-1.24,0-.08c0-.12.09-.24.14-.35l.24-.64a.56.56,0,0,1,0-.12c1-2.73,2-5.49,2.85-8.26v0l.3-1,0-.09c.31-1,.6-2,.89-3l0-.08c0-.15.08-.28.12-.42,1-3.32,1.84-6.66,2.62-10l.06-.23c.1-.43.2-.87.29-1.31l0-.1c0-.11,0-.23.07-.34l.12-.55a.29.29,0,0,0,0-.09c.13-.6.25-1.19.38-1.79v-.07l.15-.72v0l.42-2.19.15-.81s0-.06,0-.1c.19-1.06.38-2.13.55-3.2l0-.13,0-.23c0-.11,0-.21,0-.31v0l.12-.75,0-.14.09-.62,0-.11v-.1c0-.18.06-.36.08-.54l0-.08c0-.4.11-.81.17-1.21a.22.22,0,0,1,0-.08l.39-3s0-.08,0-.11,0-.26,0-.38,0-.23,0-.35v0q.54-4.68.85-9.37v0c0-.16,0-.33,0-.5a.41.41,0,0,0,0-.11c.09-1.53.17-3.06.22-4.6a2.71,2.71,0,0,0,0-.29q.17-4.78.09-9.59v-.22c0-.18,0-.36,0-.54v-.62a.22.22,0,0,0,0-.08l0-1.42c0-.07,0-.13,0-.19s0-.28,0-.42,0-.31,0-.47a.34.34,0,0,0,0-.1q-.19-5.12-.68-10.21a.49.49,0,0,1,0-.12c0-.34-.07-.67-.1-1v0c0-.55-.11-1.1-.17-1.65,0,0,0-.08,0-.12s0-.1,0-.15c0-.38-.09-.76-.14-1.14,0,0,0-.07,0-.11,0-.3-.07-.59-.11-.89-.37-2.92-.81-5.82-1.33-8.72,0,0,0-.06,0-.1l-.21-1.11v-.08l0-.09s0-.06,0-.09c-.07-.34-.13-.69-.2-1a.43.43,0,0,0,0-.11l0-.18v-.06c-.08-.39-.16-.78-.23-1.17l0-.14v-.05l-.06-.27c-.64-3.09-1.36-6.15-2.14-9.2a3.16,3.16,0,0,0-.23-.89c0-.18-.09-.35-.13-.52a4,4,0,0,0-.22-.82l-.05-.18-.21-.78-.05-.17-.06-.22-.21-.74-.07-.26,0-.09q-1.34-4.68-2.93-9.31a.88.88,0,0,0,0-.15c-.14-.42-.29-.84-.44-1.25v-.06c-.1-.27-.2-.54-.29-.81a.42.42,0,0,1,0-.1l-.09-.25-.05-.14-.22-.6q-1.78-4.83-3.82-9.53l0-.09-.16-.37,0-.1,0-.07q-2.64-6-5.68-11.74s0-.05,0-.08c-.28-.53-.57-1.06-.86-1.59-.09-.18-.18-.35-.28-.52l-.12-.22-.32-.57-.22-.41-.28-.5-.83-1.47-.09-.14c-1.36-2.38-2.76-4.73-4.22-7.05l-.09-.15-.62-1a.41.41,0,0,0-.05-.09l0-.06,0,0-.41-.63-.27-.41-.07-.11-.37-.57a.86.86,0,0,0-.07-.1l-.25-.38-.06-.09c-.21-.33-.43-.64-.64-1a.61.61,0,0,0-.07-.1c-1.52-2.24-3.09-4.46-4.7-6.64l-.1-.13-.74-1-.21-.27-.7-.92c-.27-.36-.54-.7-.82-1.06l0,0c-.27-.36-.55-.71-.83-1.06l-.1-.12q-2.94-3.69-6.06-7.23a3.62,3.62,0,0,0-2.3-1.38,4,4,0,0,0-.5,0,3.55,3.55,0,0,0-2.1.7Zm-45.91,273.09.1-.06h0l-.11.06Z" transform="translate(-889.48 -814.58)"/><path class="cls-1" d="M1037.86,818.58q-3.58.79-7.14,1.71a3.72,3.72,0,0,0-.9.23l-.5.13a3.72,3.72,0,0,0-.84.22l-2.67.74-.33.1h0l-.32.09-.48.14-.1,0c-2.63.77-5.24,1.61-7.84,2.5l-.12,0-1.09.38-.63.22-.56.2-.1,0-.11,0-.12,0-1,.36h0l-1.35.5-.14.06c-2.57,1-5.13,2-7.66,3.12l-.08,0-.94.41-.08,0L1000,831.2l0,0-.14.06-.33.15-.11.06c-2.7,1.27-5.37,2.59-8,4h0l-.24.13-.78.41a1.29,1.29,0,0,1-.16.09l0,0-.75.41-.15.08-.26.15h0l-.37.21-.38.21-.29.16-.08,0-.08,0-1.67.94-.11.07c-2.39,1.37-4.74,2.77-7.07,4.23l-.16.1-.26.16c-.27.17-.54.34-.8.52l-.09,0-.38.25-.77.5-1,.64-.12.09c-3,2-6,4.09-8.85,6.27l-.11.08-1.06.8-.09.08-1,.78h0l-.61.47-.12.11q-3.35,2.64-6.56,5.42l-.1.09-.59.52-.46.41-.62.54-.17.16q-4.46,4-8.66,8.25l-.11.11-.56.57s0,0,0,0l-.33.33-.06.06-.48.5,0,0-.31.32-.12.12-.28.3-.55.57-.07.07q-3.53,3.76-6.85,7.71l-.15.17a.94.94,0,0,1-.09.12l-.22.26v0l-.66.79,0,0-.13.15-.06.07-.28.35-.3.36-.27.34-.08.1-.37.45-.06.09q-2.71,3.4-5.27,7l-.08.1-.5.7s0,0,0,0a3.71,3.71,0,0,0-.23.32l-.06.07c-.15.22-.3.44-.46.65l-.29.42,0,.06-.57.82-.09.14-.08.12-.05.06c-.26.37-.51.75-.76,1.13l-.11.16c-1.51,2.25-3,4.53-4.37,6.84a3.48,3.48,0,0,0-.48.78c-.09.15-.18.31-.28.46a3.83,3.83,0,0,0-.44.73c-.15.25-.3.5-.44.75a.41.41,0,0,0,0,.09l-.12.2-.1.16c-.15.25-.29.5-.43.75a.56.56,0,0,1-.05.08,1.62,1.62,0,0,1-.1.18l-.12.2-.68,1.18,0,.11c-1.34,2.38-2.63,4.78-3.86,7.22l0,.08-.21.41c-.06.13-.12.25-.19.38s-.15.3-.22.46-.21.41-.31.62c0,0,0,0,0,.07L912,918a.54.54,0,0,0-.05.11c0,.05,0,.1-.07.14l0,.06-.45,1a.3.3,0,0,0,0,.1c-.5,1.07-1,2.15-1.47,3.23.24,0,.48,0,.73,0a7.35,7.35,0,0,1,2.95.61,7.56,7.56,0,0,1,2.78,2.12c.5-1.12,1-2.24,1.52-3.35.09-.18.18-.36.26-.54l.24-.51,0-.07c.35-.74.71-1.47,1.07-2.2q2.47-5,5.25-9.84l0,0,.41-.7c0-.07.09-.14.13-.22a3.93,3.93,0,0,0,.41-.69l.05-.1a.25.25,0,0,0,0-.07,3.27,3.27,0,0,0,.43-.72l.3-.49,0,.07.08-.13h0a.35.35,0,0,1,.05-.08h0q2.19-3.58,4.55-7.08l1.09-1.58.46-.66v0l1.08-1.52c1.9-2.65,3.88-5.25,5.91-7.79l.77-.94c.22-.27.43-.54.66-.81l.41-.49.54-.65q3.58-4.26,7.41-8.3l1.2-1.26.57-.58c1.08-1.11,2.18-2.19,3.29-3.28,1.75-1.68,3.54-3.32,5.35-4.93l.4-.36h0q3.71-3.24,7.57-6.29c.74-.59,1.49-1.17,2.24-1.75q4.71-3.57,9.62-6.83l1.52-1,1.38-.89.09-.05c2.26-1.43,4.54-2.8,6.85-4.14a3.58,3.58,0,0,0,.71-.4l.31-.18.33-.18,1.13-.62h0l1.8-1q4.07-2.14,8.23-4.1l.07,0c1.35-.63,2.71-1.25,4.08-1.85q4.49-2,9.07-3.66h0l.45-.17,2.1-.76h0l.12,0h0q5-1.75,10.12-3.24l1.18-.34a3,3,0,0,0,.75-.21l.25-.06a3.76,3.76,0,0,0,.78-.21l.87-.24c2.23-.57,4.46-1.1,6.71-1.59a3.74,3.74,0,0,0,2.3-1.29,3.48,3.48,0,0,0,.74-2.62,3.51,3.51,0,0,0-1.29-2.3,3.65,3.65,0,0,0-2.14-.78,2.59,2.59,0,0,0-.48,0ZM990.13,844.1h0Zm-35,26-.53.52.53-.52Z" transform="translate(-889.48 -814.58)"/><path class="cls-1" d="M926.53,905.73v0Z" transform="translate(-889.48 -814.58)"/><polygon class="cls-1" points="37.11 91.06 37.11 91.05 37.11 91.06 37.11 91.06 37.11 91.06"/><path class="cls-1" d="M926.5,905.78l0,0,0,0Z" transform="translate(-889.48 -814.58)"/><path class="cls-1" d="M1137,904.23a15.32,15.32,0,0,0-3.42,2,19.89,19.89,0,0,0-2.16,2.11,12.17,12.17,0,0,0-5.24,2.24l-2.25,2.17c-.28.36-.54.73-.78,1.1a34.23,34.23,0,0,0-3.79,0,30.13,30.13,0,0,0-6,1.28c-1,.28-2,.62-3,.94a30.87,30.87,0,0,0-6.06,2.9,27.34,27.34,0,0,0-6.07,5.39,43.39,43.39,0,0,0-3.55,4.46c-2.27,3.16-4.57,6.29-6.94,9.38-2.13,2.79-4.1,5.68-6.18,8.5-1,1.39-2.24,2.64-3.33,4a57.56,57.56,0,0,0-4.68,7.42c-1.3,2.08-2.61,4.16-3.75,6.34-.62,1.22-1.13,2.48-1.76,3.69-.53.84-1.05,1.68-1.57,2.53-.9,1.49-1.79,3-2.69,4.5l-1,1.68a96.75,96.75,0,0,0-6,10.85,39.09,39.09,0,0,0-2.39,7.92,17.55,17.55,0,0,0-.28,6,13.27,13.27,0,0,0,4.54,8.14,12,12,0,0,0,8.61,2.7l.18.46a13.12,13.12,0,0,0,10,7.87l.09,0a12.13,12.13,0,0,0,7.34.76c0,.1,0,.2.08.3l.28.57a8.69,8.69,0,0,0,2,3.21,12.27,12.27,0,0,0,4.89,3.9,10,10,0,0,0,3.7,1.18,13.45,13.45,0,0,0,10.34-2.92,11.77,11.77,0,0,0,3.6,4.85l2.71,1.65a12.39,12.39,0,0,0,6.45.94l.91-.23a12.52,12.52,0,0,0,1.58,1.54l2.72,1.65.62.25a16.76,16.76,0,0,0,2.62,2.94,9,9,0,0,0,2.77,1.69l3.16.91a12.22,12.22,0,0,0,6.36-.76c2.29-.6,4.2-2.67,5.63-4.43a32.79,32.79,0,0,0,3.63-5.78c.82-1.61,1.34-3.37,2.17-5a28.54,28.54,0,0,0,2.36-4.44,64.75,64.75,0,0,0,2.84-9.13c.45-1.88.82-3.78,1.28-5.66l.62-.81a55.54,55.54,0,0,0,3.56-5.67c-.44.74-.89,1.47-1.34,2.21,1.37-2.26,2.7-4.53,3.89-6.89a47.29,47.29,0,0,0,3-8.83c.33-1.14.66-2.28,1-3.42.13-.43.25-.86.38-1.3.52-1.69,1.18-3.34,1.73-5a73.12,73.12,0,0,0,2.66-10.17,53.41,53.41,0,0,0,.62-10.18,17.49,17.49,0,0,0-1.46-6.69v-.92c0-3.18-.74-6.81-3-9.25a12.41,12.41,0,0,0-4.89-3.9q-.55-.2-1.11-.36c.17-4.58.34-9.15.4-13.74l0,2.58c0-2.67.45-6.06-.92-8.55l-1.54-2.73a12.1,12.1,0,0,0-4.89-3.9l-2.55-.73-.55-1a18.22,18.22,0,0,0-3.09-3.48c-1.55-1.6-4.22-2.21-6.27-2.64a8.87,8.87,0,0,0-1.66-.14,13.47,13.47,0,0,0-5.11.94Zm-71.66,68.37,1.17-1.94-1.17,1.94Zm1.17-1.94h0l.46-.77c-.15.26-.31.52-.47.78Z" transform="translate(-889.48 -814.58)"/><path class="cls-1" d="M1076.4,816.07a4.33,4.33,0,0,0-.5.08,10.66,10.66,0,0,0-2.74.12,5.4,5.4,0,0,0-2,0,9.5,9.5,0,0,0-6.45,15.1c2.17,2.81,5.65,4.08,8.85,5.29a30.63,30.63,0,0,1,5,2.42l-.44-.27a25.28,25.28,0,0,0,4.67,2.21,58.81,58.81,0,0,0,5.7,1.62c1.33.57,2.58,1.38,3.9,1.94a51.09,51.09,0,0,1,5,2.44l0,0c.11.16.21.33.31.5l-.26-.47,0,0c1,1.7,2,3.37,3,5.06a38.85,38.85,0,0,1,2.88,7.47l0,.05c.27,1.08.54,2.16.82,3.24-.14-.55-.29-1.1-.43-1.65.35,1.35.68,2.7,1,4.05l-.1-.38c.23.88.44,1.76.63,2.65,0,.53,0,1.07,0,1.6-.21,8.72-.7,17.43-1.3,26.14-.21,3.07-.36,6.12-.38,9.2,0,.93,0,1.86.07,2.79a75.22,75.22,0,0,0-1,14.29c0,.49,0,1,0,1.47-.29,1.37-.58,2.74-.86,4.12-1,5.17-1.86,10.39-2.71,15.59-.22,1.34-.45,2.68-.66,4a9.5,9.5,0,1,0,18.8,2.75c.22-1.38.45-2.76.67-4.15a9.48,9.48,0,0,0,1.35-.84l1.75-1.68a9.41,9.41,0,0,0,2-4.56,29.44,29.44,0,0,0,.51-4.1c.14-1.48.26-3,.37-4.44a76.52,76.52,0,0,0,0-10.27c-.07-1.26-.18-2.52-.31-3.77a10.63,10.63,0,0,0,6.13-1.74l.43.25.28.66a22.56,22.56,0,0,0,1.85,3.2,11.75,11.75,0,0,0,4.22,3.45,12.1,12.1,0,0,0,3.72,1.15,9.51,9.51,0,0,0,3.87-.23,8.73,8.73,0,0,0,1.24-.09,9.46,9.46,0,0,0,4.5-1.81,5.42,5.42,0,0,0,.56-.37l-.06.51c-.16,1.48-.32,3-.38,4.48-.06,1.66-.13,3.33-.12,5,0,.9,0,1.79.12,2.69a13.13,13.13,0,0,0,2.23,5.63,6.28,6.28,0,0,0,1.63,1.79c-.26,1.34-.51,2.68-.76,4-.32,1.72-.64,3.45-1,5.17-.25,1.22-.5,2.43-.71,3.66a13.56,13.56,0,0,0-.09,4.49c.62,3.3,2.51,6.42,5.82,7.61a9.59,9.59,0,0,0,4.21.79,9.53,9.53,0,0,0,9.19,1.17,10,10,0,0,0,4.54-3.71,10.73,10.73,0,0,0,1.63-3.1c.38-1.22.72-2.45,1-3.69s.45-2.29.64-3.45c.27-1.65.48-3.31.69-5a91.8,91.8,0,0,0,3.23-10.87c.56-2.64,1.08-5.27,1.55-7.92a69.59,69.59,0,0,0,1.06-7.19c.33-4.79,1-9.57,1.68-14.32.5-3.56,1.12-7.08,1.35-10.66a9.25,9.25,0,0,0,.9-1c2.58-3.4,2.52-7.68,2.7-11.72,0-1.23.26-2.46.35-3.7.13-1.77.12-3.55.09-5.34,0-1.25,0-2.5,0-3.75,0,.21,0,.42,0,.63a62.2,62.2,0,0,0-.39-7.47c-.49-4-2.4-8.27-6.38-9.85a11.19,11.19,0,0,0-1.23-.42l-.65-.63a13.37,13.37,0,0,0-3.42-2.13c-.38-.34-.73-.7-1.1-1a19,19,0,0,0-4.06-2.45c-.81-.42-1.68-.65-2.52-1s-1.65-.61-2.49-.86a19.65,19.65,0,0,1-1.94-.85c-1.35-.94-2.65-1.94-4-2.81l-.69-.75.11.12-.12-.13c-.43-.46-.88-.93-1.33-1.38l.64.67c-.7-.72-1.4-1.43-2.14-2.11a14.8,14.8,0,0,0-2.45-1.72,20.27,20.27,0,0,0-2.62-1.45c-.63-.28-1.25-.58-1.87-.9-1.11-.58-2.3-1-3.4-1.55a32.17,32.17,0,0,0-7.81-2.72,30.48,30.48,0,0,1-3.16-1.64c-1.27-.73-2.69-1.15-4-1.8-.71-.35-1.49-.57-2.23-.87-1-.39-1.91-.82-2.91-1.13a41,41,0,0,0-5-1.3c-.64-.12-1.31-.19-2-.3-.87-.27-1.75-.53-2.65-.77-.44-.12-.88-.21-1.33-.29-.79-.24-1.59-.47-2.39-.69l-.45-.46a10.59,10.59,0,0,0-1.61-1.6,14,14,0,0,0-1.9-1.12,15.58,15.58,0,0,0-4.91-1.88,15.34,15.34,0,0,0-4.49-.23c-.74,0-1.49.12-2.23.18l-.78-.1a17.17,17.17,0,0,0-3,0l-.25,0c-1.13-.1-2.27-.26-3.39-.42a29.24,29.24,0,0,0-5.45-.1l-1.13,0c-.57-.05-1.14-.12-1.71-.13-.88,0-1.75,0-2.61,0h-.45c-.66-.06-1.32-.17-2-.26a17.23,17.23,0,0,0-2.67-.2l-1.06,0Zm20.49,30c.1.19.21.37.32.56h0l-.3-.55Zm66.45-3.48-.23-.24.23.24Z" transform="translate(-889.48 -814.58)"/><path class="cls-1" d="M1069.58,827a9.56,9.56,0,0,0-5.14,5,10,10,0,0,0-.11,7.39c.17.56.35,1.13.51,1.7.59,2.49,1.06,5,1.57,7.49.31,1.57.7,3.13,1.07,4.69.53,2.27,1.25,4.49,1.9,6.73,1.3,5.82,1.59,11.82,2.54,17.7.47,2.89,1.15,5.8,1.34,8.73s.29,6.11.3,9.15c0,.94,0,1.89,0,2.83v-.51c-.1,4.7-1,9.36-1.4,14-.35,4.14-.55,8.27-1,12.39-.23,2-.51,3.94-.79,5.9-.34,2.36-.39,4.75-.63,7.13-.23,2.14-.53,4.27-.83,6.39-.33,2.28-1,4.52-1.41,6.79-.51,2.85-1.31,5.64-1.8,8.5-.57,3.31-.92,6.64-1.61,9.93s-1.48,6.59-2.12,9.9c-.32,1.62-.6,3.25-.84,4.88a46.06,46.06,0,0,0-.39,7.24c0,2.32,1.76,4.87,3.49,6.25a9.5,9.5,0,0,0,13.36-1.49c.42-.7.84-1.41,1.27-2.11a9.53,9.53,0,0,0,.77-4.62,82.75,82.75,0,0,1,2.4-13.25c1.11-4.61,1.69-9.3,2.47-14,.36-2.14.85-4.25,1.35-6.36s.85-4.31,1.35-6.45a83.19,83.19,0,0,0,1.66-13.25c.22-2.95.77-5.89,1.12-8.83s.53-5.87.73-8.82c.22-3.37.6-6.73,1-10.07.21-1.62.4-3.25.54-4.87.17-1.89.16-3.78.16-5.67.12-4.47,0-8.93-.24-13.39a45.85,45.85,0,0,0-.74-5.22c-.34-2-.71-4-1-6-.5-3.78-1-7.57-1.46-11.36a79.11,79.11,0,0,0-2.81-11.43c-1.35-6-2.37-12-4.19-17.79a9.25,9.25,0,0,0-5-5.14,9.56,9.56,0,0,0-3.83-.8,9.43,9.43,0,0,0-3.55.69Z" transform="translate(-889.48 -814.58)"/><path class="cls-1" d="M1080.45,834.67a9.5,9.5,0,0,0-3.73,6.25,9.75,9.75,0,0,0,1.78,7.05c.35.51.71,1,1,1.56,1.58,3.35,2.52,7,3.92,10.42.89,2.17,1.79,4.33,2.54,6.55.47,1.38.87,2.79,1.24,4.2.51,2.06,1,4.13,1.39,6.22.45,2.32.7,4.66,1,7s.47,4.84.6,7.28c.09,1.69.09,3.38.08,5.08-.12,4-.27,8-.65,12s-1,8-1.53,12-1.12,8.25-1.88,12.34q-1.08,5.77-2.58,11.45a29.29,29.29,0,0,1-1.59,4.28c-2.25,4.67.26,10.5,4.87,12.53a9.61,9.61,0,0,0,7.39.11,9.81,9.81,0,0,0,5.14-5,55.31,55.31,0,0,0,3.09-9.54c.7-2.62,1.28-5.26,1.86-7.91,1.11-5.12,1.77-10.34,2.5-15.53s1.45-10.28,1.82-15.45c.19-2.56.26-5.12.33-7.68.1-3.32.24-6.72.07-10-.24-4.49-.64-9-1.3-13.42a124.1,124.1,0,0,0-3.45-14.74c-1.13-4.08-3-7.94-4.45-11.89-.68-1.82-1.22-3.68-1.92-5.48a38.81,38.81,0,0,0-4.27-7.76,9.07,9.07,0,0,0-7.56-3.79,9.6,9.6,0,0,0-5.73,1.84Z" transform="translate(-889.48 -814.58)"/><path class="cls-1" d="M912.85,918.2a3.64,3.64,0,0,0-2,2c-1.12,3.58-2.12,7.2-3,10.87a.85.85,0,0,0,0,.17c0,.13-.07.27-.1.41s-.05.24-.08.36a.77.77,0,0,0,0,.15c-.11.49-.21,1-.31,1.45,0,0,0,.08,0,.12l-.18.9a.52.52,0,0,0,0,.11l0,.14s0,.07,0,.1l-.18,1,0,.23v0c-.06.32-.11.63-.17.95a.78.78,0,0,1,0,.14l0,.2c-.05.25-.09.51-.13.76l0,.19a126,126,0,0,0-1.4,14.11.57.57,0,0,0,0,.13c-.16,4.49-.13,9,.15,13.46a.76.76,0,0,1,0,.15,1,1,0,0,1,0,.17c0,.15,0,.3,0,.45a.57.57,0,0,0,0,.13,131.67,131.67,0,0,0,4.16,24.06,3.72,3.72,0,0,0,.23.87c.05.17.09.34.14.51l.05.18a.56.56,0,0,0,0,.12,139.65,139.65,0,0,0,4.81,14.07s.05.11.08.17q1.79,4.4,3.87,8.67a.54.54,0,0,0,0,.11c.12.24.23.48.35.73l.08.14,0,.07.11.21h0l.29.57.29.58h0l.18.35c.13.26.27.51.4.76l.07.15.1.18.37.72a.41.41,0,0,1,0,.09v0a4,4,0,0,0,2,2,3.73,3.73,0,0,0,4.94-1.92,3.6,3.6,0,0,0,.05-2.91l-.84-1.6c-.11-.23-.23-.45-.34-.67l0,0-.31-.62-.42-.83q-2.4-4.87-4.44-9.91a2.29,2.29,0,0,1-.1-.23,139,139,0,0,1-4.88-14.47c-.14-.49-.27-1-.4-1.49a127.8,127.8,0,0,1-3.55-22.08q-.31-4.59-.28-9.19c0-.63,0-1.27,0-1.91v0a125.1,125.1,0,0,1,1.49-15.32c.07-.43.15-.87.22-1.3s.2-1.12.31-1.68l.27-1.39v0q.22-1.12.48-2.25c.49-2.21,1-4.42,1.66-6.61.27-.91.54-1.81.83-2.72a4.06,4.06,0,0,0,0-2.91,3.77,3.77,0,0,0-4.89-2.08Zm3.4,69.69c0,.13.07.26.1.39,0-.13-.06-.26-.1-.39Z" transform="translate(-889.48 -814.58)"/><path class="cls-1" d="M942.69,942.55a3.64,3.64,0,0,0-2,2c-.46,1.38-.9,2.77-1.31,4.16l0,.1-.27.91c-.12.43-.25.86-.37,1.29a4.21,4.21,0,0,0-.2.63,3.9,3.9,0,0,0-.14.59l-.24.88-.09.34a.29.29,0,0,1,0,.09c-.1.38-.19.77-.29,1.15l0,.12c-.8,3.27-1.48,6.57-2,9.89v.08l-.15.94s0,.07,0,.11v0s0,.07,0,.1l-.12.78c0,.16,0,.33-.07.5,0,.33-.09.67-.13,1,0,0,0,.07,0,.11h0s0,.06,0,.09c-.05.37-.1.73-.14,1.1,0,.06,0,.13,0,.19q-.45,4-.67,8v.25c0,.15,0,.29,0,.44a.28.28,0,0,0,0,.09c0,.31,0,.62,0,.93v.11c-.13,3.72-.12,7.44,0,11.15a.49.49,0,0,1,0,.12c0,.1,0,.2,0,.31h0c0,.69.08,1.37.13,2.06v.13l0,.21,0,.42v0c0,.16,0,.32,0,.49a.49.49,0,0,0,0,.12c0,.31,0,.62.08.93v.1q.35,3.81.9,7.61s0,.08,0,.12c0,.28.09.56.13.83l.06.39v0l0,.09.15.93s0,.08,0,.11h0s0,.07,0,.11c.05.31.1.62.16.93l0,.18c.53,2.93,1.14,5.84,1.85,8.73a.44.44,0,0,1,0,.1l.24.93c0,.09,0,.19.07.29a3.78,3.78,0,0,0,.25,1l.08.31a3.86,3.86,0,0,0,.24.93l.09.3c0,.11.05.21.08.31l0,.09.06.24c0,.09,0,.19.08.29.44,1.57.9,3.12,1.39,4.67a1.82,1.82,0,0,0,.07.25c.21.66.43,1.33.65,2l.15.46a3.75,3.75,0,0,0,6.91.11,3.93,3.93,0,0,0,0-2.92c-.8-2.36-1.53-4.75-2.2-7.15a4.1,4.1,0,0,0-.23-.83l-.06-.21,0-.14a3.75,3.75,0,0,0-.22-.86v0q-1.32-5.22-2.24-10.53c-.08-.45-.15-.91-.22-1.36s-.16-1-.23-1.47v-.07c-.39-2.68-.71-5.37-.94-8.06v0l0-.33c0-.37-.05-.75-.08-1.12l0-.4h0c-.05-.76-.1-1.51-.14-2.26a1.48,1.48,0,0,0,0-.21c-.11-2.32-.15-4.64-.14-7,0-1,0-2.11.09-3.16l.06-1.17q.24-4.55.81-9.06h0l.06-.48.27-1.88.12-.78c0-.16,0-.32.07-.48s0-.07,0-.1q.91-5.67,2.36-11.24a.43.43,0,0,0,0,0c0-.1,0-.2.08-.3v0a3.28,3.28,0,0,0,.22-.83l0-.11.06-.22v0l.15-.53c.48-1.63,1-3.27,1.53-4.89a4,4,0,0,0,0-2.91,3.76,3.76,0,0,0-2-2,3.74,3.74,0,0,0-2.91-.05Z" transform="translate(-889.48 -814.58)"/><path class="cls-1" d="M1217.47,1213l.24-.15-.24.15Z" transform="translate(-889.48 -814.58)"/><path class="cls-1" d="M941,1048.61a144.69,144.69,0,0,0-9.93,16.05l-.13.24-.07.14-.3.57,0,.05-.24.45v0c-.23.47-.47.94-.71,1.41l-.06.13a124.1,124.1,0,0,0-5.56,13.07l0,.12a111.58,111.58,0,0,0-5.59,23.14v0a2.54,2.54,0,0,0,0,.29s0,.07,0,.11c-.18,1.58-.33,3.16-.44,4.75,0,0,0,.11,0,.16,0,.65-.08,1.31-.11,2,0,.07,0,.15,0,.22v.08a1.28,1.28,0,0,0,0,.19v0a87.8,87.8,0,0,0,.67,15.46s0,.07,0,.11c.06.43.13.86.19,1.29l0,.16.08.5c0,.05,0,.09,0,.14l.12.68c.27,1.52.58,3,.93,4.55,0,.1.05.2.08.3.13.54.27,1.09.41,1.64a3.91,3.91,0,0,0,.24.92c.05.17.09.34.14.5s0,.09,0,.14q.57,2.05,1.26,4.08a.76.76,0,0,0,0,.11l.06.19c0,.13.1.27.14.4l0,.07v0l.18.49c.14.37.28.74.41,1.11l.07.16c.54,1.39,1.12,2.77,1.74,4.13a.93.93,0,0,0,.05.1l0,.1,0,0v0l.18.38,0,.1h0l.08.16c0,.11.1.22.16.33l0,.06,0,.1.15.31.41.82.15.29c.74,1.42,1.51,2.83,2.33,4.2l.11.18.07.12.31.52.06.1.07.11a1.76,1.76,0,0,1,.14.23l.12.18,0,.06.4.62,0,0a1.4,1.4,0,0,0,.1.16l.09.15,0,0,.15.23,0,0,0,.06.15.22.07.1.06.1.85,1.23c.45.65.92,1.3,1.4,1.93l.07.1,0,0c.22.3.44.59.67.88l0,0c0,.06.1.13.16.19l.12.16h0l.22.26,0,.06.24.29h0l.1.13.14.16.87,1a4,4,0,0,0,2.47,1.47,3.75,3.75,0,0,0,3.55-6l-.18-.21-.15-.18,0-.06s-.09-.1-.13-.16c-.38-.45-.75-.9-1.12-1.36l-.26-.34c-.29-.37-.58-.74-.86-1.12l0-.06-.16-.21c-.35-.47-.69-.95-1-1.43q-1.68-2.4-3.17-4.92l-.28-.49c-.59-1.06-1.14-2.13-1.68-3.22a74.91,74.91,0,0,1-3.24-7.8l0-.15c0-.07-.05-.15-.08-.23l0-.11a1.87,1.87,0,0,0-.07-.22l0-.13c0-.07-.05-.13-.07-.2l0-.15a1.09,1.09,0,0,0-.05-.17l-.06-.18,0-.17-.05-.16c0-.11-.07-.21-.1-.31v0l-.45-1.53a4,4,0,0,0-.19-.68c-.07-.24-.14-.48-.2-.72-.38-1.55-.72-3.11-1-4.67-.16-.88-.31-1.75-.44-2.63a87.38,87.38,0,0,1-.88-12.73h0v-.1q.12-4.5.63-9s0-.07,0-.1a103.13,103.13,0,0,1,3.15-15.56q.81-2.77,1.76-5.5h0a125.22,125.22,0,0,1,6-14.17v0l.63-1.24.12-.23c.1-.19.2-.37.29-.56q1.77-3.33,3.69-6.56,2.6-4.23,5.47-8.26a3.88,3.88,0,0,0,.79-2.81,3.8,3.8,0,0,0-1.38-2.47,3.87,3.87,0,0,0-2.39-.8,3.48,3.48,0,0,0-2.88,1.39Zm-6.88,102.59.12.21-.12-.21Z" transform="translate(-889.48 -814.58)"/><path class="cls-1" d="M979.23,990.52a11,11,0,0,0-2.11,1.91,13.91,13.91,0,0,0-1.43,2.21c-.38.67-.66,1.4-1,2.09a12.64,12.64,0,0,0-.91,2.42c0-.15.08-.29.13-.44-.18.57-.35,1.14-.52,1.71l0-.09c-.4,1.35-.76,2.7-1.1,4.06-.27,1.07-.51,2.13-.81,3.18.09-.32.18-.64.28-1-.34,1.15-.63,2.31-.94,3.47-.2.64-.4,1.27-.59,1.92a17.62,17.62,0,0,1-.89,2.56c-.44.94-1,1.84-1.49,2.73-.67,1-1.39,2.06-2.17,3s-1.52,1.76-2.18,2.72a25.82,25.82,0,0,1-1.69,2.21c-.63.73-1.3,1.41-1.92,2.15-1.16,1.37-2.35,2.71-3.52,4.07-.92,1.07-1.75,2.22-2.71,3.27-.43.45-.9.87-1.33,1.33s-.79.88-1.2,1.31-.81.91-1.21,1.38c-.64.73-1.21,1.54-1.91,2.21l.36-.34-1,1a25.81,25.81,0,0,0-1.9,2c-.4.49-.76,1-1.2,1.45l-.23.23-.09.09.06-.06-.57.58a9.46,9.46,0,0,0-1.49,1.69l.13-.21c-.12.17-.23.33-.33.5l-.24.38.15-.25a12.11,12.11,0,0,1-.94,1.2,20.27,20.27,0,0,0-1.64,2.36l.51-.83c-.18.24-.34.48-.5.74l-.33.52-.23.34a3.93,3.93,0,0,0-.8,2.81,3.83,3.83,0,0,0,1.39,2.46,3.76,3.76,0,0,0,5.27-.59,9.7,9.7,0,0,0,.58-.93l.22-.33-.25.42c.11-.18.22-.37.34-.55.24-.37.48-.73.72-1.12l-.5.83a16.48,16.48,0,0,1,1.13-1.51,13.83,13.83,0,0,0,1.17-1.59l-.25.41c.09-.15.18-.3.28-.45l0,.06.38-.58h0l-.18.3a4.1,4.1,0,0,1,.64-.74l-.07.06.63-.63.31-.3-.31.29a1.85,1.85,0,0,0,.14-.14l.24-.22c1.15-1.15,2.11-2.44,3.24-3.61l-.69.67c.53-.51,1-1,1.57-1.56l-.23.23c1.14-1.15,2.11-2.43,3.21-3.63.74-.81,1.48-1.64,2.26-2.41,1-1,1.89-2.14,2.81-3.26s1.94-2.33,3-3.46c.7-.77,1.37-1.59,2.09-2.37s1.31-1.47,1.91-2.26,1-1.43,1.56-2.1c.88-1.07,1.75-2.13,2.56-3.26s1.44-2.2,2.11-3.34c.37-.64.76-1.28,1.08-1.94a18,18,0,0,0,1-2.73c.4-1.28.81-2.56,1.15-3.84.24-.89.45-1.78.7-2.66-.06.22-.13.43-.19.65.53-1.9,1-3.82,1.47-5.73l.24-.83-.06.23c.25-.86.51-1.7.76-2.56l-.28,1a12.75,12.75,0,0,1,.94-2.22c.27-.55.51-1.12.79-1.66q.26-.36.54-.69c.2-.16.41-.31.63-.46a3.79,3.79,0,0,0,.76-5.25,3.67,3.67,0,0,0-3-1.49,3.91,3.91,0,0,0-2.26.72Zm-31,61.12-.06.1h0l.07-.11Zm.39-.33.1-.11-.1.11Zm.94-.94-.07.07.37-.36-.3.29Z" transform="translate(-889.48 -814.58)"/><path class="cls-1" d="M907.43,1027.75c-.45,1.17-.95,2.33-1.34,3.52a17.18,17.18,0,0,0-.68,2.53c-.11.67-.18,1.34-.25,2a62.44,62.44,0,0,0,0,6.84c0,.73-.09,1.46-.18,2.18s-.14,1.3-.27,1.94l-.12.27-.23.27h0l-1,.1c-.55,0-1.09.12-1.65.14a9.44,9.44,0,0,0-1.5.09,12.31,12.31,0,0,0-1.69.43,18.19,18.19,0,0,0-2.37.58,6.8,6.8,0,0,0-3.35,2.68c-.46.67-.88,1.39-1.3,2.09a8.13,8.13,0,0,0-.63,1.25c-.18.48-.33,1-.48,1.46a19.55,19.55,0,0,0-.73,2.59,9.22,9.22,0,0,0,0,3.55,21.69,21.69,0,0,0,.92,3.07,9.21,9.21,0,0,0,.88,1.71,4.9,4.9,0,0,0,.52.74,7.68,7.68,0,0,0,1.29,1.32c.41.28.83.49,1.24.73a9.17,9.17,0,0,0,.87.48,10.35,10.35,0,0,0,1.52.49c.39.1.78.17,1.18.24l.37.15.22.08q.08.46.12,1c0,.33-.07.66-.11,1a14.83,14.83,0,0,0-.06,2.11c0,.73-.11,1.46-.2,2.19a26.2,26.2,0,0,0,.08,3.76,16.83,16.83,0,0,0,0,1.74c0,.48.11,1,.15,1.44.09,1.13.24,2.27.34,3.41a17.38,17.38,0,0,0,.74,3.84,10.55,10.55,0,0,0,1,2.06l0,.06a2.3,2.3,0,0,1,.17.39,3.77,3.77,0,0,0,4.88,2.07,3.81,3.81,0,0,0,2.08-4.88,7.27,7.27,0,0,0-.6-1.18l-.24-.42a7.46,7.46,0,0,1-.35-.89c-.22-1.2-.28-2.43-.41-3.64s-.3-2.26-.35-3.39c0-.72,0-1.44,0-2.16,0-.43,0-.87-.07-1.3s.13-1,.16-1.51c0-.78,0-1.56,0-2.34,0-.45.11-.89.14-1.34a13.94,13.94,0,0,0,0-2.33,8.46,8.46,0,0,0-1.51-4.26,6.6,6.6,0,0,0-2.25-2,9.17,9.17,0,0,0-1.17-.46,11.13,11.13,0,0,0-2.11-.63l-.61-.11a3.64,3.64,0,0,1-.59-.3l.44.27h0l-.47-.27-.28-.39a14,14,0,0,1-.57-1.65c0-.21-.06-.41-.08-.61a8.72,8.72,0,0,1,.21-1.26,13.77,13.77,0,0,1,1.09-2.73c.21-.33.42-.66.65-1h0l.59-.11a12.38,12.38,0,0,0,1.48-.39c.33,0,.67-.09,1-.11a12.53,12.53,0,0,0,1.73-.08c.58-.08,1.16-.14,1.74-.2a6.29,6.29,0,0,0,3.33-1.36,9.68,9.68,0,0,0,1.86-1.92,12.54,12.54,0,0,0,1.81-6.2,55.89,55.89,0,0,0,0-7,20.64,20.64,0,0,1,.43-3.92c.4-1.21.9-2.38,1.35-3.57a3.79,3.79,0,0,0-1.92-4.94,3.61,3.61,0,0,0-1.48-.31,3.67,3.67,0,0,0-3.46,2.23Zm-9,35.77h0l.34.21-.35-.21Z" transform="translate(-889.48 -814.58)"/><path class="cls-1" d="M1008.58,1156.25c-.53.62-1.06,1.23-1.62,1.81-.75.65-1.58,1.2-2.38,1.78-1.08.77-2.08,1.63-3.15,2.4-2.25,1.6-4.59,3.1-6.95,4.53l-1,.54.41-.23c-1.2.68-2.38,1.39-3.57,2.09-3.09,1.64-6.33,3-9.31,4.81a33.91,33.91,0,0,0-4,3.1c-1.72,1.44-3.3,3-4.89,4.59l-1.24,1.19c-1.48,1.41-3,2.74-4.45,4.2-.66.68-1.27,1.42-1.9,2.14s-1.24,1.42-1.81,2.18c-.92,1.24-1.84,2.49-2.65,3.8a49.81,49.81,0,0,0-2.71,5.17q-.47,1-1,2a19.25,19.25,0,0,0-1.23,3.46c-.52,1.88-.72,3.82-1.17,5.72a78.2,78.2,0,0,0-1.88,10,28.59,28.59,0,0,0,1.66,12.11c.57,1.66,1.23,3.26,1.93,4.86a24.42,24.42,0,0,0,3,4.88c1.15,1.52,2.34,3,3.49,4.52,1,1.27,1.82,2.66,2.73,4s1.72,2.43,2.55,3.66c.94,1.4,1.76,2.86,2.62,4.3.61,1,1.28,2,1.88,3a32,32,0,0,1,2.51,5.9c.72,2.37,1.43,4.75,2.1,7.14,0-.06,0-.12,0-.18l.12.47a39.27,39.27,0,0,1,.82,4.3,50.81,50.81,0,0,1,.33,5.23v-.33c0,1.1,0,2.2,0,3.31a58.25,58.25,0,0,1-.56,6c-.14,1-.28,2-.43,3a16.85,16.85,0,0,1-.48,2.13c-.27.86-.55,1.73-.88,2.56a18.35,18.35,0,0,1-1.27,2.5c-.8,1.28-1.68,2.52-2.56,3.74a24.9,24.9,0,0,1-2.78,3.12c-.54.52-1.08,1-1.66,1.52-.75.63-1.54,1.22-2.31,1.83a41,41,0,0,1-4.47,3.16,40.36,40.36,0,0,1-4.75,1.75c-1.45.5-2.89,1-4.36,1.42a17.71,17.71,0,0,1-3.33.39c-1.91-.08-3.82-.33-5.74-.43a32.75,32.75,0,0,1-5.68-.67,19.31,19.31,0,0,1-3.22-1.52l-2.4-1.42c-.71-.43-1.43-.83-2.18-1.19a3.75,3.75,0,1,0-3,6.87c.42.2.85.38,1.25.62l-.83-.5,2.35,1.39a23.61,23.61,0,0,0,5,2.6,22.77,22.77,0,0,0,5.41,1.08c1.62.14,3.25.16,4.86.33a39.35,39.35,0,0,0,5.32.29c3.52-.1,6.94-1.41,10.21-2.6.84-.31,1.7-.55,2.54-.85a16.58,16.58,0,0,0,3.17-1.61,52.86,52.86,0,0,0,4.74-3.38c.64-.52,1.31-1,1.94-1.54s1.22-1.11,1.82-1.68a37.74,37.74,0,0,0,3.74-4c.49-.61.93-1.27,1.37-1.92s1-1.49,1.52-2.27a22.73,22.73,0,0,0,2.35-4.44c.53-1.54,1-3.1,1.44-4.67a32.25,32.25,0,0,0,.73-4.36c.22-1.61.42-3.23.54-4.85s.07-3.2.08-4.8c0-2.21-.11-4.39-.3-6.6a38.26,38.26,0,0,0-1.3-6.28l.05.19c-.47-1.74-1-3.46-1.51-5.18a50.76,50.76,0,0,0-1.63-5.12,43.49,43.49,0,0,0-2.72-5.25c-.83-1.36-1.73-2.67-2.53-4-1.59-2.72-3.48-5.22-5.23-7.84-.43-.65-.82-1.32-1.28-2s-1.07-1.4-1.6-2.09c-1.19-1.51-2.44-3-3.5-4.62l-.72-1.14a37.29,37.29,0,0,1-2.77-7.31,27.34,27.34,0,0,1-.76-5,58.34,58.34,0,0,1,1.13-7.78c.29-1.53.77-3,1-4.55s.48-2.84.83-4.23,1.13-2.65,1.73-4,1.25-2.68,2-4,1.77-2.59,2.72-3.84c.62-.81,1.33-1.56,2-2.34s1.33-1.49,2-2.2c1.1-1,2.22-2,3.3-3.07l-.35.34c1.22-1.17,2.42-2.35,3.63-3.54s2.29-2,3.47-3a25.59,25.59,0,0,1,3.39-2.35c1.57-.84,3.2-1.58,4.8-2.36,2.28-1.11,4.43-2.41,6.62-3.68l-.2.11,1.05-.6-.36.2c1.52-.86,3-1.79,4.45-2.76s2.8-1.82,4.12-2.84,2.41-1.83,3.64-2.72a23.67,23.67,0,0,0,4-3.94,3.78,3.78,0,0,0-.59-5.27,3.64,3.64,0,0,0-2.29-.81,3.9,3.9,0,0,0-3,1.4Z" transform="translate(-889.48 -814.58)"/><path class="cls-1" d="M1028.77,1227.81a14.73,14.73,0,0,0-3,2.45,31.23,31.23,0,0,0-2.65,3.31l.59-.76a86.44,86.44,0,0,0-5,7.58c-.78,1.28-1.54,2.55-2.19,3.9-.78,1.63-1.44,3.29-2.11,5-.88,2-1.77,4-2.47,6.12a47,47,0,0,0-1.75,6.61,41.5,41.5,0,0,0-.55,7.71c0,1.15,0,2.29.09,3.43s.18,2.4.34,3.59c.38,3.08.78,6.15,1.39,9.19a38.11,38.11,0,0,0,.95,4.07,13,13,0,0,0,.91,2.06,17.85,17.85,0,0,0,1,1.54,3.82,3.82,0,0,0,5.14,1.35,3.77,3.77,0,0,0,1.34-5.13,20.5,20.5,0,0,1-1.19-1.88,30.09,30.09,0,0,1-1-4.2c-.32-1.57-.58-3.14-.8-4.73-.17-1.28-.33-2.57-.51-3.86,0,.33.09.67.14,1a55.33,55.33,0,0,1-.34-6.17,43,43,0,0,1,.19-5.44,47.63,47.63,0,0,1,3-10.17l0,.07q1-2.25,1.89-4.52c.47-1.09,1-2.17,1.55-3.23s1.2-2.07,1.83-3.08c1.26-2,2.46-4.1,3.9-6l-.59.76,1.37-1.8a15.66,15.66,0,0,1,2-2,6.44,6.44,0,0,1,.63-.36,3.39,3.39,0,0,1,.43-.11l.41,0h0a30,30,0,0,1,1.93,3.28c.59,1.13,1.16,2.32,1.68,3.5l.64,1.53c.35.86.67,1.73,1.09,2.56.25.48.49,1,.72,1.43.26.69.5,1.4.75,2.09.44,1.18.86,2.36,1.19,3.58.54,2,1,4,1.56,6s1,4.13,1.55,6.18a50.17,50.17,0,0,1,1.21,5.67c.15,1.23.25,2.48.33,3.72s.26,2.71.39,4.06a25.85,25.85,0,0,1,.11,3.41c0,.83-.12,1.66-.16,2.49a3.75,3.75,0,0,0,7.5,0c0-.93.15-1.87.17-2.81a28.75,28.75,0,0,0-.19-3.82c-.17-1.58-.29-3.15-.43-4.73-.16-1.8-.37-3.58-.65-5.37a36.82,36.82,0,0,0-1-4.31c-.38-1.37-.66-2.74-1-4.12s-.78-2.79-1.14-4.19-.7-2.75-1.08-4.12c-.48-1.78-1.16-3.5-1.77-5.24a26.85,26.85,0,0,0-1.15-2.71c-.23-.47-.49-.93-.71-1.41-.27-.67-.55-1.34-.84-2l.08.18c-.86-2-1.75-4.06-2.8-6a25.54,25.54,0,0,0-1.64-2.7,8.24,8.24,0,0,0-2.81-2.76,7.83,7.83,0,0,0-3.64-.86,10.16,10.16,0,0,0-4.94,1.34Zm-18.63,49.26c0,.17,0,.35.07.52,0-.17-.05-.35-.07-.52Zm34.76-37.57-.3-.71.3.71Z" transform="translate(-889.48 -814.58)"/><path class="cls-1" d="M1042.46,1251.65c-.59.27-1.19.54-1.79.79s-1.18.48-1.78.72l-.24.09,0,0-.07,0-.07,0-.47.17-.33.12h0l-.49.17-.08,0q-1.57.56-3.18,1l-.32.09-.07,0-.23.07-.06,0-1.09.31-.05,0c-1.06.29-2.13.56-3.2.81l-.07,0-1,.23h-.06l-1,.21h0l-1.21.23-1.83.32h0l-1.15.17c-1,.14-2.1.25-3.15.34h0l-1.36.11h-.32c-1.28.08-2.56.12-3.84.14h-1.53c-1.2,0-2.4-.06-3.6-.13h-.19l-.54,0h-.35l-.45,0h0l-.47,0h0l-.51,0a3.6,3.6,0,0,0-2.65,1.1,3.74,3.74,0,0,0,0,5.3,4,4,0,0,0,2.65,1.1l1.15.1h.18l.19,0,.22,0h.65l.53,0h.13c1,.06,2,.09,3.06.11h2q1.59,0,3.18-.12h.23l.83-.06.23,0h.44c1.16-.1,2.32-.22,3.47-.37h.09l.4-.05.6-.08h0l.13,0,.27,0h0l.94-.13.25,0,.36,0,.09,0,1.46-.25.2,0,.24,0,1.09-.21.09,0,1-.2.13,0,.61-.14h0l.31-.07.13,0q1.53-.36,3.06-.78l.14,0,.21-.07.1,0,.66-.19.05,0,.18,0,.18,0,.12,0h0l.23-.07c1.09-.33,2.16-.68,3.23-1.06l0,0,.18-.06.26-.09h0l.23-.09.16-.06.12,0h0l.09,0h0l.21-.08.15,0h0l.47-.18.22-.09c1.65-.65,3.29-1.35,4.9-2.08a3.63,3.63,0,0,0,1.73-2.25,3.75,3.75,0,0,0-.38-2.89,3.8,3.8,0,0,0-2.24-1.72,3.35,3.35,0,0,0-.92-.13,4.73,4.73,0,0,0-2,.51Z" transform="translate(-889.48 -814.58)"/><path class="cls-1" d="M1096.06,1201.09a4,4,0,0,0-2.24,1.73,35.66,35.66,0,0,0-2.89,4.58l-.06.11a.41.41,0,0,0,0,.09l-.16.32a1.24,1.24,0,0,0-.1.2,55.75,55.75,0,0,0-2.57,6.07.56.56,0,0,1,0,.12,67.79,67.79,0,0,0-3.37,21.34,88.13,88.13,0,0,0,3.1,23.41,79.05,79.05,0,0,0,10,22.77,55.25,55.25,0,0,0,8.58,10.29,36,36,0,0,0,9.77,6.67h.1l.44.19a3.81,3.81,0,0,0,.85.36l.45.18a3.62,3.62,0,0,0,2.89-.38,3.76,3.76,0,0,0,1.35-5.13,3.52,3.52,0,0,0-1.46-1.36,3.63,3.63,0,0,0-1-.44,31.71,31.71,0,0,1-5.84-3.5,47.64,47.64,0,0,1-7.36-7.46,68.13,68.13,0,0,1-8.19-14.22,86,86,0,0,1-5.58-20.66,78.39,78.39,0,0,1-.11-19.3,59.36,59.36,0,0,1,2.57-10.86l0-.07c.27-.76.55-1.51.86-2.26s.72-1.58,1.12-2.35l0-.1h0l0-.07a36.11,36.11,0,0,1,3-4.8,3.61,3.61,0,0,0,.37-2.89,3.74,3.74,0,0,0-3.62-2.75,3.69,3.69,0,0,0-1,.13Z" transform="translate(-889.48 -814.58)"/><path class="cls-1" d="M1140.71,1212.84a3.54,3.54,0,0,0-1.33,2.49,76.9,76.9,0,0,0,1.59,14.42,87.37,87.37,0,0,0,4.44,14.39,80.53,80.53,0,0,0,6.86,13.23,68.34,68.34,0,0,0,7.84,10.17l.13.14.23.24a4,4,0,0,0,2.5,1.33,3.75,3.75,0,0,0,3.27-6.13l-.23-.25h0a67.38,67.38,0,0,1-7.69-9.87,80.9,80.9,0,0,1-8.31-18.17,74.27,74.27,0,0,1-3.15-18.22v-.51c0-.33,0-.67,0-1a3.6,3.6,0,0,0-.82-1.78,3.79,3.79,0,0,0-2.49-1.34l-.37,0a3.77,3.77,0,0,0-2.42.88Zm9.11,21.42.1.34-.1-.34Z" transform="translate(-889.48 -814.58)"/><path class="cls-1" d="M1165.6,1204.61a3.8,3.8,0,0,0-3.08,4.32c.17,1.33.38,2.65.62,4a.5.5,0,0,1,0,.12l0,.13a2.07,2.07,0,0,0,0,.22l0,.12a85.77,85.77,0,0,0,6.65,20.16,75.23,75.23,0,0,0,11.22,17.31l.08.09.48.55.16.17,0,0,0,0,.41.44v0l0,0,.06.07.13.14a3.89,3.89,0,0,0,2.5,1.33,3.68,3.68,0,0,0,2.78-.85,3.77,3.77,0,0,0,.49-5.28l-.23-.24-.07-.08-.39-.42-.23-.25-.06-.07-.27-.31,0-.05a69.17,69.17,0,0,1-6.16-8.18,75.61,75.61,0,0,1-10.3-26.22c-.26-1.41-.49-2.82-.68-4.24a3.75,3.75,0,0,0-4.31-3.08Z" transform="translate(-889.48 -814.58)"/><path class="cls-1" d="M1168.39,1225.51c-.65.47-1.3.94-2,1.39l0,0h0l-.14.09,0,0c-.35.24-.7.47-1.06.69l-.09.06-.15.09h0l-.13.08-.13.08,0,0h0l-.08.05-.2.12h0l0,0c-1.09.65-2.21,1.27-3.33,1.86l-.05,0h0c-1.06.55-2.13,1.07-3.22,1.56l0,0q-3,1.34-6.1,2.38a4.22,4.22,0,0,0-.76.25l-.1,0-.05,0-.11,0c-1.94.57-3.89,1.07-5.88,1.47l-.11,0c-1.82.36-3.64.63-5.48.83l-.22,0-.32,0h-.06l-.27,0-.4,0h0l-.29,0a3.61,3.61,0,0,0-2.43,1.52,3.75,3.75,0,0,0,.87,5.23,4,4,0,0,0,2.8.65l.33,0h0l.18,0h.42l.33,0,.12,0h.07l.19,0,.2,0c1.76-.2,3.51-.46,5.26-.81h.14c2.36-.49,4.69-1.11,7-1.82a3.93,3.93,0,0,0,.9-.29l.09,0,.08,0a71.31,71.31,0,0,0,6.83-2.63l.16-.08c1-.48,2.09-1,3.12-1.52l.12-.06.12-.06q1.42-.75,2.79-1.56l.07,0,.29-.17h0l.07,0,.13-.08.08,0h0l.29-.17h0c.91-.57,1.82-1.14,2.71-1.74l.17-.11h0l.09-.06.14-.1h0l.09-.06.07,0h0l.1-.06.08-.06c.55-.39,1.09-.77,1.63-1.17a3.75,3.75,0,0,0-2-6.61l-.38,0a4,4,0,0,0-2.4.87Z" transform="translate(-889.48 -814.58)"/><path class="cls-1" d="M1215.15,1172.81q-1.8,1.64-3.7,3.13c-.76.59-1.54,1.15-2.32,1.71l0,0-.27.18-.08.06-1.44,1c-1.18.73-2.39,1.42-3.61,2.09s-2.29,1.17-3.46,1.71l-.52.24,0,0c-.82.36-1.64.71-2.48,1l0,0-.34.13h0l-.52.21,0,0-.57.21-.44.16-.6.22-.1,0a3.62,3.62,0,0,0-1.93,2.06,3.84,3.84,0,0,0,.11,2.92,3.75,3.75,0,0,0,2.07,1.92,4,4,0,0,0,2.91-.1l.16-.06.15,0h0l.46-.17.07,0h0l.12,0,.08,0,.74-.28.07,0h0l.15-.06.18-.07h0l.19-.07.14-.06.13,0c.8-.33,1.6-.66,2.39-1l0,0,.25-.11h.05l0,0,.08,0,.19-.08.14-.07c1.06-.5,2.1-1,3.13-1.56l0,0,0,0,.07,0,.1,0a73.92,73.92,0,0,0,6.52-4l0,0,.46-.32.09-.07c.63-.44,1.24-.9,1.85-1.36l.16-.11c1.31-1,2.58-2.1,3.81-3.23a3.8,3.8,0,0,0,.48-5.28,3.9,3.9,0,0,0-3-1.34,3.41,3.41,0,0,0-2.32.86Zm-8.23,6.31-.26.17.26-.17Z" transform="translate(-889.48 -814.58)"/><path class="cls-1" d="M1229.81,1208.05c-.8.7-1.61,1.37-2.44,2l-.11.08-.07.06-.06,0-.14.11,0,0h0l-.26.2,0,0c-.62.47-1.25.93-1.88,1.37l0,0-.83.56-.05,0-1,.63-.83.5,0,0-.25.15-.06,0c-.7.41-1.4.81-2.11,1.19l-.06,0-.07,0-.5.27c-.86.45-1.74.88-2.61,1.3h0l-.1,0-.15.07-.09,0-.2.1-.12,0h0l-.31.14a3.75,3.75,0,1,0,3.15,6.81l.33-.15h0l.06,0,.17-.08.1,0,.54-.25.1,0c.76-.36,1.52-.74,2.27-1.13l0,0,0,0,.24-.13,0,0,.44-.23.15-.09c.63-.35,1.24-.69,1.85-1l0,0,.14-.08.08-.05.31-.19.24-.15c1-.58,1.9-1.18,2.84-1.81a1.88,1.88,0,0,0,.18-.12h0l.68-.47.15-.1.16-.11,0,0h0c.56-.4,1.12-.8,1.67-1.22l.08-.06.1-.07.08-.07h0l.22-.17.08-.06,0,0h0l.16-.12.09-.07c.79-.63,1.56-1.28,2.32-1.94a3.74,3.74,0,0,0-2.44-6.62,3.55,3.55,0,0,0-2.36.86Z" transform="translate(-889.48 -814.58)"/><path class="cls-1" d="M1206.56,1183.63a3.8,3.8,0,0,0-1.93,2.07,4,4,0,0,0,.11,2.92l.57,1.68c0,.07,0,.14.07.21.09.26.18.51.28.77v0c0,.15.1.3.16.45v0l.14.39,0,.07q.81,2.17,1.69,4.32l.06.13c.17.43.35.85.53,1.27l0,.12q.95,2.18,2,4.31l0,.1.26.53a1,1,0,0,1,0,.1l.07.13,0,.1a.3.3,0,0,0,0,.08l.3.61.11.23.07.13q1.1,2.19,2.26,4.33h0l.08.15.07.11c.41.74.82,1.48,1.25,2.22h0l.06.12.07.11.11.19.08.14,0,.06.14.25.08.13,0,.08.06.1.47.8.07.1a.75.75,0,0,0,.07.12l.15.26h0l.07.11.19.31.12.2.33.53.05.08.38.61a4.48,4.48,0,0,0,.44.72c.09.16.18.32.29.48a4.6,4.6,0,0,0,.37.53l.19.28,0,0c.12.19.24.39.37.58a3.58,3.58,0,0,0,2.49,1.33,3.8,3.8,0,0,0,2.79-.85,3.76,3.76,0,0,0,1.33-2.5l0-1a3.77,3.77,0,0,0-.76-1.72,4.29,4.29,0,0,0-.39-.59,3.16,3.16,0,0,0-.44-.66h0l-1-1.59-.39-.64,0-.08-.41-.69h0l-.19-.33v0c-.15-.24-.29-.48-.43-.73l-.06-.1c-.43-.76-.86-1.52-1.28-2.28-.86-1.56-1.68-3.14-2.48-4.74,0-.09-.09-.18-.14-.27l-.24-.5-.09-.18-.11-.24,0,0c-.74-1.53-1.44-3.08-2.12-4.64-.29-.68-.58-1.36-.86-2h0q-.9-2.19-1.71-4.41v0l-.11-.32c-.06-.15-.11-.3-.16-.44v0l-.81-2.35a3.56,3.56,0,0,0-2.07-1.92,3.82,3.82,0,0,0-2.91.1Z" transform="translate(-889.48 -814.58)"/><path class="cls-1" d="M1233.48,1141.43a3.82,3.82,0,0,0-2,2.07,4.05,4.05,0,0,0,0,2.83c.39,1.23.8,2.46,1.22,3.68l0,.08a1.34,1.34,0,0,0,.07.18v0q1.18,3.33,2.53,6.58l0,0,0,.1a1.22,1.22,0,0,0,.07.17l0,.07c.47,1.11,1,2.22,1.45,3.32l0,0,0,0h0c.22.49.45,1,.67,1.46a.63.63,0,0,1,0,.09c.06.11.11.22.16.33l0,.07c.53,1.11,1.06,2.21,1.62,3.3v0c0,.07.07.13.1.2l0,.06c.88,1.71,1.78,3.41,2.72,5.09l0,0,.05.11.06.09a155.94,155.94,0,0,0,10.23,15.91.86.86,0,0,0,.07.1l.11.15q1.83,2.46,3.76,4.85l.12.14c1.07,1.32,2.18,2.62,3.3,3.9l0,0,.21.23.13.16,0,0,.51.57.1.11.07.08.23.25.16.18.09.09q1.47,1.61,3,3.17l0,0,.09.09.15.15,0,0,.1.09h0l.24.23,1.73,1.71a3.66,3.66,0,0,0,.69.67l.77.74a3.59,3.59,0,0,0,2.74.71,3.71,3.71,0,0,0,2.51-1.47,3.8,3.8,0,0,0,.75-2.28,3.4,3.4,0,0,0,0-.45,4.09,4.09,0,0,0-1.47-2.52l-1.69-1.63-.07-.07-.21-.2-.17-.18h0c-1.18-1.2-2.33-2.41-3.46-3.65a1.54,1.54,0,0,1-.17-.19l-.18-.19h0l-.19-.21-.38-.43-.16-.18,0,0q-1.86-2.11-3.65-4.3l0,0c-1.33-1.63-2.62-3.3-3.87-5l0,0a149.68,149.68,0,0,1-8.62-13.12c-.26-.45-.53-.91-.79-1.38h0q-1.42-2.57-2.75-5.17c-.62-1.22-1.22-2.44-1.8-3.68-.27-.58-.54-1.15-.8-1.73h0c-.53-1.18-1.05-2.37-1.55-3.56a1.42,1.42,0,0,0-.08-.18q-1.37-3.3-2.57-6.69c-.45-1.3-.89-2.6-1.3-3.92a3.63,3.63,0,0,0-2.07-2,3.78,3.78,0,0,0-2.83,0Zm16.68,28.59.21.37-.21-.37Z" transform="translate(-889.48 -814.58)"/><path class="cls-1" d="M1248.79,1128.16a4,4,0,0,0-1.42,2.5l-.15.64c0,.06,0,.11,0,.16s0,0,0,.08q-.68,3-1.23,6c0,.06,0,.13,0,.19-.06.37-.13.74-.19,1.11h0s0,.06,0,.09l0,.15-.06.3s0,.08,0,.12v0h0c0,.2-.07.4-.1.6h0v0l-.06.32s0,.07,0,.1v0a.69.69,0,0,1,0,.13c0,.12,0,.24-.05.36l0,.17v0c0,.17-.06.34-.08.52s0,.06,0,.1c-.09.6-.17,1.2-.26,1.8,0,0,0,.06,0,.1l0,.26,0,.2a.38.38,0,0,1,0,.1l-.15,1.17a.76.76,0,0,0,0,.15c-.17,1.37-.32,2.74-.46,4.1,0,0,0,.08,0,.12l-.09,1s0,.1,0,.14c-.12,1.42-.22,2.83-.3,4.24v.2l0,.44c0,.07,0,.14,0,.2l0,.65v.25a.28.28,0,0,1,0,.09c0,.13,0,.27,0,.4v.19c0,1.37-.08,2.74-.1,4.11v2.47h0c0,1.47,0,3,.08,4.42v.15l0,.79s0,.11,0,.16v.19c0,1.13.12,2.25.2,3.37,0,.06,0,.11,0,.16l.09,1.08v0s0,.1,0,.16v.21c0,.06,0,.11,0,.17h0v.18s0,.11,0,.16h0c.12,1.27.26,2.55.41,3.82,0,0,0,.07,0,.1l0,.27,0,.11v0h0v.12h0a3.75,3.75,0,0,0,7.44-1,.59.59,0,0,1,0-.13v-.06s0-.07,0-.1v0c0-.14,0-.27,0-.4s0-.23,0-.34a.38.38,0,0,0,0-.1c-.14-1.16-.26-2.33-.37-3.5a.88.88,0,0,0,0-.17h0a2.83,2.83,0,0,0,0-.29v-.07c0-.06,0-.12,0-.19h0c0-.25,0-.51-.07-.76v-.05c-.1-1.29-.18-2.59-.24-3.88v-.27c0-.38,0-.77-.05-1.15v0c0-1.3-.07-2.6-.07-3.9v-.43c0-1.56,0-3.12.11-4.69v-.13a2,2,0,0,0,0-.25,1.48,1.48,0,0,0,0-.21.43.43,0,0,0,0-.05v-.2a1,1,0,0,0,0-.17v-.2s0-.07,0-.1l0-.64s0-.07,0-.1c.09-1.66.21-3.31.36-5v0c0-.08,0-.16,0-.25v0c.15-1.56.32-3.12.51-4.67h0c.06-.49.13-1,.19-1.47.13-.91.26-1.82.4-2.73v-.07l.12-.75v0a.5.5,0,0,0,0-.12c0-.16,0-.32.08-.48v0l.15-.9s0-.06,0-.09a2.33,2.33,0,0,1,0-.28l0-.24v0a.43.43,0,0,1,0-.11c.39-2.2.83-4.38,1.31-6.57a.85.85,0,0,0,0-.17c.06-.27.13-.53.19-.8a3.61,3.61,0,0,0-.76-2.77,3.78,3.78,0,0,0-2.49-1.42,3.71,3.71,0,0,0-.47,0,3.76,3.76,0,0,0-2.3.78Z" transform="translate(-889.48 -814.58)"/><path class="cls-1" d="M1245.46,1177.77l0,.09a3.8,3.8,0,0,0,2.11,4.79l.8.33.14.06.29.11h0l.13.06h.14l.09,0,.07,0h0l0,0h0l.05,0h0l.1,0h0l.06,0h0l.08,0,.06,0,.12,0h0l0,0,.06,0,.09,0,.3.12.12,0h0l.19.07.1,0,.39.15.17.06.09,0,.15,0,.08,0h.08l.06,0,.12,0,.08,0,.1,0,.06,0,.07,0,.22.08.2.06h0c.78.26,1.56.52,2.35.76h0l.1,0,.15,0,.14,0,.06,0,.08,0,.11,0h0l.22.07.09,0,.09,0,.3.09.15,0c.68.19,1.35.38,2,.55a3.28,3.28,0,0,0,.61.18,3.87,3.87,0,0,0,.59.13l.28.07.12,0,.19,0,.13,0h.07l.29.07.08,0h0c.66.16,1.32.31,2,.45l.16,0,.19,0,.26,0,.07,0,.14,0h0l.08,0,.22,0h.16c.86.17,1.73.33,2.6.47h0l.17,0,.74.12h.06l.56.09h0l.28,0,.1,0,2.23.3h.11l.23,0h0l.12,0h.06l.29,0h0l.26,0c.79.09,1.58.16,2.38.23h.16l.29,0h0l.29,0h.39l.33,0h.21c.84.06,1.67.1,2.5.13h1.34l2.13,0a3.94,3.94,0,0,0,1,0h1.11a3.59,3.59,0,0,0,2.51-1.47,3.74,3.74,0,0,0-.75-5.25,4.08,4.08,0,0,0-2.73-.72,3.54,3.54,0,0,0-.86,0l-1.83,0h-.84l-.38,0h-.09c-.78,0-1.55-.08-2.33-.13H1277l-.38,0-.49,0h-.24c-1-.08-1.92-.17-2.87-.28h0l-.38,0-.39-.05c-.7-.08-1.4-.18-2.1-.28l-.2,0-.34,0h0l-.82-.13h-.07l-.7-.12h-.09l-2.31-.42-.06,0-.39-.07-.12,0-.38-.07-.42-.09h-.06l-.1,0-.12,0-2-.46a3.44,3.44,0,0,0-.55-.15,2.62,2.62,0,0,0-.57-.12h0l-.08,0-.34-.09-.08,0-.36-.1h0l-1.62-.46h0l-.29-.09h0l-.44-.14-.79-.25c-.68-.22-1.35-.44-2-.68l-.54-.19-.1,0-.1,0-1.58-.6-.17-.06h0l-.67-.27-.09,0-.11,0h0l-.93-.38a3.45,3.45,0,0,0-1.36-.28,3.83,3.83,0,0,0-3.52,2.36Z" transform="translate(-889.48 -814.58)"/><path class="cls-1" d="M1275.1,1076.54c-2.76,1.11-4.64,3.77-5.61,6.5a22.55,22.55,0,0,0-1,4.51,2.56,2.56,0,0,0,0,.27,45,45,0,0,0,0,9.78,76.59,76.59,0,0,0,2.39,12.19,96.22,96.22,0,0,0,9.75,23.24,54.94,54.94,0,0,0,7.28,10c2.76,3,6.17,5.88,10.25,6.67a9.46,9.46,0,0,0,3.71,0,10.16,10.16,0,0,0,3.29-1.44,8.57,8.57,0,0,0,1.47-1.35,10.47,10.47,0,0,0,.73-.89,13.31,13.31,0,0,0,1.32-2.36,18.4,18.4,0,0,0,1.29-4.54,25.91,25.91,0,0,0,.38-3.73c.31-7-1.08-13.94-3-20.65a92.15,92.15,0,0,0-7.18-18,73.48,73.48,0,0,0-6.71-10.69,41.1,41.1,0,0,0-3.54-4,27.38,27.38,0,0,0-4.61-3.85,12.94,12.94,0,0,0-6.85-2.23,8.72,8.72,0,0,0-3.33.64Zm3.45,6.83c.22,0,.43.05.64.09a11.1,11.1,0,0,1,1.47.61,23,23,0,0,1,3.62,2.83,54.15,54.15,0,0,1,7.61,10.26,93,93,0,0,1,8.72,21.24,63.73,63.73,0,0,1,2.26,15.16,26.22,26.22,0,0,1-.6,5.59,12.72,12.72,0,0,1-.79,2.08,7.54,7.54,0,0,1-.53.73l-.38.29a1,1,0,0,1-.23.1l-.24,0c-.26,0-.51-.05-.77-.09a13,13,0,0,1-1.55-.64,21.89,21.89,0,0,1-3.6-2.83,53.48,53.48,0,0,1-7.61-10.27,93.72,93.72,0,0,1-8.71-21.25,64.55,64.55,0,0,1-2.25-15c0-.77.05-1.54.1-2.31a26.22,26.22,0,0,1,.51-3.41,13.84,13.84,0,0,1,.78-2.06c.17-.26.35-.5.54-.74a4.19,4.19,0,0,1,.33-.26l.27-.12.41,0Zm21.93,34.52c0,.09,0,.19.08.29,0-.1,0-.2-.08-.29Zm.18.67c0,.09,0,.18.07.27,0-.09,0-.18-.07-.27Z" transform="translate(-889.48 -814.58)"/><path class="cls-1" d="M1325.52,1088a3.73,3.73,0,0,0-3.23,3.25,3.77,3.77,0,0,0,.75,2.77,3.57,3.57,0,0,0,2.49,1.42h1a3.65,3.65,0,0,0,1.81-.76,3.76,3.76,0,0,0,.67-5.26,3.57,3.57,0,0,0-2.49-1.42Z" transform="translate(-889.48 -814.58)"/><path class="cls-1" d="M1050.89,1062.82a3.77,3.77,0,0,0-3,4.38c.2.9.42,1.8.63,2.69s.59,2,.92,3a13,13,0,0,0,1,2.18,9.35,9.35,0,0,0,2.11,2.49c.77.67,1.65,1.18,2.46,1.79l.28.32.19.4a26.29,26.29,0,0,1,.63,4.85,49,49,0,0,1-.38,5.8c-.25,1.92-.57,3.84-.89,5.75-.66,3.94-1.21,7.89-1.75,11.85s-1,8.16-1.34,12.26c-.18,2.06-.2,4.15-.2,6.21s0,3.9.09,5.85c0,2.21,0,4.41-.05,6.63a55.7,55.7,0,0,1-.63,6.19,3.75,3.75,0,0,0,6.2,3.14,4,4,0,0,0,1.28-2.52,73.07,73.07,0,0,0,.68-12.19c0-1.92-.11-3.84-.1-5.75,0-2.27.09-4.52.2-6.78.08-1.72.29-3.45.47-5.17.24-2.19.48-4.37.78-6.55.54-4,1.07-7.92,1.73-11.86a73.13,73.13,0,0,0,1.38-11.42,42.46,42.46,0,0,0-.45-6.27,10.54,10.54,0,0,0-2.42-5.63,21.48,21.48,0,0,0-3.42-2.68,3.82,3.82,0,0,1-.27-.32,15.09,15.09,0,0,1-.83-1.94c-.33-1.24-.63-2.48-.91-3.73a3.85,3.85,0,0,0-3.69-3.06,4,4,0,0,0-.69.07Z" transform="translate(-889.48 -814.58)"/></svg>