<svg xmlns="http://www.w3.org/2000/svg" viewBox="0 0 422.02 496.23"><defs><style>.cls-1{fill:#666B68;}</style></defs><title>sachiko-draw-icon</title><g id="描画レイヤー"><path class="cls-1" d="M1353,796.9c-2.18.1-4.36.32-6.54.48s-4.65.34-7,.59c-2.66.29-5.31.68-8,1.1a130.13,130.13,0,0,0-13.68,3c-2.16.58-4.31,1.24-6.47,1.84l-6.43,1.77c-4.41,1.22-8.76,2.58-13.08,4.06a80.33,80.33,0,0,0-13.25,6.13c-4.38,2.47-8.91,4.71-13.36,7.07-3.71,2-7.43,3.83-11,6-3.93,2.43-7.73,5.08-11.47,7.8a110.72,110.72,0,0,0-11.15,9.11,82.13,82.13,0,0,0-8.07,9.2l.15-.2-.21.27-.53.69.14-.18c-.49.64-1,1.28-1.48,1.93l.38-.49c-2.71,3.51-5.38,7-7.81,10.75a64.84,64.84,0,0,0-3.55,5.95c-1,2-2,4-3.13,6s-2.21,4-3.26,6c-.52,1-.94,2.05-1.39,3.07-.63,1.45-1.25,2.89-1.83,4.35-.91,2.25-1.82,4.5-2.7,6.76a59.38,59.38,0,0,0-1.9,6.26c-.39,1.46-.69,2.94-1,4.41s-.69,3-1,4.49c-.62,3.34-.81,6.73-1.25,10.1-.27,2-.53,4-.72,6s-.27,4.1-.35,6.15a88.54,88.54,0,0,0,3.46,24.7,28.46,28.46,0,0,0,2.86,6.25,50.52,50.52,0,0,0,4.32,5.7l1.74,2.26c.84,1.1,1.67,2.21,2.55,3.28s1.82,2,2.72,3,1.92,2.09,3,3.05,2.29,1.9,3.46,2.82,2.29,1.89,3.46,2.8c1.35,1.06,2.73,2.06,4.13,3a29.13,29.13,0,0,0,3.38,2c1.22.63,2.49,1.24,3.76,1.8l1.13.48a4.72,4.72,0,0,0,2.53,0,4.85,4.85,0,0,0,2.84-2.18,4.78,4.78,0,0,0,.47-3.66,4.53,4.53,0,0,0-2.18-2.84c-1.78-.79-3.54-1.68-5.26-2.6a35.24,35.24,0,0,1-4.41-3c-1-.84-2.08-1.7-3.13-2.54-1.28-1-2.61-2-3.79-3.13s-2.13-2.16-3.15-3.28-2-2.12-2.88-3.25l-1.69-2.2c-1.11-1.45-2.27-2.86-3.4-4.29a29.25,29.25,0,0,1-2.78-4.61,59.29,59.29,0,0,1-2.9-12.12,72.68,72.68,0,0,1-.73-10.82,101.25,101.25,0,0,1,.89-11.28c0,.17,0,.34-.07.51.33-2.54.59-5.08.88-7.62a111.67,111.67,0,0,1,2.61-12,58,58,0,0,1,2-6.15c.86-2.21,1.77-4.41,2.66-6.61.48-1.14,1-2.28,1.5-3.39.73-1.57,1.55-3.09,2.38-4.61,1.5-2.75,3-5.48,4.41-8.28a66.71,66.71,0,0,1,4.86-7.9c1.75-2.53,3.58-5,5.44-7.43l-.74,1c.69-.89,1.38-1.79,2.06-2.69l1.32-1.7c1-1.19,2-2.32,3-3.46,1.14-1.3,2.32-2.58,3.57-3.77,2.42-2.3,5-4.41,7.62-6.46,3.59-2.67,7.28-5.15,11-7.63,1.73-1.16,3.51-2.23,5.31-3.26s3.75-2,5.63-3c4.14-2.18,8.27-4.38,12.42-6.54,1.91-1,3.77-2.09,5.67-3.11,1.71-.92,3.47-1.76,5.25-2.54s3.6-1.38,5.45-2,3.88-1.29,5.84-1.88c3.81-1.15,7.66-2.17,11.5-3.23,2-.54,3.92-1.14,5.89-1.68,2.14-.59,4.31-1.09,6.47-1.59,3.64-.84,7.32-1.47,11-2,4-.46,8.09-.74,12.15-1.06a75.18,75.18,0,0,1,12.19-.15,34,34,0,0,1,4.43,1q3.32,1,6.62,2.08a4.75,4.75,0,0,0,2.53-9.16c-4.86-1.59-9.75-3.28-14.9-3.51-1.22,0-2.44-.08-3.65-.08s-2.52,0-3.78.09Zm-149,178.78.19.24-.19-.24Z" transform="translate(-1192.13 -796.81)"/><path class="cls-1" d="M1252.35,932.32c-1.76,2.19-3.62,4.37-5.16,6.72a29.69,29.69,0,0,0-3.56,7.45,58,58,0,0,0-1.85,7.34,68.37,68.37,0,0,0-.92,7.95c-.3,4.63-.42,9.29-.44,13.94a55.06,55.06,0,0,0,.53,8.11,33.89,33.89,0,0,0,1.73,6.76,79.59,79.59,0,0,0,3.08,7.4c1,2,2.12,4,3.27,5.92a56.64,56.64,0,0,0,4.12,5.86c.65.83,1.31,1.64,2,2.43.39.44.74.91,1.12,1.34a15,15,0,0,0,2.29,2,4.56,4.56,0,0,0,3.66.48,4.82,4.82,0,0,0,2.84-2.19,4.77,4.77,0,0,0,.47-3.66c-.16-.37-.32-.75-.47-1.13a4.74,4.74,0,0,0-1.33-1.45c-.74-.74-1.38-1.54-2.06-2.33-.48-.54-.93-1.1-1.37-1.66a53.21,53.21,0,0,1-3.83-5.83c-.63-1.14-1.33-2.23-1.92-3.39s-1-2.12-1.51-3.19c-.63-1.55-1.2-3.12-1.75-4.7a27.06,27.06,0,0,1-1.06-4.44A97.22,97.22,0,0,1,1250,970c.1-4.15.26-8.29.73-12.42a53.18,53.18,0,0,1,2.53-9.93,24.9,24.9,0,0,1,1.68-3.14c.69-1,1.44-2.05,2.2-3.05.63-.8,1.26-1.6,1.9-2.39l.75-1a4.76,4.76,0,0,0-4.1-7.15,4.58,4.58,0,0,0-3.36,1.39Z" transform="translate(-1192.13 -796.81)"/><path class="cls-1" d="M1286.43,970.35a5,5,0,0,0-1.39,3.36c-.17,3.22-.3,6.44-.65,9.65a51.29,51.29,0,0,1-1.89,7.61c-.92,2.78-2,5.53-3.09,8.24l-.58,1.38a72.42,72.42,0,0,1-5.74,11.23c-2.1,3.13-4.28,6.22-6.57,9.23-2.85,3.55-6,6.83-9,10.23a60.06,60.06,0,0,1-5,5.12c-1.73,1.53-3.47,3-5.25,4.49a49.71,49.71,0,0,0-5.24,4.81c-1.72,1.88-3.33,3.92-4.86,6a26.71,26.71,0,0,0-2.83,4.92c-1.08,2.35-2.15,4.7-3.15,7.09-1.8,4.31-2.26,9.19-2.47,13.81a74.46,74.46,0,0,0,1.16,13.57c.3,2.4.65,4.79,1,7.18.35,2.23.65,4.46,1.12,6.67s1,4.63,1.59,6.93a38.83,38.83,0,0,0,2.83,7.21,60.23,60.23,0,0,0,2.85,5.39,42.9,42.9,0,0,0,4.28,5.5,31,31,0,0,0,5.3,4.8,58.81,58.81,0,0,0,5.21,3.17c.94.52,1.89,1,2.85,1.51s2.22,1,3.34,1.43c1.7.78,3.39,1.61,5,2.53.92.5,1.83,1,2.78,1.41a18.78,18.78,0,0,0,3.13,1.18,4.75,4.75,0,0,0,2.53-9.16,10.93,10.93,0,0,1-1.3-.41c-1.6-.75-3.12-1.67-4.71-2.46-2.12-1.06-4.28-2-6.47-2.89l1.13.48c-1.64-.77-3.22-1.67-4.81-2.54a39,39,0,0,1-4-2.51,38,38,0,0,1-5.13-5.4A29.92,29.92,0,0,1,1246,1117c-.73-1.47-1.52-2.91-2.2-4.41a64.82,64.82,0,0,1-2.67-10.2c-.38-1.8-.69-3.62-.94-5.44-.22-1.57-.48-3.13-.71-4.7-.25-2.11-.56-4.22-.86-6.33s-.42-4.13-.46-6.19a51.39,51.39,0,0,1,.34-6.56,34.67,34.67,0,0,1,2-7.28c.8-1.79,1.61-3.58,2.45-5.37a25.46,25.46,0,0,1,2.65-4.34c1.23-1.56,2.5-3.11,3.88-4.54a56.59,56.59,0,0,1,5.27-4.64c1.87-1.51,3.71-3.12,5.46-4.77s3.2-3.34,4.74-5c3.32-3.69,6.68-7.3,9.71-11.24,1.27-1.65,2.48-3.35,3.67-5.06s2.59-3.56,3.72-5.45a87.68,87.68,0,0,0,5.7-11.74l-.24.58a108.27,108.27,0,0,0,5.27-14.54c1.38-5.21,1.47-10.66,1.76-16a4.75,4.75,0,0,0-8.11-3.36Zm-38.6,149.93.2.26-.2-.26Z" transform="translate(-1192.13 -796.81)"/><path class="cls-1" d="M1220.53,1001.93a4.55,4.55,0,0,0-2.18,2.84c-.43,2.77-.85,5.54-1.16,8.33-.19,1.78-.24,3.58-.42,5.36-.12.74-.25,1.48-.38,2.21a15.15,15.15,0,0,1-.42,2.11l-.3.9c-.59,1.13-1.38,2.13-2,3.24s-1.32,2.1-2,3.11l-.33.34c-.41.26-.82.51-1.24.73s-.77.22-1.15.32a9,9,0,0,0-1.9.86l-.48-.11-.65-.13a9.14,9.14,0,0,0-3.61,0,15,15,0,0,0-3.25,1.18,7.56,7.56,0,0,0-3.56,3.44,21.28,21.28,0,0,0-2.36,9.15,15.35,15.35,0,0,0,.36,5.15,11.48,11.48,0,0,0,1.31,2.71c.4.62.77,1.27,1.2,1.87.53.76,1.1,1.51,1.7,2.22a11.73,11.73,0,0,0,2.42,2.08,8.22,8.22,0,0,0,2.57,1,18.58,18.58,0,0,0,1.84.31l0,0a1.62,1.62,0,0,1,.1.18c.2.53.4,1,.64,1.57.09.21.21.41.32.62q.23.6.48,1.2a22.81,22.81,0,0,1,.83,3.15c.26,1.1.57,2.18.79,3.29.14,1.71.14,3.42.31,5.12.13,1.27.32,2.53.55,3.78a15.59,15.59,0,0,0,1.39,4.47,28.72,28.72,0,0,0,2.49,3.72,16,16,0,0,1,1.16,1.78,19,19,0,0,0,1.36,2l0-.07c.42.57.85,1.15,1.32,1.69a11.74,11.74,0,0,0,2,1.73,4.65,4.65,0,0,0,3.66.47,4.75,4.75,0,0,0,3.32-5.84,4.85,4.85,0,0,0-1.85-2.6c-.21-.2-.4-.41-.59-.63l-.12-.16c-.78-1.07-1.35-2.28-2.15-3.33a30,30,0,0,1-2.21-3.25,21.83,21.83,0,0,1-.81-3.58c-.1-1.16-.12-2.32-.19-3.47a37.68,37.68,0,0,0-.58-5c-.24-1.27-.67-2.5-.91-3.77a15.64,15.64,0,0,0-1.12-3.32c-.23-.6-.44-1.19-.7-1.79-.11-.26-.24-.51-.37-.75a12.31,12.31,0,0,0-1-2.17,12,12,0,0,0-1.69-2.06,5.42,5.42,0,0,0-.49-.46,8.46,8.46,0,0,0-2.73-1.57,7.83,7.83,0,0,0-2.2-.45c-.22,0-.44-.09-.65-.15-.22-.22-.42-.46-.62-.7a22.08,22.08,0,0,1-1.78-2.8c0-1.12,0-2.25.13-3.36a17,17,0,0,1,.72-2.83c.07-.15.14-.29.22-.43l.54-.17.53.12.66.14,1.56.22a10.59,10.59,0,0,0,1.85-.21,9.39,9.39,0,0,0,3.08-1.17c.29-.08.59-.15.88-.24a15.47,15.47,0,0,0,2.33-1,13.3,13.3,0,0,0,3.35-2.51,28.24,28.24,0,0,0,2.69-3.68c.39-.57.68-1.19,1-1.77s.83-1.22,1.23-1.84c1.68-2.56,2.15-5.64,2.61-8.6.25-1.6.35-3.17.46-4.77s.26-2.92.44-4.38.43-2.92.65-4.37c.06-.43.11-.85.17-1.27a4.64,4.64,0,0,0-.65-2.39,4.76,4.76,0,0,0-2.84-2.19,4.83,4.83,0,0,0-1.25-.17,4.76,4.76,0,0,0-2.41.65Zm-17.1,39.68-.17.21.16-.21h0Zm.83,19.39.06,0h0l-.06,0Z" transform="translate(-1192.13 -796.81)"/><path class="cls-1" d="M1392.65,818.37a4.83,4.83,0,0,0-1.7,6.5c.83,1.59,1.65,3.19,2.41,4.81a29.49,29.49,0,0,1,1.28,4.73c.22,2.17.28,4.33.43,6.51.18,2.47.49,4.91.65,7.38.33,5,.43,10.06.49,15.09,0,4.8,0,9.6.06,14.39,0,2.27,0,4.53-.13,6.8s-.27,4.58-.39,6.87c-.2,3.81-.5,7.6-.85,11.39-.18,2-.49,4.08-.73,6.12s-.39,3.8-.62,5.69l-.27,2c-.56,4-1.34,7.94-2,11.93-.33,2.18-.73,4.34-1.1,6.52s-.7,4.59-1.16,6.87a117.9,117.9,0,0,1-3.08,12.59c-1.1,3.49-2.25,7-3.6,10.37a24.53,24.53,0,0,1-1.27,2.29,4.75,4.75,0,1,0,8.2,4.79,37.47,37.47,0,0,0,3-6.4c.83-2.13,1.5-4.31,2.22-6.48a115.53,115.53,0,0,0,3.4-13c.53-2.52,1-5.05,1.35-7.59.35-2.23.79-4.45,1.13-6.69.75-4.92,1.68-9.79,2.34-14.72l0-.13c.35-2.64.63-5.29.92-7.94s.65-5.11.88-7.67c.21-2.32.46-4.64.57-7s.24-4.9.39-7.34c.13-2.28.27-4.56.29-6.85s0-4.71,0-7.06c0-4.82,0-9.63-.12-14.44q-.09-4.63-.34-9.25c-.17-3.16-.63-6.29-.77-9.45-.07-1.64-.14-3.27-.3-4.91a33.66,33.66,0,0,0-.83-5.29,48.6,48.6,0,0,0-4.25-9.83,4.55,4.55,0,0,0-4.1-2.33,4.71,4.71,0,0,0-2.4.63Zm1.07,95c0,.13,0,.26,0,.39,0-.13,0-.26,0-.39Zm-.35,2.67c0,.1,0,.21,0,.32,0-.11,0-.22,0-.32Zm9.36,1a1.37,1.37,0,0,0,0,.19,1.23,1.23,0,0,1,0-.19Zm0,0c0-.36.1-.71.14-1.07,0,.36-.09.71-.14,1.07Z" transform="translate(-1192.13 -796.81)"/><path class="cls-1" d="M1413,823.62a4.75,4.75,0,1,0,4.75-4.75,4.79,4.79,0,0,0-4.75,4.75Z" transform="translate(-1192.13 -796.81)"/><path class="cls-1" d="M1414.5,819.11a4.76,4.76,0,0,0,0,6.72,5.06,5.06,0,0,0,3.36,1.39c1.77.15,3.53.29,5.3.48a47.32,47.32,0,0,1,8,1.77c1.43.47,2.82,1,4.22,1.56s2.63,1,3.93,1.52,2.75,1.31,4.08,2.05c.68.38,1.34.82,2,1.22s1.59.87,2.39,1.3a70,70,0,0,1,8,4.57c1.22,1.07,2.27,2.3,3.38,3.48s2.1,2.34,3.09,3.55l.26.34c.91,1.24,1.66,2.58,2.5,3.88a42.21,42.21,0,0,0,3.24,4.4c1,1.15,2.11,2.14,3.18,3.2a44.7,44.7,0,0,1,3.78,4.24,4.53,4.53,0,0,0,3.36,1.39,4.75,4.75,0,0,0,4.75-4.75l-.18-1.27a4.74,4.74,0,0,0-1.21-2.09,43.92,43.92,0,0,0-4.35-4.79c-.6-.58-1.21-1.15-1.79-1.75a18,18,0,0,1-1.4-1.63c-.72-1-1.36-2-2-3a32.59,32.59,0,0,0-2.26-3.3c-1.48-1.92-3-3.77-4.69-5.53-.85-.9-1.64-1.85-2.56-2.69a25.2,25.2,0,0,0-3.13-2.4c-1.88-1.23-3.88-2.26-5.86-3.32-1-.52-2-1-3-1.58s-1.93-1.17-2.91-1.72a58,58,0,0,0-7.21-3.32c-2.2-.87-4.41-1.73-6.64-2.52a57.63,57.63,0,0,0-14.16-2.55l-2.18-.19h-.25a4.72,4.72,0,0,0-3.11,1.4Zm47.1,28.71c.07.09.13.18.2.26l-.2-.26Zm8.59-4.28,0,0,0-.05v0Zm0,0-.7-.91c.23.3.46.61.7.91Z" transform="translate(-1192.13 -796.81)"/><path class="cls-1" d="M1481.58,884.71c.16,2.29.29,4.56.24,6.84a49.72,49.72,0,0,1-.43,5.59c-.33,2.26-.78,4.51-1.1,6.78-.36,2.6-.84,5.17-1.4,7.73-1,4.57-2.07,9.13-3.22,13.66-.53,2.07-1.15,4.1-1.78,6.14s-1.33,4.34-2,6.51-1.34,4.19-2.07,6.26-1.5,4.08-2.08,6.19c-.94,3.42-1.9,6.82-3,10.19-.55,1.65-1.21,3.26-1.76,4.91s-1,3-1.63,4.45c-.72,1.62-1.46,3.22-2.25,4.81-1,1.93-2,3.8-3,5.73a67.7,67.7,0,0,0-2.78,6.63c-.73,2-1.47,3.91-2.24,5.86-.75,1.64-1.62,3.19-2.52,4.76a51.16,51.16,0,0,1-2.8,4.45c-1.07,1.28-2.18,2.52-3.24,3.8a5.08,5.08,0,0,0-1.39,3.36,4.75,4.75,0,0,0,4.75,4.75,4.56,4.56,0,0,0,3.36-1.39c1.61-2,3.37-3.82,4.85-5.9s2.5-4,3.7-6a51.52,51.52,0,0,0,3.36-7.51c.48-1.19.91-2.4,1.33-3.61.36-1,.78-2,1.19-3,1.66-3.68,3.83-7.12,5.43-10.83,2-4.63,3.73-9.4,5.32-14.19,1.41-4.25,2.27-8.69,3.85-12.89s2.83-8.46,4.2-12.72c2.49-7.74,4.3-15.68,6-23.63.49-2.24.8-4.51,1.13-6.78s.77-4.35,1.07-6.53a62.56,62.56,0,0,0,.68-7.21c0-2.4-.07-4.77-.24-7.17a4.92,4.92,0,0,0-1.39-3.35,4.76,4.76,0,0,0-3.36-1.4c-2.45,0-4.93,2.17-4.75,4.75Z" transform="translate(-1192.13 -796.81)"/><path class="cls-1" d="M1372.79,984.84a4.68,4.68,0,0,0-2.55,1.79l-.1.09-.24.12a24.13,24.13,0,0,1-3.63.92c-1,.12-1.91.25-2.85.45a28.06,28.06,0,0,0-3.33,1,47.3,47.3,0,0,0-7.06,3c-2,1-3.78,2.39-5.67,3.55a58.32,58.32,0,0,0-5.94,3.89,23.41,23.41,0,0,0-5.17,6.12A55.73,55.73,0,0,0,1333,1012a88.32,88.32,0,0,0-5.19,12.87,41.61,41.61,0,0,0-1.23,7.54c-.2,2.27-.16,4.56-.15,6.84,0,4.46,0,8.91.17,13.36.16,5.07.53,10.29,2.09,15.14a33.82,33.82,0,0,0,1.48,3.64c.48,1.09,1,2.17,1.57,3.21,1.11,2,2.46,3.82,3.53,5.83,1.16,2.17,2.19,4.4,3.33,6.58a56.18,56.18,0,0,0,3.58,6c1.36,2,2.79,3.95,4.31,5.83s3,3.41,4.53,5.07a29.59,29.59,0,0,0,5.75,4.84,55.49,55.49,0,0,0,6.39,3.12,65,65,0,0,0,14.37,4.84,73.73,73.73,0,0,0,13.73,1.45,67.34,67.34,0,0,0,7-.4c2.06-.19,4.1-.46,6.15-.74a76,76,0,0,0,7.81-1.23,25.55,25.55,0,0,0,3.26-1.11c1.46-.58,2.9-1.17,4.33-1.82,2.08-.94,4.08-2,6.11-3.07s3.89-2,5.79-3a51.59,51.59,0,0,0,5.59-3.77,45.06,45.06,0,0,0,5.8-4.69,56.71,56.71,0,0,0,5.23-6.14,54,54,0,0,0,3.94-6.26,81.36,81.36,0,0,0,6-14.59,68.76,68.76,0,0,0,3-13.83,62.15,62.15,0,0,0,.49-6.25c0-2.21-.06-4.42-.13-6.63a67.88,67.88,0,0,0-.62-7.27c-.17-1.16-.38-2.3-.66-3.43s-.71-2.18-1-3.28a78.29,78.29,0,0,0-2.62-7.79c-1.18-2.89-2.44-5.72-3.8-8.52a32.42,32.42,0,0,0-4.61-7.27c-2.12-2.41-4.16-4.88-6.28-7.29a4.75,4.75,0,0,0-8.11,3.36,5,5,0,0,0,1.39,3.36q3.3,3.74,6.51,7.56a34.12,34.12,0,0,1,2.74,4.76c.84,1.71,1.67,3.43,2.44,5.17.42,1.06.86,2.11,1.26,3.18.49,1.28.88,2.62,1.29,3.93a59.79,59.79,0,0,1,2.21,8.2c.32,2.92.42,5.86.47,8.8,0,1.61.11,3.24,0,4.85s-.27,3-.42,4.47a67.61,67.61,0,0,1-1.86,8.81c-.51,1.81-1.13,3.57-1.75,5.35s-1.24,3.55-1.93,5.31a57.92,57.92,0,0,1-6.24,10.71,43.11,43.11,0,0,1-5.55,5.83c-1.41,1-2.76,2.08-4.18,3.08a46.09,46.09,0,0,1-5.44,3.19c-3.58,1.85-7.12,3.78-10.79,5.44-1.12.44-2.24.87-3.39,1.25a26.12,26.12,0,0,1-3.92.87l-4.33.56c-3.19.41-6.38.69-9.6.85a56.14,56.14,0,0,1-9.16-.47,64,64,0,0,1-13.94-3.74l-5.11-2.35a26.52,26.52,0,0,1-4.09-2.31,48.48,48.48,0,0,1-3.74-3.71c-1.29-1.4-2.55-2.81-3.75-4.27q-1.85-2.49-3.58-5.06a62.71,62.71,0,0,1-3.79-6.92c-1.15-2.33-2.31-4.64-3.68-6.86-.68-1.11-1.42-2.16-2.06-3.3-.54-1-1-2-1.45-3a31.48,31.48,0,0,1-1.1-3.32,27.85,27.85,0,0,1-.68-3.53,231.16,231.16,0,0,1-.38-28.87,32.32,32.32,0,0,1,1-4.43c.5-1.59,1.08-3.16,1.71-4.7.39-.88.81-1.74,1.2-2.61.61-1.33,1.17-2.68,1.82-4a50.87,50.87,0,0,1,3.64-6.33,18.44,18.44,0,0,1,2-2c.81-.57,1.66-1.07,2.52-1.58,1.23-.72,2.44-1.5,3.64-2.27s2.45-1.6,3.71-2.34a27.6,27.6,0,0,1,2.73-1.34,33.13,33.13,0,0,1,7-2.09,21.45,21.45,0,0,0,2.4-.4c.91-.22,1.87-.39,2.76-.7a24,24,0,0,0,2.8-1.22,9.24,9.24,0,0,0,3-3,4.61,4.61,0,0,0,.48-3.66,4.75,4.75,0,0,0-5.84-3.32Zm-3.35,2.21-.09,0,.09,0Zm-8.29,11.79-.43.19.43-.19Z" transform="translate(-1192.13 -796.81)"/><path class="cls-1" d="M1510,892.41a4.8,4.8,0,0,0-1.7,6.5c4.76,7.87,9.83,15.54,14.8,23.28,2.6,4,5.08,8.15,7.48,12.32a112.25,112.25,0,0,1,5.37,11.23q1.23,3,2.42,6c.92,2.32,2,4.58,3,6.86.7,1.81,1.31,3.65,1.91,5.5.66,2,1.37,4,2,6.05a91.87,91.87,0,0,1,3,12.34c.13,1.1.23,2.21.37,3.31.21,1.56.47,3.1.71,4.66.26,2.18.49,4.37.78,6.55,0-.25-.07-.5-.1-.75.24,1.88.45,3.76.72,5.64.19,1.31.42,2.62.61,3.93a127.72,127.72,0,0,1,.78,14.1c0,2.63,0,5.26,0,7.88a67,67,0,0,1-.5,7.21,72.81,72.81,0,0,1-2.55,11.17c-.6,1.88-1.3,3.72-2,5.57-.78,2.07-1.54,4.15-2.35,6.21-.66,1.53-1.32,3-2.1,4.52-1,1.81-1.92,3.62-2.92,5.41-1.87,3.36-3.43,6.88-5.24,10.27a111,111,0,0,1-6.22,10.31c-2.15,3.16-4.34,6.31-6.63,9.37-2,2.51-4.19,4.92-6.16,7.5s-3.8,5.07-5.73,7.59c-1.2,1.51-2.4,3-3.58,4.57-1.5,1.88-3,3.72-4.62,5.52s-3.36,3.82-5,5.73c-.92,1.06-1.86,2.11-2.85,3.11s-1.89,1.72-2.86,2.57c-1.91,1.69-3.77,3.44-5.73,5.07a28.29,28.29,0,0,1-2.56,1.76c-1.32.77-2.67,1.51-4.06,2.15l-1,.45c-.64.24-1.28.48-1.93.7a5,5,0,0,0-2.84,2.19,4.75,4.75,0,0,0,5.36,7c1.53-.53,3-1.16,4.49-1.8l-.53.23a43.57,43.57,0,0,0,5-2.48,38.87,38.87,0,0,0,5-3.61c1.45-1.19,2.8-2.5,4.21-3.73s2.75-2.36,4-3.62c2.62-2.53,4.88-5.45,7.29-8.19,1.19-1.36,2.43-2.68,3.58-4.07s2.35-3,3.49-4.46c3-3.76,5.83-7.59,8.73-11.4,1.13-1.42,2.3-2.8,3.48-4.19,1.59-1.88,3.11-3.82,4.55-5.84,2.79-3.89,5.59-7.8,8.08-11.88,2.37-3.87,4.38-7.9,6.37-12s4.5-7.9,6.31-12.06c2-4.66,3.83-9.42,5.57-14.2a65.69,65.69,0,0,0,3.14-13c.39-2.68.61-5.37.77-8.08.14-2.2.07-4.42,0-6.62,0-4.33-.09-8.67-.39-13-.26-3.61-.87-7.17-1.4-10.75-.21-1.74-.43-3.48-.67-5.22.06.42.11.84.17,1.26-.2-1.52-.32-3.05-.51-4.57-.23-1.85-.53-3.7-.82-5.54a74.78,74.78,0,0,0-1.36-9c-.72-3-1.55-6-2.44-8.91-.4-1.32-.88-2.63-1.31-3.94s-.88-2.84-1.38-4.25c-1-3-2.33-5.83-3.62-8.71-1.62-4-3.2-8-5-11.87a108.73,108.73,0,0,0-6.22-12c-1.29-2.1-2.5-4.25-3.8-6.35-1.11-1.79-2.3-3.53-3.46-5.29q-3.72-5.68-7.35-11.44c-1.91-3-3.8-6-5.65-9.09a4.87,4.87,0,0,0-4.15-2.34,4.67,4.67,0,0,0-2.35.64Z" transform="translate(-1192.13 -796.81)"/><path class="cls-1" d="M1328.64,1116.41a4.6,4.6,0,0,0-2.19,2.84,79.34,79.34,0,0,1-3.24,12.9,24.27,24.27,0,0,1-2.06,3.33,45.75,45.75,0,0,1-5.12,5.11c-1.89,1.62-3.75,3.28-5.69,4.84-1.69,1.23-3.49,2.31-5.26,3.41s-3.74,2.13-5.62,3.16-4.14,1.77-6.11,2.86a50.62,50.62,0,0,0-5.51,3.66,21.43,21.43,0,0,0-3.12,2.57,19.52,19.52,0,0,0-2.56,3.38,50,50,0,0,0-3.29,7.08c-.8,2.11-1.29,4.32-1.92,6.47a44.39,44.39,0,0,0-1.3,6,62.17,62.17,0,0,0-.62,6.24,49.67,49.67,0,0,0,.3,5.84c.16,2,.5,4,.73,6.06.27,2.34.63,4.66,1,7,.46,3.54.93,7.08,1.58,10.59.59,3.21,1.05,6.47,1.93,9.62s1.59,6.58,2.54,9.83c.43,1.45.73,2.93,1.14,4.39a35.62,35.62,0,0,1,.83,3.65c.25,2.32.32,4.64.37,7,0,1.37.09,2.76,0,4.13,0,1-.14,2-.24,2.93a39.4,39.4,0,0,1-1.71,7,29,29,0,0,1-2.59,4.57,29.41,29.41,0,0,1-3.92,3.81,39.23,39.23,0,0,1-6.23,3.71c-1.39.55-2.8,1.06-4.2,1.59a43.32,43.32,0,0,1-4.81,1.53,11.37,11.37,0,0,1-1.65,0,22.07,22.07,0,0,1-4-1l-.62-.31a4.75,4.75,0,0,0-4.79,8.21,23.38,23.38,0,0,0,7.38,2.38c1,.15,2,.28,3.08.34l.75,0,2-.27c.44-.1.85-.2,1.28-.32,1.1-.31,2.18-.69,3.25-1.07,2.42-.87,4.83-1.77,7.18-2.81a34.36,34.36,0,0,0,5.62-3.28,35.3,35.3,0,0,0,5.73-4.92,28.8,28.8,0,0,0,4.44-6.63c2.34-4.6,3.12-9.8,3.52-14.89.16-2.14,0-4.33,0-6.48a58.41,58.41,0,0,0-.58-7.11,50.67,50.67,0,0,0-1.17-5c-.5-1.93-1-3.86-1.53-5.78s-1-4.07-1.49-6.09-1.06-4.1-1.48-6.19-.72-4-1.06-6-.65-4.07-1-6.12c-.29-2.25-.62-4.49-.94-6.74-.36-3.1-.79-6.17-1-9.28a38.18,38.18,0,0,1-.1-4.54c.05-1.1.16-2.2.3-3.29a49.21,49.21,0,0,1,1.42-6.2c.62-2.1,1.12-4.21,1.91-6.25a31.71,31.71,0,0,1,2.81-5.35,14.19,14.19,0,0,1,1.56-1.54,51.52,51.52,0,0,1,4.62-3.15,62.36,62.36,0,0,1,6-2.88c1-.44,1.89-1,2.82-1.51s2-1.08,3-1.65c2-1.16,4-2.42,5.87-3.71a57,57,0,0,0,5.86-4.77c1.81-1.62,3.69-3.15,5.39-4.89a39.63,39.63,0,0,0,4.54-5.77,26.89,26.89,0,0,0,2.7-6.59,86.32,86.32,0,0,0,2.29-10.07,5,5,0,0,0-.48-3.66,4.75,4.75,0,0,0-2.84-2.18,4.43,4.43,0,0,0-1.25-.17,4.76,4.76,0,0,0-2.41.65Z" transform="translate(-1192.13 -796.81)"/><path class="cls-1" d="M1341.28,1187.13c-2.79,1.39-4.81,3.82-6.58,6.3a40.66,40.66,0,0,0-5.86,13.34c-.59,2.19-1,4.42-1.47,6.64s-.94,4.43-1.31,6.66a89.71,89.71,0,0,0-1.53,15.33,88.75,88.75,0,0,0,.72,11c.52,4,1.49,7.92,2.19,11.89a4.59,4.59,0,0,0,2.18,2.83,4.75,4.75,0,0,0,6.5-1.7,5.07,5.07,0,0,0,.48-3.66c-.6-3.4-1.39-6.76-1.95-10.17-.35-3-.51-6-.61-9.07a67.25,67.25,0,0,1,.51-9.83c.59-4,1.36-7.87,2.18-11.79.45-2.12.9-4.25,1.46-6.35a48,48,0,0,1,1.8-5.39,33.59,33.59,0,0,1,3.19-5.35A18,18,0,0,1,1345,1196a21.28,21.28,0,0,1,1.7,3.11c1.37,3.51,2.55,7.08,3.87,10.61,1.47,4,2.78,7.93,4,12s2,7.92,3.21,11.82c.59,1.87,1,3.75,1.4,5.65.39,1.75.78,3.48,1.06,5.25.07.61.14,1.22.2,1.83a5.12,5.12,0,0,0,1.4,3.36,4.74,4.74,0,0,0,6.71,0,4.5,4.5,0,0,0,1.39-3.36,66.15,66.15,0,0,0-1.29-8.29c-.46-2-.86-4-1.42-6s-1.26-4.18-1.79-6.3c-.57-2.29-1.15-4.58-1.82-6.85-1.31-4.46-2.83-8.83-4.45-13.18-.75-2-1.43-4.07-2.18-6.09a49,49,0,0,0-2.91-7,17.59,17.59,0,0,0-3.11-4.11,7.87,7.87,0,0,0-5.59-2.26,9.1,9.1,0,0,0-4.06,1Zm3.23,8.35h0Zm1.2.16h0Zm-.82,0h0Zm.49.08.09,0-.1,0Zm-.33,0Zm.1.08,0,0h0Z" transform="translate(-1192.13 -796.81)"/><path class="cls-1" d="M1354.9,1220.17a35.69,35.69,0,0,1-4.59,1.37c-1.27.32-2.54.6-3.83.82-2.38.26-4.78.45-7.17.53-2.67.1-5.35,0-8-.05a4.75,4.75,0,0,0,0,9.5c2.18,0,4.35.07,6.52.07s4.53-.2,6.79-.38a46.41,46.41,0,0,0,6.87-1,40.27,40.27,0,0,0,6-1.71l1.13-.48a4.72,4.72,0,0,0,1.71-1.7,4.74,4.74,0,0,0-1.71-6.5,5.11,5.11,0,0,0-2.49-.68,3.23,3.23,0,0,0-1.17.2Z" transform="translate(-1192.13 -796.81)"/><path class="cls-1" d="M1412.56,1163.44a10.6,10.6,0,0,0-3.24.69,16.17,16.17,0,0,0-8.29,7.47,28.69,28.69,0,0,0-1.67,4.42c-.37,1.06-.74,2.12-1.06,3.2-.62,2.15-1,4.36-1.39,6.56a93.25,93.25,0,0,0-1.49,14.92c-.08,2.34-.11,4.67-.14,7s-.12,4.56,0,6.82a77.75,77.75,0,0,0,.74,8.35,28.29,28.29,0,0,0,1.47,6.3,35,35,0,0,0,1.67,3.82,29.56,29.56,0,0,0,2.06,3.24c1.52,2.1,3.26,4,4.86,6.08a25,25,0,0,0,2.17,2.52,27.69,27.69,0,0,0,3.48,2.73,54.6,54.6,0,0,0,5.63,3.31c1.06.57,2.08,1.2,3.12,1.79.52.29,1.06.54,1.6.79s1.17.49,1.76.72a13.07,13.07,0,0,0,3.22.72,18.17,18.17,0,0,0,9.2-1.47l1.14-.48a4.75,4.75,0,0,0,0-8.2,4.58,4.58,0,0,0-3.66-.48,20,20,0,0,1-3.83,1.19,6,6,0,0,1-3.56-.46c-1.92-.93-3.74-2.08-5.63-3.09a44.27,44.27,0,0,1-4.91-3.06,10.89,10.89,0,0,1-1.41-1.31c-.69-.78-1.34-1.6-2-2.43-1-1.25-2-2.47-3-3.72a28.16,28.16,0,0,1-2.6-4.39,31.06,31.06,0,0,1-1.52-6,70.39,70.39,0,0,1-.5-7.68c0-2.44,0-4.89.07-7.33.07-5,.22-9.91.78-14.85.36-2.45.81-4.92,1.35-7.34a62.51,62.51,0,0,1,2.29-7.31,14,14,0,0,1,.91-1.53c.4-.42.81-.82,1.24-1.21.35-.23.7-.44,1.07-.64.22-.07.45-.13.67-.18h.37a14.62,14.62,0,0,1,2.15.61c1,.44,2,.89,3,1.36a5.06,5.06,0,0,0,3.66.48,4.81,4.81,0,0,0,2.83-2.19,4.74,4.74,0,0,0,.48-3.66,4.59,4.59,0,0,0-2.18-2.84c-1.26-.59-2.53-1.17-3.81-1.72a17,17,0,0,0-4.21-1.31,13.6,13.6,0,0,0-2.27-.21l-.55,0Z" transform="translate(-1192.13 -796.81)"/><path class="cls-1" d="M1456.27,1186a4.77,4.77,0,0,0-3.31,5.84c1.19,3.65,2.42,7.32,3.3,11.06.8,3.4,1.49,6.82,2.2,10.24.34,1.61.71,3.2,1.09,4.8.44,1.82,1.06,3.59,1.63,5.37,1.22,3.72,2.47,7.43,4,11a4.56,4.56,0,0,0,2.84,2.18,4.77,4.77,0,0,0,5.85-3.32c.05-.42.11-.84.16-1.26a4.67,4.67,0,0,0-.61-2.34c-1.11-2.9-2.1-5.86-3.07-8.81-.57-1.78-1.19-3.55-1.63-5.37-.38-1.6-.75-3.2-1.09-4.81-.71-3.42-1.4-6.83-2.2-10.23-.88-3.74-2.1-7.42-3.3-11.07a4.92,4.92,0,0,0-4.59-3.49,4.68,4.68,0,0,0-1.26.18Zm16.75,42.7.14.34c0-.11-.09-.22-.14-.34Z" transform="translate(-1192.13 -796.81)"/><path class="cls-1" d="M1480.31,1196.23c-.93.59-1.92,1.08-2.86,1.65-.72.44-1.42.91-2.13,1.37-1.34.9-2.67,1.8-4.08,2.57-.8.26-1.62.44-2.43.68a27.05,27.05,0,0,0-2.79,1c-2.34.94-4.62,2-6.9,3.08a4.61,4.61,0,0,0-2.19,2.84,4.75,4.75,0,0,0,3.32,5.84,5.06,5.06,0,0,0,3.66-.48c1.52-.71,3-1.42,4.57-2.09a31.92,31.92,0,0,1,3.69-1.23,16,16,0,0,0,3.43-1.18c.73-.38,1.44-.78,2.13-1.22,1-.66,2.06-1.35,3.08-2,1.39-.93,2.89-1.67,4.3-2.57a4.82,4.82,0,0,0,1.7-6.5,4.93,4.93,0,0,0-4.19-2.36,4.29,4.29,0,0,0-2.31.66Z" transform="translate(-1192.13 -796.81)"/><path class="cls-1" d="M1480.65,1171.33a4.78,4.78,0,0,0-3.31,5.84c1.22,4,2.38,8.09,3.69,12.1s2.87,8.06,4.56,12c.59,1.4,1.19,2.79,1.79,4.18,1.66,4.09,3.12,8.26,4.84,12.33l.48,1.13a4.74,4.74,0,0,0,8.2,0,4.57,4.57,0,0,0,.48-3.66c-1.21-2.86-2.26-5.79-3.39-8.69s-2.46-6-3.73-9l.14.33-1-2.27c-1.29-3.28-2.49-6.57-3.58-9.92-1.19-3.68-2.24-7.4-3.36-11.09a4.86,4.86,0,0,0-4.6-3.49,4.53,4.53,0,0,0-1.25.17Z" transform="translate(-1192.13 -796.81)"/><path class="cls-1" d="M1520.51,1146.52c-3.08,1.11-5.85,2.87-8.82,4.24-1.54.63-3.09,1.2-4.65,1.76a5,5,0,0,0-2.83,2.19,4.73,4.73,0,0,0,1.7,6.5,4.61,4.61,0,0,0,3.66.47c2.61-.94,5.19-1.94,7.72-3.08,1.85-.83,3.58-1.92,5.41-2.8l.34-.12a5,5,0,0,0,2.84-2.18,4.83,4.83,0,0,0,.48-3.66,4.76,4.76,0,0,0-2.19-2.84,5,5,0,0,0-2.46-.68,3.73,3.73,0,0,0-1.2.2Z" transform="translate(-1192.13 -796.81)"/><path class="cls-1" d="M1512.33,1151.72a4.75,4.75,0,0,0-2.18,2.84,5,5,0,0,0,.48,3.66c.9,1.87,1.78,3.74,2.61,5.64a72.46,72.46,0,0,1,2.54,9.32c.67,3,1.27,6,1.87,9a54,54,0,0,0,2.43,9.1c.49,1.28,1,2.54,1.34,3.86.22.77.34,1.57.53,2.34.06.22.12.44.19.66l-.69.36c-.48.24-1,.45-1.45.66a4.52,4.52,0,0,0-1.49,1.09,5.13,5.13,0,0,0-1.4,3.43,4.69,4.69,0,0,0,.65,2.39,4.49,4.49,0,0,0,2.84,2.18,5.57,5.57,0,0,0,2.6,0l.5-.12a20.14,20.14,0,0,0,6.07-2.89,44.59,44.59,0,0,1,6.17-3.82l.8-.37a4.59,4.59,0,0,0,2.18-2.84,4.74,4.74,0,0,0-.48-3.66,4.8,4.8,0,0,0-2.83-2.18,5,5,0,0,0-3.66.48l-.35.17.63-.27c-.49.21-1,.42-1.46.65a45.53,45.53,0,0,0-1.89-5.64,54.49,54.49,0,0,1-1.81-6.74c-.92-4.25-1.74-8.52-2.66-12.77a48.31,48.31,0,0,0-2-7c-1-2.69-2.31-5.29-3.56-7.88a4.62,4.62,0,0,0-2.84-2.18,4.83,4.83,0,0,0-1.25-.17,4.76,4.76,0,0,0-2.41.65Z" transform="translate(-1192.13 -796.81)"/><path class="cls-1" d="M1547.12,1100.27a4.79,4.79,0,0,0-2.84,2.18,5,5,0,0,0-.48,3.66c.51,2.38,1,4.79,1.54,7.15s1.3,4.77,2,7.13c1.27,4.18,2.23,8.42,3.74,12.52.94,2.54,2.09,5,3.19,7.48.9,2,1.89,4,2.94,5.89s2.3,4.06,3.33,6.16c.87,1.77,1.72,3.55,2.51,5.36.8,2.13,1.44,4.31,2.27,6.42a5.15,5.15,0,0,0,2.18,2.84,4.75,4.75,0,0,0,6.5-1.7,4.58,4.58,0,0,0,.48-3.66c-.55-1.39-1-2.81-1.45-4.21s-1.13-3-1.8-4.54c-1.09-2.43-2.24-4.85-3.46-7.22s-2.68-4.71-3.89-7.14-2.17-4.64-3.17-7c-.83-2.13-1.56-4.28-2.2-6.48s-1.18-4.46-1.84-6.68-1.43-4.63-2-7c-.63-2.6-1.14-5.24-1.71-7.85a4.71,4.71,0,0,0-4.65-3.48,4.38,4.38,0,0,0-1.19.16Z" transform="translate(-1192.13 -796.81)"/><path class="cls-1" d="M1558.45,1096.17q.08,3.7.14,7.39a51.85,51.85,0,0,1-.32,6c-.22,1.32-.5,2.64-.71,4-.28,1.75-.45,3.51-.66,5.26-.33,2.29-.64,4.59-.88,6.9s-.35,4.94-.44,7.41a4.75,4.75,0,0,0,9.5,0c.12-3.48.36-6.93.78-10.38.27-2,.53-4,.75-5.93.23-1.48.53-3,.79-4.43a47.22,47.22,0,0,0,.6-5.3c.25-3.6,0-7.25,0-10.86a4.75,4.75,0,0,0-9.5,0Z" transform="translate(-1192.13 -796.81)"/><path class="cls-1" d="M1553.07,1132.63a4.78,4.78,0,0,0,3.32,5.84c2.68.64,5.37,1.18,8,1.82,1.33.31,2.67.6,4,.93s2.39.7,3.59,1c2.25.63,4.53,1,6.82,1.36,2.9.51,5.79,1,8.72,1.3a4.52,4.52,0,0,0,3.35-1.39,4.73,4.73,0,0,0,0-6.72,5,5,0,0,0-3.35-1.39q-.79-.08-1.56-.18c-2.09-.31-4.16-.74-6.25-1a43,43,0,0,1-6.15-1.37c-4.82-1.47-9.8-2.35-14.7-3.52a5.3,5.3,0,0,0-1.19-.14,4.76,4.76,0,0,0-4.65,3.46Z" transform="translate(-1192.13 -796.81)"/><path class="cls-1" d="M1585.66,1034.49a19.26,19.26,0,0,0-4.18,1.78,7.93,7.93,0,0,0-2.76,3,25.86,25.86,0,0,0-1.11,2.59,16.34,16.34,0,0,0-.83,2.93c0,.25-.11.49-.15.74a2.44,2.44,0,0,0-.06.26v.09c-.1.55-.18,1.09-.24,1.64-.4,2.75-.79,5.5-1,8.26a32.08,32.08,0,0,0,.63,8.35c.23,1.27.61,2.53.93,3.78s.82,2.71,1.3,4c.9,2.45,2,4.79,3,7.17.12.3.24.6.37.9l-.09-.2c1.71,4.06,3.38,8.18,6,11.72a28.43,28.43,0,0,0,5.17,5.45c.72.56,1.43,1.12,2.19,1.62.49.33,1,.59,1.55.88a22.51,22.51,0,0,0,4.33,1.88,9.08,9.08,0,0,0,7.7-.91,11.53,11.53,0,0,0,4.62-7.12,44.65,44.65,0,0,0,1-7.65,58.3,58.3,0,0,0-.08-6.74,70.92,70.92,0,0,0-1-7.82c-.38-2.21-.87-4.41-1.37-6.59a50.37,50.37,0,0,0-2.2-6.87,104,104,0,0,0-5.87-13.11,26.46,26.46,0,0,0-4.12-5.84,20.31,20.31,0,0,0-3-2.47,8.38,8.38,0,0,0-1.51-.8,15.6,15.6,0,0,0-2.79-1,14.76,14.76,0,0,0-3.38-.43,10,10,0,0,0-3.07.46Zm3.5,9a15.19,15.19,0,0,1,1.61.41c.33.17.64.35,1,.55a17.66,17.66,0,0,1,1.57,1.55,53.5,53.5,0,0,1,5,9.29c.57,1.39,1.11,2.79,1.65,4.19a48.29,48.29,0,0,1,2.14,6.2c.87,3.6,1.61,7.25,2.19,10.92a56.26,56.26,0,0,1,0,12,22.89,22.89,0,0,1-.82,3.46l0,.08c-.37-.1-.73-.22-1.09-.35a24.22,24.22,0,0,1-3.32-1.91,27.71,27.71,0,0,1-3.52-3.5,29.78,29.78,0,0,1-2.43-3.86c-.79-1.54-1.5-3.1-2.2-4.67-.18-.45-.37-.89-.56-1.34-.69-1.75-1.51-3.44-2.28-5.16a52.66,52.66,0,0,1-3.18-11,25.78,25.78,0,0,1-.16-3.51c.06-1.54.24-3.07.43-4.61l.15-1.08a4.46,4.46,0,0,0,.41-1.93c0-.38,0-.76,0-1.13a20.93,20.93,0,0,1,1-3.73c0-.11.1-.23.16-.34l.1-.06c.52-.19,1-.36,1.56-.5Zm-1.92.19-.21.16h0l.21-.15Zm2.66,31.8c.11.24.21.48.31.72l-.31-.72Zm13.92,16c0,.06,0,.12-.08.19l.08-.19Zm-.73.77.14,0-.14,0Zm0,.18-.21,0,.21,0Zm0,.15-.34.14.34-.14Z" transform="translate(-1192.13 -796.81)"/></g></svg>