<svg id="描画レイヤー" xmlns="http://www.w3.org/2000/svg" viewBox="0 0 440.22 513.99"><defs><style>.cls-1{fill:#666b68;}.cls-2{fill:#bfb378;}</style></defs><title>sachiko-gold-icon</title><path class="cls-1" d="M980.21,991.12l-.59.76a3.67,3.67,0,0,0-.51,1.89c-.21,1.63-.37,3.28-.57,4.91a36.6,36.6,0,0,1-1.6,7.11c-.48,1.06-1,2.07-1.6,3.09-.8,1.44-1.52,2.92-2.3,4.37s-1.52,2.84-2.35,4.23a38.44,38.44,0,0,1-2.55,3.65c-1.35,1.73-2.77,3.4-4.1,5.15l.42-.54-.7.91c-.6.76-1.21,1.51-1.85,2.24a28.19,28.19,0,0,1-2.07,2c-1.33,1.23-2.61,2.52-3.93,3.76s-2.47,2.31-3.65,3.52a48.94,48.94,0,0,0-3.88,4.84c-2.06,2.56-4.4,4.84-6.61,7.27A92,92,0,0,0,935,1059a80.27,80.27,0,0,0-5.83,9.32c-1.67,3.2-3.18,6.52-4.61,9.85-.86,2-1.65,4-2.38,6.09-.54,1.52-1.11,3-1.61,4.56s-1.11,3.3-1.59,5-.87,3.35-1.26,5a78,78,0,0,0-1.75,11.78c-.13,1.83-.19,3.65-.24,5.48a40.09,40.09,0,0,0,.21,5.9,88.77,88.77,0,0,0,2.31,11c.44,1.71.95,3.39,1.47,5.07s1.23,3.49,2,5.2a2.44,2.44,0,0,0-.1-.24c.52,1.26,1.06,2.5,1.6,3.75.57,1.42,1.16,2.84,1.75,4.25s1.27,3.14,1.94,4.69a22.53,22.53,0,0,0,2,3.42c.92,1.37,1.83,2.75,2.86,4a15.89,15.89,0,0,0,4.48,4.36A3.75,3.75,0,0,0,940,1161l-.24-.13a19.18,19.18,0,0,1-2.32-2.53c-.78-1.07-1.51-2.17-2.24-3.27a24.22,24.22,0,0,1-2-3.57c-.69-1.67-1.37-3.34-2.07-5,.13.29.25.59.38.89-.8-2-1.64-4-2.48-5.94l-.57-1.36a69.44,69.44,0,0,1-3-9.3c-.77-3-1.57-6-2-9.11a52,52,0,0,1-.12-7.49c.08-2.38.23-4.76.5-7.12.31-2.14.71-4.28,1.19-6.39s1-4.41,1.73-6.55c1.41-4.32,2.9-8.6,4.6-12.82a114.41,114.41,0,0,1,5.48-11.31,101.38,101.38,0,0,1,7.44-11c1.82-2.27,3.78-4.39,5.77-6.5,1-1.08,2-2.16,3-3.31s2.09-2.65,3.11-4a77.26,77.26,0,0,1,6.51-6.54c1.13-1.09,2.27-2.16,3.41-3.24a40.23,40.23,0,0,0,4.11-4.82l-.41.54c.3-.39.6-.79.91-1.18,2-2.56,4.11-5,5.94-7.75a89,89,0,0,0,4.85-8.76c.63-1.2,1.37-2.35,1.91-3.59A27.65,27.65,0,0,0,985,1005c.83-3.7,1.12-7.49,1.6-11.24a3.53,3.53,0,0,0-1.1-2.65,3.74,3.74,0,0,0-5.3,0Zm-16.84,36-.17.22.17-.22ZM928.14,1139.5l.12.28-.12-.28Zm.47,1.12.3.71-.3-.71Zm10.77,20,.07.05-.07-.05Z" transform="translate(-888.46 -815.26)"/><path class="cls-1" d="M1144.63,1214.75a3.79,3.79,0,0,0-2.14,1.85l-.33.92a3.84,3.84,0,0,0,.12,2q1.88,9.33,4.63,18.44a.88.88,0,0,1,0,.15q1.1,3.59,2.32,7.12a.42.42,0,0,0,0,.1c0,.11.07.21.11.32l0,.1q1.66,4.74,3.55,9.39a1,1,0,0,0,0,.1c.1.25.2.5.31.74a.49.49,0,0,0,0,.11l.07.16v0l.31.74.07.16.05.11v0l.33.79.06.13,0,0,0,.08c.07.17.14.35.22.52l.16.38.06.13.16.37c.08.18.15.35.23.52l0,.06,0,.08,0,0c.09.22.19.43.28.65s.32.71.47,1.06l.07.13.13.3c.13.3.27.59.4.88l0,0a.36.36,0,0,1,0,.09l.28.6c.19.41.38.82.58,1.23l0,.09.36.75c0,.12.11.24.16.35l.07.14c.09.2.19.4.28.59l.43.88a3.78,3.78,0,0,0,1.43,1.26,3.71,3.71,0,0,0,2.9.21,3.75,3.75,0,0,0,2.14-1.85,3.61,3.61,0,0,0,.21-2.91c-.14-.28-.28-.57-.41-.86l-.5-1v0c-.2-.42-.39-.84-.58-1.25l-.44-1-.69-1.52c-.18-.42-.37-.84-.56-1.27l0-.06-.17-.39-.4-.94-.42-1h0c-.25-.59-.49-1.18-.74-1.76-.09-.22-.17-.43-.26-.64l-.07-.16c0-.11-.08-.21-.13-.32q-1.83-4.54-3.47-9.17l-.36-1q-1.26-3.69-2.4-7.43c-1.8-6-3.32-12-4.54-18.14a3.55,3.55,0,0,0-1.86-2.14,3.71,3.71,0,0,0-1.7-.41,3.78,3.78,0,0,0-1.2.2Z" transform="translate(-888.46 -815.26)"/><path class="cls-1" d="M1169.62,1208.52a3.79,3.79,0,0,0-2.35,4.76q1.74,5,3.72,9.84l.24.58.07.18c.31.75.62,1.5.94,2.24,0,0,0,.08,0,.12.09.2.18.4.26.6l.07.15a1.12,1.12,0,0,1,.05.13c.63,1.44,1.26,2.87,1.92,4.29l0,.08.46,1,0,.06c.36.77.72,1.54,1.09,2.31l.33.68,0,.11,0,0,.51,1a3.21,3.21,0,0,0,.43.87q2.23,4.51,4.68,8.93l.09.18c.17.3.34.59.5.89l.06.1.14.25.21.36v0c.8,1.41,1.62,2.8,2.45,4.19l0,0c.19.32.38.64.58,1a3.75,3.75,0,1,0,6.24-4.15c-1-1.69-2-3.38-3-5.09a.75.75,0,0,1-.07-.12c-.16-.27-.32-.55-.47-.83l-.28-.5c-1.39-2.49-2.72-5-4-7.54a3.56,3.56,0,0,0-.39-.78l-.44-.87c0-.12-.11-.23-.17-.35v0l0-.1h0c-.45-.94-.9-1.88-1.34-2.82-.19-.41-.38-.81-.56-1.22l0,0q-1.17-2.54-2.26-5.09c-.37-.87-.73-1.73-1.09-2.6l0,0q-2.11-5.16-3.95-10.42a3.81,3.81,0,0,0-3.58-2.54,3.73,3.73,0,0,0-1.18.19Zm14.26,25.13.12.24,0-.08-.08-.16Z" transform="translate(-888.46 -815.26)"/><path class="cls-1" d="M1168.3,1204.62a3.78,3.78,0,0,0-2.34,4.76c.68,2.07,1.38,4.13,2.12,6.18l.05.14c.08.21.15.42.23.62a3.75,3.75,0,1,0,7.1-2.41l-.08-.24q-1.22-3.33-2.32-6.71a3.78,3.78,0,0,0-3.58-2.54,3.7,3.7,0,0,0-1.18.2Z" transform="translate(-888.46 -815.26)"/><path class="cls-1" d="M1168.31,1204.61a3.79,3.79,0,0,0-2.35,4.76q1.92,5.87,4.17,11.6a3.75,3.75,0,1,0,7.1-2.41q-2.25-5.73-4.17-11.6a3.78,3.78,0,0,0-3.58-2.54,3.59,3.59,0,0,0-1.17.19Z" transform="translate(-888.46 -815.26)"/><path class="cls-1" d="M1208.31,1182.48a3.84,3.84,0,0,0-2.14,1.86,3.67,3.67,0,0,0-.21,2.9q3.45,7.48,7.42,14.71l.06.09.7,1.27,0,.08,0,0,.12.21.3.52,0,.08c1.14,2,2.3,4,3.5,5.9l0,.06.06.09.31.5a.41.41,0,0,1,0,.09l.56.88.17.28,0,0v0l.37.59,0,.07.1.15a.57.57,0,0,0,.08.13l.33.52.26.4.07.11.4.61,0,.07,0,0,.68,1a3.75,3.75,0,1,0,6.24-4.16c-.22-.32-.43-.65-.64-1l-.06-.09-1-1.57c-.1-.15-.2-.3-.29-.46l0,0-.14-.22-.23-.36,0,0v0c-.37-.58-.73-1.16-1.09-1.75q-2.1-3.39-4-6.86h0l-.55-1h0c-.08-.13-.15-.27-.23-.41l0-.07q-2.3-4.15-4.4-8.41-1.11-2.27-2.16-4.55a4.09,4.09,0,0,0-1.85-2.14,3.77,3.77,0,0,0-1.71-.4,3.81,3.81,0,0,0-1.2.19Z" transform="translate(-888.46 -815.26)"/><path class="cls-1" d="M1235.29,1140a3.77,3.77,0,0,0-2.35,4.75q1.21,2.91,2.51,5.77v0l.41.92,0,.09,0,0,.12.26.09.19.15.34.09.18,1,2.09,0,.08.33.69.18.38.48,1,.43.88h0c1.34,2.7,2.72,5.37,4.17,8a.25.25,0,0,0,0,.07l0,0,.3.55h0l.07.13,0,.06h0c.34.62.69,1.23,1,1.85l.06.11c1.25,2.19,2.55,4.37,3.87,6.52l.08.12.16.26.06.09.36.57.05.08.12.18.06.11.41.64,0,0c1.44,2.24,2.91,4.46,4.43,6.65h0l.3.44,0,0c.15.21.29.42.44.62l.15.22.08.11.17.24a.36.36,0,0,1,.07.1l.12.16.27.39.06.08q2.47,3.43,5.1,6.76a1.34,1.34,0,0,0,.11.14l.58.73.09.11.13.17,0,0,.18.22.36.44.07.08.06.09.58.71.14.17c1.33,1.61,2.69,3.21,4.07,4.78a3.91,3.91,0,0,0,.6.69l.1.11c.16.19.33.38.5.56l0,0,.07.09.59.66.06.06c.15.17.3.34.46.5a3.58,3.58,0,0,0,2.71,1,3.75,3.75,0,0,0,3.52-4,4,4,0,0,0-1.25-2.59l-.43-.48-.08-.09-.13-.14a3.37,3.37,0,0,0-.54-.6l-.35-.39-.16-.18-.29-.33c-1.31-1.52-2.6-3-3.86-4.6l-.71-.87c-.11-.15-.23-.29-.35-.44l-.69-.88c-1.74-2.2-3.42-4.44-5.06-6.71l0-.06-.7-1v0c-.32-.44-.63-.89-.94-1.34l0,0q-2.51-3.61-4.85-7.32l0,0c-.12-.19-.24-.37-.35-.56a1.4,1.4,0,0,1-.1-.16l-.71-1.15,0,0c-1.37-2.22-2.69-4.46-4-6.74v0c-.24-.42-.47-.84-.7-1.26l-.13-.22c-.06-.11-.12-.23-.19-.34l-.48-.88q-1.83-3.37-3.54-6.8l.15.31-.06-.12-.1-.21,0-.08,0-.1.08.15-.84-1.72h0l-1.23-2.61c-.18-.38-.35-.77-.53-1.16l-.08-.16q-1.35-3-2.63-6a3.87,3.87,0,0,0-1.85-2.13,3.77,3.77,0,0,0-1.7-.41,3.48,3.48,0,0,0-1.2.2Zm10.07,14.07v0l0,0v0Z" transform="translate(-888.46 -815.26)"/><path class="cls-1" d="M1273.1,1082.91a14.44,14.44,0,0,0-3.72,6.9,2.5,2.5,0,0,0-.07.26c0,.09,0,.18-.07.26a1.06,1.06,0,0,1,0,.19c-.12.49-.2,1-.28,1.48a35.3,35.3,0,0,0-.2,8.47,2.45,2.45,0,0,1,0,.27s0,.08,0,.12c0,.3.06.61.09.91a62.57,62.57,0,0,0,3.11,13.3,74.23,74.23,0,0,0,5.33,11.82,55.52,55.52,0,0,0,8.12,11.13c3.08,3.29,7,6.17,11.45,7.14a10.59,10.59,0,0,0,3.46.14,10.83,10.83,0,0,0,2.19-.48,10.26,10.26,0,0,0,4.8-3.57c2.87-3.85,3.47-8.84,3.43-13.51a52.56,52.56,0,0,0-1.94-12.7,71.31,71.31,0,0,0-7.52-17.82c-3.35-5.74-7.71-11.13-13.34-14.74a14.76,14.76,0,0,0-7.45-2.44h-.31a10.18,10.18,0,0,0-7.08,2.88Zm7.41,4.61a9.83,9.83,0,0,1,1.52.34,18.47,18.47,0,0,1,2.87,1.55,32.18,32.18,0,0,1,4.92,4.56,59.11,59.11,0,0,1,7.37,11.38,67.48,67.48,0,0,1,5.28,15.43,42.11,42.11,0,0,1,.73,9.77,22.13,22.13,0,0,1-.82,4.2,12.51,12.51,0,0,1-.87,1.76,8.77,8.77,0,0,1-.63.72l-.58.4-.6.2a6.93,6.93,0,0,1-.91,0,13.45,13.45,0,0,1-1.43-.31,18.11,18.11,0,0,1-2.73-1.42,33.18,33.18,0,0,1-5.07-4.63,58,58,0,0,1-7.41-11.41,68.36,68.36,0,0,1-5.32-15.51,47.63,47.63,0,0,1-.75-6.73c0-.52,0-1,0-1.56v-.24c0-.38,0-.76,0-1.14s.08-.73.13-1.1a20.62,20.62,0,0,1,.69-3.19,14.91,14.91,0,0,1,.84-1.7c.21-.27.43-.52.66-.77s.37-.25.56-.37.42-.16.64-.23a8.51,8.51,0,0,1,.88,0Zm9.53,6.7.2.22-.2-.22Z" transform="translate(-888.46 -815.26)"/><path class="cls-1" d="M1297.24,1104.87a3.81,3.81,0,0,0,1.25,2.58,3.89,3.89,0,0,0,2.71.94,3.75,3.75,0,0,0,2.28-6.54,3.89,3.89,0,0,0-2.71-.94,3.77,3.77,0,0,0-3.53,4Z" transform="translate(-888.46 -815.26)"/><path class="cls-1" d="M1321.2,1091.53a3.75,3.75,0,0,0,1.25,2.58,3.87,3.87,0,0,0,2.71.94,3.75,3.75,0,0,0,3.52-4,3.71,3.71,0,0,0-1.25-2.58,3.84,3.84,0,0,0-2.71-1,3.76,3.76,0,0,0-3.52,4Z" transform="translate(-888.46 -815.26)"/><path class="cls-1" d="M1246.6,1174.31a3.74,3.74,0,0,0-1.1,5.19l.63.74a3.75,3.75,0,0,0,1.69.87q3.36,1.23,6.77,2.29l.08,0,1,.31.12,0,3.12.9.22.06.71.19.07,0h.06l.13,0h.05l.17,0,.1,0,.21.06,3.36.85.1,0,.31.08.66.15.09,0,.18,0,.11,0,.7.16c1.26.29,2.53.57,3.8.83l.1,0c1.64.34,3.28.65,4.93.94l.11,0,.53.1h0l.15,0,.24,0,.09,0h.09l.43.08h0l.11,0,.26,0,.17,0h0c1.25.2,2.5.4,3.75.58h.11a3.94,3.94,0,0,0,2.86-.52,3.74,3.74,0,0,0,1.62-2.32,3.81,3.81,0,0,0-.51-2.87,3.65,3.65,0,0,0-2.32-1.61h-.11c-1.36-.19-2.7-.4-4-.63l-.18,0h0l-.2,0-.35-.07h-.11l-.46-.08-.12,0-.17,0c-1.78-.32-3.55-.65-5.32-1h-.08q-1.95-.4-3.87-.84l-.76-.18-.12,0-.75-.18h0l-.23,0q-1.72-.42-3.45-.87l-.05,0-.21,0-.56-.15-.08,0-.71-.2-.18-.05c-1.06-.29-2.11-.6-3.16-.91l-.11,0-1-.3-.11,0q-3.4-1.07-6.77-2.29a2.54,2.54,0,0,0-.78-.12,4.06,4.06,0,0,0-2.09.64Z" transform="translate(-888.46 -815.26)"/><path class="cls-1" d="M1249.14,1129.89c-.47,2.27-.91,4.53-1.3,6.81l0,.13c-.09.53-.17,1.06-.26,1.59,0,0,0,.06,0,.09a159.82,159.82,0,0,0-2.23,27.36l0,1.67c0,.1,0,.2,0,.3v.13c0,1.33.1,2.65.19,4a.38.38,0,0,0,0,.1,1.34,1.34,0,0,0,0,.2c0,.09,0,.18,0,.27a.66.66,0,0,0,0,.14c0,.09,0,.18,0,.26h0l0,.31s0,.06,0,.09l0,.33a.31.31,0,0,0,0,.1v0a.31.31,0,0,0,0,.1c.07.85.16,1.7.25,2.55l0,.21s0,.08,0,.12h0l.09.73a4,4,0,0,0,1.24,2.64,3.74,3.74,0,0,0,5.29-.28,3.57,3.57,0,0,0,1-2.65c0-.12,0-.24,0-.35v0l0-.25c0-.13,0-.26,0-.39-.12-1-.22-2-.3-3l0-.35c0-.11,0-.23,0-.34v0a123.87,123.87,0,0,1-.14-14.42c0-.12,0-.24,0-.37v-.13c.1-1.88.22-3.75.38-5.62v0l0-.4c.12-1.24.26-2.49.4-3.73a2.89,2.89,0,0,0,0-.29v-.11c.36-3,.8-5.94,1.3-8.9,0,0,0-.06,0-.1q.6-3.42,1.31-6.83a3.79,3.79,0,0,0-2.84-4.48,3.55,3.55,0,0,0-.79-.09,3.77,3.77,0,0,0-3.69,2.92Z" transform="translate(-888.46 -815.26)"/><path class="cls-1" d="M1216.77,1170.93a4,4,0,0,0-2.64,1.24c-.59.57-1.19,1.12-1.8,1.67-.78.64-1.57,1.27-2.39,1.87l0,0c-.73.52-1.47,1-2.22,1.51h0l-.4.25h0c-.81.51-1.64,1-2.48,1.44l-.32.17h0l-.27.14,0,0-.08,0-.84.42-1.52.67h0c-.69.29-1.38.55-2.08.81l-.16,0h0l-.24.08h0l-.31.1c-.86.29-1.73.55-2.61.79l-.06,0-.36.09-.24.06-.33.09h0l-1.33.3a3.64,3.64,0,0,0-2.2,1.85,3.77,3.77,0,0,0-.41,1.77,3.65,3.65,0,0,0,.17,1.09,3.8,3.8,0,0,0,1.85,2.2,4,4,0,0,0,2.86.24l.33-.07.12,0,.91-.21.64-.16.08,0,.42-.11.16-.05q.9-.25,1.8-.54l.16,0,.32-.11h0l.26-.08.11,0,.12,0,.13,0,.25-.09.07,0,.12,0c.6-.22,1.19-.45,1.79-.69l0,0,.19-.08c1.21-.51,2.39-1.06,3.56-1.65l.21-.1.6-.31.18-.1h0l.12-.06.23-.13h0c.69-.38,1.37-.77,2-1.18l.07,0,.14-.08.65-.42.14-.09c.61-.4,1.21-.81,1.8-1.24l.09-.06.14-.1.12-.09a58,58,0,0,0,5.41-4.61,3.76,3.76,0,0,0-2.79-6.27Z" transform="translate(-888.46 -815.26)"/><path class="cls-1" d="M1231.11,1203.62l-.44.43,0,0h0c-.43.41-.85.81-1.29,1.2a3.78,3.78,0,0,0-.56.5c-.85.71-1.71,1.38-2.61,2l0,0-.27.19c-.17.12-.34.24-.52.35a46,46,0,0,1-5.69,3.3l-.44.2c-.78.34-1.57.66-2.36,1-1.46.54-2.95,1-4.46,1.42a3.46,3.46,0,0,0-2.19,1.85,3.84,3.84,0,0,0-.25,2.86.19.19,0,0,0,0,.07v0a3.81,3.81,0,0,0,4.68,2.35l.24-.07.09,0,.08,0,.2-.06.12,0c.64-.18,1.27-.37,1.89-.58a1.52,1.52,0,0,0,.2-.06l.09,0,.61-.21.07,0,.2-.07.17-.07.27-.1q.81-.3,1.62-.63l.18-.08c.88-.37,1.75-.77,2.61-1.18l1.24-.61.09,0c1-.52,2-1.09,3-1.69l.08,0,.14-.09.09,0c.81-.51,1.6-1,2.38-1.6l.1-.08c.21-.14.42-.3.62-.45l.23-.17c.55-.43,1.11-.87,1.65-1.32l0,0,.22-.19a3.47,3.47,0,0,0,.29-.25,3.93,3.93,0,0,0,.74-.62l.13-.12.08-.07c.56-.5,1.11-1,1.65-1.52l.07-.07h0l.08-.08.15-.14.1-.1.23-.24a3.77,3.77,0,0,0-.27-5.29,3.61,3.61,0,0,0-2.45-.95,4,4,0,0,0-2.85,1.22Z" transform="translate(-888.46 -815.26)"/><path class="cls-1" d="M1168.19,1221.88a45.75,45.75,0,0,1-4,4,46.46,46.46,0,0,1-4.63,3.38l-.29.19-.4.25c-1,.58-1.94,1.12-2.93,1.63l-.07,0-.7.35a47.74,47.74,0,0,1-6.75,2.45h0c-1.13.31-2.27.57-3.42.79a44.94,44.94,0,0,1-6,.58h-1.75a3.75,3.75,0,0,0,.29,7.5h2.24a49.57,49.57,0,0,0,10.55-1.6l.17,0a51.69,51.69,0,0,0,9.25-3.6l.23-.11,0,0c1-.49,1.91-1,2.84-1.58l.1,0,.18-.11,0,0,.09-.05.09-.06.08,0,.12-.07.15-.1.1-.06.09-.06a50.13,50.13,0,0,0,10-8.52,3.79,3.79,0,0,0-.27-5.3,3.8,3.8,0,0,0-5.3.27Z" transform="translate(-888.46 -815.26)"/><path class="cls-1" d="M1173.75,1217a3.61,3.61,0,0,0-2.64,1.23,45.31,45.31,0,0,1-5.28,6.12,3.76,3.76,0,0,0,2.93,6.27,3.93,3.93,0,0,0,2.64-1.24,46,46,0,0,0,5.28-6.12,4.1,4.1,0,0,0,1-2.66,3.82,3.82,0,0,0-1.23-2.64,3.77,3.77,0,0,0-2.52-1Z" transform="translate(-888.46 -815.26)"/><path class="cls-1" d="M1041.58,1248.3c-1.32,1-2.68,1.94-4.1,2.81l0,0h0c-1.17.7-2.36,1.36-3.58,1.95-1.38.63-2.77,1.18-4.19,1.68h0c-1.2.41-2.41.77-3.64,1.08h0c-.84.2-1.69.38-2.54.54a46,46,0,0,1-10.49.42c-.71-.08-1.41-.17-2.12-.27s-1.19-.19-1.78-.31a3.75,3.75,0,0,0-1.65,7.32c.45.08.89.17,1.34.24h.15l.29,0,.31.05.22,0a48.23,48.23,0,0,0,14,0h.07c1.39-.23,2.77-.49,4.14-.81l.21,0,.08,0,0,0h0q1.66-.42,3.3-1l.16,0a52,52,0,0,0,9.7-4.49l.13-.08c1.43-.88,2.8-1.82,4.13-2.83a4,4,0,0,0,1.61-2.33,3.75,3.75,0,0,0-2.83-4.48,4,4,0,0,0-.85-.09,3.37,3.37,0,0,0-2,.61Z" transform="translate(-888.46 -815.26)"/><path class="cls-1" d="M1028,1226.42c-.57,1.09-1.12,2.18-1.66,3.28a.36.36,0,0,1,0,.09l-.24.51v0l-.3.64,0,0-.07.14c-.06.14-.12.28-.19.41a.36.36,0,0,1,0,.09q-1.17,2.6-2.22,5.25l0,.09c-.08.21-.17.43-.25.65l-.09.23-.15.42v0l0,.08,0,.07c-.16.43-.32.86-.47,1.29a.58.58,0,0,0-.05.14h0c-.49,1.37-1,2.76-1.43,4.15a2.41,2.41,0,0,0-.08.25c0,.14-.09.27-.13.41s-.18.56-.26.85l-.06.18-.17.54,0,.11q-.76,2.58-1.41,5.19h0a1.94,1.94,0,0,0-.05.2c0,.09,0,.18-.07.26v0c-.06.26-.12.53-.19.79v0l0,.12h0l-.09.38-.06.28s0,.06,0,.09-.05.24-.08.36c-.4,1.85-.77,3.71-1.09,5.58a.5.5,0,0,1,0,.12c-.07.44-.15.89-.22,1.34,0,0,0,.07,0,.11l-.12.75,0,.24c-.21,1.48-.4,3-.56,4.46,0,0,0,0,0,.08,0,.22,0,.45-.07.67v.11a1.64,1.64,0,0,0,0,.22l-.06.57a4.33,4.33,0,0,0-.09.89,4.11,4.11,0,0,0-.07.86c-.14,1.79-.25,3.58-.33,5.38a1.28,1.28,0,0,1,0,.19l0,1c0,.16,0,.32,0,.49v.07c0,.39,0,.78,0,1.18v2.65c0,.31,0,.62,0,.92a.31.31,0,0,0,0,.1v.5a.41.41,0,0,1,0,.11c0,.6,0,1.19,0,1.79v.05c0,.11,0,.21,0,.31s0,.3,0,.46v0a1.28,1.28,0,0,1,0,.19c0,.26,0,.51,0,.76s0,.45,0,.68c0,.06,0,.12,0,.18.2,3.14.5,6.27.93,9.39a4,4,0,0,0,1.24,2.64,3.73,3.73,0,0,0,5.29-.27,3.63,3.63,0,0,0,1-2.66q-.71-5.18-1-10.38v-.06c0-.12,0-.23,0-.34v-.11a.49.49,0,0,1,0-.12c0-.17,0-.34,0-.51a.19.19,0,0,0,0-.08c0-.82,0-1.63-.07-2.45v-.09c0-.18,0-.36,0-.54s0-.28,0-.42v-1.86h0v-.06c0-.33,0-.67,0-1V1278c0-.25,0-.51,0-.76V1277c0-.15,0-.29,0-.44l0-.76q.08-2.22.24-4.44a3.82,3.82,0,0,0,.06-.83,3.87,3.87,0,0,0,.08-.9l0-.31v-.11l0-.32q.27-2.55.63-5.07l0-.06c0-.32.09-.63.14-.94s.07-.49.11-.74c0-.09,0-.18,0-.27q.54-3.18,1.23-6.31l0-.08,0-.16c0-.14.07-.29.1-.43l.09-.39c0-.14.07-.29.1-.43h0c0-.1.05-.2.08-.31l.09-.38q.67-2.71,1.48-5.4c0-.1.06-.19.08-.28.17-.55.34-1.1.52-1.65v0c.4-1.25.83-2.49,1.27-3.72.07-.19.13-.37.2-.55s.11-.28.16-.43l0,0c.08-.21.17-.43.25-.65l0-.06a1.19,1.19,0,0,1,.08-.2l.09-.23.07-.19,0-.12c.55-1.37,1.13-2.73,1.73-4.08l0-.06c.06-.15.13-.29.2-.44l0-.06c.17-.4.36-.79.54-1.18l.17-.36.19-.39s0,0,0,0l0,0q.78-1.62,1.62-3.21a3.78,3.78,0,0,0-1.61-5,3.67,3.67,0,0,0-1.69-.42,3.8,3.8,0,0,0-3.36,2Z" transform="translate(-888.46 -815.26)"/><path class="cls-1" d="M1029.18,1224.77a3.8,3.8,0,0,0-1.1,5.19q1.58,2.47,3,5l.17.31c.16.27.31.54.46.82l0,.06.06.1.05.11q1.17,2.1,2.25,4.25a4,4,0,0,0,.35.72l.21.41.08.17a3.66,3.66,0,0,0,.4.82l.09.2.42.91v0l.12.26c.18.4.36.8.53,1.21l0,.07c.47,1.09.94,2.19,1.38,3.3,0,.11.09.21.13.32s.11.26.16.4h0l.33.84q1,2.51,1.81,5l.15.44c.07.2.13.4.2.6a2.25,2.25,0,0,0,.08.24.24.24,0,0,0,0,.08l.28.88c0,.09.06.18.08.26.51,1.64,1,3.28,1.41,4.94v0c0,.09,0,.19.07.28l0,.15c0,.09,0,.18.07.28.1.39.19.78.29,1.17l.23.95h0c.31,1.32.59,2.64.86,4a3.22,3.22,0,0,0,.12.69,3.66,3.66,0,0,0,.16.8l.06.31v0l0,.15,0,.2q.43,2.63.75,5.25l0,.29c0,.29.07.58.1.88h0l.15,1.43c0,.52.09,1,.13,1.56a3.75,3.75,0,0,0,7.5-.29c0-.49-.08-1-.13-1.45v0l0-.37s0-.1,0-.15c-.06-.54-.11-1.09-.17-1.63,0,0,0-.08,0-.12h0c0-.16,0-.32,0-.48a.77.77,0,0,1,0-.15s0-.08,0-.12c-.18-1.46-.39-2.92-.62-4.38,0,0,0-.06,0-.1l0-.23-.09-.51,0-.17c0-.09,0-.17,0-.26l-.06-.34a3.84,3.84,0,0,0-.14-.88,4.11,4.11,0,0,0-.16-.85l-.09-.48,0-.11q-.48-2.5-1.06-5l0-.11,0-.17c0-.07,0-.13,0-.19l-.15-.62,0,0h0l0-.09a3.59,3.59,0,0,1-.08-.35,2.81,2.81,0,0,1-.08-.31l0-.09a2.86,2.86,0,0,0-.07-.28c0-.1-.05-.19-.07-.29l0-.07c-.47-1.78-1-3.55-1.52-5.3l0-.1-.21-.66,0-.09c-.06-.2-.13-.41-.2-.61,0,0,0-.06,0-.08l0,0v0l0-.07c-.06-.19-.12-.39-.19-.58a.78.78,0,0,0,0-.14c-.49-1.46-1-2.92-1.57-4.37l0-.1s0-.08,0-.12l-.23-.57,0-.06-.1-.25v0l-.18-.44v0l0-.1c0-.14-.11-.28-.17-.42l0-.12c-.51-1.25-1-2.5-1.59-3.73,0-.06,0-.12-.08-.17s-.09-.21-.14-.31a2.56,2.56,0,0,0-.11-.24l0,0-.24-.54,0-.06-.44-1a4.05,4.05,0,0,0-.43-.92l-.12-.23c0-.1-.09-.2-.14-.3v0l0-.05a4.23,4.23,0,0,0-.41-.86l-.22-.45a.31.31,0,0,1,0-.1q-1.08-2.18-2.25-4.31a1.09,1.09,0,0,0-.08-.15l-.16-.29-.51-.93,0,0-.14-.25-.29-.5-.06-.11c-.93-1.59-1.88-3.17-2.87-4.72a3.8,3.8,0,0,0-5.19-1.1Z" transform="translate(-888.46 -815.26)"/><path class="cls-1" d="M1094,1201.91a3.59,3.59,0,0,0-2.2,1.85c-.58,1.48-1.14,3-1.66,4.47,0,.09-.07.19-.1.28a87.92,87.92,0,0,0-3.26,12.34l0,.16c0,.13,0,.27-.07.41v.06l0,.07a83.69,83.69,0,0,0-.63,24.73,81.17,81.17,0,0,0,2.77,13.1,83.27,83.27,0,0,0,4.3,11.06,3.7,3.7,0,0,0,.44.92l0,.07.08.17,0,.07q1.25,2.53,2.66,5l.1.18c1.25,2.12,2.59,4.17,4,6.17a.44.44,0,0,1,.08.11c.09.11.17.22.25.34l.06.08c1.11,1.49,2.26,2.93,3.45,4.35a3.85,3.85,0,0,0,.64.76c.08.09.15.18.23.26l.07.08c1.34,1.54,2.73,3,4.18,4.48l.13.14.34.33.14.13h0l.36.35.08.07,0,0h0l.16.15,0,0h0l0,0,.19.17,0,0,.06.06.09.08.13.12q1.63,1.51,3.35,3a3.75,3.75,0,1,0,5-5.57c-1.22-1-2.41-2.08-3.57-3.16l0,0-.46-.44,0,0h0l-.08-.07-.4-.39,0,0q-2.2-2.14-4.23-4.46a4.6,4.6,0,0,0-.55-.63q-1.62-1.93-3.12-4l0,0c-1.55-2.13-3-4.31-4.32-6.57q-1.29-2.22-2.45-4.52a3.27,3.27,0,0,0-.37-.75l-.07-.15-.08-.18a78.23,78.23,0,0,1-5.87-18.53,79.11,79.11,0,0,1-.77-19.32c.22-2.24.53-4.46.93-6.68v0a89,89,0,0,1,3.2-12.23c.14-.4.28-.8.43-1.2.25-.66.5-1.33.76-2a4,4,0,0,0,.25-2.86,3.8,3.8,0,0,0-1.85-2.2,3.86,3.86,0,0,0-1.73-.41,3.65,3.65,0,0,0-1.13.17Z" transform="translate(-888.46 -815.26)"/><path class="cls-1" d="M907.52,1024.59a3.77,3.77,0,0,0-2.39,1.49,3.71,3.71,0,0,0-.66,2.84,50.4,50.4,0,0,1,.94,5c.26,1.69.46,3.4.56,5.11,0,1.31-.08,2.62-.19,3.93-.09,1-.15,2.06-.32,3.07a7.88,7.88,0,0,1-.33.85,9.79,9.79,0,0,1-.71,1.06,7.57,7.57,0,0,1-.77.63,6.81,6.81,0,0,1-.92.41,7.52,7.52,0,0,1-.91.22l-.62-.2a20.44,20.44,0,0,0-2.32-.65,7.24,7.24,0,0,0-4.43.41c-2.05.89-3.4,2.85-4.38,4.78a17.68,17.68,0,0,0-1.39,4.52,8.73,8.73,0,0,0-.21,2,11.8,11.8,0,0,0,.09,1.78,13.69,13.69,0,0,0,.6,2.17,9.3,9.3,0,0,0,3,4.34,7.16,7.16,0,0,0,3.35,1.33c.48.08,1,.11,1.44.17l.08,0,.34.25a7.9,7.9,0,0,1,.63.8,6.31,6.31,0,0,1,.33.75c0,.16.08.33.11.49,0,.52-.08,1-.13,1.56-.09,1-.19,2-.29,3-.12,1.21-.26,2.43-.32,3.64a35.4,35.4,0,0,0,0,3.57c0,.78.06,1.56.16,2.34a15,15,0,0,0,.48,2,15.64,15.64,0,0,0,2.55,5.39c.32.42.68.81,1,1.2a3.81,3.81,0,0,0,5.28.52,3.77,3.77,0,0,0,.51-5.28,17.75,17.75,0,0,1-1.24-1.51,11.45,11.45,0,0,1-.79-1.79,15.71,15.71,0,0,1-.43-1.8,17.13,17.13,0,0,1-.15-2.15,58,58,0,0,1,.42-6.18c.09-.93.19-1.86.27-2.79a10.35,10.35,0,0,0-3-8.86,8.81,8.81,0,0,0-3.2-2.18,12.92,12.92,0,0,0-3.07-.59l0,0a8.73,8.73,0,0,1-.49-1.08,5.94,5.94,0,0,1-.14-.71,13.59,13.59,0,0,1,.31-2.19,10.85,10.85,0,0,1,.66-1.75,9,9,0,0,1,.6-.84l.23,0c.3.09.6.2.89.31a22,22,0,0,0,2.22.59,7,7,0,0,0,3.37-.34,13.28,13.28,0,0,0,2.46-.86,11.49,11.49,0,0,0,2.14-1.38,11.12,11.12,0,0,0,2-2.23,11.81,11.81,0,0,0,1.64-3.27,28.05,28.05,0,0,0,.82-5.92,55.51,55.51,0,0,0-1.47-15,3.92,3.92,0,0,0-1.5-2.4,3.77,3.77,0,0,0-2.2-.71,3.55,3.55,0,0,0-.64.06Z" transform="translate(-888.46 -815.26)"/><path class="cls-1" d="M938.15,941q-1.27,6.79-2,13.66s0,.06,0,.09c0,.23-.05.47-.08.7a.49.49,0,0,1,0,.12c0,.15,0,.31,0,.47s0,.07,0,.1l-.12,1.22a.41.41,0,0,1,0,.11q-.39,4.26-.6,8.54a3.75,3.75,0,0,0,0,.95c0,.4,0,.81,0,1.21v0a.91.91,0,0,0,0,.17c0,.18,0,.37,0,.55v.16h0c0,.67,0,1.34-.05,2v.11l0,.53a.31.31,0,0,0,0,.1q-.09,5.34.14,10.66v.11c0,.12,0,.23,0,.34s0,.26,0,.39v.18c0,.25,0,.51,0,.77s0,.51,0,.77a.41.41,0,0,1,0,.11c0,.55.07,1.09.11,1.64v.11l.06.88v0q.12,1.65.27,3.3s0,.07,0,.1c.14,1.44.29,2.87.45,4.31v0c0,.24,0,.48.08.72,0,0,0,.09,0,.13.08.66.16,1.31.25,2,0,0,0,0,0,.07,0,.24.06.48.1.72v.06c0,.18,0,.36.07.54s0,.08,0,.12,0,.3.07.45l.12.81,0,.18q.64,4.22,1.47,8.4s0,.07,0,.1l.27,1.31,0,.17c.09.41.17.81.26,1.21,0,.13.05.25.08.38l0,.18c0,.18.08.35.11.53l0,0,.09.41a3.85,3.85,0,0,0,.2.94l.06.26c0,.19.09.38.13.58l0,.1c.74,3.16,1.55,6.31,2.46,9.42l0,.1a1.09,1.09,0,0,0,.05.17.93.93,0,0,0,0,.13,3.75,3.75,0,0,0,6.9.36,3.9,3.9,0,0,0,.15-2.91v-.05l0-.09-.09-.32,0-.09c-.82-2.83-1.56-5.69-2.24-8.55a4.43,4.43,0,0,0-.19-.78c-.06-.29-.13-.58-.2-.88v0l-.09-.44a3.72,3.72,0,0,0-.21-.92l-.06-.29c-.07-.32-.13-.64-.2-1q-1-5.24-1.81-10.51l0-.07c0-.24-.06-.48-.1-.72l0-.24c-.13-1-.26-2-.38-3q-.22-2-.42-3.93v0c-.15-1.58-.28-3.15-.4-4.73-.07-1-.13-2.07-.19-3.12,0-.32,0-.65-.05-1,0-.13,0-.26,0-.39-.15-3.63-.2-7.27-.15-10.9v-.44l.06-2.3h0v-.06a3.94,3.94,0,0,0,0-.84l0-.69v-.17c0-.67.06-1.34.1-2q.18-3,.47-6.06c.06-.66.13-1.32.2-2q.76-7.18,2.11-14.28a3.78,3.78,0,0,0-3-4.39,3.33,3.33,0,0,0-.7-.07,3.79,3.79,0,0,0-3.7,3Z" transform="translate(-888.46 -815.26)"/><path class="cls-1" d="M1050,816.3l-.92.05H1049l-.49,0H1048l-.61,0h-.15l-1.66.11-.24,0a143.4,143.4,0,0,0-28.75,5.34A150.4,150.4,0,0,0,988,833.82a158.76,158.76,0,0,0-48.2,40.52,163,163,0,0,0-29,55.11A153.6,153.6,0,0,0,905,960.93a143.06,143.06,0,0,0,1.29,33.14,129.91,129.91,0,0,0,4.26,18.56,3.75,3.75,0,0,0,7.23-2,135.33,135.33,0,0,1-4.59-20.79,143.81,143.81,0,0,1,.09-36.38,153.86,153.86,0,0,1,10.36-37.72A162.25,162.25,0,0,1,944,881a160.42,160.42,0,0,1,27.64-27.66,152.68,152.68,0,0,1,32.41-19,141.61,141.61,0,0,1,34.92-9.61q3.49-.43,7-.71h.1l1.89-.13.75,0,1.33-.07a3.75,3.75,0,0,0,.15-7.5ZM972.15,853l-.28.22.28-.22ZM944,881.06l-.53.67.53-.67Zm-20.4,34.81c-.08.18-.15.36-.23.53l.23-.53Z" transform="translate(-888.46 -815.26)"/><path class="cls-1" d="M1014.06,1148.54c-.67,1-1.26,2-1.93,2.92s-1.49,2-2.3,2.92l-.09.1c-1,1-1.9,2.12-2.85,3.19a44.22,44.22,0,0,1-3.95,3.66c-.74.6-1.49,1.18-2.23,1.79s-1.68,1.49-2.55,2.2-1.71,1.31-2.58,2-1.72,1.32-2.59,2c-2,1.43-3.83,2.94-5.83,4.3-1.15.73-2.29,1.48-3.38,2.29s-2.35,1.82-3.47,2.79c-1.37,1.2-2.73,2.41-4.1,3.6a46.44,46.44,0,0,0-4,4.09c-1,1.09-1.86,2.26-2.77,3.39a41.55,41.55,0,0,0-2.53,3.36,49.4,49.4,0,0,0-4.85,9,33.42,33.42,0,0,0-2.25,9.75,43.63,43.63,0,0,0,.2,8.16c.26,2.24.61,4.47.92,6.7a39.1,39.1,0,0,0,.79,4.16,45.14,45.14,0,0,0,1.83,5.28,84.76,84.76,0,0,0,4,8.7c.75,1.41,1.51,2.81,2.22,4.24s1.41,3.12,2.17,4.65c1.41,2.85,3.21,5.5,4.33,8.49.55,1.45,1,2.93,1.51,4.39s1.07,2.79,1.57,4.21a44.88,44.88,0,0,1,1.14,5.51c.26,1.58.43,3.17.57,4.76.07,2.1,0,4.24-.15,6.33a44.11,44.11,0,0,1-.85,5.93A45.67,45.67,0,0,1,977,1303a49.87,49.87,0,0,1-6.31,9.49,29,29,0,0,1-4.36,3.77,28.32,28.32,0,0,1-4.53,2.21c-.47.12-.95.21-1.42.34-.66.17-1.31.39-2,.61-1.93.57-3.86,1.09-5.83,1.53-.79.18-1.6.3-2.4.46-.62.13-1.23.28-1.86.36-1.06,0-2.12,0-3.18,0a28.83,28.83,0,0,1-3.22-.19c-1.42-.33-2.82-.69-4.25-1l.53.11c-.89-.19-1.74-.52-2.62-.78-.72-.21-1.53-.31-2.24-.59s-1.42-.87-2.16-1.27l-.11-.07a3.74,3.74,0,0,0-6.46,3.72,7.08,7.08,0,0,0,1.77,2.15,5.06,5.06,0,0,0,1.33.78l1.13.7c.56.32,1.08.61,1.66.91a4.55,4.55,0,0,0,1.08.35c.91.24,1.81.5,2.71.79a24.07,24.07,0,0,0,2.79.66,30.42,30.42,0,0,0,5.82,1.14,53.88,53.88,0,0,0,6.48,0,20.13,20.13,0,0,0,2.32-.42c.89-.18,1.78-.3,2.66-.52l3.11-.74c1.22-.3,2.41-.71,3.6-1.11s2.5-.61,3.72-1.06a30.75,30.75,0,0,0,3.11-1.39,28.74,28.74,0,0,0,6.72-4.81,35.55,35.55,0,0,0,5.1-6c.85-1.27,1.61-2.57,2.37-3.89a48.14,48.14,0,0,0,2.45-4.73,51.43,51.43,0,0,0,3-10.18c.35-1.68.64-3.37.83-5.08s.21-3.25.24-4.88a46.21,46.21,0,0,0-.17-5.52c-.16-1.54-.35-3.06-.6-4.58a36,36,0,0,0-1.06-5c-.6-1.89-1.32-3.73-2-5.59-.51-1.37-.94-2.79-1.43-4.17a28.82,28.82,0,0,0-1.83-4.09c-.79-1.47-1.65-2.9-2.41-4.38s-1.32-2.91-2-4.34c-1.4-2.85-3-5.61-4.36-8.47a82.64,82.64,0,0,1-3.41-8.19,59.05,59.05,0,0,1-1.29-7c-.3-1.91-.57-3.84-.72-5.76a36.1,36.1,0,0,1,.38-7.91,34.13,34.13,0,0,1,2.48-7.14,58.6,58.6,0,0,1,4-6.34c.67-.94,1.45-1.81,2.17-2.72s1.48-1.83,2.26-2.72c2-2.14,4.26-4,6.46-6a53.82,53.82,0,0,1,5.64-4.34c1.31-.84,2.58-1.73,3.84-2.64s2.22-1.71,3.36-2.54,2-1.53,3-2.26,2.27-1.72,3.35-2.66c1.78-1.55,3.66-3,5.44-4.57a59,59,0,0,0,4.72-5l.81-.88-.27.3.43-.47.23-.25-.21.23a37.37,37.37,0,0,0,2.71-3.32c.76-1.06,1.42-2.17,2.16-3.23a3.78,3.78,0,0,0-.94-5.22,3.73,3.73,0,0,0-2.11-.66,3.79,3.79,0,0,0-3.11,1.6Zm.78,11.36-.18.2.18-.2Zm-34.82,134c0,.1,0,.2-.07.3,0-.1,0-.2.07-.3Z" transform="translate(-888.46 -815.26)"/><path class="cls-2" d="M1067.54,815.81h-2.84a3.89,3.89,0,0,0-1.82.51,1.32,1.32,0,0,0-.63-.29,3.91,3.91,0,0,0-1-.16,3.94,3.94,0,0,0-3.71,2.83,3.77,3.77,0,0,0-.17,1c0,.16,0,.33,0,.49a3.25,3.25,0,0,0,.53,1.45l.09.12.07.1.18.25.06.08.08.12.08.1.52.75.18.26.11.16c.79,1.16,1.57,2.34,2.31,3.5,1.54,2.5,3,5,4.23,7.27l.13.26.11.2.53,1,.56,1.11.07.12.12.27.13.25c.8,1.64,1.61,3.4,2.42,5.22l.1.2.19.44.18.44q.33.77.63,1.53l0,.13.06.15.07.16c1.28,3.26,2.47,6.63,3.53,10,.72,2.39,1.39,4.79,2,7.13l.15.62.16.61.07.32.06.24c.13.54.25,1,.36,1.56.5,2.23.94,4.42,1.35,6.7l.06.13v.2c.19,1.13.36,2.2.54,3.28s.3,2,.43,3c.3,2.19.55,4.49.75,6.83.26,2.79.45,5.91.56,9.27a.45.45,0,0,0,0,.11,185.06,185.06,0,0,1-1.53,29.85c-.11.82-.22,1.63-.35,2.43l0,.14,0,.16a202.61,202.61,0,0,1-13.41,47.4,207.59,207.59,0,0,1-11.84,23.4l-.22,0c-2,.49-3.77,1-5.41,1.58l-.12,0-.1,0-.15.06-.21.07-.84.29c-1.65.59-3.08,1.14-4.25,1.65a2.53,2.53,0,0,0-.7.29c-1.77.74-3.59,1.6-5.39,2.55l-.16.09c-1.77.91-3.39,1.83-4.83,2.74l-.14.08-1,.61-.26.16-.26.17-.11.08a82,82,0,0,0-11.22,8.8c-1.53,1.43-3.1,3-4.67,4.8l-1.31,1.5-.22.26-.11.14c-.91,1.12-1.77,2.2-2.55,3.21l-1,1.31a76.2,76.2,0,0,0-10.69,20.43,79.34,79.34,0,0,0,1,55.27,78.31,78.31,0,0,0,6.48,13,80.46,80.46,0,0,0,7.47,10.19,79.76,79.76,0,0,0,47,26.51,83.61,83.61,0,0,0,13.3,1.13,85,85,0,0,0,13.42-1.16,78.44,78.44,0,0,0,26.46-9.56,80.5,80.5,0,0,0,16.54-12.69l.12-.13a83.22,83.22,0,0,0,11.28-14.31,78.66,78.66,0,0,0,7.3-15.2,80.13,80.13,0,0,0,4.14-18,78.72,78.72,0,0,0,0-17l0-.24c-.19-1.55-.4-3.07-.61-4.52l0-.23c-.09-.56-.18-1.08-.28-1.61l0-.11,0-.26a82.53,82.53,0,0,0-2.56-9.71l0-.11c-.41-1.27-.91-2.64-1.49-4.06l.37-.54.11-.18.16-.25.14-.25c1.53-2.47,3-4.89,4.29-7.17l.1-.18.3-.52c.15-.24.29-.5.43-.75l.14-.24.13-.23.06-.1.43-.74.23-.41.11-.2.08-.14.07-.13,0-.1c.06-.09.11-.19.16-.28l.07-.14c.6-1.05,1.14-2,1.67-3l0-.1.17-.3.17-.31.06-.11.16-.29.06-.11.07-.13c.3-.54.59-1.08.88-1.63l.35-.65.8-1.52.06-.12c1.54-2.92,2.89-5.57,4-7.87l.31-.62.1-.21c.44-.88.87-1.77,1.3-2.66l.1-.2.09-.2a340,340,0,0,0,17.87-45.63l.29-.91.28-.92.1-.31.15-.51c1.3-4.3,2.49-8.56,3.54-12.64l0-.11.2-.78.06-.27c.36-1.4.7-2.77,1-4.13,1.55-5.23,2.93-10.69,4.12-16.24.61-2.9,1.18-5.95,1.7-9.07s.92-6,1.24-8.58a4.53,4.53,0,0,0,.1-.85c.43-3.74.75-7.29,1-10.55v-.1a.32.32,0,0,0,0-.12c.07-1.14.13-2.27.18-3.4v-.15c.09-2.87.14-5.12.13-6.89v-1c.11-2,.21-4,.29-6.11l0-.41.06-1.71v-.2c0-.13,0-.26,0-.39v-.65c0-1.54.08-3,.1-4.42v-5.75c0-.25,0-.52,0-.77V869.7a3,3,0,0,0,0-.34c0-.18,0-.35,0-.52a3.77,3.77,0,0,0-1.76-2.69l-.84-.79c-1.47-1.35-3.19-2.86-5.1-4.5l-.75-.62-.34-.28-.3-.26L1188,859l-.11-.09-1-.8-.21-.17c-2.32-1.86-4.79-3.76-7.33-5.64l-.13-.07-.08-.08-.46-.33-.44-.32-.14-.11-.57-.39-.34-.23-2.2-1.55-.09-.06c-2.55-1.77-5.09-3.44-7.55-5l-.13-.08-.14-.08-.85-.53-.1,0c-.29-.19-.59-.37-.88-.54l-.46-.27-.66-.4-.39-.24-.85-.49a1.29,1.29,0,0,0-.16-.09c-2.6-1.52-5.21-3-7.77-4.28l-.1-.05-1.1-.57-.15-.06c-.4-.22-.8-.42-1.21-.62l-.11-.06-.48-.24-.47-.23-.15-.06-.14-.08-1.19-.58-.16-.07c-2.22-1.08-4.8-2.25-7.9-3.57a3.08,3.08,0,0,0-.91-.4l-.5-.2-.5-.21-.11-.05-.83-.33-.58-.24-.17-.06-.16-.07-.17-.07-.17-.07-.22-.09-.11-.05-.1,0-.22-.09-.1,0-.09,0-.38-.15-.61-.24-.12,0c-2.69-1.06-5.48-2.07-8.3-3l-.16-.06-1.17-.39-2-.62-.23-.07-.39-.12-.37-.12c-3.56-1.1-7.36-2.14-11.28-3.08l-.17-.06-.31-.07-.36-.08-.33-.08-.3-.07-.1,0-.55-.13-.72-.16-.12,0-.42-.1-.7-.15c-3.25-.68-6.51-1.29-9.7-1.82l-.22,0-.13,0-.13,0-.42-.06-.89-.13L1096,818h-.11l-.14,0-.28,0-.29,0-.29,0-.25,0-.13,0-.14,0h-.1l-2-.27-.18,0h-.13c-3.78-.46-6.72-.77-9-1l-.15,0-.48,0-.19,0-.45,0h-.15l-.17,0h-.12l-.44,0-.45,0h-.24l-.14,0h-.19l-.66,0-.67,0h-.13l-.18,0h-.2l-.63,0h-.15l-.29,0h-.41l-1.17-.06h-.13l-.44,0-.65,0h-1.29l-.42,0h-1.73l-1.49,0h-1.55Z" transform="translate(-888.46 -815.26)"/><path class="cls-1" d="M1204.71,875a3.89,3.89,0,0,0-2.71,1.09,3.64,3.64,0,0,0-1.07,2.56,4,4,0,0,0,1.07,2.75q3.57,3.84,6.92,7.89a3.62,3.62,0,0,0,2.65,1.09,3.8,3.8,0,0,0,2.66-1.09,3.76,3.76,0,0,0,1.09-2.66,4,4,0,0,0-1.09-2.65q-2.88-3.47-5.92-6.8l0,0-.06-.07-.12-.13-.12-.13-.68-.74a3.51,3.51,0,0,0-2.6-1.09Z" transform="translate(-888.46 -815.26)"/><path class="cls-1" d="M1207,881.64a3.76,3.76,0,0,0-1.1,2.65,3.92,3.92,0,0,0,1.1,2.65q2.74,3.24,5.36,6.58a177.86,177.86,0,0,1-.1,217.71q-3.62,4.63-7.49,9l0,0,0,0a186.1,186.1,0,0,1-18.62,18.21l-2.07,1.73-.23.18q-1.87,1.53-3.78,3c-1.1.84-2.21,1.67-3.33,2.48l-1.25.91-.07.05-.06,0-2.32,1.63a4,4,0,0,0-1.72,2.24,3.76,3.76,0,0,0,5.51,4.24l1.1-.77.07,0,1-.72.1-.07.06,0,.72-.52.09-.06.29-.21.06,0c.16-.13.33-.25.5-.37l.22-.16.19-.15q4-3,7.93-6.15l.29-.24.08-.07,1.53-1.27.19-.16.55-.46h0a186.29,186.29,0,0,0,18.28-17.92l.1-.12a193.69,193.69,0,0,0,19.88-26.91,187.06,187.06,0,0,0,14.77-30.19,184.17,184.17,0,0,0,12.11-65.21,185,185,0,0,0-44.59-121.55,3.66,3.66,0,0,0-2.65-1.1,3.76,3.76,0,0,0-2.65,1.1Zm28.58,189.69a2.55,2.55,0,0,0-.13.29,2.55,2.55,0,0,1,.13-.29Z" transform="translate(-888.46 -815.26)"/><path class="cls-2" d="M1071.24,815.26h-1.73c-1.35,0-2.69.08-4,.15h-.55l-.27,0H1064l-.34,0a3.94,3.94,0,0,0-2.68,1.12,3.75,3.75,0,0,0,2.65,6.38l.47,0h.31l1.27-.07h.09c1.73-.09,3.46-.14,5.19-.16h2.64a3.75,3.75,0,1,0,0-7.5h-2.39Z" transform="translate(-888.46 -815.26)"/><path class="cls-2" d="M1068.86,815.3c-1,0-2,.06-3,.11h-.1l-.44,0h-.34l-.49,0h-.3l-3.09.24a4,4,0,0,0-2.69,1.12,3.77,3.77,0,0,0-1.07,2.62,3.71,3.71,0,0,0,1.12,2.68,3.59,3.59,0,0,0,2.61,1.08c1.24-.11,2.47-.2,3.71-.28l.77,0c1.11-.06,2.22-.1,3.33-.13a3.76,3.76,0,0,0,.12-7.51Z" transform="translate(-888.46 -815.26)"/><path class="cls-2" d="M1072.1,815.26h-1.56c-1.57,0-3.14.07-4.7.14h-.13l-.47,0-.21,0h-.1l-.58,0h-.2c-1,.07-2.07.15-3.1.24a4,4,0,0,0-2.69,1.12,3.77,3.77,0,0,0,.05,5.31,3.62,3.62,0,0,0,2.61,1.07c1-.08,1.92-.16,2.88-.22l.55,0,.45,0h.1l.68,0h0c1.83-.09,3.66-.14,5.49-.16H1073c1.93,0,3.87.08,5.8.18l1.38.08.88.06h.08q3,.23,5.93.57a3.59,3.59,0,0,0,.81.09l.32,0h0l.63.08q3.77.52,7.49,1.24h0c1.1.22,2.2.45,3.29.69a3.83,3.83,0,0,0,4.6-2.65,3.78,3.78,0,0,0-2.65-4.6l-.83-.18-.17,0c-.91-.2-1.83-.38-2.75-.56l-.15,0q-3.39-.64-6.8-1.12h-.09l-1.69-.23a3.59,3.59,0,0,0-.93-.12h-.11l-.2,0h-.07c-2.17-.26-4.33-.47-6.51-.64h-.28l-1-.06H1080l-.61,0h-.12l-.4,0h-.17c-1.72-.08-3.43-.14-5.14-.16h-1.46Zm16.28,8.55.16,0h.06l-.22,0Z" transform="translate(-888.46 -815.26)"/><path class="cls-2" d="M1073.08,819.09a3.79,3.79,0,0,0,3.73,3.76c1,0,2.08.1,3.12.16l1.69.12h.05c2,.15,3.94.35,5.9.58a4,4,0,0,0,.85.11l.57.07q3.43.48,6.84,1.13h.06q4.17.81,8.29,1.84l.33.09,1.06.28h.07c2.07.56,4.12,1.15,6.16,1.79q6,1.89,11.85,4.27l.69.29.41.17.89.37a3.83,3.83,0,0,0,2,0,3.75,3.75,0,0,0,2.63-4.6,3.56,3.56,0,0,0-1.75-2.27l-.26-.11,0,0-.07,0-.21-.09-.49-.2-.38-.16h0c-4.16-1.73-8.38-3.3-12.67-4.67l-.1,0-.22-.07-.24-.07h0q-3.33-1-6.71-1.93l-.15,0-.1,0-.09,0-.62-.15q-3.78-1-7.6-1.71l-.13,0-.13,0q-3.63-.69-7.29-1.21h0l-.33,0-.24,0-.27,0a3.81,3.81,0,0,0-1-.12l-.51-.07q-3.33-.42-6.66-.68l-.21,0-1.43-.1-.2,0-3.24-.16h-.13a3.79,3.79,0,0,0-3.63,3.74Z" transform="translate(-888.46 -815.26)"/><path class="cls-2" d="M1106.28,823.56a3.81,3.81,0,0,0,2.64,4.61c1.12.32,2.24.66,3.35,1l0,0,1.28.41.12,0q5.12,1.7,10.1,3.73,5.15,2.16,10.13,4.69a3.75,3.75,0,1,0,3.73-6.5,157.61,157.61,0,0,0-21.6-9l-.17,0-.5-.17-.17-.05-.17-.06-.28-.09-.72-.23-.57-.18-.1,0-2.52-.76a3.61,3.61,0,0,0-1-.14,3.83,3.83,0,0,0-3.63,2.78Zm17.79,9.92.34.14-.34-.14Z" transform="translate(-888.46 -815.26)"/><path class="cls-2" d="M1112.15,825.41a3.72,3.72,0,0,0,.39,2.88,4,4,0,0,0,2.25,1.72q4.59,1.56,9.08,3.39a150.61,150.61,0,0,1,14.3,6.92,3.75,3.75,0,1,0,3.73-6.51,156.3,156.3,0,0,0-25.15-11,3.11,3.11,0,0,0-1-.16,3.9,3.9,0,0,0-3.61,2.81Z" transform="translate(-888.46 -815.26)"/><path class="cls-2" d="M1125,826.64a3.73,3.73,0,0,0-2.64,4.6,3.56,3.56,0,0,0,1.75,2.27,148.75,148.75,0,0,1,19.23,9.83l.07,0h0l.08,0,.08.05.49.3a3.75,3.75,0,1,0,3.73-6.51l-.18-.11-.27-.17-.09,0h0l-.13-.08-.09-.06-.24-.14,0,0a149.71,149.71,0,0,0-18.89-9.62l-.88-.36a3.72,3.72,0,0,0-1-.13,3.62,3.62,0,0,0-1,.13Z" transform="translate(-888.46 -815.26)"/><path class="cls-2" d="M1128.38,828.11a3.73,3.73,0,0,0-2.27,1.75,3.78,3.78,0,0,0-.36,2.85,3.61,3.61,0,0,0,1.75,2.27,148.23,148.23,0,0,1,17.06,9.09l.25.16a3.76,3.76,0,0,0,5-1.12c.06-.09.12-.18.17-.27a3.61,3.61,0,0,0,.49-1.77,3.91,3.91,0,0,0-1.88-3.34l-.26-.17-.07,0a147.69,147.69,0,0,0-17-9,4.71,4.71,0,0,0-1.93-.49,3.4,3.4,0,0,0-.92.13Z" transform="translate(-888.46 -815.26)"/></svg>