<svg xmlns="http://www.w3.org/2000/svg" viewBox="0 0 441.69 511.36"><defs><style>.cls-1{fill:#666b68;}</style></defs><title>sachiko-draw-icon</title><g id="描画レイヤー"><path class="cls-1" d="M976.53,993a3.65,3.65,0,0,0-1,2.47c-.1,1.79-.2,3.57-.41,5.35a25.3,25.3,0,0,1-1.36,5.05,76.78,76.78,0,0,1-4.57,8.65c-1.82,3-3.47,6.09-5.56,8.9-2.07,2.6-4.3,5.07-6.54,7.53s-4.68,5.2-7.09,7.76c-1.14,1.21-2.3,2.41-3.37,3.69s-2.31,2.81-3.52,4.18c-2.37,2.7-4.77,5.38-7.17,8.06-1.62,1.8-3.3,3.55-4.85,5.4-1.81,2.16-3.63,4.29-5.34,6.52.18-.23.36-.47.55-.7-1.09,1.38-2.12,2.79-3.09,4.25s-1.64,2.71-2.48,4a55.84,55.84,0,0,0-4.33,8.47c.07-.18.15-.35.22-.53-1.34,3.17-2.5,6.38-3.68,9.61a37.27,37.27,0,0,0-1.73,11.16c-.16,3.5-.21,7-.23,10.5a48.37,48.37,0,0,0,.13,5.11,56.57,56.57,0,0,0,.83,6,38.63,38.63,0,0,0,1.44,5.26q.84,2.37,1.73,4.73c1.31,3.51,2.62,7,4.21,10.4a43.31,43.31,0,0,0,5.91,9.58,47.78,47.78,0,0,0,3.5,3.76c1.24,1.18,2.55,2.29,3.87,3.37a36.52,36.52,0,0,0,4.27,3.06,3.5,3.5,0,0,0,3.54-6c-.92-.56-1.8-1.18-2.67-1.82a51.58,51.58,0,0,1-8-7.83,53.89,53.89,0,0,1-3.26-5.41,56.51,56.51,0,0,1-2.47-5.29c-1.11-2.86-2.16-5.74-3.23-8.62-.55-1.47-1.08-3-1.49-4.46a44,44,0,0,1-.94-4.39,50.48,50.48,0,0,1-.37-5.21c0-1.9,0-3.81,0-5.71.06-3.88.14-7.77.54-11.63a29.87,29.87,0,0,1,.61-3c.3-1.16.76-2.28,1.17-3.4.76-2.06,1.49-4.13,2.32-6.16l.57-1.37a55.25,55.25,0,0,1,3.55-6.61c1.42-2.25,2.75-4.55,4.32-6.69l.76-1c4.4-5.49,9.21-10.62,13.9-15.85,2.4-2.67,4.61-5.5,7-8.17,1.12-1.25,2.3-2.46,3.45-3.69s2.46-2.7,3.7-4q3.52-3.83,6.92-7.76a51.44,51.44,0,0,0,3.5-4.42c1-1.44,1.87-3,2.77-4.48,1.78-3,3.71-6,5.26-9.1q1.24-2.49,2.28-5.07a21.49,21.49,0,0,0,1.23-4.66c.38-2.42.53-4.86.67-7.31a3.49,3.49,0,0,0-6-2.47Z" transform="translate(-886.98 -816.03)"/><path class="cls-1" d="M1016.71,1145.79a3.78,3.78,0,0,0-1.61,2.09c-.11.29-.23.57-.35.85a22.1,22.1,0,0,1-2,3.84,55,55,0,0,1-4.32,4.18c-1.84,1.74-3.76,3.4-5.73,5a78.82,78.82,0,0,1-7.25,4.91c-1.45.86-3,1.58-4.48,2.36s-2.9,1.61-4.36,2.4a83.28,83.28,0,0,0-8.5,5.12,31.15,31.15,0,0,0-4.57,3.77c-1.1,1.16-2.07,2.44-3.1,3.66s-2.18,2.54-3.21,3.86a40.76,40.76,0,0,0-3.16,4.64c-1.61,2.74-3.27,5.46-4.68,8.31a98.06,98.06,0,0,0-3.81,9.12,27.3,27.3,0,0,0-1.47,5,52.35,52.35,0,0,0-.66,5.85,34.05,34.05,0,0,0,0,5,39.39,39.39,0,0,0,.92,5.82,59.68,59.68,0,0,0,3.84,10.22c.68,1.49,1.37,3,2.06,4.46.32.69.62,1.38,1,2.06.41.87.89,1.68,1.37,2.5.88,1.49,1.82,2.94,2.73,4.41.77,1.27,1.49,2.58,2.27,3.85,1.11,1.79,2.43,3.43,3.55,5.21a39.76,39.76,0,0,1,2.5,4.69c.76,1.83,1.51,3.67,2.21,5.52a31.32,31.32,0,0,1,1.58,5.86c.25,2.24.36,4.49.41,6.75a51.42,51.42,0,0,1-.21,6.68,25.87,25.87,0,0,1-1.36,5.13,36.34,36.34,0,0,1-2.52,4.19c-.78,1.2-1.61,2.38-2.47,3.53a23.89,23.89,0,0,1-3.42,3.4c-1.43,1-2.9,2-4.38,3a35.31,35.31,0,0,1-4.66,2.77c-2.33.93-4.77,1.6-7.15,2.37-1.42.46-2.84.91-4.28,1.28-1.11.28-2.25.46-3.38.63a26.49,26.49,0,0,1-5.11.24,18,18,0,0,1-2.34-.63,19,19,0,0,1-2.8-1.61,12,12,0,0,1-1.17-1.19,3.38,3.38,0,0,0-2.47-1,3.5,3.5,0,0,0-3.5,3.5,3.71,3.71,0,0,0,1,2.48,16.18,16.18,0,0,0,4.6,3.53,17.51,17.51,0,0,0,5.26,1.79,22.33,22.33,0,0,0,6.11,0,43.09,43.09,0,0,0,5.64-.94c1.77-.45,3.52-1,5.26-1.59s3.33-1.05,5-1.61a25.06,25.06,0,0,0,5-2.33c1.24-.76,2.46-1.57,3.67-2.38,2.93-2,5.87-4,8.09-6.77,1.21-1.54,2.3-3.14,3.42-4.75a29.79,29.79,0,0,0,2.74-4.61,22.23,22.23,0,0,0,1.77-5.52,53,53,0,0,0,.64-6c.08-1.59,0-3.19-.05-4.78a53.61,53.61,0,0,0-.37-5.37,32.44,32.44,0,0,0-1.16-5.87c-.57-1.77-1.26-3.49-2-5.22s-1.49-3.77-2.4-5.57a45.09,45.09,0,0,0-2.43-4.13c-1-1.49-2.08-2.86-3-4.38-.78-1.3-1.52-2.62-2.31-3.91-.9-1.47-1.82-2.92-2.71-4.39a48.88,48.88,0,0,1-2.37-4.75c-1-2.26-2.09-4.52-3.11-6.8-.55-1.4-1.05-2.81-1.48-4.26a31.61,31.61,0,0,1-.94-4.4,41.35,41.35,0,0,1,.12-9.17c.16-1,.35-2,.61-3a27.3,27.3,0,0,1,1-3c.62-1.65,1.25-3.31,1.92-5a68.62,68.62,0,0,1,3.75-7.16,74.67,74.67,0,0,1,4.42-7.12c1.2-1.51,2.48-3,3.72-4.45.65-.79,1.3-1.57,2-2.33a19,19,0,0,1,2.26-2.14,69.26,69.26,0,0,1,7.92-5c1.57-.89,3.15-1.75,4.72-2.64,1.4-.79,2.85-1.47,4.27-2.21a66.32,66.32,0,0,0,8.18-5.28,101.43,101.43,0,0,0,7.87-6.63,49.8,49.8,0,0,0,4.31-4.16,26.65,26.65,0,0,0,4.21-7.8,3.31,3.31,0,0,0-.35-2.69,3.51,3.51,0,0,0-2.09-1.61,3.26,3.26,0,0,0-.93-.13,3.46,3.46,0,0,0-1.77.48Z" transform="translate(-886.98 -816.03)"/><path class="cls-1" d="M1029.42,1222a9.68,9.68,0,0,0-1.49,1.22,12.58,12.58,0,0,0-2.24,2.85,42.34,42.34,0,0,0-2.3,5.2,134.07,134.07,0,0,0-6.11,18.09,68.12,68.12,0,0,0-1.63,11.2c-.26,3.52-.28,7-.48,10.57s-.66,7.13-.74,10.72a37.32,37.32,0,0,0,.36,6,20,20,0,0,0,1.22,5c.49,1.2,1,2.39,1.54,3.57a3.36,3.36,0,0,0,2.09,1.61,3.5,3.5,0,0,0,4.31-2.44,3.78,3.78,0,0,0-.35-2.7c-.22-.48-.44-1-.65-1.44-.33-.83-.62-1.67-.88-2.53a15,15,0,0,1-.43-2.2,36.14,36.14,0,0,1-.22-3.76c0-1.26.05-2.52.11-3.77s.2-2.61.32-3.92.23-2.74.32-4.11c.18-2.64.18-5.28.32-7.92.12-2.47.32-4.93.63-7.38a71.13,71.13,0,0,1,3.26-12.58c.72-2.12,1.43-4.26,2.27-6.34.75-1.87,1.49-3.75,2.24-5.62a15.78,15.78,0,0,1,1.17-2.23l.36-.4a12.4,12.4,0,0,1,1,1c.7,1,1.36,1.91,2,2.91a32.84,32.84,0,0,1,2,3.76c1,2.48,2,5,2.94,7.47.55,1.43,1.13,2.85,1.57,4.32s.87,3,1.26,4.48c.79,3,1.64,5.95,2.48,8.93a64.8,64.8,0,0,1,1.91,8.8l-.09-.67c.24,1.72.57,3.43.82,5.15a68.05,68.05,0,0,1,.42,6.84,3.5,3.5,0,1,0,7,0c0-1.86-.09-3.73-.27-5.59-.23-2.29-.66-4.54-1-6.81a.77.77,0,0,0,0,.15c-.23-1.66-.49-3.31-.86-5s-.75-3.29-1.21-4.91-1-3.36-1.45-5-.89-3.41-1.34-5.12-1-3.6-1.7-5.35-1.26-3.24-1.88-4.86a65.62,65.62,0,0,0-4.19-9.56,41.37,41.37,0,0,0-2.77-4.05,13.57,13.57,0,0,0-2-2.16,8,8,0,0,0-4.77-2.23h-.09a5.16,5.16,0,0,0-2.77.8Zm1.93,6.08.14,0-.14,0Zm-9.83,57.77c0,.18.05.36.08.55,0-.19-.05-.37-.08-.55Z" transform="translate(-886.98 -816.03)"/><path class="cls-1" d="M1042,1248.21l-.16.18c-.18.1-.36.19-.53.3s-.38.24-.58.35a8,8,0,0,0-1.15.54c-.55.34-1.09.68-1.67,1s-1.27.72-1.94,1l-1.88.88a90.61,90.61,0,0,1-9,3.11c-.86.24-1.73.41-2.59.6s-1.63.47-2.45.67c-1.62.38-3.23.72-4.87,1a23,23,0,0,1-3.61.17c-1.64-.06-3.29-.17-4.93-.28a3.52,3.52,0,0,0-3.5,3.5,3.48,3.48,0,0,0,1,2.47,3.61,3.61,0,0,0,2.47,1c1.73.11,3.47.29,5.2.29a36.11,36.11,0,0,0,5.49-.47c1.6-.24,3.17-.61,4.74-1,.77-.18,1.52-.43,2.28-.63s1.62-.35,2.43-.55c1.4-.35,2.79-.8,4.15-1.28.78-.27,1.55-.59,2.33-.88s1.36-.46,2-.71c1.71-.67,3.39-1.42,5-2.25.69-.35,1.41-.72,2.08-1.13.33-.21.66-.43,1-.61a5.85,5.85,0,0,0,1-.48c.21-.12.41-.25.61-.38a3.45,3.45,0,0,1,.47-.24,4.72,4.72,0,0,0,1-.78,2.86,2.86,0,0,0,.46-.46,3.7,3.7,0,0,0,1-2.47,3.5,3.5,0,0,0-3.5-3.5,3.4,3.4,0,0,0-2.48,1Z" transform="translate(-886.98 -816.03)"/><path class="cls-1" d="M1138.85,1212.91a3.55,3.55,0,0,0-1.61,2.09c0,.31-.08.63-.13.93a3.6,3.6,0,0,0,.48,1.76,94.93,94.93,0,0,1,3.29,9.58c.48,1.64.85,3.31,1.24,5s.82,3.43,1.17,5.16.77,3.37,1.13,5,.8,3.57,1.27,5.34c.42,1.58.79,3.16,1.28,4.72.42,1.34.9,2.67,1.39,4,.29.79.59,1.58.91,2.36a27.52,27.52,0,0,0,1.59,3.6c.5.86,1,1.69,1.56,2.53s1.22,1.79,1.88,2.66l-.1-.13a8.74,8.74,0,0,0,2.7,2.81,3.5,3.5,0,0,0,3.6-6l-.07-.08c-.33-.45-.67-.89-1-1.32-.65-.91-1.22-1.88-1.81-2.82a25,25,0,0,1-1.3-2.38c-.48-1.24-1-2.47-1.43-3.72s-1-2.64-1.36-4c-.93-3.4-1.74-6.81-2.53-10.24-.4-1.74-.81-3.46-1.14-5.21s-.76-3.3-1.16-4.94c-.2-.82-.38-1.64-.56-2.46s-.49-1.68-.71-2.53c-.45-1.67-1-3.33-1.6-5-.67-1.88-1.41-3.7-2.18-5.53a3.52,3.52,0,0,0-3-1.74,3.56,3.56,0,0,0-1.77.48Zm21.29,51.19.09.07-.09-.07Z" transform="translate(-886.98 -816.03)"/><path class="cls-1" d="M1166.28,1225.89a6,6,0,0,1-.6.89l-.36.47a17.91,17.91,0,0,1-2.58,2.42l.22-.17c-.54.42-1.07.85-1.61,1.26l.3-.22c-.62.48-1.22,1-1.82,1.47-1.13.84-2.27,1.67-3.39,2.52l.33-.26a42.64,42.64,0,0,1-7.31,4.18,27.9,27.9,0,0,1-5,1.55c-2,.19-4,.14-6,.16a3.5,3.5,0,0,0,0,7c2,0,4,0,6-.16a23.81,23.81,0,0,0,6.15-1.54,41.58,41.58,0,0,0,6.09-2.93c.72-.41,1.44-.82,2.14-1.26.88-.56,1.69-1.19,2.51-1.82l-.71.55c.72-.56,1.47-1.08,2.2-1.62,1-.75,2-1.53,2.95-2.33l1.44-1.13c.7-.55,1.4-1.12,2-1.73a13,13,0,0,0,1.53-1.78,12.51,12.51,0,0,0,1.43-2,3.54,3.54,0,0,0-1.25-4.78,3.53,3.53,0,0,0-4.79,1.25Z" transform="translate(-886.98 -816.03)"/><path class="cls-1" d="M1163.87,1207.06a3.53,3.53,0,0,0-2.45,4.3c.43,1.47.84,3,1.2,4.44.3,1.26.59,2.53.92,3.78.39,1.47.77,3,1.24,4.4s1,2.79,1.57,4.15l-.08-.19c.9,2.16,1.87,4.3,2.81,6.44l-.36-.84a47.5,47.5,0,0,0,2.45,5.2c.52.9,1,1.83,1.48,2.73s.95,1.54,1.43,2.29a51.07,51.07,0,0,0,3.71,5c.94,1.15,2.07,2.12,3.06,3.22.31.45.62.9,1,1.33a3.34,3.34,0,0,0,2.48,1,3.48,3.48,0,0,0,2.47-1,3.52,3.52,0,0,0,1-2.47c0-.32-.09-.62-.13-.94a3.51,3.51,0,0,0-.69-1.31,18.89,18.89,0,0,0-2.68-3.11,30,30,0,0,1-2.81-3.25,41.59,41.59,0,0,1-3-4.66c-1-1.78-2-3.53-2.8-5.36-.85-2.08-1.78-4.13-2.69-6.18-.14-.34-.29-.68-.43-1h0c-2-5-2.9-10.32-4.38-15.47a3.56,3.56,0,0,0-3.39-2.57,3.18,3.18,0,0,0-.91.13Z" transform="translate(-886.98 -816.03)"/><path class="cls-1" d="M1211.1,1176.68c-.16.27-.32.54-.49.81a12.91,12.91,0,0,1-1,1c-.21.15-.41.31-.61.47a47.51,47.51,0,0,1-4.21,2.82c-1.23.74-2.44,1.52-3.72,2.16a22,22,0,0,1-4,.92l-2.68.28a3.74,3.74,0,0,0-2.47,1,3.49,3.49,0,0,0,0,5,3.31,3.31,0,0,0,2.47,1c2.08-.22,4.16-.43,6.21-.82a16.32,16.32,0,0,0,5-1.86c1.29-.71,2.54-1.49,3.8-2.25.76-.47,1.46-1,2.19-1.55s1.59-1.14,2.36-1.74l-.71.54c.63-.45,1.22-1,1.83-1.44a5.49,5.49,0,0,0,.86-.94,14.89,14.89,0,0,0,1.23-1.82,3.53,3.53,0,0,0-1.25-4.79,3.43,3.43,0,0,0-1.75-.47,3.5,3.5,0,0,0-3,1.73Z" transform="translate(-886.98 -816.03)"/><path class="cls-1" d="M1203.5,1184.38a3.51,3.51,0,0,0-1.61,2.09,3.78,3.78,0,0,0,.35,2.7c.5,1.11,1,2.23,1.46,3.35.8,1.93,1.54,3.87,2.34,5.79l-.06-.15c.56,1.34,1.14,2.68,1.72,4,1.25,3,2.68,5.89,4.22,8.75l1.89,3.58c.61,1.15,1.37,2.23,1.92,3.4l-.19-.43c.26.6.53,1.21.8,1.81l.3.66a4.84,4.84,0,0,0,.95,1.39,3.49,3.49,0,0,0,5.24-4.6c-.14-.27-.25-.56-.37-.83l-.57-1.24.36.84a28.19,28.19,0,0,0-2-3.78c-.7-1.16-1.28-2.38-1.92-3.57-1.42-2.64-2.8-5.32-4-8.06-.55-1.32-1.13-2.63-1.69-3.94l-.54-1.26.06.12c-1.25-3.15-2.51-6.29-3.9-9.38a3.38,3.38,0,0,0-2.09-1.61,3.71,3.71,0,0,0-.93-.12,3.52,3.52,0,0,0-1.77.47Z" transform="translate(-886.98 -816.03)"/><path class="cls-1" d="M1227.88,1209.35a16.42,16.42,0,0,1-2.83,2.69,35.46,35.46,0,0,1-6,3.82,36.77,36.77,0,0,1-7,1.28,3.3,3.3,0,0,0-2.09,1.61,3.49,3.49,0,0,0-.36,2.7,3.59,3.59,0,0,0,1.61,2.09l.84.35a3.46,3.46,0,0,0,1.86,0c1.82-.26,3.65-.46,5.45-.82a16.93,16.93,0,0,0,5.43-2.39,47.18,47.18,0,0,0,3.91-2.66c.73-.56,1.44-1.13,2.14-1.74a14.4,14.4,0,0,0,2-2c.18-.24.36-.48.55-.71a3.67,3.67,0,0,0,.48-1.77,3.5,3.5,0,0,0-3.5-3.5,3.37,3.37,0,0,0-2.48,1Z" transform="translate(-886.98 -816.03)"/><path class="cls-1" d="M1275,1078.08a10.09,10.09,0,0,0-3.51,2.09,6.35,6.35,0,0,0-1.77,2.78,3,3,0,0,0,0,1.58,42.07,42.07,0,0,0-.87,6.1c0,.95-.07,1.91,0,2.86.07,1.14.24,2.26.41,3.38a104.05,104.05,0,0,0,2,10.33c.85,3.38,1.79,6.74,2.75,10.09a68.82,68.82,0,0,0,3.83,10.2,80.79,80.79,0,0,0,4.63,8.66,31.48,31.48,0,0,0,3.37,4.27c1,1,2,2.07,3,3a15.78,15.78,0,0,0,4.17,2.72,11.32,11.32,0,0,0,6.38,1,13,13,0,0,0,2-.42,14.1,14.1,0,0,0,1.84-.78,8.1,8.1,0,0,0,2.54-2.08,11.23,11.23,0,0,0,2.23-4.73,40.77,40.77,0,0,0,.86-5.71,78.38,78.38,0,0,0-.06-10c0-1.68-.06-3.34-.24-5a51.67,51.67,0,0,0-1.07-5.94c-.39-1.72-.83-3.43-1.27-5.14s-1.06-3.45-1.65-5.17-1.11-3.3-1.76-4.92-1.53-3.23-2.33-4.84a45.38,45.38,0,0,0-2.25-4.25,32.48,32.48,0,0,0-3.37-4.38,20.57,20.57,0,0,0-2.73-2.55,18.17,18.17,0,0,0-1.84-1.32,11.36,11.36,0,0,0-1.67-.75,17.43,17.43,0,0,0-4.28-1.28c-.81-.11-1.61-.24-2.42-.32-.53-.06-1.06,0-1.59-.08-.31,0-.63,0-.94,0a15.73,15.73,0,0,0-4.38.64Zm6.87,6.46a15.78,15.78,0,0,1,1.8.32c.72.18,1.42.4,2.11.64a12.75,12.75,0,0,1,1.47.76,26.41,26.41,0,0,1,3.62,3.55,29.09,29.09,0,0,1,2.86,4.69c.81,1.61,1.65,3.21,2.41,4.85.58,1.48,1.09,3,1.6,4.47.56,1.66,1.16,3.31,1.62,5a94.17,94.17,0,0,1,2.13,9.23c.34,2.76.31,5.55.4,8.32,0,1.38.15,2.75.13,4.13s-.14,2.76-.27,4.14a25.42,25.42,0,0,1-.84,3.85,8.44,8.44,0,0,1-.45.84l-.32.33-.54.31c-.32.11-.65.2-1,.28a8.29,8.29,0,0,1-1.22,0,8.48,8.48,0,0,1-1.13-.28,16,16,0,0,1-2.14-1.2,38.78,38.78,0,0,1-4.52-4.63,43.21,43.21,0,0,1-3.5-5.71q-1.5-2.78-2.8-5.66a109.34,109.34,0,0,1-4-12.41,128,128,0,0,1-3-13l-.3-2a25.52,25.52,0,0,1-.13-5.66c.22-1.43.49-2.85.73-4.28a3.18,3.18,0,0,0,.06-.43l.47-.25a8.11,8.11,0,0,1,.85-.21,20.22,20.22,0,0,1,3.89,0Zm-6,10,0,.27c0-.09,0-.18,0-.27Zm25.95,39.48,0,.17c0-.06,0-.12,0-.17Z" transform="translate(-886.98 -816.03)"/><path class="cls-1" d="M1205.74,879.29a3.76,3.76,0,0,0-1.1,2.65,3.87,3.87,0,0,0,1.1,2.65q4.54,5.1,8.75,10.5l1.29,1.7c.4.53.8,1.07,1.19,1.61h0q3,4.11,5.81,8.39l0,.07a2.14,2.14,0,0,0,.13.19l0,0c.71,1.1,1.41,2.2,2.1,3.31q2.91,4.68,5.55,9.53c.33.61.66,1.22,1,1.83l.43.8q2.7,5.17,5.09,10.49l.13.31.14.3c.13.3.26.6.4.9a3.76,3.76,0,0,0,.35.83c.12.26.23.53.34.79q1.77,4.24,3.36,8.57c.34.94.67,1.88,1,2.82v0q1.89,5.49,3.45,11.09l.36,1.3c.2.76.4,1.51.59,2.27q1.89,7.41,3.19,14.94s0,0,0,.07l.09.51q.48,3,.89,5.93c.23,1.73.43,3.47.61,5.21.08.81.16,1.62.23,2.44,0,0,0,.1,0,.14.36,4.07.58,8.15.69,12.24v0c0,1,0,2.06,0,3.09v.52q0,4.43-.15,8.86a.13.13,0,0,0,0,.06q0,1.28-.12,2.55h0c0,.45,0,.89-.07,1.34-.06.94-.13,1.87-.2,2.81v0c-.27,3.43-.63,6.86-1.07,10.27-.21,1.52-.43,3-.68,4.55,0,0,0,.07,0,.1q-1,6.06-2.37,12.06a.29.29,0,0,1,0,.09l-.18.8q-2,8.29-4.65,16.4a.14.14,0,0,0,0,.06q-2.09,6.22-4.58,12.28a3.47,3.47,0,0,0-.35.84l-.1.24q-2.22,5.18-4.72,10.21c-.32.65-.65,1.3-1,1.94q-2.88,5.58-6.1,11h0l-.75,1.25a.35.35,0,0,0-.05.08l-.47.76-.06.09q-3.94,6.36-8.36,12.41c-.88,1.19-1.77,2.38-2.67,3.55s-1.63,2.06-2.45,3.08c-.69.84-1.38,1.69-2.08,2.52l-.15.18-.3.35,0,.06q-5.1,6-10.68,11.6l-.06.07q-5.08,5.07-10.53,9.75l-.06.05c-2.09,1.78-4.21,3.53-6.36,5.23a3.46,3.46,0,0,0-.71.55l-.72.55-1.72,1.3h0l-.82.61-.33.25q-2.35,1.72-4.77,3.38a4,4,0,0,0-1.72,2.25,3.75,3.75,0,0,0,5.5,4.23c1.58-1.09,3.14-2.19,4.69-3.32l.08-.06,1.19-.89,1.15-.85.09-.07.21-.16.24-.19.57-.43,0,0,.17-.13,1.45-1.12.12-.1c2.31-1.82,4.59-3.66,6.82-5.57l.11-.09.07-.06v0h0c3.63-3.13,7.16-6.39,10.55-9.78l0,0,.64-.64.07-.07q4.71-4.79,9.1-9.87l.08-.1.78-.91.1-.13.06-.07h0l.48-.55a1,1,0,0,1,.13-.16l1.19-1.44.07-.08c.08-.11.17-.21.25-.31l.25-.31.07-.09.08-.09q3.18-3.94,6.19-8h0l.16-.22a.35.35,0,0,0,.05-.08q4.15-5.7,7.88-11.67l.09-.13.12-.21,0,0,.57-.94,0-.06.26-.42.17-.28a1,1,0,0,0,.08-.14l.2-.33.05-.08.64-1.08a.75.75,0,0,0,.07-.12q2.58-4.4,5-8.92l.06-.12.33-.63c0-.1.1-.21.16-.31l.06-.13.74-1.46,0-.09.33-.66a1,1,0,0,0,.07-.15q2.4-4.87,4.52-9.87a3.52,3.52,0,0,0,.39-.91l.29-.69a.56.56,0,0,0,0-.12q2.67-6.39,4.88-13l0-.1q2.58-7.77,4.49-15.73a.29.29,0,0,0,0-.09c.1-.43.21-.85.3-1.28a.29.29,0,0,0,0-.09l0-.1c.11-.47.21-1,.32-1.42,0,0,0-.08,0-.12q1.14-5.16,2-10.36v-.05l0-.11a.88.88,0,0,0,0-.16q1.26-7.79,1.92-15.64c0-.06,0-.13,0-.2.07-1,.15-2,.21-2.93a.76.76,0,0,0,0-.15l0-.78v0c0-.2,0-.41,0-.62a.57.57,0,0,1,0-.13c0-.16,0-.32,0-.48h0c0-.22,0-.45,0-.67v-.11c0-.71.07-1.42.1-2.13,0-.16,0-.32,0-.48v-.12c.08-2.26.12-4.51.12-6.77,0,0,0-.09,0-.14,0-.37,0-.75,0-1.13v-.63c0-.44,0-.88,0-1.33v-.14c0-.57,0-1.14,0-1.71,0-.28,0-.57,0-.85,0-.07,0-.13,0-.19q-.18-5.73-.69-11.42c0-.19,0-.38,0-.56l0-.22,0-.33a.28.28,0,0,0,0-.09c0-.36-.07-.72-.11-1.08,0,0,0-.09,0-.13q-.62-5.88-1.56-11.71l0-.21-.12-.69c0-.15,0-.29-.07-.43v-.05l0-.11,0-.22,0-.16q-1.26-7.26-3.07-14.41c0-.06,0-.12,0-.19l-.27-1.06-.09-.34v0c-.09-.35-.19-.69-.28-1v0c0-.09-.05-.18-.08-.27a.44.44,0,0,0,0-.1c-.07-.26-.14-.51-.22-.77s-.07-.27-.11-.4a.29.29,0,0,0,0-.09q-1.44-5.12-3.16-10.15c0-.09,0-.18-.08-.26s-.06-.18-.1-.27a1.46,1.46,0,0,0-.07-.19c-.23-.68-.47-1.35-.71-2,0,0,0,0,0,0l-.18-.51-.07-.19-.09-.23c-1.07-2.93-2.22-5.82-3.43-8.7a3.51,3.51,0,0,0-.38-.92l-.25-.58c-.08-.2-.17-.39-.25-.59l0-.05-.56-1.26-.09-.23c-.18-.4-.36-.79-.53-1.18a.16.16,0,0,0,0-.07q-2.12-4.68-4.47-9.25l-.06-.12-.6-1.14,0-.09,0,0v0c-.11-.22-.23-.43-.35-.65l0-.06-.92-1.72-.09-.15q-2.46-4.47-5.14-8.81l0,0-.49-.78-.07-.11-.92-1.44-.09-.14c-.25-.4-.5-.79-.76-1.18l0,0-.5-.76-.08-.12q-2.61-3.93-5.41-7.74l-.37-.51-.12-.16-.18-.25,0,0c-.2-.27-.41-.54-.61-.82l-.19-.24q-5.12-6.75-10.74-13.08a3.4,3.4,0,0,0-2.57-1.09,3.88,3.88,0,0,0-2.73,1.09Zm8.16,15,.59.76-.59-.76Zm-33,261.13-.16.13,0,0v0l-.34.26.49-.39Zm-.42.33.26-.2-.26.2Z" transform="translate(-886.98 -816.03)"/><path class="cls-1" d="M1227.65,913.62a3.75,3.75,0,1,0,3.75-3.75,3.78,3.78,0,0,0-3.75,3.75Z" transform="translate(-886.98 -816.03)"/><path class="cls-1" d="M921.14,1022.74a9.75,9.75,0,0,1-1.53.73,3.69,3.69,0,0,0,4.26-3,11,11,0,0,1-2.73,2.26Z" transform="translate(-886.98 -816.03)"/><path class="cls-1" d="M1078.11,817.23h0a3.92,3.92,0,0,0-2.57.81,4,4,0,0,0-1.45,2.52,2.56,2.56,0,0,0,0,.47,4,4,0,0,0,.83,2.42,4,4,0,0,0,2.25,1.41l-.1,0a2.14,2.14,0,0,0-.52.43,3.53,3.53,0,0,0-2.37-.85,3.48,3.48,0,0,0-1.46.31,3.86,3.86,0,0,0-2,5c1,2.62,1.95,5.29,2.84,8l.55,1.7.08.23.18.57.17.57.21.68.2.66c.42,1.38.83,2.77,1.22,4.16l.16.59c.47,1.75,1,3.65,1.44,5.66l0,.2.27,1.1,0,.13,0,.14c.72,3.12,1.4,6.45,2,9.89l0,.14,0,.11.16.91.15.89,0,.22,0,.23.07.44.08.43a1.23,1.23,0,0,1,0,.2c.54,3.36,1,6.73,1.35,10,.06.46.11.9.15,1.34l.09.88.09.87,0,.52c.32,3.3.56,6.64.71,9.92,0,.73.06,1.42.09,2.11l0,.62,0,.72v.89c0,1.59.08,3.49.09,6,0,1.31,0,2.61-.05,3.91s0,2.39-.1,3.58c-.17,4.72-.5,9.52-1,14.27-.38,3.75-.84,7.49-1.39,11.12-.11.77-.23,1.54-.35,2.3-.88,5.58-2,11.34-3.37,17.14l0,.15-.27,1.07,0,.16c-.34,1.41-.67,2.72-1,4l-.26,1-.18.68-.07.27,0,.12-.06.22,0,.1-.11.4-.13.46-.37,1.29c-.24.82-.47,1.64-.72,2.46-1.55,5.15-3.27,10.28-5.11,15.22a.49.49,0,0,1,0,.11l-.06.18-.05.11c-1.39,3.68-2.85,7.26-4.31,10.63l-.16.38-.13.3-.47,1-.43,1-.31.67-.3.67c-.61,1.31-1.22,2.62-1.84,3.91a76.62,76.62,0,0,0-8.22,1.66,3.58,3.58,0,0,0-1,.24,78.66,78.66,0,0,0-26.59,12.9l-.09.07-.1.09c-1.25.94-2.68,2.1-4.24,3.43l-.17.15a89.82,89.82,0,0,0-8.9,9.12,77.68,77.68,0,0,0-7.57,11l-.08.13-.09.14,0,.09-.16.29c-.8,1.41-1.53,2.8-2.17,4.14l0,.13a2.15,2.15,0,0,0-.14.26c-.55,1.14-1.13,2.46-1.73,3.92l-.05.11a81.45,81.45,0,0,0-5.09,18.92v.16c-.27,2-.46,4-.58,5.91,0,.09,0,.18,0,.27,0,.55,0,1.09-.07,1.64a80.2,80.2,0,0,0,.31,10.4l0,.24v.2l0,.13,0,.35,0,.35a76.37,76.37,0,0,0,3.78,16.44c0,.13.08.26.13.39l.05.14.08.23,0,.1,0,.14.08.21,0,.14,0,.09c.08.27.15.47.23.67.64,1.77,1.4,3.57,2.24,5.34a75.5,75.5,0,0,0,5.53,9.94,77,77,0,0,0,12.41,14.71c1,.93,2.09,1.87,3.19,2.79s2.57,2,3.9,3,2.64,1.87,4,2.73a70.86,70.86,0,0,0,6.44,3.69c.63.32,1.27.64,1.91.94,1.36.67,2.77,1.29,4.21,1.84a69.4,69.4,0,0,0,7.13,2.47l.65.18.18.06,1.29.36a75.27,75.27,0,0,0,20.13,2.68q1.56,0,3.12-.06h.85c1.21-.07,2.48-.16,3.77-.27l.14-.06c.69,0,1.32-.1,2-.19,1.38-.18,2.55-.36,3.69-.56l.18,0,.12,0c.11,0,.14,0,.16-.06a6.59,6.59,0,0,0,.68-.1l.12,0,.16-.07h.1a.31.31,0,0,0,.17,0h0a.19.19,0,0,0,.12,0h.11l.2,0,.12,0a3.37,3.37,0,0,0,.73-.15h0a1.09,1.09,0,0,0,.3-.07c.84-.19,1.67-.4,2.5-.61a2.8,2.8,0,0,0,1-.25l.17,0,.18,0,.61-.17.12,0,.34-.09.13,0,.13,0,.14,0,.15,0,.12,0c1.47-.43,2.91-.9,4.39-1.44l.14-.05.34-.13c1.24-.45,2.53-1,3.81-1.53l.12-.06.2-.08.2-.09.09,0,.19-.08.26-.13.1,0,.24-.1.16-.07.11,0c1.12-.52,2.32-1.11,3.57-1.78l.42-.23a1,1,0,0,0,.18-.1l.21-.11.13-.07.11-.06.25-.14.25-.14a3.52,3.52,0,0,0,.86-.47l.16-.1.19-.11c1.4-.8,2.66-1.57,3.85-2.35l.1-.06.21-.15.2-.13.14-.09.31-.21c.93-.62,1.91-1.3,2.92-2.05l.24-.18.18-.13.11-.09c1.1-.84,2.41-1.9,3.89-3.16l.1-.08,1.2-1.08.08-.07.2-.19.11-.1.11-.1c.88-.82,1.85-1.76,3-2.86l.19-.2.12-.12.11-.12c1.41-1.47,2.68-2.88,3.77-4.17l.07-.08.11-.15.08-.13.15-.14.11-.13.07-.09.17-.2.07-.1.08-.09.08-.14a78.26,78.26,0,0,0,11.27-19.15l0-.12.08-.16,0-.11c.7-1.71,1.32-3.44,1.91-5.3,0,0,0-.09,0-.13.11-.33.21-.68.31-1l.07-.22,0-.14,0-.19,0-.1,0-.15.06-.21.16-.55.1-.34c.41-1.46.75-2.8,1-4.09l0-.14.1-.45.09-.4,0-.18,0-.27,0-.11,0-.28c.29-1.51.53-2.88.74-4.3l.05-.39,0-.28,0-.17v-.11l0-.12s0-.1,0-.15c.19-1.63.35-3.49.47-5.51l0-.42v-.13a1.3,1.3,0,0,0,0-.23,89.56,89.56,0,0,0-.33-11.43,1,1,0,0,1,0-.16c-.22-1.93-.53-4-.94-6.24l0-.15,0-.15c-.36-1.7-.75-3.34-1.2-5a2.67,2.67,0,0,0-.25-.93l-.09-.35,0-.17-.13-.46,0-.13-.07-.25,0-.1c-.33-1.13-.75-2.43-1.26-3.87l-.06-.18c-.6-1.73-1.3-3.48-2.08-5.19l-.06-.15-.16-.37,0-.09-.05-.11c-.68-1.51-1.48-3.1-2.35-4.72l.07-.07c2.06-2.83,4.14-5.84,6.2-9l.42-.63.4-.6.3-.46.3-.45.18-.27.17-.27.09-.17.07-.09.83-1.27.4-.64.42-.64.05-.09.06-.1c2.14-3.37,4.27-6.88,6.33-10.44a3.77,3.77,0,0,0,.49-.85l.19-.34.2-.34a3.64,3.64,0,0,0,.46-.8l.39-.68.33-.59.12-.2.11-.21.21-.38.19-.34.11-.19c1.83-3.29,3.48-6.38,4.89-9.17l.06-.12.2-.37,0-.11c.11-.2.2-.38.29-.57l.1-.2.12-.23.33-.66.33-.65.08-.17.1-.22.05-.09,0-.1.12-.25.13-.24,0-.1.65-1.32.2-.43.66-1.36.06-.12c1.24-2.61,2.38-5.1,3.48-7.63l.07-.13.1-.25.1-.23.11-.24.1-.23.12-.28.1-.24.19-.43.17-.41.11-.25.11-.25c.16-.4.32-.76.47-1.13l.22-.52.15-.36.1-.24.07-.17.07-.16.1-.24.14-.34,0-.13c1.23-3,2.38-6,3.44-8.83l.15-.39.11-.31.29-.78a.42.42,0,0,1,0-.1l.18-.51.19-.52,0-.11.06-.17,0-.13.12-.33.12-.33.12-.34,0-.12.15-.41c.11-.32.22-.61.31-.91l.05-.13c1.22-3.52,2.35-7,3.34-10.42l0-.19a4.11,4.11,0,0,0,.15-.46c.08-.28.17-.56.25-.84l.19-.68.24-.82,0-.14.08-.31,0-.11.13-.47.13-.47.11-.38.1-.37,0-.14,0-.18c.89-3.29,1.65-6.29,2.33-9.16l0-.19.25-1.07h0s0,0,0-.11l.06-.25.1-.43.15-.63,0-.11.08-.37.06-.26.18-.84,0-.21,0-.14,0-.18,0-.11.14-.66,0-.15c.66-3.21,1.23-6.29,1.7-9.16l.12-.68.09-.56,0-.15,0-.12.12-.75v-.12l0-.23.06-.38v-.12l0-.26,0-.31.11-.79,0-.19.17-1.26c.37-2.85.71-5.76,1-8.65l0-.44,0-.35v-.13l0-.22,0-.21v-.18l0-.36,0-.34c0-.14,0-.25,0-.37v-.32l0-.51,0-.49,0-.47c0-.4.06-.78.08-1.17a2,2,0,0,0,0-.3c.18-3.16.3-6,.35-8.48,0-.35,0-.69,0-1V895c0-.71,0-1.43,0-2.13a4,4,0,0,0,0-1v-1.21c0-2.52-.13-5.3-.29-8.27v-.21c0-.38,0-.76-.07-1.13l0-.24v-.11l0-.74v-.51l0-.44,0-.23,0-.61-.08-.88-.1-1.05v-.18q-.13-1.43-.3-2.85l-.21-1.85,0-.1,0-.11c-.1-.82-.21-1.63-.32-2.45a2.21,2.21,0,0,0,0-.25c-.16-1.15-.34-2.31-.53-3.46l-.06-.14,0-.09-.11-.67-.11-.64,0-.18-.2-1.12a4.19,4.19,0,0,0-2.08-2.91,3.69,3.69,0,0,0-1.09-1.42l-.31-.25-.72-.57-1.09-.86-.2-.13c-1.91-1.48-3.91-3-6-4.42l-1.09-.78-.13-.1-1.61-1.11-.43-.29-.23-.16L1175,849l-.1-.07-.15-.09-.16-.14-.21-.12-.14-.1-.15-.09-.1-.06-.16-.13-1.26-.81c-2.07-1.37-4.28-2.74-6.56-4.09l-1-.58-.36-.21-.36-.21-.28-.17-.28-.16a4.17,4.17,0,0,0-.8-.46l-.34-.2-.15-.08-.55-.31h0s0,0-.1-.06l-.11-.06-.77-.43-.36-.21-.28-.15-.75-.41-.1,0-1.42-.77-.17-.1-.22-.11-.4-.21-.18-.09-.15-.08-.18-.1-.13-.06-.11-.06c-.77-.41-1.55-.81-2.33-1.2l-.23-.22-.09-.08a28.18,28.18,0,0,0-3.24-2.51c-1.08-.71-2.32-1.38-3.14-1.82l-.17-.09L1147,832l-1.13-.61-1-.57a38.23,38.23,0,0,0-3.7-1.92,28.14,28.14,0,0,0-4.68-1.52l-1.2-.4-.31-.11c-.47-.16-.93-.32-1.4-.46l-1.34-.44-.3-.1c-.73-.24-1.45-.47-2.18-.69a47,47,0,0,0-6-1.35l-.13,0-.45-.09-1.42-.26-1.4-.27-.16,0-.61-.12-1-.2a27.68,27.68,0,0,0-3.31-.31l-.33-.08-.13,0-.62-.15-.15,0-2.07-.48-.4-.09-.14,0-.16,0-.27-.07-.24-.05-.36-.08-.19-.05-.15,0c-.39-.1-.76-.18-1.14-.26l-.43-.09-.3,0-.18,0-.17,0-.17,0-.25,0-.14,0-1.37-.26-.17,0-.51-.09-.49-.1-.14,0-.12,0c-2-.37-4.2-.73-6.5-1.09l-.45-.06-.17,0-.72-.11-.11,0-.22,0-.17,0-.53-.07-.26,0-.26,0-.18,0-.7-.09-.63-.08-.21,0-1.4-.17-.18,0c-1.58-.18-3.17-.33-4.76-.47l-.26,0h-.22l-.31,0-.22,0h-.1l-2.5-.18h-.18l-.13,0H1083l-.21,0H1082l-.51,0-.55,0h-.26l-.37,0h-.12l-.12,0h-.13l-.14,0h-.13l-1.23,0Z" transform="translate(-886.98 -816.03)"/><path class="cls-1" d="M1069.21,816.33a3.77,3.77,0,0,0-2,4.92q1.55,3.53,3,7.12c0,.12.09.25.14.37a1,1,0,0,0,0,.1c.09.25.19.49.29.74.18.47.35.95.53,1.42a3.75,3.75,0,1,0,6.91-2.93l-.45-1.2,0,0-.06-.15c-.07-.19-.15-.39-.22-.59l0-.05-.06-.14a.42.42,0,0,0,0-.1l0-.12a.36.36,0,0,0,0-.09l-.3-.77s0-.09,0-.13q-1.29-3.21-2.67-6.38a3.83,3.83,0,0,0-3.48-2.28,3.68,3.68,0,0,0-1.44.3Z" transform="translate(-886.98 -816.03)"/><path class="cls-1" d="M1074.09,816.13h-.75l-.54,0h-.33a3.55,3.55,0,0,0-2.48,1.44,3.72,3.72,0,0,0-.74,2.77,3.76,3.76,0,0,0,1.44,2.49l.83.48a3.73,3.73,0,0,0,1.61.28h.95a3.8,3.8,0,0,0,.67,0h1q3.09,0,6.18.15l1.78.08h0l.63,0,1.22.07,1.06.08h0c3.2.23,6.4.56,9.58,1l1,.14,1,.13h0l.14,0,.7.1h0l1.34.2h0q4.23.66,8.41,1.53l2.23.48,1.08.24,1.16.27.47.11,2.07.52h0a3.71,3.71,0,0,0,.81.21l.11,0,.66.18,1,.26.42.12,1.72.49.63.18h0l.05,0,.94.27.05,0,1.57.48h0l2.24.72c2.9.95,5.76,2,8.61,3.08l2.29.91q3.23,1.32,6.4,2.76l.11,0,.29.13c1.35.62,2.69,1.26,4,1.92q3.19,1.58,6.31,3.27l.14.08.17.09c1,.57,2,1.14,3.07,1.73l.4.23.2.12,0,0q4.23,2.5,8.31,5.24l.21.15.29.19.42.29.1.07,1.06.73,0,0,.17.12.87.61.83.59.49.35q4.07,3,8,6.13l.1.08.1.08.79.66.11.09.06,0,.41.35,0,0h0l.71.6.12.09.27.24.23.19,1.13,1,1.42,1.25a3.75,3.75,0,0,0,6-3,3.67,3.67,0,0,0,0-.46,3.91,3.91,0,0,0-1.44-2.48c-.63-.56-1.27-1.13-1.92-1.68h0l0,0-.06,0-.48-.42-.07-.06-.08-.07h0l-.16-.14-.08-.06,0-.05-.28-.23-.08-.07-.09-.07-.35-.31-.07-.05,0,0-.06-.06,0,0-.2-.17-.41-.35-.22-.17-.06-.06-.73-.6-.1-.07-.09-.08q-3.49-2.85-7.15-5.52l-.06,0-.14-.1-.07,0-.51-.37h0l-.06-.05-.07,0-.2-.14-.13-.1-.06,0-.08-.07-.58-.4,0,0-.79-.56-.56-.39-.18-.11c-2.09-1.44-4.21-2.84-6.37-4.18l-.09-.07-.83-.51h0l-.07,0-.16-.09,0,0h0l-.42-.26-.12-.07-.18-.11-.08,0,0,0h0l-.13-.08-.08,0-.06,0-.47-.28-.64-.38-.07,0q-4.29-2.54-8.71-4.84h0l-.15-.08-.44-.22-.68-.36h-.06c-.29-.16-.59-.3-.89-.45l-.08,0-.09,0-.12-.07-.94-.46-.15-.07-.11-.06c-.35-.17-.69-.34-1-.5l-.11-.06-.86-.4-.08,0-.06,0-.05,0h0l-2.62-1.19-.12-.06-1.23-.54-2.21-1-.12-.06-.39-.16-1.87-.76-.07,0h0l-.09,0-.13,0-1-.42-.11,0-.78-.31-.13,0q-4.37-1.67-8.82-3.12l-.25-.07-.11,0-.12,0c-.91-.29-1.82-.57-2.74-.84l-.83-.25-.3-.09-.06,0-.82-.24-.23-.06-.19,0-.07,0-.54-.15-.27-.07-.24-.07-.44-.12-.33-.09-.88-.24a3.35,3.35,0,0,0-.89-.24l-1.17-.31h0l-.15,0-.62-.15-.72-.19-.12,0-1-.25-.24-.06-.37-.08-.3-.08-.1,0-.38-.08-.2,0-.74-.17-.26-.06-.09,0-.2-.05h0l-.15,0-.86-.19-.11,0-.13,0-.1,0-1.16-.25-.15,0q-4-.83-8-1.45l-.13,0-1-.16h0l-.22,0-.1,0-.83-.11-1.06-.15-.75-.1h0l-.26,0-.75-.1-.15,0c-1.79-.21-3.59-.41-5.39-.57l-.16,0q-1.3-.12-2.61-.21h-.07l-.91-.06h-.31l-.18,0-.61,0h-.23l-.26,0h-.36l-.59,0h-.35l-.28,0-.8,0-.46,0h0l-.6,0H1082c-1.1,0-2.2-.07-3.31-.09h-3.9a3.71,3.71,0,0,0-.47,0Z" transform="translate(-886.98 -816.03)"/><path class="cls-1" d="M1324.42,1086.73a3.55,3.55,0,0,0-2.48,1.44,3.76,3.76,0,0,0,.7,5.25l.83.48a3.73,3.73,0,0,0,2,.26,3.55,3.55,0,0,0,2.48-1.44,3.77,3.77,0,0,0-.7-5.26l-.83-.48a3.82,3.82,0,0,0-1.44-.29,4.38,4.38,0,0,0-.51,0Z" transform="translate(-886.98 -816.03)"/><path class="cls-1" d="M938.71,945c-.18.76-.35,1.53-.51,2.29,0,.17-.07.33-.11.49l0,.14v0l-.18.87,0,.13-.15.76v0c0,.07,0,.14,0,.2-.37,1.87-.7,3.75-1,5.64-.11.69-.22,1.38-.32,2.08,0,0,0,.07,0,.1l-.06.47c0,.18-.06.36-.08.55s0,.09,0,.14l-.06.46c-.06.4-.11.81-.16,1.21a.77.77,0,0,0,0,.15c0,.12,0,.23,0,.34l0,.18v.15c0,.37-.09.74-.13,1.1a.43.43,0,0,0,0,.11q-.69,6.23-.95,12.5c0,.19,0,.38,0,.57l0,1c0,.24,0,.48,0,.71,0,0,0,.08,0,.11,0,.25,0,.5,0,.75v.08c0,.34,0,.68,0,1h0v.43c0,.06,0,.12,0,.18v1.58h0v.75c0,.25,0,.49,0,.74v.23c0,.38,0,.76,0,1.14a.38.38,0,0,0,0,.1c0,.64,0,1.29,0,1.93v.14c0,.21,0,.42,0,.63v0l0,.88a.41.41,0,0,0,0,.11c0,.32,0,.65,0,1v.1c0,.06,0,.12,0,.18v.07l.12,1.89v.11l0,.58c0,.21,0,.41,0,.62a.61.61,0,0,0,0,.14c0,.07,0,.13,0,.19a.57.57,0,0,1,0,.13c0,.2,0,.4.05.59v.06c0,.29,0,.59.08.88a.62.62,0,0,0,0,.13l.12,1.33,0,.21v.11c0,.41.09.81.13,1.21,0,0,0,.08,0,.12q.38,3.43.9,6.85v0c0,.12,0,.24,0,.35q.23,1.44.48,2.88h0l0,.23,0,.17v0c0,.18.06.37.1.56a.52.52,0,0,0,0,.11,2.93,2.93,0,0,0,0,.29l0,.11s0,.06,0,.09l.15.83c0,.13,0,.25.08.38l0,.12v.06l0,.1v0s0,.06,0,.08l.12.6,0,.21c0,.15.05.29.08.43v.05l.07.35a4,4,0,0,0,.2,1l0,.19c0,.17.07.35.11.52s.09.45.14.67a.65.65,0,0,0,0,.13q.85,3.94,1.91,7.83a1.33,1.33,0,0,1,.05.19c.15.52.29,1,.44,1.57a3.75,3.75,0,0,0,6.9.44,3.5,3.5,0,0,0,.38-1.62,4.8,4.8,0,0,0-.19-1.29c-.83-2.94-1.59-5.9-2.25-8.87l0-.16a3.35,3.35,0,0,0-.16-.68c0-.16-.07-.32-.1-.48v0a4,4,0,0,0-.08-.5,1.89,1.89,0,0,0-.05-.23,3.3,3.3,0,0,0-.13-.52c-.08-.4-.16-.79-.23-1.19l-.18-.92c-.08-.47-.17-.94-.25-1.41q-.46-2.7-.84-5.41c-.46-3.38-.82-6.78-1.07-10.18-.08-1.12-.15-2.24-.2-3.36v-.16c-.1-2.19-.17-4.38-.18-6.57v-.14c0-1.22,0-2.45,0-3.67l0-1.37c0-.21,0-.42,0-.63,0-1.1.08-2.2.14-3.3l0-.5h0c0-.42,0-.83.07-1.25l0-.38v-.09q.39-5.16,1.11-10.28V960c0-.18.05-.35.08-.53q.78-5.37,1.93-10.68c.16-.77.33-1.54.51-2.3a3.77,3.77,0,0,0-2.92-4.43,3.73,3.73,0,0,0-4.43,2.92Z" transform="translate(-886.98 -816.03)"/><path class="cls-1" d="M1086.42,1205.19a64.66,64.66,0,0,0-3.12,11.49c-.3,2.14-.54,4.28-.64,6.44-.08,1.87-.13,3.75-.16,5.63s-.06,3.92-.06,5.87.2,3.66.36,5.47c.36,4.12,1.13,8.18,1.72,12.27.28,1.91.75,3.8,1.11,5.7s.84,3.86,1.34,5.76,1,3.67,1.62,5.45c.58,1.62,1.24,3.2,1.84,4.81a72.68,72.68,0,0,0,5.09,10.69c.92,1.58,1.73,3.22,2.73,4.75a42.77,42.77,0,0,0,3.61,4.86,25.9,25.9,0,0,0,3.93,3.47c.48.37,1,.73,1.47,1.06a12.76,12.76,0,0,0,2.72,1.28,19.7,19.7,0,0,0,4.24.79,3.62,3.62,0,0,0,2.65-1.1,3.75,3.75,0,0,0,0-5.31l-.75-.58a3.73,3.73,0,0,0-1.9-.51h0a13.26,13.26,0,0,1-2.32-.55,14.37,14.37,0,0,1-1.63-1l-.9-.68a25,25,0,0,1-2.58-2.57c-.66-.87-1.31-1.76-1.91-2.68-.85-1.31-1.61-2.67-2.35-4s-1.62-2.85-2.4-4.3c-.61-1.15-1.15-2.33-1.68-3.52-.9-2.26-1.74-4.55-2.63-6.82-.52-1.3-.84-2.69-1.23-4s-.77-3-1.13-4.48-.65-3-.94-4.45-.61-2.86-.82-4.31c-.37-2.56-.82-5.1-1.19-7.66q-.29-2.86-.49-5.76c-.15-2.06-.08-4.14,0-6.21.06-3.9.13-7.81.56-11.69a45.75,45.75,0,0,1,1.15-5.29c.57-2.09,1.29-4.15,2-6.2a3.76,3.76,0,0,0-2.62-4.61,3.38,3.38,0,0,0-1-.14,3.88,3.88,0,0,0-3.62,2.75Z" transform="translate(-886.98 -816.03)"/><path class="cls-1" d="M1025,818.15h0c-2.29.31-4.59.67-6.87,1.09l-.19,0-.22,0-.37.07h-.11l-.18,0H1017l-.26,0-.45.09-.08,0-.15,0c-.75.15-1.5.31-2.24.48s-1.69.38-2.53.59l-1.68.42-.13,0-.78.2-.07,0-.09,0c-.3.08-.59.15-.88.24h-.06l-.34.09-.13,0-.05,0-.35.09-.05,0h0l-.55.15-.15,0q-3.23.93-6.39,2l-.17.06-.09,0-.09,0-.92.33-.14,0c-.34.11-.68.24-1,.36l-.13,0-.1,0-.2.08-.16.06c-1.88.69-3.73,1.43-5.57,2.19l-.06,0a3.57,3.57,0,0,0-.88.37l-.79.33a3.61,3.61,0,0,0-.81.35l-.1,0-.08,0-.78.35-.2.08-.45.2-.08,0q-2.87,1.31-5.67,2.71l-.12.06-.66.34-.06,0-.06,0-.12.06-.24.12-.43.23-.07,0c-.31.16-.63.32-.93.49l-.11.06-.45.24-.1.05c-1.86,1-3.7,2-5.51,3.14l-.12.07-.18.11-.53.32-.08,0-.86.52-.1.06-.29.18-.22.14-.1.07-.19.11-.06,0-.33.21c-1.63,1-3.24,2.1-4.82,3.19a3.93,3.93,0,0,0-1.72,2.24,3.75,3.75,0,0,0,5.5,4.23q2.32-1.59,4.69-3.1l0,0,.17-.1.64-.41.44-.27,1.29-.79q3.25-2,6.6-3.77l1.26-.66,1.32-.68q3.06-1.54,6.2-3l.59-.26a3.68,3.68,0,0,0,.74-.32,2.53,2.53,0,0,0,.48-.19,2.67,2.67,0,0,0,.42-.2l.07,0a137.76,137.76,0,0,1,13.83-4.93c1.11-.34,2.23-.65,3.35-1a137.92,137.92,0,0,1,14.13-3l.79-.12,1-.15a10.86,10.86,0,0,1-1.08-4.65,10.59,10.59,0,0,1,.36-2.75l-.42,0Z" transform="translate(-886.98 -816.03)"/><path class="cls-1" d="M1039.78,817l-1,0h-.67l-.63,0h-.61l-.43,0-.57,0-.76,0-.21,0c-1.85.11-3.69.26-5.54.45h0l-.14,0-.52.06-.21,0h-.07l-.82.09h-.13l-.42,0-.27,0h-.25l-.39.06-.19,0-.13,0c-1.5.2-3,.41-4.49.65-1,.17-2.07.35-3.11.54l-.1,0-.11,0h0l-.47.09h-.06l-.08,0-.13,0-.2,0-.86.18-.08,0-.55.11h0c-.6.12-1.2.25-1.79.39-.86.19-1.71.39-2.56.6h-.06l-.38.09-.29.07-.06,0-.87.22h0l-.15,0-.26.07H1009l-.05,0h-.06l-.1,0-1.18.32h0l-.82.23-.12,0-.13,0-.57.16-.12,0-2,.59h0l-.23.07-1.62.51-.16.06-1.61.53-.09,0a147.19,147.19,0,0,0-28.06,13L972,837a155,155,0,0,0-23.72,17.67,150.8,150.8,0,0,0-13.5,14q-1.56,1.83-3.07,3.71l-.17.22-.06.08,0,0-.54.69c-1.43,1.81-2.81,3.64-4.16,5.5-.05.07-.09.15-.14.23l-.15.21c-.11.13-.21.27-.32.42-.42.59-.83,1.18-1.24,1.78a10.79,10.79,0,0,1,6.31,4q2.13-3.1,4.41-6.11l.22-.29.07-.09,0,0,.58-.73a152.67,152.67,0,0,1,25.66-25.53,150.91,150.91,0,0,1,13.67-9.31l0,0a145.07,145.07,0,0,1,17.48-8.91c2.9-1.2,5.82-2.3,8.79-3.3h0c2.68-.9,5.39-1.72,8.11-2.46l.59-.16h.05l.47-.12.07,0,.17,0a132.83,132.83,0,0,1,14.66-2.9l.19,0,.94-.11.46-.06.77-.08.57-.07h.1l.47,0,.28,0,.28,0,.37,0,.19,0,.35,0h.23l.4,0,.21,0,.49,0h.08c1.76-.14,3.53-.24,5.3-.3h.34q3.18-.1,6.38,0l1.57,0,1,0h0l.9,0h0l1.41.08h.35l1.94.14a3.6,3.6,0,0,0,2.65-1.1,3.74,3.74,0,0,0,0-5.3,4,4,0,0,0-2.65-1.1l-1.91-.14-.35,0h0l-1.49-.08h-.3l-.55,0h-.1l-.72,0-.35,0h-.74l-.74,0h-2.4c-.78,0-1.57,0-2.35,0Z" transform="translate(-886.98 -816.03)"/><path class="cls-1" d="M921.14,1022.74a10.77,10.77,0,0,1-3.57,1.29,3.77,3.77,0,0,0,4.85,1,3.83,3.83,0,0,0,1.59-4.67,11.13,11.13,0,0,1-2.87,2.42Z" transform="translate(-886.98 -816.03)"/><path class="cls-1" d="M935.22,868c-1.21,1.42-2.4,2.85-3.57,4.31-.07.09-.15.18-.21.27a155.66,155.66,0,0,0-12.07,17.45l-.08.13-.09.16h0l0,.06a1,1,0,0,0-.1.17l-.2.34-.06.1-.93,1.62,0,.09,0,.08,0,.06-.12.2-.16.29,0,.08-.06.1v0c-1.33,2.41-2.6,4.86-3.79,7.34a.75.75,0,0,0-.07.12c-.25.54-.51,1.07-.76,1.61a1.47,1.47,0,0,1-.1.22,147.39,147.39,0,0,0-8.78,24.35A136.59,136.59,0,0,0,899.68,954a119.61,119.61,0,0,0,8.09,51.12l0,.08c0,.08.07.16.1.25s.08.18.11.27l.06.14c1.13,2.73,2.33,5.43,3.65,8.08l.07.12q2,3.93,4.29,7.68a.54.54,0,0,0,.07.13l.06.09h0l0,0,0,0,0,.08h0l0,.06,0,.06a3.75,3.75,0,0,0,6.48-3.79h0a.41.41,0,0,0-.07-.11l-.07-.11a.41.41,0,0,0-.05-.09c-1.67-2.69-3.2-5.47-4.62-8.3a.16.16,0,0,0,0-.07c-.91-1.84-1.76-3.7-2.57-5.59-.11-.25-.21-.5-.31-.75A114.62,114.62,0,0,1,908,976.47a126.76,126.76,0,0,1,.08-31.92,138.74,138.74,0,0,1,9.21-33.69q1.1-2.57,2.28-5.1l0-.08,0-.11,0-.08q2-4.18,4.23-8.23l.24-.43c.19-.35.39-.7.59-1.05a.43.43,0,0,1,0-.07c.18-.33.37-.65.56-1h0l.1-.17c.11-.19.22-.38.34-.57v0a152.1,152.1,0,0,1,10-14.8l1.18-1.5v0l.06-.07q1.72-2.15,3.51-4.24a3.92,3.92,0,0,0,1.1-2.65,3.76,3.76,0,0,0-3.75-3.75,3.66,3.66,0,0,0-2.65,1.1Zm-17.64,42.05-.15.36.15-.36Zm-2.3,93.7a1.89,1.89,0,0,0,.11.25c0-.08-.07-.16-.11-.25Z" transform="translate(-886.98 -816.03)"/><path class="cls-1" d="M930.64,873.63a163.77,163.77,0,0,0-9.47,13.47c-2.44,3.9-4.67,7.93-6.73,12a.36.36,0,0,0,0,.09,2.8,2.8,0,0,0-.15.3l0,.08a148.54,148.54,0,0,0-9.58,24.77,137.57,137.57,0,0,0-4.49,23.73s0,.1,0,.15l-.06.59v0l0,.2s0,.09,0,.14l0,.22a2.11,2.11,0,0,0,0,.26.13.13,0,0,0,0,.06c0,.21,0,.43-.05.64v0l0,.31,0,.35v.09c-.22,2.78-.34,5.57-.38,8.36v.15c0,.1,0,.21,0,.31v.44q0,3.81.2,7.62a.41.41,0,0,1,0,.11l0,.59c0,.06,0,.13,0,.19q.25,3.93.77,7.83c0,.34.09.67.13,1v0c.41,2.94.89,5.87,1.5,8.78a.59.59,0,0,0,0,.13l.06.29c0,.11,0,.23.08.34v0l0,.12v0a.24.24,0,0,0,0,.08c0,.22.09.43.14.64l0,.15,0,.11c0,.11,0,.21.07.32l.07.3,0,.12a115.48,115.48,0,0,0,5.78,17.7,3.43,3.43,0,0,0,.34.79q.95,2.22,2,4.39l.69,1.42,0,.07c.06.11.11.22.16.33s.14.26.2.39h0l.05.1.12.22a2.59,2.59,0,0,0,.14.29l.07.12,0,.05,0,.07,0,.07.14.25.18.36,0,0,0,0,.06.12c.14.27.29.54.44.81l.06.12c.09.17.19.33.28.49l.09.19,1.11,2c.36.61.73,1.22,1.1,1.83l.42.69.06.09h0l0,.06,0,.05,0,.08c.09.13.17.27.25.4l.06.09.14.22,0,.07a3.45,3.45,0,0,0,.2.32l.11.17.06.09,0,.05v0l.19.29,0,.06.3.45h0l0,0,.06.09.13.19.05.07,0,.09,0,0,.06.1.17.25.11.16.41.6a3.93,3.93,0,0,0,2.24,1.72,3.75,3.75,0,0,0,4.24-5.5c-.38-.55-.75-1.1-1.12-1.66l-.06-.09h0c-.12-.19-.24-.38-.37-.57l-.26-.4-1.17-1.86c-.89-1.46-1.76-2.95-2.58-4.45-.32-.59-.64-1.17-1-1.76-1.28-2.46-2.46-5-3.56-7.5a114.09,114.09,0,0,1-5.64-17.66l-.21-.94h0v0a.3.3,0,0,0,0-.1l0-.14h0v0l-.09-.4,0-.17q-.85-4.07-1.43-8.19h0l0-.18q-.5-3.95-.74-7.94t-.23-8.14c0-3.37.18-6.74.47-10.11v0c0-.18,0-.37,0-.55s0-.18,0-.27l.06-.61c.15-1.5.32-3,.52-4.49a138.78,138.78,0,0,1,9.26-33.58q1.59-3.71,3.37-7.32a150.09,150.09,0,0,1,15.21-24.37h0l.59-.76a3.67,3.67,0,0,0,.51-1.89,3.76,3.76,0,0,0-3.75-3.75,3.56,3.56,0,0,0-2.65,1.1Zm5.25,5.38-.35.45.35-.45Zm-18.31,31.08c0,.09-.07.18-.1.26,0-.08.07-.17.1-.26Z" transform="translate(-886.98 -816.03)"/><path class="cls-1" d="M1234.28,1141.69a3.78,3.78,0,0,0-2.56,1.3,3.55,3.55,0,0,0-.89,2.73,25.67,25.67,0,0,0,.72,3.24,18.29,18.29,0,0,0,.74,1.85c.61,1.36,1.3,2.68,2,4l.6,1.17h0l-.07-.14.07.14a3.78,3.78,0,0,0,.38.75c.86,1.77,1.67,3.57,2.65,5.3s2.12,3.47,3.12,5.25,2.06,3.36,3,5.07c.87,1.54,1.74,3.08,2.55,4.65.14.25.27.51.4.76,0-.08-.08-.16-.13-.24.25.46.49.93.74,1.4l.19.37c.86,1.72,1.83,3.37,2.73,5.08-.14-.29-.29-.58-.44-.87.67,1.32,1.43,2.59,2.14,3.89.32.67.58,1.38.92,2,.46.93,1,1.82,1.46,2.73.62,1.15,1.27,2.27,1.88,3.42s1.06,2.16,1.67,3.19c.38.66.81,1.3,1.21,2a22,22,0,0,0,1.21,2c.46.6,1,1.19,1.45,1.76.25.29.46.62.7.92a7.74,7.74,0,0,0,2.07,1.84,3.64,3.64,0,0,0,2.91.15,3.76,3.76,0,0,0,2.1-1.88,3.82,3.82,0,0,0,.16-2.91,3.46,3.46,0,0,0-1.16-1.59l0-.06,0,0-.07-.06-.26-.37c-.2-.26-.41-.5-.63-.74a20,20,0,0,1-2-2.81c-.63-1.11-1.35-2.16-2-3.28-.67-1.34-1.34-2.69-2.09-4-.57-1-1.15-2-1.7-3.06-.56-1.18-1-2.38-1.69-3.53-.52-.94-1.07-1.86-1.58-2.81l.45.87c-.71-1.38-1.49-2.7-2.22-4.06-.26-.52-.52-1-.79-1.56.15.29.3.58.44.87q-.65-1.29-1.32-2.55l-.24-.47c-1.43-2.77-3-5.45-4.61-8.12-1-1.71-2-3.46-3-5.17-.66-1.1-1.34-2.2-2-3.34s-1-2.18-1.55-3.25c-.18-.35-.3-.63-.45-.89l-1.29-2.47a23,23,0,0,1-1.86-4.57l-.09-.46-.21-1a3.66,3.66,0,0,0-1.09-1.57,3.71,3.71,0,0,0-2.44-.91Zm7,10.52.21.41h0l-.21-.41Zm5.25,24.7c.07.12.13.25.2.38-.07-.13-.13-.26-.2-.38Zm8.72.68.12.22-.12-.22Zm13.26,23.19.17.12,0,0-.22-.17Z" transform="translate(-886.98 -816.03)"/><path class="cls-1" d="M1246.41,1131.26c-.44,3.06-.59,6.14-.88,9.21-.16,1.7-.23,3.4-.43,5.09-.19,1.5-.23,3-.3,4.49-.08,1-.2,2.07-.27,3.1-.1,1.3-.1,2.6-.16,3.9l-.06,1.06-.09,1.32c-.1,1.38-.26,2.76-.29,4.15s-.06,2.91-.12,4.36l.06-1c-.09,1.38-.12,2.76-.17,4.14-.07.88-.14,1.76-.15,2.64,0,.73,0,1.45,0,2.18a29.86,29.86,0,0,0-.12,3.14c0,.42,0,.84.08,1.26a3.7,3.7,0,0,0,.69,2.08,4.58,4.58,0,0,0,.8.83,5,5,0,0,0,2.19,1,8.28,8.28,0,0,0,.81.24,7.83,7.83,0,0,0,1.53.11c.28,0,.56,0,.83,0l1.14.09-1-.06c.45.05.86.18,1.3.27s1.18.19,1.76.32c1.23.27,2.42.69,3.61,1.07l.34.11-.29-.1,1.17.39a54.8,54.8,0,0,0,5.65,1.54,55.62,55.62,0,0,0,5.89,1,31,31,0,0,1,5.73,1c.8.23,1.61.42,2.41.64a6.81,6.81,0,0,0,1,.2c.33,0,.64.15,1,.21l-.2-.07.25.08a3.75,3.75,0,0,0,4.25-5,3.53,3.53,0,0,0-1.89-2.1c-.53-.18-1-.32-1.56-.47-.33-.09-.71-.1-1.05-.18-.76-.16-1.5-.42-2.25-.59s-1.69-.46-2.56-.63-2-.32-3-.44a56.22,56.22,0,0,1-5.63-.85c-.93-.21-1.87-.37-2.79-.64-.76-.22-1.54-.36-2.3-.58l-1.71-.57c-1.45-.5-2.93-1-4.42-1.37-.67-.16-1.34-.23-2-.37-.23,0-.46-.13-.7-.18a6.77,6.77,0,0,0-1-.12l-.59-.07c.06-.78.12-1.55.14-2.33s0-1.43,0-2.15.12-1.4.14-2.11,0-1.43,0-2.14v.18c.1-2,.12-3.95.2-5.93.09-1.12.2-2.23.27-3.35,0,.25,0,.5,0,.75,0-.62.07-1.23.11-1.85,0-.16,0-.33,0-.49v0c0-1.12.09-2.25.13-3.38.07-.89.18-1.78.24-2.67.09-1.12.11-2.25.15-3.37s.25-2.24.35-3.37c.13-1.44.24-2.9.35-4.35.2-2.62.4-5.25.77-7.85a3.7,3.7,0,0,0-3.63-4.47,3.73,3.73,0,0,0-3.73,3Zm13.3,48,.7.23-.68-.23Zm19.42,11.66h0l.2.07-.25-.08Zm-21.29-4.45-.33-.11.33.11Z" transform="translate(-886.98 -816.03)"/><path class="cls-1" d="M908.36,1022.11a3.77,3.77,0,0,0-3.45,4,32.34,32.34,0,0,0,.64,4c.15.66.33,1.3.49,1.95a20,20,0,0,1,.36,3.17c0,.5,0,1,0,1.52s0,1.12,0,1.67l-.12,1.81c-.11.74-.36,1.45-.43,2.2-.05.43-.14.85-.19,1.28s0,.59-.1.88a36.85,36.85,0,0,1-2.43,4.87c-.43,0-.86.09-1.29.11s-1.06-.08-1.58-.1c-1-.09-2.08-.21-3.13-.2a9.42,9.42,0,0,0-3.83.64,10.82,10.82,0,0,0-3.33,2.35,9.88,9.88,0,0,0-.83,1,6.32,6.32,0,0,0-1.17,1.81,16.82,16.82,0,0,0-.83,3.21,18.82,18.82,0,0,0-.08,3.6c.11,1.93.08,4,.93,5.8a10.46,10.46,0,0,0,1.49,2.38,8.2,8.2,0,0,0,2.21,1.9,4.57,4.57,0,0,0,1.33.46,5,5,0,0,0,1.18.34,9.83,9.83,0,0,0,2.1,0c.45,0,.9-.07,1.36-.1l.36.08c0,.36.08.71.11,1.06s.1.92.11,1.37c-.05.62-.09,1.25-.11,1.87,0,.37,0,.74,0,1.11a25,25,0,0,0-.14,3.24c0,.77.1,1.54.16,2.31,0,.46.07.93.1,1.39a11.15,11.15,0,0,0,.3,1.79c.07.32.24.62.32,1a14.57,14.57,0,0,0,1.63,3.4l-.33-.64a9.18,9.18,0,0,0,1,1.64l-.13-.14.11.12c.09.12.19.23.29.34l.24.25-.07-.09a3.64,3.64,0,0,0,1.9,1,3.76,3.76,0,0,0,4.4-3,3.67,3.67,0,0,0-.59-2.86c-.08-.09-.16-.19-.25-.28a4.72,4.72,0,0,1-.36-.55l.08.17c-.14-.25-.28-.5-.43-.74s-.2-.49-.3-.75a6,6,0,0,1-.22-.72c0-.13-.09-.25-.14-.38-.08-.83-.12-1.67-.18-2.5s-.11-1.6-.11-2.4a14.57,14.57,0,0,0,.16-2c0-.48,0-1,0-1.45a13.24,13.24,0,0,0,.06-2.18c0-.57-.08-1.15-.15-1.71a11.67,11.67,0,0,0-.49-2.42,10.94,10.94,0,0,0-.71-1.46,3.84,3.84,0,0,0-.5-.74l.1.12a12.63,12.63,0,0,0-1.07-1.27,3.55,3.55,0,0,0-1.46-.82,4.71,4.71,0,0,0-1.13-.42,4.25,4.25,0,0,0-.8-.07c-.28-.06-.54-.14-.81-.17a9.52,9.52,0,0,0-1.77,0l-1.42.12-.25-.09c-.12-.15-.22-.31-.33-.47s-.11-.29-.16-.44c-.08-.67-.08-1.36-.13-2-.05-.82-.12-1.65-.11-2.47a7.1,7.1,0,0,1,.17-.92c.08-.29.13-.59.19-.88a8.91,8.91,0,0,1,.7-.8,5.16,5.16,0,0,1,.61-.43l.06,0a14.76,14.76,0,0,1,1.88,0q.39,0,.78.09c.6.07,1.21.08,1.82.1a9.61,9.61,0,0,0,1.61.11l1.14-.09a11.93,11.93,0,0,0,2.58-.52c2.3-.79,3.38-2.9,4.51-4.86a37.42,37.42,0,0,0,1.69-3.56,13.19,13.19,0,0,0,.66-1.82A7.62,7.62,0,0,0,913,1045a15.87,15.87,0,0,1,.39-2.29,10,10,0,0,0,.29-2.43c.08-1,.16-2.08.14-3.12s.1-1.82,0-2.72-.2-2-.37-3-.49-2.18-.76-3.26c-.15-.87-.26-1.74-.36-2.62a3.81,3.81,0,0,0-3.73-3.47l-.29,0Z" transform="translate(-886.98 -816.03)"/></g></svg>