<svg id="レイヤー_1" data-name="レイヤー 1" xmlns="http://www.w3.org/2000/svg" viewBox="0 0 130.07 211.71"><defs><style>.cls-1{fill:none;}.cls-1,.cls-3{stroke:#666B68;stroke-miterlimit:10;stroke-width:2px;}.cls-2,.cls-3{fill:#666B68;}.cls-4{font-size:21.19px;fill:#fff;font-family:Bungee-Regular, Bungee;}</style></defs><title>webicon2</title><circle class="cls-1" cx="65.03" cy="47.5" r="28.44"/><path class="cls-2" d="M156.56,108.07a15.32,15.32,0,0,0,0,30.64Z" transform="translate(-129.84 -75.89)"/><path class="cls-2" d="M231.4,138.71a15.32,15.32,0,0,0,0-30.64Z" transform="translate(-129.84 -75.89)"/><path class="cls-1" d="M229.64,97.65C221,83,204.87,75,189.13,77.27c-18.92,2.74-28,19-29,20.92" transform="translate(-129.84 -75.89)"/><polygon class="cls-3" points="65.03 92.85 1.73 202.49 128.33 202.49 65.03 92.85"/><polygon class="cls-1" points="65.03 202.49 128.33 92.85 1.73 92.85 65.03 202.49"/><text class="cls-4" transform="translate(26.73 192.34) scale(0.8 1)">SACHIKO</text></svg>